o 3001
v 0.0104000 0.0000000 -0.0016000
v 0.0102174 0.0009185 -0.0016000
v 0.0102174 0.0009185 -0.0096000
v 0.0104000 0.0000000 -0.0096000
v 0.0096970 0.0016970 -0.0016000
v 0.0096970 0.0016970 -0.0096000
v 0.0089185 0.0022174 -0.0016000
v 0.0089185 0.0022174 -0.0096000
v 0.0080000 0.0024000 -0.0016000
v 0.0080000 0.0024000 -0.0096000
v 0.0070815 0.0022174 -0.0016000
v 0.0070815 0.0022174 -0.0096000
v 0.0063030 0.0016970 -0.0016000
v 0.0063030 0.0016970 -0.0096000
v 0.0057826 0.0009185 -0.0016000
v 0.0057826 0.0009185 -0.0096000
v 0.0056000 0.0000000 -0.0016000
v 0.0056000 0.0000000 -0.0096000
v 0.0057826 -0.0009185 -0.0016000
v 0.0057826 -0.0009185 -0.0096000
v 0.0063030 -0.0016970 -0.0016000
v 0.0063030 -0.0016970 -0.0096000
v 0.0070815 -0.0022174 -0.0016000
v 0.0070815 -0.0022174 -0.0096000
v 0.0080000 -0.0024000 -0.0016000
v 0.0080000 -0.0024000 -0.0096000
v 0.0089185 -0.0022174 -0.0016000
v 0.0089185 -0.0022174 -0.0096000
v 0.0096970 -0.0016970 -0.0016000
v 0.0096970 -0.0016970 -0.0096000
v 0.0102174 -0.0009185 -0.0016000
v 0.0102174 -0.0009185 -0.0096000
v 0.0112000 0.0000000 -0.0016000
v 0.0109565 0.0012246 -0.0016000
v 0.0109565 0.0012246 -0.0096000
v 0.0112000 0.0000000 -0.0096000
v 0.0102627 0.0022627 -0.0016000
v 0.0102627 0.0022627 -0.0096000
v 0.0092246 0.0029565 -0.0016000
v 0.0092246 0.0029565 -0.0096000
v 0.0080000 0.0032000 -0.0016000
v 0.0080000 0.0032000 -0.0096000
v 0.0067754 0.0029565 -0.0016000
v 0.0067754 0.0029565 -0.0096000
v 0.0057373 0.0022627 -0.0016000
v 0.0057373 0.0022627 -0.0096000
v 0.0050435 0.0012246 -0.0016000
v 0.0050435 0.0012246 -0.0096000
v 0.0048000 0.0000000 -0.0016000
v 0.0048000 0.0000000 -0.0096000
v 0.0050435 -0.0012246 -0.0016000
v 0.0050435 -0.0012246 -0.0096000
v 0.0057373 -0.0022627 -0.0016000
v 0.0057373 -0.0022627 -0.0096000
v 0.0067754 -0.0029565 -0.0016000
v 0.0067754 -0.0029565 -0.0096000
v 0.0080000 -0.0032000 -0.0016000
v 0.0080000 -0.0032000 -0.0096000
v 0.0092246 -0.0029565 -0.0016000
v 0.0092246 -0.0029565 -0.0096000
v 0.0102627 -0.0022627 -0.0016000
v 0.0102627 -0.0022627 -0.0096000
v 0.0109565 -0.0012246 -0.0016000
v 0.0109565 -0.0012246 -0.0096000
v 0.0024000 0.0000000 -0.0016000
v 0.0022174 0.0009185 -0.0016000
v 0.0022174 0.0009185 -0.0096000
v 0.0024000 0.0000000 -0.0096000
v 0.0016970 0.0016970 -0.0016000
v 0.0016970 0.0016970 -0.0096000
v 0.0009185 0.0022174 -0.0016000
v 0.0009185 0.0022174 -0.0096000
v 0.0000000 0.0024000 -0.0016000
v 0.0000000 0.0024000 -0.0096000
v -0.0009185 0.0022174 -0.0016000
v -0.0009185 0.0022174 -0.0096000
v -0.0016970 0.0016970 -0.0016000
v -0.0016970 0.0016970 -0.0096000
v -0.0022174 0.0009185 -0.0016000
v -0.0022174 0.0009185 -0.0096000
v -0.0024000 0.0000000 -0.0016000
v -0.0024000 0.0000000 -0.0096000
v -0.0022174 -0.0009185 -0.0016000
v -0.0022174 -0.0009185 -0.0096000
v -0.0016970 -0.0016970 -0.0016000
v -0.0016970 -0.0016970 -0.0096000
v -0.0009185 -0.0022174 -0.0016000
v -0.0009185 -0.0022174 -0.0096000
v 0.0000000 -0.0024000 -0.0016000
v 0.0000000 -0.0024000 -0.0096000
v 0.0009185 -0.0022174 -0.0016000
v 0.0009185 -0.0022174 -0.0096000
v 0.0016970 -0.0016970 -0.0016000
v 0.0016970 -0.0016970 -0.0096000
v 0.0022174 -0.0009185 -0.0016000
v 0.0022174 -0.0009185 -0.0096000
v 0.0032000 0.0000000 -0.0016000
v 0.0029565 0.0012246 -0.0016000
v 0.0029565 0.0012246 -0.0096000
v 0.0032000 0.0000000 -0.0096000
v 0.0022627 0.0022627 -0.0016000
v 0.0022627 0.0022627 -0.0096000
v 0.0012246 0.0029565 -0.0016000
v 0.0012246 0.0029565 -0.0096000
v 0.0000000 0.0032000 -0.0016000
v 0.0000000 0.0032000 -0.0096000
v -0.0012246 0.0029565 -0.0016000
v -0.0012246 0.0029565 -0.0096000
v -0.0022627 0.0022627 -0.0016000
v -0.0022627 0.0022627 -0.0096000
v -0.0029565 0.0012246 -0.0016000
v -0.0029565 0.0012246 -0.0096000
v -0.0032000 0.0000000 -0.0016000
v -0.0032000 0.0000000 -0.0096000
v -0.0029565 -0.0012246 -0.0016000
v -0.0029565 -0.0012246 -0.0096000
v -0.0022627 -0.0022627 -0.0016000
v -0.0022627 -0.0022627 -0.0096000
v -0.0012246 -0.0029565 -0.0016000
v -0.0012246 -0.0029565 -0.0096000
v 0.0000000 -0.0032000 -0.0016000
v 0.0000000 -0.0032000 -0.0096000
v 0.0012246 -0.0029565 -0.0016000
v 0.0012246 -0.0029565 -0.0096000
v 0.0022627 -0.0022627 -0.0016000
v 0.0022627 -0.0022627 -0.0096000
v 0.0029565 -0.0012246 -0.0016000
v 0.0029565 -0.0012246 -0.0096000
v -0.0056000 0.0000000 -0.0016000
v -0.0057826 0.0009185 -0.0016000
v -0.0057826 0.0009185 -0.0096000
v -0.0056000 0.0000000 -0.0096000
v -0.0063030 0.0016970 -0.0016000
v -0.0063030 0.0016970 -0.0096000
v -0.0070815 0.0022174 -0.0016000
v -0.0070815 0.0022174 -0.0096000
v -0.0080000 0.0024000 -0.0016000
v -0.0080000 0.0024000 -0.0096000
v -0.0089185 0.0022174 -0.0016000
v -0.0089185 0.0022174 -0.0096000
v -0.0096970 0.0016970 -0.0016000
v -0.0096970 0.0016970 -0.0096000
v -0.0102174 0.0009185 -0.0016000
v -0.0102174 0.0009185 -0.0096000
v -0.0104000 0.0000000 -0.0016000
v -0.0104000 0.0000000 -0.0096000
v -0.0102174 -0.0009185 -0.0016000
v -0.0102174 -0.0009185 -0.0096000
v -0.0096970 -0.0016970 -0.0016000
v -0.0096970 -0.0016970 -0.0096000
v -0.0089185 -0.0022174 -0.0016000
v -0.0089185 -0.0022174 -0.0096000
v -0.0080000 -0.0024000 -0.0016000
v -0.0080000 -0.0024000 -0.0096000
v -0.0070815 -0.0022174 -0.0016000
v -0.0070815 -0.0022174 -0.0096000
v -0.0063030 -0.0016970 -0.0016000
v -0.0063030 -0.0016970 -0.0096000
v -0.0057826 -0.0009185 -0.0016000
v -0.0057826 -0.0009185 -0.0096000
v -0.0048000 0.0000000 -0.0016000
v -0.0050435 0.0012246 -0.0016000
v -0.0050435 0.0012246 -0.0096000
v -0.0048000 0.0000000 -0.0096000
v -0.0057373 0.0022627 -0.0016000
v -0.0057373 0.0022627 -0.0096000
v -0.0067754 0.0029565 -0.0016000
v -0.0067754 0.0029565 -0.0096000
v -0.0080000 0.0032000 -0.0016000
v -0.0080000 0.0032000 -0.0096000
v -0.0092246 0.0029565 -0.0016000
v -0.0092246 0.0029565 -0.0096000
v -0.0102627 0.0022627 -0.0016000
v -0.0102627 0.0022627 -0.0096000
v -0.0109565 0.0012246 -0.0016000
v -0.0109565 0.0012246 -0.0096000
v -0.0112000 0.0000000 -0.0016000
v -0.0112000 0.0000000 -0.0096000
v -0.0109565 -0.0012246 -0.0016000
v -0.0109565 -0.0012246 -0.0096000
v -0.0102627 -0.0022627 -0.0016000
v -0.0102627 -0.0022627 -0.0096000
v -0.0092246 -0.0029565 -0.0016000
v -0.0092246 -0.0029565 -0.0096000
v -0.0080000 -0.0032000 -0.0016000
v -0.0080000 -0.0032000 -0.0096000
v -0.0067754 -0.0029565 -0.0016000
v -0.0067754 -0.0029565 -0.0096000
v -0.0057373 -0.0022627 -0.0016000
v -0.0057373 -0.0022627 -0.0096000
v -0.0050435 -0.0012246 -0.0016000
v -0.0050435 -0.0012246 -0.0096000
v -0.0144000 0.0064000 -0.0016000
v 0.0144000 0.0064000 -0.0016000
v 0.0144000 -0.0064000 -0.0016000
v -0.0144000 -0.0064000 -0.0016000
v -0.0144000 0.0064000 -0.0096000
v 0.0144000 0.0064000 -0.0096000
v -0.0144000 -0.0064000 -0.0096000
v 0.0144000 -0.0064000 -0.0096000
v 0.0160000 0.0080000 -0.0096000
v -0.0160000 0.0080000 -0.0096000
v -0.0160000 -0.0080000 -0.0096000
v 0.0160000 -0.0080000 -0.0096000
v -0.0160000 0.0080000 -0.0000000
v 0.0160000 0.0080000 -0.0000000
v 0.0160000 -0.0080000 -0.0000000
v -0.0160000 -0.0080000 -0.0000000
v 0.0144000 0.0040000 0.0016000
v 0.0142174 0.0049185 0.0016000
v 0.0142174 0.0049185 -0.0000000
v 0.0144000 0.0040000 -0.0000000
v 0.0136970 0.0056970 0.0016000
v 0.0136970 0.0056970 -0.0000000
v 0.0129185 0.0062174 0.0016000
v 0.0129185 0.0062174 -0.0000000
v 0.0120000 0.0064000 0.0016000
v 0.0120000 0.0064000 -0.0000000
v 0.0110815 0.0062174 0.0016000
v 0.0110815 0.0062174 -0.0000000
v 0.0103030 0.0056970 0.0016000
v 0.0103030 0.0056970 -0.0000000
v 0.0097826 0.0049185 0.0016000
v 0.0097826 0.0049185 -0.0000000
v 0.0096000 0.0040000 0.0016000
v 0.0096000 0.0040000 -0.0000000
v 0.0097826 0.0030815 0.0016000
v 0.0097826 0.0030815 -0.0000000
v 0.0103030 0.0023030 0.0016000
v 0.0103030 0.0023030 -0.0000000
v 0.0110815 0.0017826 0.0016000
v 0.0110815 0.0017826 -0.0000000
v 0.0120000 0.0016000 0.0016000
v 0.0120000 0.0016000 -0.0000000
v 0.0129185 0.0017826 0.0016000
v 0.0129185 0.0017826 -0.0000000
v 0.0136970 0.0023030 0.0016000
v 0.0136970 0.0023030 -0.0000000
v 0.0142174 0.0030815 0.0016000
v 0.0142174 0.0030815 -0.0000000
v 0.0120000 0.0040000 0.0016000
v 0.0064000 0.0040000 0.0016000
v 0.0062174 0.0049185 0.0016000
v 0.0062174 0.0049185 -0.0000000
v 0.0064000 0.0040000 -0.0000000
v 0.0056970 0.0056970 0.0016000
v 0.0056970 0.0056970 -0.0000000
v 0.0049185 0.0062174 0.0016000
v 0.0049185 0.0062174 -0.0000000
v 0.0040000 0.0064000 0.0016000
v 0.0040000 0.0064000 -0.0000000
v 0.0030815 0.0062174 0.0016000
v 0.0030815 0.0062174 -0.0000000
v 0.0023030 0.0056970 0.0016000
v 0.0023030 0.0056970 -0.0000000
v 0.0017826 0.0049185 0.0016000
v 0.0017826 0.0049185 -0.0000000
v 0.0016000 0.0040000 0.0016000
v 0.0016000 0.0040000 -0.0000000
v 0.0017826 0.0030815 0.0016000
v 0.0017826 0.0030815 -0.0000000
v 0.0023030 0.0023030 0.0016000
v 0.0023030 0.0023030 -0.0000000
v 0.0030815 0.0017826 0.0016000
v 0.0030815 0.0017826 -0.0000000
v 0.0040000 0.0016000 0.0016000
v 0.0040000 0.0016000 -0.0000000
v 0.0049185 0.0017826 0.0016000
v 0.0049185 0.0017826 -0.0000000
v 0.0056970 0.0023030 0.0016000
v 0.0056970 0.0023030 -0.0000000
v 0.0062174 0.0030815 0.0016000
v 0.0062174 0.0030815 -0.0000000
v 0.0040000 0.0040000 0.0016000
v -0.0016000 0.0040000 0.0016000
v -0.0017826 0.0049185 0.0016000
v -0.0017826 0.0049185 -0.0000000
v -0.0016000 0.0040000 -0.0000000
v -0.0023030 0.0056970 0.0016000
v -0.0023030 0.0056970 -0.0000000
v -0.0030815 0.0062174 0.0016000
v -0.0030815 0.0062174 -0.0000000
v -0.0040000 0.0064000 0.0016000
v -0.0040000 0.0064000 -0.0000000
v -0.0049185 0.0062174 0.0016000
v -0.0049185 0.0062174 -0.0000000
v -0.0056970 0.0056970 0.0016000
v -0.0056970 0.0056970 -0.0000000
v -0.0062174 0.0049185 0.0016000
v -0.0062174 0.0049185 -0.0000000
v -0.0064000 0.0040000 0.0016000
v -0.0064000 0.0040000 -0.0000000
v -0.0062174 0.0030815 0.0016000
v -0.0062174 0.0030815 -0.0000000
v -0.0056970 0.0023030 0.0016000
v -0.0056970 0.0023030 -0.0000000
v -0.0049185 0.0017826 0.0016000
v -0.0049185 0.0017826 -0.0000000
v -0.0040000 0.0016000 0.0016000
v -0.0040000 0.0016000 -0.0000000
v -0.0030815 0.0017826 0.0016000
v -0.0030815 0.0017826 -0.0000000
v -0.0023030 0.0023030 0.0016000
v -0.0023030 0.0023030 -0.0000000
v -0.0017826 0.0030815 0.0016000
v -0.0017826 0.0030815 -0.0000000
v -0.0040000 0.0040000 0.0016000
v -0.0096000 0.0040000 0.0016000
v -0.0097826 0.0049185 0.0016000
v -0.0097826 0.0049185 -0.0000000
v -0.0096000 0.0040000 -0.0000000
v -0.0103030 0.0056970 0.0016000
v -0.0103030 0.0056970 -0.0000000
v -0.0110815 0.0062174 0.0016000
v -0.0110815 0.0062174 -0.0000000
v -0.0120000 0.0064000 0.0016000
v -0.0120000 0.0064000 -0.0000000
v -0.0129185 0.0062174 0.0016000
v -0.0129185 0.0062174 -0.0000000
v -0.0136970 0.0056970 0.0016000
v -0.0136970 0.0056970 -0.0000000
v -0.0142174 0.0049185 0.0016000
v -0.0142174 0.0049185 -0.0000000
v -0.0144000 0.0040000 0.0016000
v -0.0144000 0.0040000 -0.0000000
v -0.0142174 0.0030815 0.0016000
v -0.0142174 0.0030815 -0.0000000
v -0.0136970 0.0023030 0.0016000
v -0.0136970 0.0023030 -0.0000000
v -0.0129185 0.0017826 0.0016000
v -0.0129185 0.0017826 -0.0000000
v -0.0120000 0.0016000 0.0016000
v -0.0120000 0.0016000 -0.0000000
v -0.0110815 0.0017826 0.0016000
v -0.0110815 0.0017826 -0.0000000
v -0.0103030 0.0023030 0.0016000
v -0.0103030 0.0023030 -0.0000000
v -0.0097826 0.0030815 0.0016000
v -0.0097826 0.0030815 -0.0000000
v -0.0120000 0.0040000 0.0016000
v 0.0144000 -0.0040000 0.0016000
v 0.0142174 -0.0030815 0.0016000
v 0.0142174 -0.0030815 -0.0000000
v 0.0144000 -0.0040000 -0.0000000
v 0.0136970 -0.0023030 0.0016000
v 0.0136970 -0.0023030 -0.0000000
v 0.0129185 -0.0017826 0.0016000
v 0.0129185 -0.0017826 -0.0000000
v 0.0120000 -0.0016000 0.0016000
v 0.0120000 -0.0016000 -0.0000000
v 0.0110815 -0.0017826 0.0016000
v 0.0110815 -0.0017826 -0.0000000
v 0.0103030 -0.0023030 0.0016000
v 0.0103030 -0.0023030 -0.0000000
v 0.0097826 -0.0030815 0.0016000
v 0.0097826 -0.0030815 -0.0000000
v 0.0096000 -0.0040000 0.0016000
v 0.0096000 -0.0040000 -0.0000000
v 0.0097826 -0.0049185 0.0016000
v 0.0097826 -0.0049185 -0.0000000
v 0.0103030 -0.0056970 0.0016000
v 0.0103030 -0.0056970 -0.0000000
v 0.0110815 -0.0062174 0.0016000
v 0.0110815 -0.0062174 -0.0000000
v 0.0120000 -0.0064000 0.0016000
v 0.0120000 -0.0064000 -0.0000000
v 0.0129185 -0.0062174 0.0016000
v 0.0129185 -0.0062174 -0.0000000
v 0.0136970 -0.0056970 0.0016000
v 0.0136970 -0.0056970 -0.0000000
v 0.0142174 -0.0049185 0.0016000
v 0.0142174 -0.0049185 -0.0000000
v 0.0120000 -0.0040000 0.0016000
v 0.0064000 -0.0040000 0.0016000
v 0.0062174 -0.0030815 0.0016000
v 0.0062174 -0.0030815 -0.0000000
v 0.0064000 -0.0040000 -0.0000000
v 0.0056970 -0.0023030 0.0016000
v 0.0056970 -0.0023030 -0.0000000
v 0.0049185 -0.0017826 0.0016000
v 0.0049185 -0.0017826 -0.0000000
v 0.0040000 -0.0016000 0.0016000
v 0.0040000 -0.0016000 -0.0000000
v 0.0030815 -0.0017826 0.0016000
v 0.0030815 -0.0017826 -0.0000000
v 0.0023030 -0.0023030 0.0016000
v 0.0023030 -0.0023030 -0.0000000
v 0.0017826 -0.0030815 0.0016000
v 0.0017826 -0.0030815 -0.0000000
v 0.0016000 -0.0040000 0.0016000
v 0.0016000 -0.0040000 -0.0000000
v 0.0017826 -0.0049185 0.0016000
v 0.0017826 -0.0049185 -0.0000000
v 0.0023030 -0.0056970 0.0016000
v 0.0023030 -0.0056970 -0.0000000
v 0.0030815 -0.0062174 0.0016000
v 0.0030815 -0.0062174 -0.0000000
v 0.0040000 -0.0064000 0.0016000
v 0.0040000 -0.0064000 -0.0000000
v 0.0049185 -0.0062174 0.0016000
v 0.0049185 -0.0062174 -0.0000000
v 0.0056970 -0.0056970 0.0016000
v 0.0056970 -0.0056970 -0.0000000
v 0.0062174 -0.0049185 0.0016000
v 0.0062174 -0.0049185 -0.0000000
v 0.0040000 -0.0040000 0.0016000
v -0.0016000 -0.0040000 0.0016000
v -0.0017826 -0.0030815 0.0016000
v -0.0017826 -0.0030815 -0.0000000
v -0.0016000 -0.0040000 -0.0000000
v -0.0023030 -0.0023030 0.0016000
v -0.0023030 -0.0023030 -0.0000000
v -0.0030815 -0.0017826 0.0016000
v -0.0030815 -0.0017826 -0.0000000
v -0.0040000 -0.0016000 0.0016000
v -0.0040000 -0.0016000 -0.0000000
v -0.0049185 -0.0017826 0.0016000
v -0.0049185 -0.0017826 -0.0000000
v -0.0056970 -0.0023030 0.0016000
v -0.0056970 -0.0023030 -0.0000000
v -0.0062174 -0.0030815 0.0016000
v -0.0062174 -0.0030815 -0.0000000
v -0.0064000 -0.0040000 0.0016000
v -0.0064000 -0.0040000 -0.0000000
v -0.0062174 -0.0049185 0.0016000
v -0.0062174 -0.0049185 -0.0000000
v -0.0056970 -0.0056970 0.0016000
v -0.0056970 -0.0056970 -0.0000000
v -0.0049185 -0.0062174 0.0016000
v -0.0049185 -0.0062174 -0.0000000
v -0.0040000 -0.0064000 0.0016000
v -0.0040000 -0.0064000 -0.0000000
v -0.0030815 -0.0062174 0.0016000
v -0.0030815 -0.0062174 -0.0000000
v -0.0023030 -0.0056970 0.0016000
v -0.0023030 -0.0056970 -0.0000000
v -0.0017826 -0.0049185 0.0016000
v -0.0017826 -0.0049185 -0.0000000
v -0.0040000 -0.0040000 0.0016000
v -0.0096000 -0.0040000 0.0016000
v -0.0097826 -0.0030815 0.0016000
v -0.0097826 -0.0030815 -0.0000000
v -0.0096000 -0.0040000 -0.0000000
v -0.0103030 -0.0023030 0.0016000
v -0.0103030 -0.0023030 -0.0000000
v -0.0110815 -0.0017826 0.0016000
v -0.0110815 -0.0017826 -0.0000000
v -0.0120000 -0.0016000 0.0016000
v -0.0120000 -0.0016000 -0.0000000
v -0.0129185 -0.0017826 0.0016000
v -0.0129185 -0.0017826 -0.0000000
v -0.0136970 -0.0023030 0.0016000
v -0.0136970 -0.0023030 -0.0000000
v -0.0142174 -0.0030815 0.0016000
v -0.0142174 -0.0030815 -0.0000000
v -0.0144000 -0.0040000 0.0016000
v -0.0144000 -0.0040000 -0.0000000
v -0.0142174 -0.0049185 0.0016000
v -0.0142174 -0.0049185 -0.0000000
v -0.0136970 -0.0056970 0.0016000
v -0.0136970 -0.0056970 -0.0000000
v -0.0129185 -0.0062174 0.0016000
v -0.0129185 -0.0062174 -0.0000000
v -0.0120000 -0.0064000 0.0016000
v -0.0120000 -0.0064000 -0.0000000
v -0.0110815 -0.0062174 0.0016000
v -0.0110815 -0.0062174 -0.0000000
v -0.0103030 -0.0056970 0.0016000
v -0.0103030 -0.0056970 -0.0000000
v -0.0097826 -0.0049185 0.0016000
v -0.0097826 -0.0049185 -0.0000000
v -0.0120000 -0.0040000 0.0016000
usemtl c16
f 4 3 2
f 4 2 1
f 3 6 5
f 3 5 2
f 6 8 7
f 6 7 5
f 8 10 9
f 8 9 7
f 10 12 11
f 10 11 9
f 12 14 13
f 12 13 11
f 14 16 15
f 14 15 13
f 16 18 17
f 16 17 15
f 18 20 19
f 18 19 17
f 20 22 21
f 20 21 19
f 22 24 23
f 22 23 21
f 24 26 25
f 24 25 23
f 26 28 27
f 26 27 25
f 28 30 29
f 28 29 27
f 30 32 31
f 30 31 29
f 32 4 1
f 32 1 31
f 36 35 34
f 36 34 33
f 35 38 37
f 35 37 34
f 38 40 39
f 38 39 37
f 40 42 41
f 40 41 39
f 42 44 43
f 42 43 41
f 44 46 45
f 44 45 43
f 46 48 47
f 46 47 45
f 48 50 49
f 48 49 47
f 50 52 51
f 50 51 49
f 52 54 53
f 52 53 51
f 54 56 55
f 54 55 53
f 56 58 57
f 56 57 55
f 58 60 59
f 58 59 57
f 60 62 61
f 60 61 59
f 62 64 63
f 62 63 61
f 64 36 33
f 64 33 63
f 42 10 12
f 42 12 44
f 44 12 14
f 44 14 46
f 46 14 16
f 46 16 48
f 48 16 18
f 48 18 50
f 50 18 20
f 50 20 52
f 52 20 22
f 52 22 54
f 54 22 24
f 54 24 56
f 56 24 26
f 56 26 58
f 58 26 28
f 58 28 60
f 60 28 30
f 60 30 62
f 62 30 32
f 62 32 64
f 64 32 4
f 64 4 36
f 36 4 3
f 36 3 35
f 35 3 6
f 35 6 38
f 38 6 8
f 38 8 40
f 40 8 10
f 40 10 42
f 68 67 66
f 68 66 65
f 67 70 69
f 67 69 66
f 70 72 71
f 70 71 69
f 72 74 73
f 72 73 71
f 74 76 75
f 74 75 73
f 76 78 77
f 76 77 75
f 78 80 79
f 78 79 77
f 80 82 81
f 80 81 79
f 82 84 83
f 82 83 81
f 84 86 85
f 84 85 83
f 86 88 87
f 86 87 85
f 88 90 89
f 88 89 87
f 90 92 91
f 90 91 89
f 92 94 93
f 92 93 91
f 94 96 95
f 94 95 93
f 96 68 65
f 96 65 95
f 100 99 98
f 100 98 97
f 99 102 101
f 99 101 98
f 102 104 103
f 102 103 101
f 104 106 105
f 104 105 103
f 106 108 107
f 106 107 105
f 108 110 109
f 108 109 107
f 110 112 111
f 110 111 109
f 112 114 113
f 112 113 111
f 114 116 115
f 114 115 113
f 116 118 117
f 116 117 115
f 118 120 119
f 118 119 117
f 120 122 121
f 120 121 119
f 122 124 123
f 122 123 121
f 124 126 125
f 124 125 123
f 126 128 127
f 126 127 125
f 128 100 97
f 128 97 127
f 106 74 76
f 106 76 108
f 108 76 78
f 108 78 110
f 110 78 80
f 110 80 112
f 112 80 82
f 112 82 114
f 114 82 84
f 114 84 116
f 116 84 86
f 116 86 118
f 118 86 88
f 118 88 120
f 120 88 90
f 120 90 122
f 122 90 92
f 122 92 124
f 124 92 94
f 124 94 126
f 126 94 96
f 126 96 128
f 128 96 68
f 128 68 100
f 100 68 67
f 100 67 99
f 99 67 70
f 99 70 102
f 102 70 72
f 102 72 104
f 104 72 74
f 104 74 106
f 132 131 130
f 132 130 129
f 131 134 133
f 131 133 130
f 134 136 135
f 134 135 133
f 136 138 137
f 136 137 135
f 138 140 139
f 138 139 137
f 140 142 141
f 140 141 139
f 142 144 143
f 142 143 141
f 144 146 145
f 144 145 143
f 146 148 147
f 146 147 145
f 148 150 149
f 148 149 147
f 150 152 151
f 150 151 149
f 152 154 153
f 152 153 151
f 154 156 155
f 154 155 153
f 156 158 157
f 156 157 155
f 158 160 159
f 158 159 157
f 160 132 129
f 160 129 159
f 164 163 162
f 164 162 161
f 163 166 165
f 163 165 162
f 166 168 167
f 166 167 165
f 168 170 169
f 168 169 167
f 170 172 171
f 170 171 169
f 172 174 173
f 172 173 171
f 174 176 175
f 174 175 173
f 176 178 177
f 176 177 175
f 178 180 179
f 178 179 177
f 180 182 181
f 180 181 179
f 182 184 183
f 182 183 181
f 184 186 185
f 184 185 183
f 186 188 187
f 186 187 185
f 188 190 189
f 188 189 187
f 190 192 191
f 190 191 189
f 192 164 161
f 192 161 191
f 170 138 140
f 170 140 172
f 172 140 142
f 172 142 174
f 174 142 144
f 174 144 176
f 176 144 146
f 176 146 178
f 178 146 148
f 178 148 180
f 180 148 150
f 180 150 182
f 182 150 152
f 182 152 184
f 184 152 154
f 184 154 186
f 186 154 156
f 186 156 188
f 188 156 158
f 188 158 190
f 190 158 160
f 190 160 192
f 192 160 132
f 192 132 164
f 164 132 131
f 164 131 163
f 163 131 134
f 163 134 166
f 166 134 136
f 166 136 168
f 168 136 138
f 168 138 170
f 196 195 194
f 196 194 193
f 194 198 197
f 194 197 193
f 193 197 199
f 193 199 196
f 196 199 200
f 196 200 195
f 195 200 198
f 195 198 194
f 201 198 197
f 201 197 202
f 202 197 199
f 202 199 203
f 203 199 200
f 203 200 204
f 204 200 198
f 204 198 201
f 208 207 206
f 208 206 205
f 207 204 201
f 207 201 206
f 205 202 203
f 205 203 208
f 212 211 210
f 212 210 209
f 211 214 213
f 211 213 210
f 214 216 215
f 214 215 213
f 216 218 217
f 216 217 215
f 218 220 219
f 218 219 217
f 220 222 221
f 220 221 219
f 222 224 223
f 222 223 221
f 224 226 225
f 224 225 223
f 226 228 227
f 226 227 225
f 228 230 229
f 228 229 227
f 230 232 231
f 230 231 229
f 232 234 233
f 232 233 231
f 234 236 235
f 234 235 233
f 236 238 237
f 236 237 235
f 238 240 239
f 238 239 237
f 240 212 209
f 240 209 239
f 241 209 210
f 241 210 213
f 241 213 215
f 241 215 217
f 241 217 219
f 241 219 221
f 241 221 223
f 241 223 225
f 241 225 227
f 241 227 229
f 241 229 231
f 241 231 233
f 241 233 235
f 241 235 237
f 241 237 239
f 241 239 209
f 245 244 243
f 245 243 242
f 244 247 246
f 244 246 243
f 247 249 248
f 247 248 246
f 249 251 250
f 249 250 248
f 251 253 252
f 251 252 250
f 253 255 254
f 253 254 252
f 255 257 256
f 255 256 254
f 257 259 258
f 257 258 256
f 259 261 260
f 259 260 258
f 261 263 262
f 261 262 260
f 263 265 264
f 263 264 262
f 265 267 266
f 265 266 264
f 267 269 268
f 267 268 266
f 269 271 270
f 269 270 268
f 271 273 272
f 271 272 270
f 273 245 242
f 273 242 272
f 274 242 243
f 274 243 246
f 274 246 248
f 274 248 250
f 274 250 252
f 274 252 254
f 274 254 256
f 274 256 258
f 274 258 260
f 274 260 262
f 274 262 264
f 274 264 266
f 274 266 268
f 274 268 270
f 274 270 272
f 274 272 242
f 278 277 276
f 278 276 275
f 277 280 279
f 277 279 276
f 280 282 281
f 280 281 279
f 282 284 283
f 282 283 281
f 284 286 285
f 284 285 283
f 286 288 287
f 286 287 285
f 288 290 289
f 288 289 287
f 290 292 291
f 290 291 289
f 292 294 293
f 292 293 291
f 294 296 295
f 294 295 293
f 296 298 297
f 296 297 295
f 298 300 299
f 298 299 297
f 300 302 301
f 300 301 299
f 302 304 303
f 302 303 301
f 304 306 305
f 304 305 303
f 306 278 275
f 306 275 305
f 307 275 276
f 307 276 279
f 307 279 281
f 307 281 283
f 307 283 285
f 307 285 287
f 307 287 289
f 307 289 291
f 307 291 293
f 307 293 295
f 307 295 297
f 307 297 299
f 307 299 301
f 307 301 303
f 307 303 305
f 307 305 275
f 311 310 309
f 311 309 308
f 310 313 312
f 310 312 309
f 313 315 314
f 313 314 312
f 315 317 316
f 315 316 314
f 317 319 318
f 317 318 316
f 319 321 320
f 319 320 318
f 321 323 322
f 321 322 320
f 323 325 324
f 323 324 322
f 325 327 326
f 325 326 324
f 327 329 328
f 327 328 326
f 329 331 330
f 329 330 328
f 331 333 332
f 331 332 330
f 333 335 334
f 333 334 332
f 335 337 336
f 335 336 334
f 337 339 338
f 337 338 336
f 339 311 308
f 339 308 338
f 340 308 309
f 340 309 312
f 340 312 314
f 340 314 316
f 340 316 318
f 340 318 320
f 340 320 322
f 340 322 324
f 340 324 326
f 340 326 328
f 340 328 330
f 340 330 332
f 340 332 334
f 340 334 336
f 340 336 338
f 340 338 308
f 344 343 342
f 344 342 341
f 343 346 345
f 343 345 342
f 346 348 347
f 346 347 345
f 348 350 349
f 348 349 347
f 350 352 351
f 350 351 349
f 352 354 353
f 352 353 351
f 354 356 355
f 354 355 353
f 356 358 357
f 356 357 355
f 358 360 359
f 358 359 357
f 360 362 361
f 360 361 359
f 362 364 363
f 362 363 361
f 364 366 365
f 364 365 363
f 366 368 367
f 366 367 365
f 368 370 369
f 368 369 367
f 370 372 371
f 370 371 369
f 372 344 341
f 372 341 371
f 373 341 342
f 373 342 345
f 373 345 347
f 373 347 349
f 373 349 351
f 373 351 353
f 373 353 355
f 373 355 357
f 373 357 359
f 373 359 361
f 373 361 363
f 373 363 365
f 373 365 367
f 373 367 369
f 373 369 371
f 373 371 341
f 377 376 375
f 377 375 374
f 376 379 378
f 376 378 375
f 379 381 380
f 379 380 378
f 381 383 382
f 381 382 380
f 383 385 384
f 383 384 382
f 385 387 386
f 385 386 384
f 387 389 388
f 387 388 386
f 389 391 390
f 389 390 388
f 391 393 392
f 391 392 390
f 393 395 394
f 393 394 392
f 395 397 396
f 395 396 394
f 397 399 398
f 397 398 396
f 399 401 400
f 399 400 398
f 401 403 402
f 401 402 400
f 403 405 404
f 403 404 402
f 405 377 374
f 405 374 404
f 406 374 375
f 406 375 378
f 406 378 380
f 406 380 382
f 406 382 384
f 406 384 386
f 406 386 388
f 406 388 390
f 406 390 392
f 406 392 394
f 406 394 396
f 406 396 398
f 406 398 400
f 406 400 402
f 406 402 404
f 406 404 374
f 410 409 408
f 410 408 407
f 409 412 411
f 409 411 408
f 412 414 413
f 412 413 411
f 414 416 415
f 414 415 413
f 416 418 417
f 416 417 415
f 418 420 419
f 418 419 417
f 420 422 421
f 420 421 419
f 422 424 423
f 422 423 421
f 424 426 425
f 424 425 423
f 426 428 427
f 426 427 425
f 428 430 429
f 428 429 427
f 430 432 431
f 430 431 429
f 432 434 433
f 432 433 431
f 434 436 435
f 434 435 433
f 436 438 437
f 436 437 435
f 438 410 407
f 438 407 437
f 439 407 408
f 439 408 411
f 439 411 413
f 439 413 415
f 439 415 417
f 439 417 419
f 439 419 421
f 439 421 423
f 439 423 425
f 439 425 427
f 439 427 429
f 439 429 431
f 439 431 433
f 439 433 435
f 439 435 437
f 439 437 407
f 443 442 441
f 443 441 440
f 442 445 444
f 442 444 441
f 445 447 446
f 445 446 444
f 447 449 448
f 447 448 446
f 449 451 450
f 449 450 448
f 451 453 452
f 451 452 450
f 453 455 454
f 453 454 452
f 455 457 456
f 455 456 454
f 457 459 458
f 457 458 456
f 459 461 460
f 459 460 458
f 461 463 462
f 461 462 460
f 463 465 464
f 463 464 462
f 465 467 466
f 465 466 464
f 467 469 468
f 467 468 466
f 469 471 470
f 469 470 468
f 471 443 440
f 471 440 470
f 472 440 441
f 472 441 444
f 472 444 446
f 472 446 448
f 472 448 450
f 472 450 452
f 472 452 454
f 472 454 456
f 472 456 458
f 472 458 460
f 472 460 462
f 472 462 464
f 472 464 466
f 472 466 468
f 472 468 470
f 472 470 440
f 208 203 204
f 208 204 207
f 206 201 202
f 206 202 205
