o 3003
v 0.0024000 0.0000000 -0.0016000
v 0.0022174 0.0009185 -0.0016000
v 0.0022174 0.0009185 -0.0096000
v 0.0024000 0.0000000 -0.0096000
v 0.0016970 0.0016970 -0.0016000
v 0.0016970 0.0016970 -0.0096000
v 0.0009185 0.0022174 -0.0016000
v 0.0009185 0.0022174 -0.0096000
v 0.0000000 0.0024000 -0.0016000
v 0.0000000 0.0024000 -0.0096000
v -0.0009185 0.0022174 -0.0016000
v -0.0009185 0.0022174 -0.0096000
v -0.0016970 0.0016970 -0.0016000
v -0.0016970 0.0016970 -0.0096000
v -0.0022174 0.0009185 -0.0016000
v -0.0022174 0.0009185 -0.0096000
v -0.0024000 0.0000000 -0.0016000
v -0.0024000 0.0000000 -0.0096000
v -0.0022174 -0.0009185 -0.0016000
v -0.0022174 -0.0009185 -0.0096000
v -0.0016970 -0.0016970 -0.0016000
v -0.0016970 -0.0016970 -0.0096000
v -0.0009185 -0.0022174 -0.0016000
v -0.0009185 -0.0022174 -0.0096000
v 0.0000000 -0.0024000 -0.0016000
v 0.0000000 -0.0024000 -0.0096000
v 0.0009185 -0.0022174 -0.0016000
v 0.0009185 -0.0022174 -0.0096000
v 0.0016970 -0.0016970 -0.0016000
v 0.0016970 -0.0016970 -0.0096000
v 0.0022174 -0.0009185 -0.0016000
v 0.0022174 -0.0009185 -0.0096000
v 0.0032000 0.0000000 -0.0016000
v 0.0029565 0.0012246 -0.0016000
v 0.0029565 0.0012246 -0.0096000
v 0.0032000 0.0000000 -0.0096000
v 0.0022627 0.0022627 -0.0016000
v 0.0022627 0.0022627 -0.0096000
v 0.0012246 0.0029565 -0.0016000
v 0.0012246 0.0029565 -0.0096000
v 0.0000000 0.0032000 -0.0016000
v 0.0000000 0.0032000 -0.0096000
v -0.0012246 0.0029565 -0.0016000
v -0.0012246 0.0029565 -0.0096000
v -0.0022627 0.0022627 -0.0016000
v -0.0022627 0.0022627 -0.0096000
v -0.0029565 0.0012246 -0.0016000
v -0.0029565 0.0012246 -0.0096000
v -0.0032000 0.0000000 -0.0016000
v -0.0032000 0.0000000 -0.0096000
v -0.0029565 -0.0012246 -0.0016000
v -0.0029565 -0.0012246 -0.0096000
v -0.0022627 -0.0022627 -0.0016000
v -0.0022627 -0.0022627 -0.0096000
v -0.0012246 -0.0029565 -0.0016000
v -0.0012246 -0.0029565 -0.0096000
v 0.0000000 -0.0032000 -0.0016000
v 0.0000000 -0.0032000 -0.0096000
v 0.0012246 -0.0029565 -0.0016000
v 0.0012246 -0.0029565 -0.0096000
v 0.0022627 -0.0022627 -0.0016000
v 0.0022627 -0.0022627 -0.0096000
v 0.0029565 -0.0012246 -0.0016000
v 0.0029565 -0.0012246 -0.0096000
v -0.0064000 0.0064000 -0.0016000
v 0.0064000 0.0064000 -0.0016000
v 0.0064000 -0.0064000 -0.0016000
v -0.0064000 -0.0064000 -0.0016000
v -0.0064000 0.0064000 -0.0096000
v 0.0064000 0.0064000 -0.0096000
v -0.0064000 -0.0064000 -0.0096000
v 0.0064000 -0.0064000 -0.0096000
v 0.0080000 0.0080000 -0.0096000
v -0.0080000 0.0080000 -0.0096000
v -0.0080000 -0.0080000 -0.0096000
v 0.0080000 -0.0080000 -0.0096000
v -0.0080000 0.0080000 -0.0000000
v 0.0080000 0.0080000 -0.0000000
v 0.0080000 -0.0080000 -0.0000000
v -0.0080000 -0.0080000 -0.0000000
v -0.0016000 -0.0040000 0.0016000
v -0.0017826 -0.0030815 0.0016000
v -0.0017826 -0.0030815 -0.0000000
v -0.0016000 -0.0040000 -0.0000000
v -0.0023030 -0.0023030 0.0016000
v -0.0023030 -0.0023030 -0.0000000
v -0.0030815 -0.0017826 0.0016000
v -0.0030815 -0.0017826 -0.0000000
v -0.0040000 -0.0016000 0.0016000
v -0.0040000 -0.0016000 -0.0000000
v -0.0049185 -0.0017826 0.0016000
v -0.0049185 -0.0017826 -0.0000000
v -0.0056970 -0.0023030 0.0016000
v -0.0056970 -0.0023030 -0.0000000
v -0.0062174 -0.0030815 0.0016000
v -0.0062174 -0.0030815 -0.0000000
v -0.0064000 -0.0040000 0.0016000
v -0.0064000 -0.0040000 -0.0000000
v -0.0062174 -0.0049185 0.0016000
v -0.0062174 -0.0049185 -0.0000000
v -0.0056970 -0.0056970 0.0016000
v -0.0056970 -0.0056970 -0.0000000
v -0.0049185 -0.0062174 0.0016000
v -0.0049185 -0.0062174 -0.0000000
v -0.0040000 -0.0064000 0.0016000
v -0.0040000 -0.0064000 -0.0000000
v -0.0030815 -0.0062174 0.0016000
v -0.0030815 -0.0062174 -0.0000000
v -0.0023030 -0.0056970 0.0016000
v -0.0023030 -0.0056970 -0.0000000
v -0.0017826 -0.0049185 0.0016000
v -0.0017826 -0.0049185 -0.0000000
v -0.0040000 -0.0040000 0.0016000
v 0.0064000 -0.0040000 0.0016000
v 0.0062174 -0.0030815 0.0016000
v 0.0062174 -0.0030815 -0.0000000
v 0.0064000 -0.0040000 -0.0000000
v 0.0056970 -0.0023030 0.0016000
v 0.0056970 -0.0023030 -0.0000000
v 0.0049185 -0.0017826 0.0016000
v 0.0049185 -0.0017826 -0.0000000
v 0.0040000 -0.0016000 0.0016000
v 0.0040000 -0.0016000 -0.0000000
v 0.0030815 -0.0017826 0.0016000
v 0.0030815 -0.0017826 -0.0000000
v 0.0023030 -0.0023030 0.0016000
v 0.0023030 -0.0023030 -0.0000000
v 0.0017826 -0.0030815 0.0016000
v 0.0017826 -0.0030815 -0.0000000
v 0.0016000 -0.0040000 0.0016000
v 0.0016000 -0.0040000 -0.0000000
v 0.0017826 -0.0049185 0.0016000
v 0.0017826 -0.0049185 -0.0000000
v 0.0023030 -0.0056970 0.0016000
v 0.0023030 -0.0056970 -0.0000000
v 0.0030815 -0.0062174 0.0016000
v 0.0030815 -0.0062174 -0.0000000
v 0.0040000 -0.0064000 0.0016000
v 0.0040000 -0.0064000 -0.0000000
v 0.0049185 -0.0062174 0.0016000
v 0.0049185 -0.0062174 -0.0000000
v 0.0056970 -0.0056970 0.0016000
v 0.0056970 -0.0056970 -0.0000000
v 0.0062174 -0.0049185 0.0016000
v 0.0062174 -0.0049185 -0.0000000
v 0.0040000 -0.0040000 0.0016000
v -0.0016000 0.0040000 0.0016000
v -0.0017826 0.0049185 0.0016000
v -0.0017826 0.0049185 -0.0000000
v -0.0016000 0.0040000 -0.0000000
v -0.0023030 0.0056970 0.0016000
v -0.0023030 0.0056970 -0.0000000
v -0.0030815 0.0062174 0.0016000
v -0.0030815 0.0062174 -0.0000000
v -0.0040000 0.0064000 0.0016000
v -0.0040000 0.0064000 -0.0000000
v -0.0049185 0.0062174 0.0016000
v -0.0049185 0.0062174 -0.0000000
v -0.0056970 0.0056970 0.0016000
v -0.0056970 0.0056970 -0.0000000
v -0.0062174 0.0049185 0.0016000
v -0.0062174 0.0049185 -0.0000000
v -0.0064000 0.0040000 0.0016000
v -0.0064000 0.0040000 -0.0000000
v -0.0062174 0.0030815 0.0016000
v -0.0062174 0.0030815 -0.0000000
v -0.0056970 0.0023030 0.0016000
v -0.0056970 0.0023030 -0.0000000
v -0.0049185 0.0017826 0.0016000
v -0.0049185 0.0017826 -0.0000000
v -0.0040000 0.0016000 0.0016000
v -0.0040000 0.0016000 -0.0000000
v -0.0030815 0.0017826 0.0016000
v -0.0030815 0.0017826 -0.0000000
v -0.0023030 0.0023030 0.0016000
v -0.0023030 0.0023030 -0.0000000
v -0.0017826 0.0030815 0.0016000
v -0.0017826 0.0030815 -0.0000000
v -0.0040000 0.0040000 0.0016000
v 0.0064000 0.0040000 0.0016000
v 0.0062174 0.0049185 0.0016000
v 0.0062174 0.0049185 -0.0000000
v 0.0064000 0.0040000 -0.0000000
v 0.0056970 0.0056970 0.0016000
v 0.0056970 0.0056970 -0.0000000
v 0.0049185 0.0062174 0.0016000
v 0.0049185 0.0062174 -0.0000000
v 0.0040000 0.0064000 0.0016000
v 0.0040000 0.0064000 -0.0000000
v 0.0030815 0.0062174 0.0016000
v 0.0030815 0.0062174 -0.0000000
v 0.0023030 0.0056970 0.0016000
v 0.0023030 0.0056970 -0.0000000
v 0.0017826 0.0049185 0.0016000
v 0.0017826 0.0049185 -0.0000000
v 0.0016000 0.0040000 0.0016000
v 0.0016000 0.0040000 -0.0000000
v 0.0017826 0.0030815 0.0016000
v 0.0017826 0.0030815 -0.0000000
v 0.0023030 0.0023030 0.0016000
v 0.0023030 0.0023030 -0.0000000
v 0.0030815 0.0017826 0.0016000
v 0.0030815 0.0017826 -0.0000000
v 0.0040000 0.0016000 0.0016000
v 0.0040000 0.0016000 -0.0000000
v 0.0049185 0.0017826 0.0016000
v 0.0049185 0.0017826 -0.0000000
v 0.0056970 0.0023030 0.0016000
v 0.0056970 0.0023030 -0.0000000
v 0.0062174 0.0030815 0.0016000
v 0.0062174 0.0030815 -0.0000000
v 0.0040000 0.0040000 0.0016000
usemtl c16
f 4 3 2
f 4 2 1
f 3 6 5
f 3 5 2
f 6 8 7
f 6 7 5
f 8 10 9
f 8 9 7
f 10 12 11
f 10 11 9
f 12 14 13
f 12 13 11
f 14 16 15
f 14 15 13
f 16 18 17
f 16 17 15
f 18 20 19
f 18 19 17
f 20 22 21
f 20 21 19
f 22 24 23
f 22 23 21
f 24 26 25
f 24 25 23
f 26 28 27
f 26 27 25
f 28 30 29
f 28 29 27
f 30 32 31
f 30 31 29
f 32 4 1
f 32 1 31
f 36 35 34
f 36 34 33
f 35 38 37
f 35 37 34
f 38 40 39
f 38 39 37
f 40 42 41
f 40 41 39
f 42 44 43
f 42 43 41
f 44 46 45
f 44 45 43
f 46 48 47
f 46 47 45
f 48 50 49
f 48 49 47
f 50 52 51
f 50 51 49
f 52 54 53
f 52 53 51
f 54 56 55
f 54 55 53
f 56 58 57
f 56 57 55
f 58 60 59
f 58 59 57
f 60 62 61
f 60 61 59
f 62 64 63
f 62 63 61
f 64 36 33
f 64 33 63
f 42 10 12
f 42 12 44
f 44 12 14
f 44 14 46
f 46 14 16
f 46 16 48
f 48 16 18
f 48 18 50
f 50 18 20
f 50 20 52
f 52 20 22
f 52 22 54
f 54 22 24
f 54 24 56
f 56 24 26
f 56 26 58
f 58 26 28
f 58 28 60
f 60 28 30
f 60 30 62
f 62 30 32
f 62 32 64
f 64 32 4
f 64 4 36
f 36 4 3
f 36 3 35
f 35 3 6
f 35 6 38
f 38 6 8
f 38 8 40
f 40 8 10
f 40 10 42
f 68 67 66
f 68 66 65
f 66 70 69
f 66 69 65
f 65 69 71
f 65 71 68
f 68 71 72
f 68 72 67
f 67 72 70
f 67 70 66
f 73 70 69
f 73 69 74
f 74 69 71
f 74 71 75
f 75 71 72
f 75 72 76
f 76 72 70
f 76 70 73
f 80 79 78
f 80 78 77
f 79 76 73
f 79 73 78
f 77 74 75
f 77 75 80
f 84 83 82
f 84 82 81
f 83 86 85
f 83 85 82
f 86 88 87
f 86 87 85
f 88 90 89
f 88 89 87
f 90 92 91
f 90 91 89
f 92 94 93
f 92 93 91
f 94 96 95
f 94 95 93
f 96 98 97
f 96 97 95
f 98 100 99
f 98 99 97
f 100 102 101
f 100 101 99
f 102 104 103
f 102 103 101
f 104 106 105
f 104 105 103
f 106 108 107
f 106 107 105
f 108 110 109
f 108 109 107
f 110 112 111
f 110 111 109
f 112 84 81
f 112 81 111
f 113 81 82
f 113 82 85
f 113 85 87
f 113 87 89
f 113 89 91
f 113 91 93
f 113 93 95
f 113 95 97
f 113 97 99
f 113 99 101
f 113 101 103
f 113 103 105
f 113 105 107
f 113 107 109
f 113 109 111
f 113 111 81
f 117 116 115
f 117 115 114
f 116 119 118
f 116 118 115
f 119 121 120
f 119 120 118
f 121 123 122
f 121 122 120
f 123 125 124
f 123 124 122
f 125 127 126
f 125 126 124
f 127 129 128
f 127 128 126
f 129 131 130
f 129 130 128
f 131 133 132
f 131 132 130
f 133 135 134
f 133 134 132
f 135 137 136
f 135 136 134
f 137 139 138
f 137 138 136
f 139 141 140
f 139 140 138
f 141 143 142
f 141 142 140
f 143 145 144
f 143 144 142
f 145 117 114
f 145 114 144
f 146 114 115
f 146 115 118
f 146 118 120
f 146 120 122
f 146 122 124
f 146 124 126
f 146 126 128
f 146 128 130
f 146 130 132
f 146 132 134
f 146 134 136
f 146 136 138
f 146 138 140
f 146 140 142
f 146 142 144
f 146 144 114
f 150 149 148
f 150 148 147
f 149 152 151
f 149 151 148
f 152 154 153
f 152 153 151
f 154 156 155
f 154 155 153
f 156 158 157
f 156 157 155
f 158 160 159
f 158 159 157
f 160 162 161
f 160 161 159
f 162 164 163
f 162 163 161
f 164 166 165
f 164 165 163
f 166 168 167
f 166 167 165
f 168 170 169
f 168 169 167
f 170 172 171
f 170 171 169
f 172 174 173
f 172 173 171
f 174 176 175
f 174 175 173
f 176 178 177
f 176 177 175
f 178 150 147
f 178 147 177
f 179 147 148
f 179 148 151
f 179 151 153
f 179 153 155
f 179 155 157
f 179 157 159
f 179 159 161
f 179 161 163
f 179 163 165
f 179 165 167
f 179 167 169
f 179 169 171
f 179 171 173
f 179 173 175
f 179 175 177
f 179 177 147
f 183 182 181
f 183 181 180
f 182 185 184
f 182 184 181
f 185 187 186
f 185 186 184
f 187 189 188
f 187 188 186
f 189 191 190
f 189 190 188
f 191 193 192
f 191 192 190
f 193 195 194
f 193 194 192
f 195 197 196
f 195 196 194
f 197 199 198
f 197 198 196
f 199 201 200
f 199 200 198
f 201 203 202
f 201 202 200
f 203 205 204
f 203 204 202
f 205 207 206
f 205 206 204
f 207 209 208
f 207 208 206
f 209 211 210
f 209 210 208
f 211 183 180
f 211 180 210
f 212 180 181
f 212 181 184
f 212 184 186
f 212 186 188
f 212 188 190
f 212 190 192
f 212 192 194
f 212 194 196
f 212 196 198
f 212 198 200
f 212 200 202
f 212 202 204
f 212 204 206
f 212 206 208
f 212 208 210
f 212 210 180
f 73 74 77
f 73 77 78
f 75 76 79
f 75 79 80
