o 3004
v 0.0000000 0.0000000 -0.0096000
v 0.0016000 0.0000000 -0.0096000
v 0.0014782 0.0006123 -0.0096000
v 0.0011314 0.0011314 -0.0096000
v 0.0006123 0.0014782 -0.0096000
v 0.0000000 0.0016000 -0.0096000
v -0.0006123 0.0014782 -0.0096000
v -0.0011314 0.0011314 -0.0096000
v -0.0014782 0.0006123 -0.0096000
v -0.0016000 0.0000000 -0.0096000
v -0.0014782 -0.0006123 -0.0096000
v -0.0011314 -0.0011314 -0.0096000
v -0.0006123 -0.0014782 -0.0096000
v 0.0000000 -0.0016000 -0.0096000
v 0.0006123 -0.0014782 -0.0096000
v 0.0011314 -0.0011314 -0.0096000
v 0.0014782 -0.0006123 -0.0096000
v 0.0016000 0.0000000 -0.0016000
v 0.0014782 0.0006123 -0.0016000
v 0.0011314 0.0011314 -0.0016000
v 0.0006123 0.0014782 -0.0016000
v 0.0000000 0.0016000 -0.0016000
v -0.0006123 0.0014782 -0.0016000
v -0.0011314 0.0011314 -0.0016000
v -0.0014782 0.0006123 -0.0016000
v -0.0016000 0.0000000 -0.0016000
v -0.0014782 -0.0006123 -0.0016000
v -0.0011314 -0.0011314 -0.0016000
v -0.0006123 -0.0014782 -0.0016000
v 0.0000000 -0.0016000 -0.0016000
v 0.0006123 -0.0014782 -0.0016000
v 0.0011314 -0.0011314 -0.0016000
v 0.0014782 -0.0006123 -0.0016000
v -0.0064000 0.0024000 -0.0016000
v 0.0064000 0.0024000 -0.0016000
v 0.0064000 -0.0024000 -0.0016000
v -0.0064000 -0.0024000 -0.0016000
v -0.0064000 0.0024000 -0.0096000
v 0.0064000 0.0024000 -0.0096000
v -0.0064000 -0.0024000 -0.0096000
v 0.0064000 -0.0024000 -0.0096000
v 0.0080000 0.0040000 -0.0096000
v -0.0080000 0.0040000 -0.0096000
v -0.0080000 -0.0040000 -0.0096000
v 0.0080000 -0.0040000 -0.0096000
v 0.0080000 0.0040000 -0.0000000
v 0.0080000 -0.0040000 -0.0000000
v -0.0080000 -0.0040000 -0.0000000
v -0.0080000 0.0040000 -0.0000000
v 0.0064000 0.0000000 0.0016000
v 0.0062174 0.0009185 0.0016000
v 0.0062174 0.0009185 -0.0000000
v 0.0064000 0.0000000 -0.0000000
v 0.0056970 0.0016970 0.0016000
v 0.0056970 0.0016970 -0.0000000
v 0.0049185 0.0022174 0.0016000
v 0.0049185 0.0022174 -0.0000000
v 0.0040000 0.0024000 0.0016000
v 0.0040000 0.0024000 -0.0000000
v 0.0030815 0.0022174 0.0016000
v 0.0030815 0.0022174 -0.0000000
v 0.0023030 0.0016970 0.0016000
v 0.0023030 0.0016970 -0.0000000
v 0.0017826 0.0009185 0.0016000
v 0.0017826 0.0009185 -0.0000000
v 0.0016000 0.0000000 0.0016000
v 0.0016000 0.0000000 -0.0000000
v 0.0017826 -0.0009185 0.0016000
v 0.0017826 -0.0009185 -0.0000000
v 0.0023030 -0.0016970 0.0016000
v 0.0023030 -0.0016970 -0.0000000
v 0.0030815 -0.0022174 0.0016000
v 0.0030815 -0.0022174 -0.0000000
v 0.0040000 -0.0024000 0.0016000
v 0.0040000 -0.0024000 -0.0000000
v 0.0049185 -0.0022174 0.0016000
v 0.0049185 -0.0022174 -0.0000000
v 0.0056970 -0.0016970 0.0016000
v 0.0056970 -0.0016970 -0.0000000
v 0.0062174 -0.0009185 0.0016000
v 0.0062174 -0.0009185 -0.0000000
v 0.0040000 0.0000000 0.0016000
v -0.0016000 0.0000000 0.0016000
v -0.0017826 0.0009185 0.0016000
v -0.0017826 0.0009185 -0.0000000
v -0.0016000 0.0000000 -0.0000000
v -0.0023030 0.0016970 0.0016000
v -0.0023030 0.0016970 -0.0000000
v -0.0030815 0.0022174 0.0016000
v -0.0030815 0.0022174 -0.0000000
v -0.0040000 0.0024000 0.0016000
v -0.0040000 0.0024000 -0.0000000
v -0.0049185 0.0022174 0.0016000
v -0.0049185 0.0022174 -0.0000000
v -0.0056970 0.0016970 0.0016000
v -0.0056970 0.0016970 -0.0000000
v -0.0062174 0.0009185 0.0016000
v -0.0062174 0.0009185 -0.0000000
v -0.0064000 0.0000000 0.0016000
v -0.0064000 0.0000000 -0.0000000
v -0.0062174 -0.0009185 0.0016000
v -0.0062174 -0.0009185 -0.0000000
v -0.0056970 -0.0016970 0.0016000
v -0.0056970 -0.0016970 -0.0000000
v -0.0049185 -0.0022174 0.0016000
v -0.0049185 -0.0022174 -0.0000000
v -0.0040000 -0.0024000 0.0016000
v -0.0040000 -0.0024000 -0.0000000
v -0.0030815 -0.0022174 0.0016000
v -0.0030815 -0.0022174 -0.0000000
v -0.0023030 -0.0016970 0.0016000
v -0.0023030 -0.0016970 -0.0000000
v -0.0017826 -0.0009185 0.0016000
v -0.0017826 -0.0009185 -0.0000000
v -0.0040000 0.0000000 0.0016000
usemtl c16
f 3 2 1
f 4 3 1
f 5 4 1
f 6 5 1
f 7 6 1
f 8 7 1
f 9 8 1
f 10 9 1
f 11 10 1
f 12 11 1
f 13 12 1
f 14 13 1
f 15 14 1
f 16 15 1
f 17 16 1
f 2 17 1
f 2 3 19
f 2 19 18
f 3 4 20
f 3 20 19
f 4 5 21
f 4 21 20
f 5 6 22
f 5 22 21
f 6 7 23
f 6 23 22
f 7 8 24
f 7 24 23
f 8 9 25
f 8 25 24
f 9 10 26
f 9 26 25
f 10 11 27
f 10 27 26
f 11 12 28
f 11 28 27
f 12 13 29
f 12 29 28
f 13 14 30
f 13 30 29
f 14 15 31
f 14 31 30
f 15 16 32
f 15 32 31
f 16 17 33
f 16 33 32
f 17 2 18
f 17 18 33
f 37 36 35
f 37 35 34
f 35 39 38
f 35 38 34
f 34 38 40
f 34 40 37
f 37 40 41
f 37 41 36
f 36 41 39
f 36 39 35
f 42 39 38
f 42 38 43
f 43 38 40
f 43 40 44
f 44 40 41
f 44 41 45
f 45 41 39
f 45 39 42
f 49 48 47
f 49 47 46
f 42 43 49
f 42 49 46
f 43 44 48
f 43 48 49
f 45 42 46
f 45 46 47
f 53 52 51
f 53 51 50
f 52 55 54
f 52 54 51
f 55 57 56
f 55 56 54
f 57 59 58
f 57 58 56
f 59 61 60
f 59 60 58
f 61 63 62
f 61 62 60
f 63 65 64
f 63 64 62
f 65 67 66
f 65 66 64
f 67 69 68
f 67 68 66
f 69 71 70
f 69 70 68
f 71 73 72
f 71 72 70
f 73 75 74
f 73 74 72
f 75 77 76
f 75 76 74
f 77 79 78
f 77 78 76
f 79 81 80
f 79 80 78
f 81 53 50
f 81 50 80
f 82 50 51
f 82 51 54
f 82 54 56
f 82 56 58
f 82 58 60
f 82 60 62
f 82 62 64
f 82 64 66
f 82 66 68
f 82 68 70
f 82 70 72
f 82 72 74
f 82 74 76
f 82 76 78
f 82 78 80
f 82 80 50
f 86 85 84
f 86 84 83
f 85 88 87
f 85 87 84
f 88 90 89
f 88 89 87
f 90 92 91
f 90 91 89
f 92 94 93
f 92 93 91
f 94 96 95
f 94 95 93
f 96 98 97
f 96 97 95
f 98 100 99
f 98 99 97
f 100 102 101
f 100 101 99
f 102 104 103
f 102 103 101
f 104 106 105
f 104 105 103
f 106 108 107
f 106 107 105
f 108 110 109
f 108 109 107
f 110 112 111
f 110 111 109
f 112 114 113
f 112 113 111
f 114 86 83
f 114 83 113
f 115 83 84
f 115 84 87
f 115 87 89
f 115 89 91
f 115 91 93
f 115 93 95
f 115 95 97
f 115 97 99
f 115 99 101
f 115 101 103
f 115 103 105
f 115 105 107
f 115 107 109
f 115 109 111
f 115 111 113
f 115 113 83
f 44 45 47
f 44 47 48
