o 3005
v 0.0000000 -0.0024000 0.0016000
v 0.0009185 -0.0022174 0.0016000
v 0.0009185 -0.0022174 -0.0000000
v 0.0000000 -0.0024000 -0.0000000
v 0.0016970 -0.0016970 0.0016000
v 0.0016970 -0.0016970 -0.0000000
v 0.0022174 -0.0009185 0.0016000
v 0.0022174 -0.0009185 -0.0000000
v 0.0024000 0.0000000 0.0016000
v 0.0024000 0.0000000 -0.0000000
v 0.0022174 0.0009185 0.0016000
v 0.0022174 0.0009185 -0.0000000
v 0.0016970 0.0016970 0.0016000
v 0.0016970 0.0016970 -0.0000000
v 0.0009185 0.0022174 0.0016000
v 0.0009185 0.0022174 -0.0000000
v 0.0000000 0.0024000 0.0016000
v 0.0000000 0.0024000 -0.0000000
v -0.0009185 0.0022174 0.0016000
v -0.0009185 0.0022174 -0.0000000
v -0.0016970 0.0016970 0.0016000
v -0.0016970 0.0016970 -0.0000000
v -0.0022174 0.0009185 0.0016000
v -0.0022174 0.0009185 -0.0000000
v -0.0024000 0.0000000 0.0016000
v -0.0024000 0.0000000 -0.0000000
v -0.0022174 -0.0009185 0.0016000
v -0.0022174 -0.0009185 -0.0000000
v -0.0016970 -0.0016970 0.0016000
v -0.0016970 -0.0016970 -0.0000000
v -0.0009185 -0.0022174 0.0016000
v -0.0009185 -0.0022174 -0.0000000
v 0.0000000 0.0000000 0.0016000
v -0.0040000 0.0040000 -0.0000000
v -0.0040000 -0.0040000 -0.0000000
v 0.0040000 -0.0040000 -0.0000000
v 0.0040000 0.0040000 -0.0000000
v 0.0040000 0.0040000 -0.0096000
v -0.0040000 0.0040000 -0.0096000
v 0.0040000 -0.0040000 -0.0096000
v -0.0040000 -0.0040000 -0.0096000
v 0.0024000 0.0024000 -0.0016000
v -0.0024000 0.0024000 -0.0016000
v -0.0024000 -0.0024000 -0.0016000
v 0.0024000 -0.0024000 -0.0016000
v 0.0024000 0.0024000 -0.0096000
v -0.0024000 0.0024000 -0.0096000
v 0.0024000 -0.0024000 -0.0096000
v -0.0024000 -0.0024000 -0.0096000
usemtl c16
f 4 3 2
f 4 2 1
f 3 6 5
f 3 5 2
f 6 8 7
f 6 7 5
f 8 10 9
f 8 9 7
f 10 12 11
f 10 11 9
f 12 14 13
f 12 13 11
f 14 16 15
f 14 15 13
f 16 18 17
f 16 17 15
f 18 20 19
f 18 19 17
f 20 22 21
f 20 21 19
f 22 24 23
f 22 23 21
f 24 26 25
f 24 25 23
f 26 28 27
f 26 27 25
f 28 30 29
f 28 29 27
f 30 32 31
f 30 31 29
f 32 4 1
f 32 1 31
f 33 1 2
f 33 2 5
f 33 5 7
f 33 7 9
f 33 9 11
f 33 11 13
f 33 13 15
f 33 15 17
f 33 17 19
f 33 19 21
f 33 21 23
f 33 23 25
f 33 25 27
f 33 27 29
f 33 29 31
f 33 31 1
f 34 35 36
f 34 36 37
f 34 37 38
f 34 38 39
f 37 36 40
f 37 40 38
f 35 34 39
f 35 39 41
f 42 43 44
f 42 44 45
f 42 46 47
f 42 47 43
f 45 48 46
f 45 46 42
f 44 49 48
f 44 48 45
f 43 47 49
f 43 49 44
f 49 48 40
f 49 40 41
f 40 48 46
f 40 46 38
f 46 47 39
f 46 39 38
f 39 47 49
f 39 49 41
f 41 40 36
f 41 36 35
