o 3021
v 0.0064000 0.0000000 -0.0016000
v 0.0062174 0.0009185 -0.0016000
v 0.0062174 0.0009185 -0.0032000
v 0.0064000 0.0000000 -0.0032000
v 0.0056970 0.0016970 -0.0016000
v 0.0056970 0.0016970 -0.0032000
v 0.0049185 0.0022174 -0.0016000
v 0.0049185 0.0022174 -0.0032000
v 0.0040000 0.0024000 -0.0016000
v 0.0040000 0.0024000 -0.0032000
v 0.0030815 0.0022174 -0.0016000
v 0.0030815 0.0022174 -0.0032000
v 0.0023030 0.0016970 -0.0016000
v 0.0023030 0.0016970 -0.0032000
v 0.0017826 0.0009185 -0.0016000
v 0.0017826 0.0009185 -0.0032000
v 0.0016000 0.0000000 -0.0016000
v 0.0016000 0.0000000 -0.0032000
v 0.0017826 -0.0009185 -0.0016000
v 0.0017826 -0.0009185 -0.0032000
v 0.0023030 -0.0016970 -0.0016000
v 0.0023030 -0.0016970 -0.0032000
v 0.0030815 -0.0022174 -0.0016000
v 0.0030815 -0.0022174 -0.0032000
v 0.0040000 -0.0024000 -0.0016000
v 0.0040000 -0.0024000 -0.0032000
v 0.0049185 -0.0022174 -0.0016000
v 0.0049185 -0.0022174 -0.0032000
v 0.0056970 -0.0016970 -0.0016000
v 0.0056970 -0.0016970 -0.0032000
v 0.0062174 -0.0009185 -0.0016000
v 0.0062174 -0.0009185 -0.0032000
v 0.0072000 0.0000000 -0.0016000
v 0.0069565 0.0012246 -0.0016000
v 0.0069565 0.0012246 -0.0032000
v 0.0072000 0.0000000 -0.0032000
v 0.0062627 0.0022627 -0.0016000
v 0.0062627 0.0022627 -0.0032000
v 0.0052246 0.0029565 -0.0016000
v 0.0052246 0.0029565 -0.0032000
v 0.0040000 0.0032000 -0.0016000
v 0.0040000 0.0032000 -0.0032000
v 0.0027754 0.0029565 -0.0016000
v 0.0027754 0.0029565 -0.0032000
v 0.0017373 0.0022627 -0.0016000
v 0.0017373 0.0022627 -0.0032000
v 0.0010435 0.0012246 -0.0016000
v 0.0010435 0.0012246 -0.0032000
v 0.0008000 0.0000000 -0.0016000
v 0.0008000 0.0000000 -0.0032000
v 0.0010435 -0.0012246 -0.0016000
v 0.0010435 -0.0012246 -0.0032000
v 0.0017373 -0.0022627 -0.0016000
v 0.0017373 -0.0022627 -0.0032000
v 0.0027754 -0.0029565 -0.0016000
v 0.0027754 -0.0029565 -0.0032000
v 0.0040000 -0.0032000 -0.0016000
v 0.0040000 -0.0032000 -0.0032000
v 0.0052246 -0.0029565 -0.0016000
v 0.0052246 -0.0029565 -0.0032000
v 0.0062627 -0.0022627 -0.0016000
v 0.0062627 -0.0022627 -0.0032000
v 0.0069565 -0.0012246 -0.0016000
v 0.0069565 -0.0012246 -0.0032000
v -0.0016000 0.0000000 -0.0016000
v -0.0017826 0.0009185 -0.0016000
v -0.0017826 0.0009185 -0.0032000
v -0.0016000 0.0000000 -0.0032000
v -0.0023030 0.0016970 -0.0016000
v -0.0023030 0.0016970 -0.0032000
v -0.0030815 0.0022174 -0.0016000
v -0.0030815 0.0022174 -0.0032000
v -0.0040000 0.0024000 -0.0016000
v -0.0040000 0.0024000 -0.0032000
v -0.0049185 0.0022174 -0.0016000
v -0.0049185 0.0022174 -0.0032000
v -0.0056970 0.0016970 -0.0016000
v -0.0056970 0.0016970 -0.0032000
v -0.0062174 0.0009185 -0.0016000
v -0.0062174 0.0009185 -0.0032000
v -0.0064000 0.0000000 -0.0016000
v -0.0064000 0.0000000 -0.0032000
v -0.0062174 -0.0009185 -0.0016000
v -0.0062174 -0.0009185 -0.0032000
v -0.0056970 -0.0016970 -0.0016000
v -0.0056970 -0.0016970 -0.0032000
v -0.0049185 -0.0022174 -0.0016000
v -0.0049185 -0.0022174 -0.0032000
v -0.0040000 -0.0024000 -0.0016000
v -0.0040000 -0.0024000 -0.0032000
v -0.0030815 -0.0022174 -0.0016000
v -0.0030815 -0.0022174 -0.0032000
v -0.0023030 -0.0016970 -0.0016000
v -0.0023030 -0.0016970 -0.0032000
v -0.0017826 -0.0009185 -0.0016000
v -0.0017826 -0.0009185 -0.0032000
v -0.0008000 0.0000000 -0.0016000
v -0.0010435 0.0012246 -0.0016000
v -0.0010435 0.0012246 -0.0032000
v -0.0008000 0.0000000 -0.0032000
v -0.0017373 0.0022627 -0.0016000
v -0.0017373 0.0022627 -0.0032000
v -0.0027754 0.0029565 -0.0016000
v -0.0027754 0.0029565 -0.0032000
v -0.0040000 0.0032000 -0.0016000
v -0.0040000 0.0032000 -0.0032000
v -0.0052246 0.0029565 -0.0016000
v -0.0052246 0.0029565 -0.0032000
v -0.0062627 0.0022627 -0.0016000
v -0.0062627 0.0022627 -0.0032000
v -0.0069565 0.0012246 -0.0016000
v -0.0069565 0.0012246 -0.0032000
v -0.0072000 0.0000000 -0.0016000
v -0.0072000 0.0000000 -0.0032000
v -0.0069565 -0.0012246 -0.0016000
v -0.0069565 -0.0012246 -0.0032000
v -0.0062627 -0.0022627 -0.0016000
v -0.0062627 -0.0022627 -0.0032000
v -0.0052246 -0.0029565 -0.0016000
v -0.0052246 -0.0029565 -0.0032000
v -0.0040000 -0.0032000 -0.0016000
v -0.0040000 -0.0032000 -0.0032000
v -0.0027754 -0.0029565 -0.0016000
v -0.0027754 -0.0029565 -0.0032000
v -0.0017373 -0.0022627 -0.0016000
v -0.0017373 -0.0022627 -0.0032000
v -0.0010435 -0.0012246 -0.0016000
v -0.0010435 -0.0012246 -0.0032000
v -0.0104000 0.0064000 -0.0016000
v 0.0104000 0.0064000 -0.0016000
v 0.0104000 -0.0064000 -0.0016000
v -0.0104000 -0.0064000 -0.0016000
v -0.0104000 0.0064000 -0.0032000
v 0.0104000 0.0064000 -0.0032000
v -0.0104000 -0.0064000 -0.0032000
v 0.0104000 -0.0064000 -0.0032000
v 0.0120000 0.0080000 -0.0032000
v -0.0120000 0.0080000 -0.0032000
v -0.0120000 -0.0080000 -0.0032000
v 0.0120000 -0.0080000 -0.0032000
v -0.0120000 0.0080000 -0.0000000
v 0.0120000 0.0080000 -0.0000000
v 0.0120000 -0.0080000 -0.0000000
v -0.0120000 -0.0080000 -0.0000000
v 0.0104000 0.0040000 0.0016000
v 0.0102174 0.0049185 0.0016000
v 0.0102174 0.0049185 -0.0000000
v 0.0104000 0.0040000 -0.0000000
v 0.0096970 0.0056970 0.0016000
v 0.0096970 0.0056970 -0.0000000
v 0.0089185 0.0062174 0.0016000
v 0.0089185 0.0062174 -0.0000000
v 0.0080000 0.0064000 0.0016000
v 0.0080000 0.0064000 -0.0000000
v 0.0070815 0.0062174 0.0016000
v 0.0070815 0.0062174 -0.0000000
v 0.0063030 0.0056970 0.0016000
v 0.0063030 0.0056970 -0.0000000
v 0.0057826 0.0049185 0.0016000
v 0.0057826 0.0049185 -0.0000000
v 0.0056000 0.0040000 0.0016000
v 0.0056000 0.0040000 -0.0000000
v 0.0057826 0.0030815 0.0016000
v 0.0057826 0.0030815 -0.0000000
v 0.0063030 0.0023030 0.0016000
v 0.0063030 0.0023030 -0.0000000
v 0.0070815 0.0017826 0.0016000
v 0.0070815 0.0017826 -0.0000000
v 0.0080000 0.0016000 0.0016000
v 0.0080000 0.0016000 -0.0000000
v 0.0089185 0.0017826 0.0016000
v 0.0089185 0.0017826 -0.0000000
v 0.0096970 0.0023030 0.0016000
v 0.0096970 0.0023030 -0.0000000
v 0.0102174 0.0030815 0.0016000
v 0.0102174 0.0030815 -0.0000000
v 0.0080000 0.0040000 0.0016000
v 0.0024000 0.0040000 0.0016000
v 0.0022174 0.0049185 0.0016000
v 0.0022174 0.0049185 -0.0000000
v 0.0024000 0.0040000 -0.0000000
v 0.0016970 0.0056970 0.0016000
v 0.0016970 0.0056970 -0.0000000
v 0.0009185 0.0062174 0.0016000
v 0.0009185 0.0062174 -0.0000000
v 0.0000000 0.0064000 0.0016000
v 0.0000000 0.0064000 -0.0000000
v -0.0009185 0.0062174 0.0016000
v -0.0009185 0.0062174 -0.0000000
v -0.0016970 0.0056970 0.0016000
v -0.0016970 0.0056970 -0.0000000
v -0.0022174 0.0049185 0.0016000
v -0.0022174 0.0049185 -0.0000000
v -0.0024000 0.0040000 0.0016000
v -0.0024000 0.0040000 -0.0000000
v -0.0022174 0.0030815 0.0016000
v -0.0022174 0.0030815 -0.0000000
v -0.0016970 0.0023030 0.0016000
v -0.0016970 0.0023030 -0.0000000
v -0.0009185 0.0017826 0.0016000
v -0.0009185 0.0017826 -0.0000000
v 0.0000000 0.0016000 0.0016000
v 0.0000000 0.0016000 -0.0000000
v 0.0009185 0.0017826 0.0016000
v 0.0009185 0.0017826 -0.0000000
v 0.0016970 0.0023030 0.0016000
v 0.0016970 0.0023030 -0.0000000
v 0.0022174 0.0030815 0.0016000
v 0.0022174 0.0030815 -0.0000000
v 0.0000000 0.0040000 0.0016000
v -0.0056000 0.0040000 0.0016000
v -0.0057826 0.0049185 0.0016000
v -0.0057826 0.0049185 -0.0000000
v -0.0056000 0.0040000 -0.0000000
v -0.0063030 0.0056970 0.0016000
v -0.0063030 0.0056970 -0.0000000
v -0.0070815 0.0062174 0.0016000
v -0.0070815 0.0062174 -0.0000000
v -0.0080000 0.0064000 0.0016000
v -0.0080000 0.0064000 -0.0000000
v -0.0089185 0.0062174 0.0016000
v -0.0089185 0.0062174 -0.0000000
v -0.0096970 0.0056970 0.0016000
v -0.0096970 0.0056970 -0.0000000
v -0.0102174 0.0049185 0.0016000
v -0.0102174 0.0049185 -0.0000000
v -0.0104000 0.0040000 0.0016000
v -0.0104000 0.0040000 -0.0000000
v -0.0102174 0.0030815 0.0016000
v -0.0102174 0.0030815 -0.0000000
v -0.0096970 0.0023030 0.0016000
v -0.0096970 0.0023030 -0.0000000
v -0.0089185 0.0017826 0.0016000
v -0.0089185 0.0017826 -0.0000000
v -0.0080000 0.0016000 0.0016000
v -0.0080000 0.0016000 -0.0000000
v -0.0070815 0.0017826 0.0016000
v -0.0070815 0.0017826 -0.0000000
v -0.0063030 0.0023030 0.0016000
v -0.0063030 0.0023030 -0.0000000
v -0.0057826 0.0030815 0.0016000
v -0.0057826 0.0030815 -0.0000000
v -0.0080000 0.0040000 0.0016000
v 0.0104000 -0.0040000 0.0016000
v 0.0102174 -0.0030815 0.0016000
v 0.0102174 -0.0030815 -0.0000000
v 0.0104000 -0.0040000 -0.0000000
v 0.0096970 -0.0023030 0.0016000
v 0.0096970 -0.0023030 -0.0000000
v 0.0089185 -0.0017826 0.0016000
v 0.0089185 -0.0017826 -0.0000000
v 0.0080000 -0.0016000 0.0016000
v 0.0080000 -0.0016000 -0.0000000
v 0.0070815 -0.0017826 0.0016000
v 0.0070815 -0.0017826 -0.0000000
v 0.0063030 -0.0023030 0.0016000
v 0.0063030 -0.0023030 -0.0000000
v 0.0057826 -0.0030815 0.0016000
v 0.0057826 -0.0030815 -0.0000000
v 0.0056000 -0.0040000 0.0016000
v 0.0056000 -0.0040000 -0.0000000
v 0.0057826 -0.0049185 0.0016000
v 0.0057826 -0.0049185 -0.0000000
v 0.0063030 -0.0056970 0.0016000
v 0.0063030 -0.0056970 -0.0000000
v 0.0070815 -0.0062174 0.0016000
v 0.0070815 -0.0062174 -0.0000000
v 0.0080000 -0.0064000 0.0016000
v 0.0080000 -0.0064000 -0.0000000
v 0.0089185 -0.0062174 0.0016000
v 0.0089185 -0.0062174 -0.0000000
v 0.0096970 -0.0056970 0.0016000
v 0.0096970 -0.0056970 -0.0000000
v 0.0102174 -0.0049185 0.0016000
v 0.0102174 -0.0049185 -0.0000000
v 0.0080000 -0.0040000 0.0016000
v 0.0024000 -0.0040000 0.0016000
v 0.0022174 -0.0030815 0.0016000
v 0.0022174 -0.0030815 -0.0000000
v 0.0024000 -0.0040000 -0.0000000
v 0.0016970 -0.0023030 0.0016000
v 0.0016970 -0.0023030 -0.0000000
v 0.0009185 -0.0017826 0.0016000
v 0.0009185 -0.0017826 -0.0000000
v 0.0000000 -0.0016000 0.0016000
v 0.0000000 -0.0016000 -0.0000000
v -0.0009185 -0.0017826 0.0016000
v -0.0009185 -0.0017826 -0.0000000
v -0.0016970 -0.0023030 0.0016000
v -0.0016970 -0.0023030 -0.0000000
v -0.0022174 -0.0030815 0.0016000
v -0.0022174 -0.0030815 -0.0000000
v -0.0024000 -0.0040000 0.0016000
v -0.0024000 -0.0040000 -0.0000000
v -0.0022174 -0.0049185 0.0016000
v -0.0022174 -0.0049185 -0.0000000
v -0.0016970 -0.0056970 0.0016000
v -0.0016970 -0.0056970 -0.0000000
v -0.0009185 -0.0062174 0.0016000
v -0.0009185 -0.0062174 -0.0000000
v 0.0000000 -0.0064000 0.0016000
v 0.0000000 -0.0064000 -0.0000000
v 0.0009185 -0.0062174 0.0016000
v 0.0009185 -0.0062174 -0.0000000
v 0.0016970 -0.0056970 0.0016000
v 0.0016970 -0.0056970 -0.0000000
v 0.0022174 -0.0049185 0.0016000
v 0.0022174 -0.0049185 -0.0000000
v 0.0000000 -0.0040000 0.0016000
v -0.0056000 -0.0040000 0.0016000
v -0.0057826 -0.0030815 0.0016000
v -0.0057826 -0.0030815 -0.0000000
v -0.0056000 -0.0040000 -0.0000000
v -0.0063030 -0.0023030 0.0016000
v -0.0063030 -0.0023030 -0.0000000
v -0.0070815 -0.0017826 0.0016000
v -0.0070815 -0.0017826 -0.0000000
v -0.0080000 -0.0016000 0.0016000
v -0.0080000 -0.0016000 -0.0000000
v -0.0089185 -0.0017826 0.0016000
v -0.0089185 -0.0017826 -0.0000000
v -0.0096970 -0.0023030 0.0016000
v -0.0096970 -0.0023030 -0.0000000
v -0.0102174 -0.0030815 0.0016000
v -0.0102174 -0.0030815 -0.0000000
v -0.0104000 -0.0040000 0.0016000
v -0.0104000 -0.0040000 -0.0000000
v -0.0102174 -0.0049185 0.0016000
v -0.0102174 -0.0049185 -0.0000000
v -0.0096970 -0.0056970 0.0016000
v -0.0096970 -0.0056970 -0.0000000
v -0.0089185 -0.0062174 0.0016000
v -0.0089185 -0.0062174 -0.0000000
v -0.0080000 -0.0064000 0.0016000
v -0.0080000 -0.0064000 -0.0000000
v -0.0070815 -0.0062174 0.0016000
v -0.0070815 -0.0062174 -0.0000000
v -0.0063030 -0.0056970 0.0016000
v -0.0063030 -0.0056970 -0.0000000
v -0.0057826 -0.0049185 0.0016000
v -0.0057826 -0.0049185 -0.0000000
v -0.0080000 -0.0040000 0.0016000
usemtl c16
f 4 3 2
f 4 2 1
f 3 6 5
f 3 5 2
f 6 8 7
f 6 7 5
f 8 10 9
f 8 9 7
f 10 12 11
f 10 11 9
f 12 14 13
f 12 13 11
f 14 16 15
f 14 15 13
f 16 18 17
f 16 17 15
f 18 20 19
f 18 19 17
f 20 22 21
f 20 21 19
f 22 24 23
f 22 23 21
f 24 26 25
f 24 25 23
f 26 28 27
f 26 27 25
f 28 30 29
f 28 29 27
f 30 32 31
f 30 31 29
f 32 4 1
f 32 1 31
f 36 35 34
f 36 34 33
f 35 38 37
f 35 37 34
f 38 40 39
f 38 39 37
f 40 42 41
f 40 41 39
f 42 44 43
f 42 43 41
f 44 46 45
f 44 45 43
f 46 48 47
f 46 47 45
f 48 50 49
f 48 49 47
f 50 52 51
f 50 51 49
f 52 54 53
f 52 53 51
f 54 56 55
f 54 55 53
f 56 58 57
f 56 57 55
f 58 60 59
f 58 59 57
f 60 62 61
f 60 61 59
f 62 64 63
f 62 63 61
f 64 36 33
f 64 33 63
f 42 10 12
f 42 12 44
f 44 12 14
f 44 14 46
f 46 14 16
f 46 16 48
f 48 16 18
f 48 18 50
f 50 18 20
f 50 20 52
f 52 20 22
f 52 22 54
f 54 22 24
f 54 24 56
f 56 24 26
f 56 26 58
f 58 26 28
f 58 28 60
f 60 28 30
f 60 30 62
f 62 30 32
f 62 32 64
f 64 32 4
f 64 4 36
f 36 4 3
f 36 3 35
f 35 3 6
f 35 6 38
f 38 6 8
f 38 8 40
f 40 8 10
f 40 10 42
f 68 67 66
f 68 66 65
f 67 70 69
f 67 69 66
f 70 72 71
f 70 71 69
f 72 74 73
f 72 73 71
f 74 76 75
f 74 75 73
f 76 78 77
f 76 77 75
f 78 80 79
f 78 79 77
f 80 82 81
f 80 81 79
f 82 84 83
f 82 83 81
f 84 86 85
f 84 85 83
f 86 88 87
f 86 87 85
f 88 90 89
f 88 89 87
f 90 92 91
f 90 91 89
f 92 94 93
f 92 93 91
f 94 96 95
f 94 95 93
f 96 68 65
f 96 65 95
f 100 99 98
f 100 98 97
f 99 102 101
f 99 101 98
f 102 104 103
f 102 103 101
f 104 106 105
f 104 105 103
f 106 108 107
f 106 107 105
f 108 110 109
f 108 109 107
f 110 112 111
f 110 111 109
f 112 114 113
f 112 113 111
f 114 116 115
f 114 115 113
f 116 118 117
f 116 117 115
f 118 120 119
f 118 119 117
f 120 122 121
f 120 121 119
f 122 124 123
f 122 123 121
f 124 126 125
f 124 125 123
f 126 128 127
f 126 127 125
f 128 100 97
f 128 97 127
f 106 74 76
f 106 76 108
f 108 76 78
f 108 78 110
f 110 78 80
f 110 80 112
f 112 80 82
f 112 82 114
f 114 82 84
f 114 84 116
f 116 84 86
f 116 86 118
f 118 86 88
f 118 88 120
f 120 88 90
f 120 90 122
f 122 90 92
f 122 92 124
f 124 92 94
f 124 94 126
f 126 94 96
f 126 96 128
f 128 96 68
f 128 68 100
f 100 68 67
f 100 67 99
f 99 67 70
f 99 70 102
f 102 70 72
f 102 72 104
f 104 72 74
f 104 74 106
f 132 131 130
f 132 130 129
f 130 134 133
f 130 133 129
f 129 133 135
f 129 135 132
f 132 135 136
f 132 136 131
f 131 136 134
f 131 134 130
f 137 134 133
f 137 133 138
f 139 135 136
f 139 136 140
f 140 136 134
f 140 134 137
f 138 133 135
f 138 135 139
f 144 143 142
f 144 142 141
f 142 137 138
f 142 138 141
f 141 138 139
f 141 139 144
f 144 139 140
f 144 140 143
f 143 140 137
f 143 137 142
f 148 147 146
f 148 146 145
f 147 150 149
f 147 149 146
f 150 152 151
f 150 151 149
f 152 154 153
f 152 153 151
f 154 156 155
f 154 155 153
f 156 158 157
f 156 157 155
f 158 160 159
f 158 159 157
f 160 162 161
f 160 161 159
f 162 164 163
f 162 163 161
f 164 166 165
f 164 165 163
f 166 168 167
f 166 167 165
f 168 170 169
f 168 169 167
f 170 172 171
f 170 171 169
f 172 174 173
f 172 173 171
f 174 176 175
f 174 175 173
f 176 148 145
f 176 145 175
f 177 145 146
f 177 146 149
f 177 149 151
f 177 151 153
f 177 153 155
f 177 155 157
f 177 157 159
f 177 159 161
f 177 161 163
f 177 163 165
f 177 165 167
f 177 167 169
f 177 169 171
f 177 171 173
f 177 173 175
f 177 175 145
f 181 180 179
f 181 179 178
f 180 183 182
f 180 182 179
f 183 185 184
f 183 184 182
f 185 187 186
f 185 186 184
f 187 189 188
f 187 188 186
f 189 191 190
f 189 190 188
f 191 193 192
f 191 192 190
f 193 195 194
f 193 194 192
f 195 197 196
f 195 196 194
f 197 199 198
f 197 198 196
f 199 201 200
f 199 200 198
f 201 203 202
f 201 202 200
f 203 205 204
f 203 204 202
f 205 207 206
f 205 206 204
f 207 209 208
f 207 208 206
f 209 181 178
f 209 178 208
f 210 178 179
f 210 179 182
f 210 182 184
f 210 184 186
f 210 186 188
f 210 188 190
f 210 190 192
f 210 192 194
f 210 194 196
f 210 196 198
f 210 198 200
f 210 200 202
f 210 202 204
f 210 204 206
f 210 206 208
f 210 208 178
f 214 213 212
f 214 212 211
f 213 216 215
f 213 215 212
f 216 218 217
f 216 217 215
f 218 220 219
f 218 219 217
f 220 222 221
f 220 221 219
f 222 224 223
f 222 223 221
f 224 226 225
f 224 225 223
f 226 228 227
f 226 227 225
f 228 230 229
f 228 229 227
f 230 232 231
f 230 231 229
f 232 234 233
f 232 233 231
f 234 236 235
f 234 235 233
f 236 238 237
f 236 237 235
f 238 240 239
f 238 239 237
f 240 242 241
f 240 241 239
f 242 214 211
f 242 211 241
f 243 211 212
f 243 212 215
f 243 215 217
f 243 217 219
f 243 219 221
f 243 221 223
f 243 223 225
f 243 225 227
f 243 227 229
f 243 229 231
f 243 231 233
f 243 233 235
f 243 235 237
f 243 237 239
f 243 239 241
f 243 241 211
f 247 246 245
f 247 245 244
f 246 249 248
f 246 248 245
f 249 251 250
f 249 250 248
f 251 253 252
f 251 252 250
f 253 255 254
f 253 254 252
f 255 257 256
f 255 256 254
f 257 259 258
f 257 258 256
f 259 261 260
f 259 260 258
f 261 263 262
f 261 262 260
f 263 265 264
f 263 264 262
f 265 267 266
f 265 266 264
f 267 269 268
f 267 268 266
f 269 271 270
f 269 270 268
f 271 273 272
f 271 272 270
f 273 275 274
f 273 274 272
f 275 247 244
f 275 244 274
f 276 244 245
f 276 245 248
f 276 248 250
f 276 250 252
f 276 252 254
f 276 254 256
f 276 256 258
f 276 258 260
f 276 260 262
f 276 262 264
f 276 264 266
f 276 266 268
f 276 268 270
f 276 270 272
f 276 272 274
f 276 274 244
f 280 279 278
f 280 278 277
f 279 282 281
f 279 281 278
f 282 284 283
f 282 283 281
f 284 286 285
f 284 285 283
f 286 288 287
f 286 287 285
f 288 290 289
f 288 289 287
f 290 292 291
f 290 291 289
f 292 294 293
f 292 293 291
f 294 296 295
f 294 295 293
f 296 298 297
f 296 297 295
f 298 300 299
f 298 299 297
f 300 302 301
f 300 301 299
f 302 304 303
f 302 303 301
f 304 306 305
f 304 305 303
f 306 308 307
f 306 307 305
f 308 280 277
f 308 277 307
f 309 277 278
f 309 278 281
f 309 281 283
f 309 283 285
f 309 285 287
f 309 287 289
f 309 289 291
f 309 291 293
f 309 293 295
f 309 295 297
f 309 297 299
f 309 299 301
f 309 301 303
f 309 303 305
f 309 305 307
f 309 307 277
f 313 312 311
f 313 311 310
f 312 315 314
f 312 314 311
f 315 317 316
f 315 316 314
f 317 319 318
f 317 318 316
f 319 321 320
f 319 320 318
f 321 323 322
f 321 322 320
f 323 325 324
f 323 324 322
f 325 327 326
f 325 326 324
f 327 329 328
f 327 328 326
f 329 331 330
f 329 330 328
f 331 333 332
f 331 332 330
f 333 335 334
f 333 334 332
f 335 337 336
f 335 336 334
f 337 339 338
f 337 338 336
f 339 341 340
f 339 340 338
f 341 313 310
f 341 310 340
f 342 310 311
f 342 311 314
f 342 314 316
f 342 316 318
f 342 318 320
f 342 320 322
f 342 322 324
f 342 324 326
f 342 326 328
f 342 328 330
f 342 330 332
f 342 332 334
f 342 334 336
f 342 336 338
f 342 338 340
f 342 340 310
