o 3024
v 0.0024000 0.0024000 -0.0016000
v 0.0024000 -0.0024000 -0.0016000
v -0.0024000 -0.0024000 -0.0016000
v -0.0024000 0.0024000 -0.0016000
v 0.0024000 0.0024000 -0.0032000
v 0.0024000 -0.0024000 -0.0032000
v -0.0024000 0.0024000 -0.0032000
v -0.0024000 -0.0024000 -0.0032000
v 0.0040000 -0.0040000 -0.0032000
v 0.0040000 0.0040000 -0.0032000
v -0.0040000 0.0040000 -0.0032000
v -0.0040000 -0.0040000 -0.0032000
v 0.0040000 0.0040000 -0.0000000
v 0.0040000 -0.0040000 -0.0000000
v -0.0040000 -0.0040000 -0.0000000
v -0.0040000 0.0040000 -0.0000000
v 0.0000000 -0.0024000 0.0016000
v 0.0009185 -0.0022174 0.0016000
v 0.0009185 -0.0022174 -0.0000000
v 0.0000000 -0.0024000 -0.0000000
v 0.0016970 -0.0016970 0.0016000
v 0.0016970 -0.0016970 -0.0000000
v 0.0022174 -0.0009185 0.0016000
v 0.0022174 -0.0009185 -0.0000000
v 0.0024000 0.0000000 0.0016000
v 0.0024000 0.0000000 -0.0000000
v 0.0022174 0.0009185 0.0016000
v 0.0022174 0.0009185 -0.0000000
v 0.0016970 0.0016970 0.0016000
v 0.0016970 0.0016970 -0.0000000
v 0.0009185 0.0022174 0.0016000
v 0.0009185 0.0022174 -0.0000000
v 0.0000000 0.0024000 0.0016000
v 0.0000000 0.0024000 -0.0000000
v -0.0009185 0.0022174 0.0016000
v -0.0009185 0.0022174 -0.0000000
v -0.0016970 0.0016970 0.0016000
v -0.0016970 0.0016970 -0.0000000
v -0.0022174 0.0009185 0.0016000
v -0.0022174 0.0009185 -0.0000000
v -0.0024000 0.0000000 0.0016000
v -0.0024000 0.0000000 -0.0000000
v -0.0022174 -0.0009185 0.0016000
v -0.0022174 -0.0009185 -0.0000000
v -0.0016970 -0.0016970 0.0016000
v -0.0016970 -0.0016970 -0.0000000
v -0.0009185 -0.0022174 0.0016000
v -0.0009185 -0.0022174 -0.0000000
v 0.0000000 0.0000000 0.0016000
usemtl c16
f 4 3 2
f 4 2 1
f 2 6 5
f 2 5 1
f 1 5 7
f 1 7 4
f 4 7 8
f 4 8 3
f 3 8 6
f 3 6 2
f 9 6 5
f 9 5 10
f 10 5 7
f 10 7 11
f 11 7 8
f 11 8 12
f 12 8 6
f 12 6 9
f 16 15 14
f 16 14 13
f 10 11 16
f 10 16 13
f 11 12 15
f 11 15 16
f 9 10 13
f 9 13 14
f 20 19 18
f 20 18 17
f 19 22 21
f 19 21 18
f 22 24 23
f 22 23 21
f 24 26 25
f 24 25 23
f 26 28 27
f 26 27 25
f 28 30 29
f 28 29 27
f 30 32 31
f 30 31 29
f 32 34 33
f 32 33 31
f 34 36 35
f 34 35 33
f 36 38 37
f 36 37 35
f 38 40 39
f 38 39 37
f 40 42 41
f 40 41 39
f 42 44 43
f 42 43 41
f 44 46 45
f 44 45 43
f 46 48 47
f 46 47 45
f 48 20 17
f 48 17 47
f 49 17 18
f 49 18 21
f 49 21 23
f 49 23 25
f 49 25 27
f 49 27 29
f 49 29 31
f 49 31 33
f 49 33 35
f 49 35 37
f 49 37 39
f 49 39 41
f 49 41 43
f 49 43 45
f 49 45 47
f 49 47 17
f 12 9 14
f 12 14 15
