o 3031
v 0.0104000 0.0080000 -0.0016000
v 0.0102174 0.0089185 -0.0016000
v 0.0102174 0.0089185 -0.0032000
v 0.0104000 0.0080000 -0.0032000
v 0.0096970 0.0096970 -0.0016000
v 0.0096970 0.0096970 -0.0032000
v 0.0089185 0.0102174 -0.0016000
v 0.0089185 0.0102174 -0.0032000
v 0.0080000 0.0104000 -0.0016000
v 0.0080000 0.0104000 -0.0032000
v 0.0070815 0.0102174 -0.0016000
v 0.0070815 0.0102174 -0.0032000
v 0.0063030 0.0096970 -0.0016000
v 0.0063030 0.0096970 -0.0032000
v 0.0057826 0.0089185 -0.0016000
v 0.0057826 0.0089185 -0.0032000
v 0.0056000 0.0080000 -0.0016000
v 0.0056000 0.0080000 -0.0032000
v 0.0057826 0.0070815 -0.0016000
v 0.0057826 0.0070815 -0.0032000
v 0.0063030 0.0063030 -0.0016000
v 0.0063030 0.0063030 -0.0032000
v 0.0070815 0.0057826 -0.0016000
v 0.0070815 0.0057826 -0.0032000
v 0.0080000 0.0056000 -0.0016000
v 0.0080000 0.0056000 -0.0032000
v 0.0089185 0.0057826 -0.0016000
v 0.0089185 0.0057826 -0.0032000
v 0.0096970 0.0063030 -0.0016000
v 0.0096970 0.0063030 -0.0032000
v 0.0102174 0.0070815 -0.0016000
v 0.0102174 0.0070815 -0.0032000
v 0.0112000 0.0080000 -0.0016000
v 0.0109565 0.0092246 -0.0016000
v 0.0109565 0.0092246 -0.0032000
v 0.0112000 0.0080000 -0.0032000
v 0.0102627 0.0102627 -0.0016000
v 0.0102627 0.0102627 -0.0032000
v 0.0092246 0.0109565 -0.0016000
v 0.0092246 0.0109565 -0.0032000
v 0.0080000 0.0112000 -0.0016000
v 0.0080000 0.0112000 -0.0032000
v 0.0067754 0.0109565 -0.0016000
v 0.0067754 0.0109565 -0.0032000
v 0.0057373 0.0102627 -0.0016000
v 0.0057373 0.0102627 -0.0032000
v 0.0050435 0.0092246 -0.0016000
v 0.0050435 0.0092246 -0.0032000
v 0.0048000 0.0080000 -0.0016000
v 0.0048000 0.0080000 -0.0032000
v 0.0050435 0.0067754 -0.0016000
v 0.0050435 0.0067754 -0.0032000
v 0.0057373 0.0057373 -0.0016000
v 0.0057373 0.0057373 -0.0032000
v 0.0067754 0.0050435 -0.0016000
v 0.0067754 0.0050435 -0.0032000
v 0.0080000 0.0048000 -0.0016000
v 0.0080000 0.0048000 -0.0032000
v 0.0092246 0.0050435 -0.0016000
v 0.0092246 0.0050435 -0.0032000
v 0.0102627 0.0057373 -0.0016000
v 0.0102627 0.0057373 -0.0032000
v 0.0109565 0.0067754 -0.0016000
v 0.0109565 0.0067754 -0.0032000
v 0.0024000 0.0080000 -0.0016000
v 0.0022174 0.0089185 -0.0016000
v 0.0022174 0.0089185 -0.0032000
v 0.0024000 0.0080000 -0.0032000
v 0.0016970 0.0096970 -0.0016000
v 0.0016970 0.0096970 -0.0032000
v 0.0009185 0.0102174 -0.0016000
v 0.0009185 0.0102174 -0.0032000
v 0.0000000 0.0104000 -0.0016000
v 0.0000000 0.0104000 -0.0032000
v -0.0009185 0.0102174 -0.0016000
v -0.0009185 0.0102174 -0.0032000
v -0.0016970 0.0096970 -0.0016000
v -0.0016970 0.0096970 -0.0032000
v -0.0022174 0.0089185 -0.0016000
v -0.0022174 0.0089185 -0.0032000
v -0.0024000 0.0080000 -0.0016000
v -0.0024000 0.0080000 -0.0032000
v -0.0022174 0.0070815 -0.0016000
v -0.0022174 0.0070815 -0.0032000
v -0.0016970 0.0063030 -0.0016000
v -0.0016970 0.0063030 -0.0032000
v -0.0009185 0.0057826 -0.0016000
v -0.0009185 0.0057826 -0.0032000
v 0.0000000 0.0056000 -0.0016000
v 0.0000000 0.0056000 -0.0032000
v 0.0009185 0.0057826 -0.0016000
v 0.0009185 0.0057826 -0.0032000
v 0.0016970 0.0063030 -0.0016000
v 0.0016970 0.0063030 -0.0032000
v 0.0022174 0.0070815 -0.0016000
v 0.0022174 0.0070815 -0.0032000
v 0.0032000 0.0080000 -0.0016000
v 0.0029565 0.0092246 -0.0016000
v 0.0029565 0.0092246 -0.0032000
v 0.0032000 0.0080000 -0.0032000
v 0.0022627 0.0102627 -0.0016000
v 0.0022627 0.0102627 -0.0032000
v 0.0012246 0.0109565 -0.0016000
v 0.0012246 0.0109565 -0.0032000
v 0.0000000 0.0112000 -0.0016000
v 0.0000000 0.0112000 -0.0032000
v -0.0012246 0.0109565 -0.0016000
v -0.0012246 0.0109565 -0.0032000
v -0.0022627 0.0102627 -0.0016000
v -0.0022627 0.0102627 -0.0032000
v -0.0029565 0.0092246 -0.0016000
v -0.0029565 0.0092246 -0.0032000
v -0.0032000 0.0080000 -0.0016000
v -0.0032000 0.0080000 -0.0032000
v -0.0029565 0.0067754 -0.0016000
v -0.0029565 0.0067754 -0.0032000
v -0.0022627 0.0057373 -0.0016000
v -0.0022627 0.0057373 -0.0032000
v -0.0012246 0.0050435 -0.0016000
v -0.0012246 0.0050435 -0.0032000
v 0.0000000 0.0048000 -0.0016000
v 0.0000000 0.0048000 -0.0032000
v 0.0012246 0.0050435 -0.0016000
v 0.0012246 0.0050435 -0.0032000
v 0.0022627 0.0057373 -0.0016000
v 0.0022627 0.0057373 -0.0032000
v 0.0029565 0.0067754 -0.0016000
v 0.0029565 0.0067754 -0.0032000
v -0.0056000 0.0080000 -0.0016000
v -0.0057826 0.0089185 -0.0016000
v -0.0057826 0.0089185 -0.0032000
v -0.0056000 0.0080000 -0.0032000
v -0.0063030 0.0096970 -0.0016000
v -0.0063030 0.0096970 -0.0032000
v -0.0070815 0.0102174 -0.0016000
v -0.0070815 0.0102174 -0.0032000
v -0.0080000 0.0104000 -0.0016000
v -0.0080000 0.0104000 -0.0032000
v -0.0089185 0.0102174 -0.0016000
v -0.0089185 0.0102174 -0.0032000
v -0.0096970 0.0096970 -0.0016000
v -0.0096970 0.0096970 -0.0032000
v -0.0102174 0.0089185 -0.0016000
v -0.0102174 0.0089185 -0.0032000
v -0.0104000 0.0080000 -0.0016000
v -0.0104000 0.0080000 -0.0032000
v -0.0102174 0.0070815 -0.0016000
v -0.0102174 0.0070815 -0.0032000
v -0.0096970 0.0063030 -0.0016000
v -0.0096970 0.0063030 -0.0032000
v -0.0089185 0.0057826 -0.0016000
v -0.0089185 0.0057826 -0.0032000
v -0.0080000 0.0056000 -0.0016000
v -0.0080000 0.0056000 -0.0032000
v -0.0070815 0.0057826 -0.0016000
v -0.0070815 0.0057826 -0.0032000
v -0.0063030 0.0063030 -0.0016000
v -0.0063030 0.0063030 -0.0032000
v -0.0057826 0.0070815 -0.0016000
v -0.0057826 0.0070815 -0.0032000
v -0.0048000 0.0080000 -0.0016000
v -0.0050435 0.0092246 -0.0016000
v -0.0050435 0.0092246 -0.0032000
v -0.0048000 0.0080000 -0.0032000
v -0.0057373 0.0102627 -0.0016000
v -0.0057373 0.0102627 -0.0032000
v -0.0067754 0.0109565 -0.0016000
v -0.0067754 0.0109565 -0.0032000
v -0.0080000 0.0112000 -0.0016000
v -0.0080000 0.0112000 -0.0032000
v -0.0092246 0.0109565 -0.0016000
v -0.0092246 0.0109565 -0.0032000
v -0.0102627 0.0102627 -0.0016000
v -0.0102627 0.0102627 -0.0032000
v -0.0109565 0.0092246 -0.0016000
v -0.0109565 0.0092246 -0.0032000
v -0.0112000 0.0080000 -0.0016000
v -0.0112000 0.0080000 -0.0032000
v -0.0109565 0.0067754 -0.0016000
v -0.0109565 0.0067754 -0.0032000
v -0.0102627 0.0057373 -0.0016000
v -0.0102627 0.0057373 -0.0032000
v -0.0092246 0.0050435 -0.0016000
v -0.0092246 0.0050435 -0.0032000
v -0.0080000 0.0048000 -0.0016000
v -0.0080000 0.0048000 -0.0032000
v -0.0067754 0.0050435 -0.0016000
v -0.0067754 0.0050435 -0.0032000
v -0.0057373 0.0057373 -0.0016000
v -0.0057373 0.0057373 -0.0032000
v -0.0050435 0.0067754 -0.0016000
v -0.0050435 0.0067754 -0.0032000
v 0.0104000 0.0000000 -0.0016000
v 0.0102174 0.0009185 -0.0016000
v 0.0102174 0.0009185 -0.0032000
v 0.0104000 0.0000000 -0.0032000
v 0.0096970 0.0016970 -0.0016000
v 0.0096970 0.0016970 -0.0032000
v 0.0089185 0.0022174 -0.0016000
v 0.0089185 0.0022174 -0.0032000
v 0.0080000 0.0024000 -0.0016000
v 0.0080000 0.0024000 -0.0032000
v 0.0070815 0.0022174 -0.0016000
v 0.0070815 0.0022174 -0.0032000
v 0.0063030 0.0016970 -0.0016000
v 0.0063030 0.0016970 -0.0032000
v 0.0057826 0.0009185 -0.0016000
v 0.0057826 0.0009185 -0.0032000
v 0.0056000 0.0000000 -0.0016000
v 0.0056000 0.0000000 -0.0032000
v 0.0057826 -0.0009185 -0.0016000
v 0.0057826 -0.0009185 -0.0032000
v 0.0063030 -0.0016970 -0.0016000
v 0.0063030 -0.0016970 -0.0032000
v 0.0070815 -0.0022174 -0.0016000
v 0.0070815 -0.0022174 -0.0032000
v 0.0080000 -0.0024000 -0.0016000
v 0.0080000 -0.0024000 -0.0032000
v 0.0089185 -0.0022174 -0.0016000
v 0.0089185 -0.0022174 -0.0032000
v 0.0096970 -0.0016970 -0.0016000
v 0.0096970 -0.0016970 -0.0032000
v 0.0102174 -0.0009185 -0.0016000
v 0.0102174 -0.0009185 -0.0032000
v 0.0112000 0.0000000 -0.0016000
v 0.0109565 0.0012246 -0.0016000
v 0.0109565 0.0012246 -0.0032000
v 0.0112000 0.0000000 -0.0032000
v 0.0102627 0.0022627 -0.0016000
v 0.0102627 0.0022627 -0.0032000
v 0.0092246 0.0029565 -0.0016000
v 0.0092246 0.0029565 -0.0032000
v 0.0080000 0.0032000 -0.0016000
v 0.0080000 0.0032000 -0.0032000
v 0.0067754 0.0029565 -0.0016000
v 0.0067754 0.0029565 -0.0032000
v 0.0057373 0.0022627 -0.0016000
v 0.0057373 0.0022627 -0.0032000
v 0.0050435 0.0012246 -0.0016000
v 0.0050435 0.0012246 -0.0032000
v 0.0048000 0.0000000 -0.0016000
v 0.0048000 0.0000000 -0.0032000
v 0.0050435 -0.0012246 -0.0016000
v 0.0050435 -0.0012246 -0.0032000
v 0.0057373 -0.0022627 -0.0016000
v 0.0057373 -0.0022627 -0.0032000
v 0.0067754 -0.0029565 -0.0016000
v 0.0067754 -0.0029565 -0.0032000
v 0.0080000 -0.0032000 -0.0016000
v 0.0080000 -0.0032000 -0.0032000
v 0.0092246 -0.0029565 -0.0016000
v 0.0092246 -0.0029565 -0.0032000
v 0.0102627 -0.0022627 -0.0016000
v 0.0102627 -0.0022627 -0.0032000
v 0.0109565 -0.0012246 -0.0016000
v 0.0109565 -0.0012246 -0.0032000
v 0.0024000 0.0000000 -0.0016000
v 0.0022174 0.0009185 -0.0016000
v 0.0022174 0.0009185 -0.0032000
v 0.0024000 0.0000000 -0.0032000
v 0.0016970 0.0016970 -0.0016000
v 0.0016970 0.0016970 -0.0032000
v 0.0009185 0.0022174 -0.0016000
v 0.0009185 0.0022174 -0.0032000
v 0.0000000 0.0024000 -0.0016000
v 0.0000000 0.0024000 -0.0032000
v -0.0009185 0.0022174 -0.0016000
v -0.0009185 0.0022174 -0.0032000
v -0.0016970 0.0016970 -0.0016000
v -0.0016970 0.0016970 -0.0032000
v -0.0022174 0.0009185 -0.0016000
v -0.0022174 0.0009185 -0.0032000
v -0.0024000 0.0000000 -0.0016000
v -0.0024000 0.0000000 -0.0032000
v -0.0022174 -0.0009185 -0.0016000
v -0.0022174 -0.0009185 -0.0032000
v -0.0016970 -0.0016970 -0.0016000
v -0.0016970 -0.0016970 -0.0032000
v -0.0009185 -0.0022174 -0.0016000
v -0.0009185 -0.0022174 -0.0032000
v 0.0000000 -0.0024000 -0.0016000
v 0.0000000 -0.0024000 -0.0032000
v 0.0009185 -0.0022174 -0.0016000
v 0.0009185 -0.0022174 -0.0032000
v 0.0016970 -0.0016970 -0.0016000
v 0.0016970 -0.0016970 -0.0032000
v 0.0022174 -0.0009185 -0.0016000
v 0.0022174 -0.0009185 -0.0032000
v 0.0032000 0.0000000 -0.0016000
v 0.0029565 0.0012246 -0.0016000
v 0.0029565 0.0012246 -0.0032000
v 0.0032000 0.0000000 -0.0032000
v 0.0022627 0.0022627 -0.0016000
v 0.0022627 0.0022627 -0.0032000
v 0.0012246 0.0029565 -0.0016000
v 0.0012246 0.0029565 -0.0032000
v 0.0000000 0.0032000 -0.0016000
v 0.0000000 0.0032000 -0.0032000
v -0.0012246 0.0029565 -0.0016000
v -0.0012246 0.0029565 -0.0032000
v -0.0022627 0.0022627 -0.0016000
v -0.0022627 0.0022627 -0.0032000
v -0.0029565 0.0012246 -0.0016000
v -0.0029565 0.0012246 -0.0032000
v -0.0032000 0.0000000 -0.0016000
v -0.0032000 0.0000000 -0.0032000
v -0.0029565 -0.0012246 -0.0016000
v -0.0029565 -0.0012246 -0.0032000
v -0.0022627 -0.0022627 -0.0016000
v -0.0022627 -0.0022627 -0.0032000
v -0.0012246 -0.0029565 -0.0016000
v -0.0012246 -0.0029565 -0.0032000
v 0.0000000 -0.0032000 -0.0016000
v 0.0000000 -0.0032000 -0.0032000
v 0.0012246 -0.0029565 -0.0016000
v 0.0012246 -0.0029565 -0.0032000
v 0.0022627 -0.0022627 -0.0016000
v 0.0022627 -0.0022627 -0.0032000
v 0.0029565 -0.0012246 -0.0016000
v 0.0029565 -0.0012246 -0.0032000
v -0.0056000 0.0000000 -0.0016000
v -0.0057826 0.0009185 -0.0016000
v -0.0057826 0.0009185 -0.0032000
v -0.0056000 0.0000000 -0.0032000
v -0.0063030 0.0016970 -0.0016000
v -0.0063030 0.0016970 -0.0032000
v -0.0070815 0.0022174 -0.0016000
v -0.0070815 0.0022174 -0.0032000
v -0.0080000 0.0024000 -0.0016000
v -0.0080000 0.0024000 -0.0032000
v -0.0089185 0.0022174 -0.0016000
v -0.0089185 0.0022174 -0.0032000
v -0.0096970 0.0016970 -0.0016000
v -0.0096970 0.0016970 -0.0032000
v -0.0102174 0.0009185 -0.0016000
v -0.0102174 0.0009185 -0.0032000
v -0.0104000 0.0000000 -0.0016000
v -0.0104000 0.0000000 -0.0032000
v -0.0102174 -0.0009185 -0.0016000
v -0.0102174 -0.0009185 -0.0032000
v -0.0096970 -0.0016970 -0.0016000
v -0.0096970 -0.0016970 -0.0032000
v -0.0089185 -0.0022174 -0.0016000
v -0.0089185 -0.0022174 -0.0032000
v -0.0080000 -0.0024000 -0.0016000
v -0.0080000 -0.0024000 -0.0032000
v -0.0070815 -0.0022174 -0.0016000
v -0.0070815 -0.0022174 -0.0032000
v -0.0063030 -0.0016970 -0.0016000
v -0.0063030 -0.0016970 -0.0032000
v -0.0057826 -0.0009185 -0.0016000
v -0.0057826 -0.0009185 -0.0032000
v -0.0048000 0.0000000 -0.0016000
v -0.0050435 0.0012246 -0.0016000
v -0.0050435 0.0012246 -0.0032000
v -0.0048000 0.0000000 -0.0032000
v -0.0057373 0.0022627 -0.0016000
v -0.0057373 0.0022627 -0.0032000
v -0.0067754 0.0029565 -0.0016000
v -0.0067754 0.0029565 -0.0032000
v -0.0080000 0.0032000 -0.0016000
v -0.0080000 0.0032000 -0.0032000
v -0.0092246 0.0029565 -0.0016000
v -0.0092246 0.0029565 -0.0032000
v -0.0102627 0.0022627 -0.0016000
v -0.0102627 0.0022627 -0.0032000
v -0.0109565 0.0012246 -0.0016000
v -0.0109565 0.0012246 -0.0032000
v -0.0112000 0.0000000 -0.0016000
v -0.0112000 0.0000000 -0.0032000
v -0.0109565 -0.0012246 -0.0016000
v -0.0109565 -0.0012246 -0.0032000
v -0.0102627 -0.0022627 -0.0016000
v -0.0102627 -0.0022627 -0.0032000
v -0.0092246 -0.0029565 -0.0016000
v -0.0092246 -0.0029565 -0.0032000
v -0.0080000 -0.0032000 -0.0016000
v -0.0080000 -0.0032000 -0.0032000
v -0.0067754 -0.0029565 -0.0016000
v -0.0067754 -0.0029565 -0.0032000
v -0.0057373 -0.0022627 -0.0016000
v -0.0057373 -0.0022627 -0.0032000
v -0.0050435 -0.0012246 -0.0016000
v -0.0050435 -0.0012246 -0.0032000
v 0.0104000 -0.0080000 -0.0016000
v 0.0102174 -0.0070815 -0.0016000
v 0.0102174 -0.0070815 -0.0032000
v 0.0104000 -0.0080000 -0.0032000
v 0.0096970 -0.0063030 -0.0016000
v 0.0096970 -0.0063030 -0.0032000
v 0.0089185 -0.0057826 -0.0016000
v 0.0089185 -0.0057826 -0.0032000
v 0.0080000 -0.0056000 -0.0016000
v 0.0080000 -0.0056000 -0.0032000
v 0.0070815 -0.0057826 -0.0016000
v 0.0070815 -0.0057826 -0.0032000
v 0.0063030 -0.0063030 -0.0016000
v 0.0063030 -0.0063030 -0.0032000
v 0.0057826 -0.0070815 -0.0016000
v 0.0057826 -0.0070815 -0.0032000
v 0.0056000 -0.0080000 -0.0016000
v 0.0056000 -0.0080000 -0.0032000
v 0.0057826 -0.0089185 -0.0016000
v 0.0057826 -0.0089185 -0.0032000
v 0.0063030 -0.0096970 -0.0016000
v 0.0063030 -0.0096970 -0.0032000
v 0.0070815 -0.0102174 -0.0016000
v 0.0070815 -0.0102174 -0.0032000
v 0.0080000 -0.0104000 -0.0016000
v 0.0080000 -0.0104000 -0.0032000
v 0.0089185 -0.0102174 -0.0016000
v 0.0089185 -0.0102174 -0.0032000
v 0.0096970 -0.0096970 -0.0016000
v 0.0096970 -0.0096970 -0.0032000
v 0.0102174 -0.0089185 -0.0016000
v 0.0102174 -0.0089185 -0.0032000
v 0.0112000 -0.0080000 -0.0016000
v 0.0109565 -0.0067754 -0.0016000
v 0.0109565 -0.0067754 -0.0032000
v 0.0112000 -0.0080000 -0.0032000
v 0.0102627 -0.0057373 -0.0016000
v 0.0102627 -0.0057373 -0.0032000
v 0.0092246 -0.0050435 -0.0016000
v 0.0092246 -0.0050435 -0.0032000
v 0.0080000 -0.0048000 -0.0016000
v 0.0080000 -0.0048000 -0.0032000
v 0.0067754 -0.0050435 -0.0016000
v 0.0067754 -0.0050435 -0.0032000
v 0.0057373 -0.0057373 -0.0016000
v 0.0057373 -0.0057373 -0.0032000
v 0.0050435 -0.0067754 -0.0016000
v 0.0050435 -0.0067754 -0.0032000
v 0.0048000 -0.0080000 -0.0016000
v 0.0048000 -0.0080000 -0.0032000
v 0.0050435 -0.0092246 -0.0016000
v 0.0050435 -0.0092246 -0.0032000
v 0.0057373 -0.0102627 -0.0016000
v 0.0057373 -0.0102627 -0.0032000
v 0.0067754 -0.0109565 -0.0016000
v 0.0067754 -0.0109565 -0.0032000
v 0.0080000 -0.0112000 -0.0016000
v 0.0080000 -0.0112000 -0.0032000
v 0.0092246 -0.0109565 -0.0016000
v 0.0092246 -0.0109565 -0.0032000
v 0.0102627 -0.0102627 -0.0016000
v 0.0102627 -0.0102627 -0.0032000
v 0.0109565 -0.0092246 -0.0016000
v 0.0109565 -0.0092246 -0.0032000
v 0.0024000 -0.0080000 -0.0016000
v 0.0022174 -0.0070815 -0.0016000
v 0.0022174 -0.0070815 -0.0032000
v 0.0024000 -0.0080000 -0.0032000
v 0.0016970 -0.0063030 -0.0016000
v 0.0016970 -0.0063030 -0.0032000
v 0.0009185 -0.0057826 -0.0016000
v 0.0009185 -0.0057826 -0.0032000
v 0.0000000 -0.0056000 -0.0016000
v 0.0000000 -0.0056000 -0.0032000
v -0.0009185 -0.0057826 -0.0016000
v -0.0009185 -0.0057826 -0.0032000
v -0.0016970 -0.0063030 -0.0016000
v -0.0016970 -0.0063030 -0.0032000
v -0.0022174 -0.0070815 -0.0016000
v -0.0022174 -0.0070815 -0.0032000
v -0.0024000 -0.0080000 -0.0016000
v -0.0024000 -0.0080000 -0.0032000
v -0.0022174 -0.0089185 -0.0016000
v -0.0022174 -0.0089185 -0.0032000
v -0.0016970 -0.0096970 -0.0016000
v -0.0016970 -0.0096970 -0.0032000
v -0.0009185 -0.0102174 -0.0016000
v -0.0009185 -0.0102174 -0.0032000
v 0.0000000 -0.0104000 -0.0016000
v 0.0000000 -0.0104000 -0.0032000
v 0.0009185 -0.0102174 -0.0016000
v 0.0009185 -0.0102174 -0.0032000
v 0.0016970 -0.0096970 -0.0016000
v 0.0016970 -0.0096970 -0.0032000
v 0.0022174 -0.0089185 -0.0016000
v 0.0022174 -0.0089185 -0.0032000
v 0.0032000 -0.0080000 -0.0016000
v 0.0029565 -0.0067754 -0.0016000
v 0.0029565 -0.0067754 -0.0032000
v 0.0032000 -0.0080000 -0.0032000
v 0.0022627 -0.0057373 -0.0016000
v 0.0022627 -0.0057373 -0.0032000
v 0.0012246 -0.0050435 -0.0016000
v 0.0012246 -0.0050435 -0.0032000
v 0.0000000 -0.0048000 -0.0016000
v 0.0000000 -0.0048000 -0.0032000
v -0.0012246 -0.0050435 -0.0016000
v -0.0012246 -0.0050435 -0.0032000
v -0.0022627 -0.0057373 -0.0016000
v -0.0022627 -0.0057373 -0.0032000
v -0.0029565 -0.0067754 -0.0016000
v -0.0029565 -0.0067754 -0.0032000
v -0.0032000 -0.0080000 -0.0016000
v -0.0032000 -0.0080000 -0.0032000
v -0.0029565 -0.0092246 -0.0016000
v -0.0029565 -0.0092246 -0.0032000
v -0.0022627 -0.0102627 -0.0016000
v -0.0022627 -0.0102627 -0.0032000
v -0.0012246 -0.0109565 -0.0016000
v -0.0012246 -0.0109565 -0.0032000
v 0.0000000 -0.0112000 -0.0016000
v 0.0000000 -0.0112000 -0.0032000
v 0.0012246 -0.0109565 -0.0016000
v 0.0012246 -0.0109565 -0.0032000
v 0.0022627 -0.0102627 -0.0016000
v 0.0022627 -0.0102627 -0.0032000
v 0.0029565 -0.0092246 -0.0016000
v 0.0029565 -0.0092246 -0.0032000
v -0.0056000 -0.0080000 -0.0016000
v -0.0057826 -0.0070815 -0.0016000
v -0.0057826 -0.0070815 -0.0032000
v -0.0056000 -0.0080000 -0.0032000
v -0.0063030 -0.0063030 -0.0016000
v -0.0063030 -0.0063030 -0.0032000
v -0.0070815 -0.0057826 -0.0016000
v -0.0070815 -0.0057826 -0.0032000
v -0.0080000 -0.0056000 -0.0016000
v -0.0080000 -0.0056000 -0.0032000
v -0.0089185 -0.0057826 -0.0016000
v -0.0089185 -0.0057826 -0.0032000
v -0.0096970 -0.0063030 -0.0016000
v -0.0096970 -0.0063030 -0.0032000
v -0.0102174 -0.0070815 -0.0016000
v -0.0102174 -0.0070815 -0.0032000
v -0.0104000 -0.0080000 -0.0016000
v -0.0104000 -0.0080000 -0.0032000
v -0.0102174 -0.0089185 -0.0016000
v -0.0102174 -0.0089185 -0.0032000
v -0.0096970 -0.0096970 -0.0016000
v -0.0096970 -0.0096970 -0.0032000
v -0.0089185 -0.0102174 -0.0016000
v -0.0089185 -0.0102174 -0.0032000
v -0.0080000 -0.0104000 -0.0016000
v -0.0080000 -0.0104000 -0.0032000
v -0.0070815 -0.0102174 -0.0016000
v -0.0070815 -0.0102174 -0.0032000
v -0.0063030 -0.0096970 -0.0016000
v -0.0063030 -0.0096970 -0.0032000
v -0.0057826 -0.0089185 -0.0016000
v -0.0057826 -0.0089185 -0.0032000
v -0.0048000 -0.0080000 -0.0016000
v -0.0050435 -0.0067754 -0.0016000
v -0.0050435 -0.0067754 -0.0032000
v -0.0048000 -0.0080000 -0.0032000
v -0.0057373 -0.0057373 -0.0016000
v -0.0057373 -0.0057373 -0.0032000
v -0.0067754 -0.0050435 -0.0016000
v -0.0067754 -0.0050435 -0.0032000
v -0.0080000 -0.0048000 -0.0016000
v -0.0080000 -0.0048000 -0.0032000
v -0.0092246 -0.0050435 -0.0016000
v -0.0092246 -0.0050435 -0.0032000
v -0.0102627 -0.0057373 -0.0016000
v -0.0102627 -0.0057373 -0.0032000
v -0.0109565 -0.0067754 -0.0016000
v -0.0109565 -0.0067754 -0.0032000
v -0.0112000 -0.0080000 -0.0016000
v -0.0112000 -0.0080000 -0.0032000
v -0.0109565 -0.0092246 -0.0016000
v -0.0109565 -0.0092246 -0.0032000
v -0.0102627 -0.0102627 -0.0016000
v -0.0102627 -0.0102627 -0.0032000
v -0.0092246 -0.0109565 -0.0016000
v -0.0092246 -0.0109565 -0.0032000
v -0.0080000 -0.0112000 -0.0016000
v -0.0080000 -0.0112000 -0.0032000
v -0.0067754 -0.0109565 -0.0016000
v -0.0067754 -0.0109565 -0.0032000
v -0.0057373 -0.0102627 -0.0016000
v -0.0057373 -0.0102627 -0.0032000
v -0.0050435 -0.0092246 -0.0016000
v -0.0050435 -0.0092246 -0.0032000
v -0.0144000 0.0144000 -0.0016000
v 0.0144000 0.0144000 -0.0016000
v 0.0144000 -0.0144000 -0.0016000
v -0.0144000 -0.0144000 -0.0016000
v -0.0144000 0.0144000 -0.0032000
v 0.0144000 0.0144000 -0.0032000
v -0.0144000 -0.0144000 -0.0032000
v 0.0144000 -0.0144000 -0.0032000
v 0.0160000 0.0160000 -0.0032000
v -0.0160000 0.0160000 -0.0032000
v -0.0160000 -0.0160000 -0.0032000
v 0.0160000 -0.0160000 -0.0032000
v -0.0160000 0.0160000 -0.0000000
v 0.0160000 0.0160000 -0.0000000
v 0.0160000 -0.0160000 -0.0000000
v -0.0160000 -0.0160000 -0.0000000
v 0.0144000 0.0120000 0.0016000
v 0.0142174 0.0129185 0.0016000
v 0.0142174 0.0129185 -0.0000000
v 0.0144000 0.0120000 -0.0000000
v 0.0136970 0.0136970 0.0016000
v 0.0136970 0.0136970 -0.0000000
v 0.0129185 0.0142174 0.0016000
v 0.0129185 0.0142174 -0.0000000
v 0.0120000 0.0144000 0.0016000
v 0.0120000 0.0144000 -0.0000000
v 0.0110815 0.0142174 0.0016000
v 0.0110815 0.0142174 -0.0000000
v 0.0103030 0.0136970 0.0016000
v 0.0103030 0.0136970 -0.0000000
v 0.0097826 0.0129185 0.0016000
v 0.0097826 0.0129185 -0.0000000
v 0.0096000 0.0120000 0.0016000
v 0.0096000 0.0120000 -0.0000000
v 0.0097826 0.0110815 0.0016000
v 0.0097826 0.0110815 -0.0000000
v 0.0103030 0.0103030 0.0016000
v 0.0103030 0.0103030 -0.0000000
v 0.0110815 0.0097826 0.0016000
v 0.0110815 0.0097826 -0.0000000
v 0.0120000 0.0096000 0.0016000
v 0.0120000 0.0096000 -0.0000000
v 0.0129185 0.0097826 0.0016000
v 0.0129185 0.0097826 -0.0000000
v 0.0136970 0.0103030 0.0016000
v 0.0136970 0.0103030 -0.0000000
v 0.0142174 0.0110815 0.0016000
v 0.0142174 0.0110815 -0.0000000
v 0.0120000 0.0120000 0.0016000
v 0.0064000 0.0120000 0.0016000
v 0.0062174 0.0129185 0.0016000
v 0.0062174 0.0129185 -0.0000000
v 0.0064000 0.0120000 -0.0000000
v 0.0056970 0.0136970 0.0016000
v 0.0056970 0.0136970 -0.0000000
v 0.0049185 0.0142174 0.0016000
v 0.0049185 0.0142174 -0.0000000
v 0.0040000 0.0144000 0.0016000
v 0.0040000 0.0144000 -0.0000000
v 0.0030815 0.0142174 0.0016000
v 0.0030815 0.0142174 -0.0000000
v 0.0023030 0.0136970 0.0016000
v 0.0023030 0.0136970 -0.0000000
v 0.0017826 0.0129185 0.0016000
v 0.0017826 0.0129185 -0.0000000
v 0.0016000 0.0120000 0.0016000
v 0.0016000 0.0120000 -0.0000000
v 0.0017826 0.0110815 0.0016000
v 0.0017826 0.0110815 -0.0000000
v 0.0023030 0.0103030 0.0016000
v 0.0023030 0.0103030 -0.0000000
v 0.0030815 0.0097826 0.0016000
v 0.0030815 0.0097826 -0.0000000
v 0.0040000 0.0096000 0.0016000
v 0.0040000 0.0096000 -0.0000000
v 0.0049185 0.0097826 0.0016000
v 0.0049185 0.0097826 -0.0000000
v 0.0056970 0.0103030 0.0016000
v 0.0056970 0.0103030 -0.0000000
v 0.0062174 0.0110815 0.0016000
v 0.0062174 0.0110815 -0.0000000
v 0.0040000 0.0120000 0.0016000
v -0.0016000 0.0120000 0.0016000
v -0.0017826 0.0129185 0.0016000
v -0.0017826 0.0129185 -0.0000000
v -0.0016000 0.0120000 -0.0000000
v -0.0023030 0.0136970 0.0016000
v -0.0023030 0.0136970 -0.0000000
v -0.0030815 0.0142174 0.0016000
v -0.0030815 0.0142174 -0.0000000
v -0.0040000 0.0144000 0.0016000
v -0.0040000 0.0144000 -0.0000000
v -0.0049185 0.0142174 0.0016000
v -0.0049185 0.0142174 -0.0000000
v -0.0056970 0.0136970 0.0016000
v -0.0056970 0.0136970 -0.0000000
v -0.0062174 0.0129185 0.0016000
v -0.0062174 0.0129185 -0.0000000
v -0.0064000 0.0120000 0.0016000
v -0.0064000 0.0120000 -0.0000000
v -0.0062174 0.0110815 0.0016000
v -0.0062174 0.0110815 -0.0000000
v -0.0056970 0.0103030 0.0016000
v -0.0056970 0.0103030 -0.0000000
v -0.0049185 0.0097826 0.0016000
v -0.0049185 0.0097826 -0.0000000
v -0.0040000 0.0096000 0.0016000
v -0.0040000 0.0096000 -0.0000000
v -0.0030815 0.0097826 0.0016000
v -0.0030815 0.0097826 -0.0000000
v -0.0023030 0.0103030 0.0016000
v -0.0023030 0.0103030 -0.0000000
v -0.0017826 0.0110815 0.0016000
v -0.0017826 0.0110815 -0.0000000
v -0.0040000 0.0120000 0.0016000
v -0.0096000 0.0120000 0.0016000
v -0.0097826 0.0129185 0.0016000
v -0.0097826 0.0129185 -0.0000000
v -0.0096000 0.0120000 -0.0000000
v -0.0103030 0.0136970 0.0016000
v -0.0103030 0.0136970 -0.0000000
v -0.0110815 0.0142174 0.0016000
v -0.0110815 0.0142174 -0.0000000
v -0.0120000 0.0144000 0.0016000
v -0.0120000 0.0144000 -0.0000000
v -0.0129185 0.0142174 0.0016000
v -0.0129185 0.0142174 -0.0000000
v -0.0136970 0.0136970 0.0016000
v -0.0136970 0.0136970 -0.0000000
v -0.0142174 0.0129185 0.0016000
v -0.0142174 0.0129185 -0.0000000
v -0.0144000 0.0120000 0.0016000
v -0.0144000 0.0120000 -0.0000000
v -0.0142174 0.0110815 0.0016000
v -0.0142174 0.0110815 -0.0000000
v -0.0136970 0.0103030 0.0016000
v -0.0136970 0.0103030 -0.0000000
v -0.0129185 0.0097826 0.0016000
v -0.0129185 0.0097826 -0.0000000
v -0.0120000 0.0096000 0.0016000
v -0.0120000 0.0096000 -0.0000000
v -0.0110815 0.0097826 0.0016000
v -0.0110815 0.0097826 -0.0000000
v -0.0103030 0.0103030 0.0016000
v -0.0103030 0.0103030 -0.0000000
v -0.0097826 0.0110815 0.0016000
v -0.0097826 0.0110815 -0.0000000
v -0.0120000 0.0120000 0.0016000
v 0.0144000 0.0040000 0.0016000
v 0.0142174 0.0049185 0.0016000
v 0.0142174 0.0049185 -0.0000000
v 0.0144000 0.0040000 -0.0000000
v 0.0136970 0.0056970 0.0016000
v 0.0136970 0.0056970 -0.0000000
v 0.0129185 0.0062174 0.0016000
v 0.0129185 0.0062174 -0.0000000
v 0.0120000 0.0064000 0.0016000
v 0.0120000 0.0064000 -0.0000000
v 0.0110815 0.0062174 0.0016000
v 0.0110815 0.0062174 -0.0000000
v 0.0103030 0.0056970 0.0016000
v 0.0103030 0.0056970 -0.0000000
v 0.0097826 0.0049185 0.0016000
v 0.0097826 0.0049185 -0.0000000
v 0.0096000 0.0040000 0.0016000
v 0.0096000 0.0040000 -0.0000000
v 0.0097826 0.0030815 0.0016000
v 0.0097826 0.0030815 -0.0000000
v 0.0103030 0.0023030 0.0016000
v 0.0103030 0.0023030 -0.0000000
v 0.0110815 0.0017826 0.0016000
v 0.0110815 0.0017826 -0.0000000
v 0.0120000 0.0016000 0.0016000
v 0.0120000 0.0016000 -0.0000000
v 0.0129185 0.0017826 0.0016000
v 0.0129185 0.0017826 -0.0000000
v 0.0136970 0.0023030 0.0016000
v 0.0136970 0.0023030 -0.0000000
v 0.0142174 0.0030815 0.0016000
v 0.0142174 0.0030815 -0.0000000
v 0.0120000 0.0040000 0.0016000
v 0.0064000 0.0040000 0.0016000
v 0.0062174 0.0049185 0.0016000
v 0.0062174 0.0049185 -0.0000000
v 0.0064000 0.0040000 -0.0000000
v 0.0056970 0.0056970 0.0016000
v 0.0056970 0.0056970 -0.0000000
v 0.0049185 0.0062174 0.0016000
v 0.0049185 0.0062174 -0.0000000
v 0.0040000 0.0064000 0.0016000
v 0.0040000 0.0064000 -0.0000000
v 0.0030815 0.0062174 0.0016000
v 0.0030815 0.0062174 -0.0000000
v 0.0023030 0.0056970 0.0016000
v 0.0023030 0.0056970 -0.0000000
v 0.0017826 0.0049185 0.0016000
v 0.0017826 0.0049185 -0.0000000
v 0.0016000 0.0040000 0.0016000
v 0.0016000 0.0040000 -0.0000000
v 0.0017826 0.0030815 0.0016000
v 0.0017826 0.0030815 -0.0000000
v 0.0023030 0.0023030 0.0016000
v 0.0023030 0.0023030 -0.0000000
v 0.0030815 0.0017826 0.0016000
v 0.0030815 0.0017826 -0.0000000
v 0.0040000 0.0016000 0.0016000
v 0.0040000 0.0016000 -0.0000000
v 0.0049185 0.0017826 0.0016000
v 0.0049185 0.0017826 -0.0000000
v 0.0056970 0.0023030 0.0016000
v 0.0056970 0.0023030 -0.0000000
v 0.0062174 0.0030815 0.0016000
v 0.0062174 0.0030815 -0.0000000
v 0.0040000 0.0040000 0.0016000
v -0.0016000 0.0040000 0.0016000
v -0.0017826 0.0049185 0.0016000
v -0.0017826 0.0049185 -0.0000000
v -0.0016000 0.0040000 -0.0000000
v -0.0023030 0.0056970 0.0016000
v -0.0023030 0.0056970 -0.0000000
v -0.0030815 0.0062174 0.0016000
v -0.0030815 0.0062174 -0.0000000
v -0.0040000 0.0064000 0.0016000
v -0.0040000 0.0064000 -0.0000000
v -0.0049185 0.0062174 0.0016000
v -0.0049185 0.0062174 -0.0000000
v -0.0056970 0.0056970 0.0016000
v -0.0056970 0.0056970 -0.0000000
v -0.0062174 0.0049185 0.0016000
v -0.0062174 0.0049185 -0.0000000
v -0.0064000 0.0040000 0.0016000
v -0.0064000 0.0040000 -0.0000000
v -0.0062174 0.0030815 0.0016000
v -0.0062174 0.0030815 -0.0000000
v -0.0056970 0.0023030 0.0016000
v -0.0056970 0.0023030 -0.0000000
v -0.0049185 0.0017826 0.0016000
v -0.0049185 0.0017826 -0.0000000
v -0.0040000 0.0016000 0.0016000
v -0.0040000 0.0016000 -0.0000000
v -0.0030815 0.0017826 0.0016000
v -0.0030815 0.0017826 -0.0000000
v -0.0023030 0.0023030 0.0016000
v -0.0023030 0.0023030 -0.0000000
v -0.0017826 0.0030815 0.0016000
v -0.0017826 0.0030815 -0.0000000
v -0.0040000 0.0040000 0.0016000
v -0.0096000 0.0040000 0.0016000
v -0.0097826 0.0049185 0.0016000
v -0.0097826 0.0049185 -0.0000000
v -0.0096000 0.0040000 -0.0000000
v -0.0103030 0.0056970 0.0016000
v -0.0103030 0.0056970 -0.0000000
v -0.0110815 0.0062174 0.0016000
v -0.0110815 0.0062174 -0.0000000
v -0.0120000 0.0064000 0.0016000
v -0.0120000 0.0064000 -0.0000000
v -0.0129185 0.0062174 0.0016000
v -0.0129185 0.0062174 -0.0000000
v -0.0136970 0.0056970 0.0016000
v -0.0136970 0.0056970 -0.0000000
v -0.0142174 0.0049185 0.0016000
v -0.0142174 0.0049185 -0.0000000
v -0.0144000 0.0040000 0.0016000
v -0.0144000 0.0040000 -0.0000000
v -0.0142174 0.0030815 0.0016000
v -0.0142174 0.0030815 -0.0000000
v -0.0136970 0.0023030 0.0016000
v -0.0136970 0.0023030 -0.0000000
v -0.0129185 0.0017826 0.0016000
v -0.0129185 0.0017826 -0.0000000
v -0.0120000 0.0016000 0.0016000
v -0.0120000 0.0016000 -0.0000000
v -0.0110815 0.0017826 0.0016000
v -0.0110815 0.0017826 -0.0000000
v -0.0103030 0.0023030 0.0016000
v -0.0103030 0.0023030 -0.0000000
v -0.0097826 0.0030815 0.0016000
v -0.0097826 0.0030815 -0.0000000
v -0.0120000 0.0040000 0.0016000
v 0.0144000 -0.0040000 0.0016000
v 0.0142174 -0.0030815 0.0016000
v 0.0142174 -0.0030815 -0.0000000
v 0.0144000 -0.0040000 -0.0000000
v 0.0136970 -0.0023030 0.0016000
v 0.0136970 -0.0023030 -0.0000000
v 0.0129185 -0.0017826 0.0016000
v 0.0129185 -0.0017826 -0.0000000
v 0.0120000 -0.0016000 0.0016000
v 0.0120000 -0.0016000 -0.0000000
v 0.0110815 -0.0017826 0.0016000
v 0.0110815 -0.0017826 -0.0000000
v 0.0103030 -0.0023030 0.0016000
v 0.0103030 -0.0023030 -0.0000000
v 0.0097826 -0.0030815 0.0016000
v 0.0097826 -0.0030815 -0.0000000
v 0.0096000 -0.0040000 0.0016000
v 0.0096000 -0.0040000 -0.0000000
v 0.0097826 -0.0049185 0.0016000
v 0.0097826 -0.0049185 -0.0000000
v 0.0103030 -0.0056970 0.0016000
v 0.0103030 -0.0056970 -0.0000000
v 0.0110815 -0.0062174 0.0016000
v 0.0110815 -0.0062174 -0.0000000
v 0.0120000 -0.0064000 0.0016000
v 0.0120000 -0.0064000 -0.0000000
v 0.0129185 -0.0062174 0.0016000
v 0.0129185 -0.0062174 -0.0000000
v 0.0136970 -0.0056970 0.0016000
v 0.0136970 -0.0056970 -0.0000000
v 0.0142174 -0.0049185 0.0016000
v 0.0142174 -0.0049185 -0.0000000
v 0.0120000 -0.0040000 0.0016000
v 0.0064000 -0.0040000 0.0016000
v 0.0062174 -0.0030815 0.0016000
v 0.0062174 -0.0030815 -0.0000000
v 0.0064000 -0.0040000 -0.0000000
v 0.0056970 -0.0023030 0.0016000
v 0.0056970 -0.0023030 -0.0000000
v 0.0049185 -0.0017826 0.0016000
v 0.0049185 -0.0017826 -0.0000000
v 0.0040000 -0.0016000 0.0016000
v 0.0040000 -0.0016000 -0.0000000
v 0.0030815 -0.0017826 0.0016000
v 0.0030815 -0.0017826 -0.0000000
v 0.0023030 -0.0023030 0.0016000
v 0.0023030 -0.0023030 -0.0000000
v 0.0017826 -0.0030815 0.0016000
v 0.0017826 -0.0030815 -0.0000000
v 0.0016000 -0.0040000 0.0016000
v 0.0016000 -0.0040000 -0.0000000
v 0.0017826 -0.0049185 0.0016000
v 0.0017826 -0.0049185 -0.0000000
v 0.0023030 -0.0056970 0.0016000
v 0.0023030 -0.0056970 -0.0000000
v 0.0030815 -0.0062174 0.0016000
v 0.0030815 -0.0062174 -0.0000000
v 0.0040000 -0.0064000 0.0016000
v 0.0040000 -0.0064000 -0.0000000
v 0.0049185 -0.0062174 0.0016000
v 0.0049185 -0.0062174 -0.0000000
v 0.0056970 -0.0056970 0.0016000
v 0.0056970 -0.0056970 -0.0000000
v 0.0062174 -0.0049185 0.0016000
v 0.0062174 -0.0049185 -0.0000000
v 0.0040000 -0.0040000 0.0016000
v -0.0016000 -0.0040000 0.0016000
v -0.0017826 -0.0030815 0.0016000
v -0.0017826 -0.0030815 -0.0000000
v -0.0016000 -0.0040000 -0.0000000
v -0.0023030 -0.0023030 0.0016000
v -0.0023030 -0.0023030 -0.0000000
v -0.0030815 -0.0017826 0.0016000
v -0.0030815 -0.0017826 -0.0000000
v -0.0040000 -0.0016000 0.0016000
v -0.0040000 -0.0016000 -0.0000000
v -0.0049185 -0.0017826 0.0016000
v -0.0049185 -0.0017826 -0.0000000
v -0.0056970 -0.0023030 0.0016000
v -0.0056970 -0.0023030 -0.0000000
v -0.0062174 -0.0030815 0.0016000
v -0.0062174 -0.0030815 -0.0000000
v -0.0064000 -0.0040000 0.0016000
v -0.0064000 -0.0040000 -0.0000000
v -0.0062174 -0.0049185 0.0016000
v -0.0062174 -0.0049185 -0.0000000
v -0.0056970 -0.0056970 0.0016000
v -0.0056970 -0.0056970 -0.0000000
v -0.0049185 -0.0062174 0.0016000
v -0.0049185 -0.0062174 -0.0000000
v -0.0040000 -0.0064000 0.0016000
v -0.0040000 -0.0064000 -0.0000000
v -0.0030815 -0.0062174 0.0016000
v -0.0030815 -0.0062174 -0.0000000
v -0.0023030 -0.0056970 0.0016000
v -0.0023030 -0.0056970 -0.0000000
v -0.0017826 -0.0049185 0.0016000
v -0.0017826 -0.0049185 -0.0000000
v -0.0040000 -0.0040000 0.0016000
v -0.0096000 -0.0040000 0.0016000
v -0.0097826 -0.0030815 0.0016000
v -0.0097826 -0.0030815 -0.0000000
v -0.0096000 -0.0040000 -0.0000000
v -0.0103030 -0.0023030 0.0016000
v -0.0103030 -0.0023030 -0.0000000
v -0.0110815 -0.0017826 0.0016000
v -0.0110815 -0.0017826 -0.0000000
v -0.0120000 -0.0016000 0.0016000
v -0.0120000 -0.0016000 -0.0000000
v -0.0129185 -0.0017826 0.0016000
v -0.0129185 -0.0017826 -0.0000000
v -0.0136970 -0.0023030 0.0016000
v -0.0136970 -0.0023030 -0.0000000
v -0.0142174 -0.0030815 0.0016000
v -0.0142174 -0.0030815 -0.0000000
v -0.0144000 -0.0040000 0.0016000
v -0.0144000 -0.0040000 -0.0000000
v -0.0142174 -0.0049185 0.0016000
v -0.0142174 -0.0049185 -0.0000000
v -0.0136970 -0.0056970 0.0016000
v -0.0136970 -0.0056970 -0.0000000
v -0.0129185 -0.0062174 0.0016000
v -0.0129185 -0.0062174 -0.0000000
v -0.0120000 -0.0064000 0.0016000
v -0.0120000 -0.0064000 -0.0000000
v -0.0110815 -0.0062174 0.0016000
v -0.0110815 -0.0062174 -0.0000000
v -0.0103030 -0.0056970 0.0016000
v -0.0103030 -0.0056970 -0.0000000
v -0.0097826 -0.0049185 0.0016000
v -0.0097826 -0.0049185 -0.0000000
v -0.0120000 -0.0040000 0.0016000
v 0.0144000 -0.0120000 0.0016000
v 0.0142174 -0.0110815 0.0016000
v 0.0142174 -0.0110815 -0.0000000
v 0.0144000 -0.0120000 -0.0000000
v 0.0136970 -0.0103030 0.0016000
v 0.0136970 -0.0103030 -0.0000000
v 0.0129185 -0.0097826 0.0016000
v 0.0129185 -0.0097826 -0.0000000
v 0.0120000 -0.0096000 0.0016000
v 0.0120000 -0.0096000 -0.0000000
v 0.0110815 -0.0097826 0.0016000
v 0.0110815 -0.0097826 -0.0000000
v 0.0103030 -0.0103030 0.0016000
v 0.0103030 -0.0103030 -0.0000000
v 0.0097826 -0.0110815 0.0016000
v 0.0097826 -0.0110815 -0.0000000
v 0.0096000 -0.0120000 0.0016000
v 0.0096000 -0.0120000 -0.0000000
v 0.0097826 -0.0129185 0.0016000
v 0.0097826 -0.0129185 -0.0000000
v 0.0103030 -0.0136970 0.0016000
v 0.0103030 -0.0136970 -0.0000000
v 0.0110815 -0.0142174 0.0016000
v 0.0110815 -0.0142174 -0.0000000
v 0.0120000 -0.0144000 0.0016000
v 0.0120000 -0.0144000 -0.0000000
v 0.0129185 -0.0142174 0.0016000
v 0.0129185 -0.0142174 -0.0000000
v 0.0136970 -0.0136970 0.0016000
v 0.0136970 -0.0136970 -0.0000000
v 0.0142174 -0.0129185 0.0016000
v 0.0142174 -0.0129185 -0.0000000
v 0.0120000 -0.0120000 0.0016000
v 0.0064000 -0.0120000 0.0016000
v 0.0062174 -0.0110815 0.0016000
v 0.0062174 -0.0110815 -0.0000000
v 0.0064000 -0.0120000 -0.0000000
v 0.0056970 -0.0103030 0.0016000
v 0.0056970 -0.0103030 -0.0000000
v 0.0049185 -0.0097826 0.0016000
v 0.0049185 -0.0097826 -0.0000000
v 0.0040000 -0.0096000 0.0016000
v 0.0040000 -0.0096000 -0.0000000
v 0.0030815 -0.0097826 0.0016000
v 0.0030815 -0.0097826 -0.0000000
v 0.0023030 -0.0103030 0.0016000
v 0.0023030 -0.0103030 -0.0000000
v 0.0017826 -0.0110815 0.0016000
v 0.0017826 -0.0110815 -0.0000000
v 0.0016000 -0.0120000 0.0016000
v 0.0016000 -0.0120000 -0.0000000
v 0.0017826 -0.0129185 0.0016000
v 0.0017826 -0.0129185 -0.0000000
v 0.0023030 -0.0136970 0.0016000
v 0.0023030 -0.0136970 -0.0000000
v 0.0030815 -0.0142174 0.0016000
v 0.0030815 -0.0142174 -0.0000000
v 0.0040000 -0.0144000 0.0016000
v 0.0040000 -0.0144000 -0.0000000
v 0.0049185 -0.0142174 0.0016000
v 0.0049185 -0.0142174 -0.0000000
v 0.0056970 -0.0136970 0.0016000
v 0.0056970 -0.0136970 -0.0000000
v 0.0062174 -0.0129185 0.0016000
v 0.0062174 -0.0129185 -0.0000000
v 0.0040000 -0.0120000 0.0016000
v -0.0016000 -0.0120000 0.0016000
v -0.0017826 -0.0110815 0.0016000
v -0.0017826 -0.0110815 -0.0000000
v -0.0016000 -0.0120000 -0.0000000
v -0.0023030 -0.0103030 0.0016000
v -0.0023030 -0.0103030 -0.0000000
v -0.0030815 -0.0097826 0.0016000
v -0.0030815 -0.0097826 -0.0000000
v -0.0040000 -0.0096000 0.0016000
v -0.0040000 -0.0096000 -0.0000000
v -0.0049185 -0.0097826 0.0016000
v -0.0049185 -0.0097826 -0.0000000
v -0.0056970 -0.0103030 0.0016000
v -0.0056970 -0.0103030 -0.0000000
v -0.0062174 -0.0110815 0.0016000
v -0.0062174 -0.0110815 -0.0000000
v -0.0064000 -0.0120000 0.0016000
v -0.0064000 -0.0120000 -0.0000000
v -0.0062174 -0.0129185 0.0016000
v -0.0062174 -0.0129185 -0.0000000
v -0.0056970 -0.0136970 0.0016000
v -0.0056970 -0.0136970 -0.0000000
v -0.0049185 -0.0142174 0.0016000
v -0.0049185 -0.0142174 -0.0000000
v -0.0040000 -0.0144000 0.0016000
v -0.0040000 -0.0144000 -0.0000000
v -0.0030815 -0.0142174 0.0016000
v -0.0030815 -0.0142174 -0.0000000
v -0.0023030 -0.0136970 0.0016000
v -0.0023030 -0.0136970 -0.0000000
v -0.0017826 -0.0129185 0.0016000
v -0.0017826 -0.0129185 -0.0000000
v -0.0040000 -0.0120000 0.0016000
v -0.0096000 -0.0120000 0.0016000
v -0.0097826 -0.0110815 0.0016000
v -0.0097826 -0.0110815 -0.0000000
v -0.0096000 -0.0120000 -0.0000000
v -0.0103030 -0.0103030 0.0016000
v -0.0103030 -0.0103030 -0.0000000
v -0.0110815 -0.0097826 0.0016000
v -0.0110815 -0.0097826 -0.0000000
v -0.0120000 -0.0096000 0.0016000
v -0.0120000 -0.0096000 -0.0000000
v -0.0129185 -0.0097826 0.0016000
v -0.0129185 -0.0097826 -0.0000000
v -0.0136970 -0.0103030 0.0016000
v -0.0136970 -0.0103030 -0.0000000
v -0.0142174 -0.0110815 0.0016000
v -0.0142174 -0.0110815 -0.0000000
v -0.0144000 -0.0120000 0.0016000
v -0.0144000 -0.0120000 -0.0000000
v -0.0142174 -0.0129185 0.0016000
v -0.0142174 -0.0129185 -0.0000000
v -0.0136970 -0.0136970 0.0016000
v -0.0136970 -0.0136970 -0.0000000
v -0.0129185 -0.0142174 0.0016000
v -0.0129185 -0.0142174 -0.0000000
v -0.0120000 -0.0144000 0.0016000
v -0.0120000 -0.0144000 -0.0000000
v -0.0110815 -0.0142174 0.0016000
v -0.0110815 -0.0142174 -0.0000000
v -0.0103030 -0.0136970 0.0016000
v -0.0103030 -0.0136970 -0.0000000
v -0.0097826 -0.0129185 0.0016000
v -0.0097826 -0.0129185 -0.0000000
v -0.0120000 -0.0120000 0.0016000
usemtl c16
f 4 3 2
f 4 2 1
f 3 6 5
f 3 5 2
f 6 8 7
f 6 7 5
f 8 10 9
f 8 9 7
f 10 12 11
f 10 11 9
f 12 14 13
f 12 13 11
f 14 16 15
f 14 15 13
f 16 18 17
f 16 17 15
f 18 20 19
f 18 19 17
f 20 22 21
f 20 21 19
f 22 24 23
f 22 23 21
f 24 26 25
f 24 25 23
f 26 28 27
f 26 27 25
f 28 30 29
f 28 29 27
f 30 32 31
f 30 31 29
f 32 4 1
f 32 1 31
f 36 35 34
f 36 34 33
f 35 38 37
f 35 37 34
f 38 40 39
f 38 39 37
f 40 42 41
f 40 41 39
f 42 44 43
f 42 43 41
f 44 46 45
f 44 45 43
f 46 48 47
f 46 47 45
f 48 50 49
f 48 49 47
f 50 52 51
f 50 51 49
f 52 54 53
f 52 53 51
f 54 56 55
f 54 55 53
f 56 58 57
f 56 57 55
f 58 60 59
f 58 59 57
f 60 62 61
f 60 61 59
f 62 64 63
f 62 63 61
f 64 36 33
f 64 33 63
f 42 10 12
f 42 12 44
f 44 12 14
f 44 14 46
f 46 14 16
f 46 16 48
f 48 16 18
f 48 18 50
f 50 18 20
f 50 20 52
f 52 20 22
f 52 22 54
f 54 22 24
f 54 24 56
f 56 24 26
f 56 26 58
f 58 26 28
f 58 28 60
f 60 28 30
f 60 30 62
f 62 30 32
f 62 32 64
f 64 32 4
f 64 4 36
f 36 4 3
f 36 3 35
f 35 3 6
f 35 6 38
f 38 6 8
f 38 8 40
f 40 8 10
f 40 10 42
f 68 67 66
f 68 66 65
f 67 70 69
f 67 69 66
f 70 72 71
f 70 71 69
f 72 74 73
f 72 73 71
f 74 76 75
f 74 75 73
f 76 78 77
f 76 77 75
f 78 80 79
f 78 79 77
f 80 82 81
f 80 81 79
f 82 84 83
f 82 83 81
f 84 86 85
f 84 85 83
f 86 88 87
f 86 87 85
f 88 90 89
f 88 89 87
f 90 92 91
f 90 91 89
f 92 94 93
f 92 93 91
f 94 96 95
f 94 95 93
f 96 68 65
f 96 65 95
f 100 99 98
f 100 98 97
f 99 102 101
f 99 101 98
f 102 104 103
f 102 103 101
f 104 106 105
f 104 105 103
f 106 108 107
f 106 107 105
f 108 110 109
f 108 109 107
f 110 112 111
f 110 111 109
f 112 114 113
f 112 113 111
f 114 116 115
f 114 115 113
f 116 118 117
f 116 117 115
f 118 120 119
f 118 119 117
f 120 122 121
f 120 121 119
f 122 124 123
f 122 123 121
f 124 126 125
f 124 125 123
f 126 128 127
f 126 127 125
f 128 100 97
f 128 97 127
f 106 74 76
f 106 76 108
f 108 76 78
f 108 78 110
f 110 78 80
f 110 80 112
f 112 80 82
f 112 82 114
f 114 82 84
f 114 84 116
f 116 84 86
f 116 86 118
f 118 86 88
f 118 88 120
f 120 88 90
f 120 90 122
f 122 90 92
f 122 92 124
f 124 92 94
f 124 94 126
f 126 94 96
f 126 96 128
f 128 96 68
f 128 68 100
f 100 68 67
f 100 67 99
f 99 67 70
f 99 70 102
f 102 70 72
f 102 72 104
f 104 72 74
f 104 74 106
f 132 131 130
f 132 130 129
f 131 134 133
f 131 133 130
f 134 136 135
f 134 135 133
f 136 138 137
f 136 137 135
f 138 140 139
f 138 139 137
f 140 142 141
f 140 141 139
f 142 144 143
f 142 143 141
f 144 146 145
f 144 145 143
f 146 148 147
f 146 147 145
f 148 150 149
f 148 149 147
f 150 152 151
f 150 151 149
f 152 154 153
f 152 153 151
f 154 156 155
f 154 155 153
f 156 158 157
f 156 157 155
f 158 160 159
f 158 159 157
f 160 132 129
f 160 129 159
f 164 163 162
f 164 162 161
f 163 166 165
f 163 165 162
f 166 168 167
f 166 167 165
f 168 170 169
f 168 169 167
f 170 172 171
f 170 171 169
f 172 174 173
f 172 173 171
f 174 176 175
f 174 175 173
f 176 178 177
f 176 177 175
f 178 180 179
f 178 179 177
f 180 182 181
f 180 181 179
f 182 184 183
f 182 183 181
f 184 186 185
f 184 185 183
f 186 188 187
f 186 187 185
f 188 190 189
f 188 189 187
f 190 192 191
f 190 191 189
f 192 164 161
f 192 161 191
f 170 138 140
f 170 140 172
f 172 140 142
f 172 142 174
f 174 142 144
f 174 144 176
f 176 144 146
f 176 146 178
f 178 146 148
f 178 148 180
f 180 148 150
f 180 150 182
f 182 150 152
f 182 152 184
f 184 152 154
f 184 154 186
f 186 154 156
f 186 156 188
f 188 156 158
f 188 158 190
f 190 158 160
f 190 160 192
f 192 160 132
f 192 132 164
f 164 132 131
f 164 131 163
f 163 131 134
f 163 134 166
f 166 134 136
f 166 136 168
f 168 136 138
f 168 138 170
f 196 195 194
f 196 194 193
f 195 198 197
f 195 197 194
f 198 200 199
f 198 199 197
f 200 202 201
f 200 201 199
f 202 204 203
f 202 203 201
f 204 206 205
f 204 205 203
f 206 208 207
f 206 207 205
f 208 210 209
f 208 209 207
f 210 212 211
f 210 211 209
f 212 214 213
f 212 213 211
f 214 216 215
f 214 215 213
f 216 218 217
f 216 217 215
f 218 220 219
f 218 219 217
f 220 222 221
f 220 221 219
f 222 224 223
f 222 223 221
f 224 196 193
f 224 193 223
f 228 227 226
f 228 226 225
f 227 230 229
f 227 229 226
f 230 232 231
f 230 231 229
f 232 234 233
f 232 233 231
f 234 236 235
f 234 235 233
f 236 238 237
f 236 237 235
f 238 240 239
f 238 239 237
f 240 242 241
f 240 241 239
f 242 244 243
f 242 243 241
f 244 246 245
f 244 245 243
f 246 248 247
f 246 247 245
f 248 250 249
f 248 249 247
f 250 252 251
f 250 251 249
f 252 254 253
f 252 253 251
f 254 256 255
f 254 255 253
f 256 228 225
f 256 225 255
f 234 202 204
f 234 204 236
f 236 204 206
f 236 206 238
f 238 206 208
f 238 208 240
f 240 208 210
f 240 210 242
f 242 210 212
f 242 212 244
f 244 212 214
f 244 214 246
f 246 214 216
f 246 216 248
f 248 216 218
f 248 218 250
f 250 218 220
f 250 220 252
f 252 220 222
f 252 222 254
f 254 222 224
f 254 224 256
f 256 224 196
f 256 196 228
f 228 196 195
f 228 195 227
f 227 195 198
f 227 198 230
f 230 198 200
f 230 200 232
f 232 200 202
f 232 202 234
f 260 259 258
f 260 258 257
f 259 262 261
f 259 261 258
f 262 264 263
f 262 263 261
f 264 266 265
f 264 265 263
f 266 268 267
f 266 267 265
f 268 270 269
f 268 269 267
f 270 272 271
f 270 271 269
f 272 274 273
f 272 273 271
f 274 276 275
f 274 275 273
f 276 278 277
f 276 277 275
f 278 280 279
f 278 279 277
f 280 282 281
f 280 281 279
f 282 284 283
f 282 283 281
f 284 286 285
f 284 285 283
f 286 288 287
f 286 287 285
f 288 260 257
f 288 257 287
f 292 291 290
f 292 290 289
f 291 294 293
f 291 293 290
f 294 296 295
f 294 295 293
f 296 298 297
f 296 297 295
f 298 300 299
f 298 299 297
f 300 302 301
f 300 301 299
f 302 304 303
f 302 303 301
f 304 306 305
f 304 305 303
f 306 308 307
f 306 307 305
f 308 310 309
f 308 309 307
f 310 312 311
f 310 311 309
f 312 314 313
f 312 313 311
f 314 316 315
f 314 315 313
f 316 318 317
f 316 317 315
f 318 320 319
f 318 319 317
f 320 292 289
f 320 289 319
f 298 266 268
f 298 268 300
f 300 268 270
f 300 270 302
f 302 270 272
f 302 272 304
f 304 272 274
f 304 274 306
f 306 274 276
f 306 276 308
f 308 276 278
f 308 278 310
f 310 278 280
f 310 280 312
f 312 280 282
f 312 282 314
f 314 282 284
f 314 284 316
f 316 284 286
f 316 286 318
f 318 286 288
f 318 288 320
f 320 288 260
f 320 260 292
f 292 260 259
f 292 259 291
f 291 259 262
f 291 262 294
f 294 262 264
f 294 264 296
f 296 264 266
f 296 266 298
f 324 323 322
f 324 322 321
f 323 326 325
f 323 325 322
f 326 328 327
f 326 327 325
f 328 330 329
f 328 329 327
f 330 332 331
f 330 331 329
f 332 334 333
f 332 333 331
f 334 336 335
f 334 335 333
f 336 338 337
f 336 337 335
f 338 340 339
f 338 339 337
f 340 342 341
f 340 341 339
f 342 344 343
f 342 343 341
f 344 346 345
f 344 345 343
f 346 348 347
f 346 347 345
f 348 350 349
f 348 349 347
f 350 352 351
f 350 351 349
f 352 324 321
f 352 321 351
f 356 355 354
f 356 354 353
f 355 358 357
f 355 357 354
f 358 360 359
f 358 359 357
f 360 362 361
f 360 361 359
f 362 364 363
f 362 363 361
f 364 366 365
f 364 365 363
f 366 368 367
f 366 367 365
f 368 370 369
f 368 369 367
f 370 372 371
f 370 371 369
f 372 374 373
f 372 373 371
f 374 376 375
f 374 375 373
f 376 378 377
f 376 377 375
f 378 380 379
f 378 379 377
f 380 382 381
f 380 381 379
f 382 384 383
f 382 383 381
f 384 356 353
f 384 353 383
f 362 330 332
f 362 332 364
f 364 332 334
f 364 334 366
f 366 334 336
f 366 336 368
f 368 336 338
f 368 338 370
f 370 338 340
f 370 340 372
f 372 340 342
f 372 342 374
f 374 342 344
f 374 344 376
f 376 344 346
f 376 346 378
f 378 346 348
f 378 348 380
f 380 348 350
f 380 350 382
f 382 350 352
f 382 352 384
f 384 352 324
f 384 324 356
f 356 324 323
f 356 323 355
f 355 323 326
f 355 326 358
f 358 326 328
f 358 328 360
f 360 328 330
f 360 330 362
f 388 387 386
f 388 386 385
f 387 390 389
f 387 389 386
f 390 392 391
f 390 391 389
f 392 394 393
f 392 393 391
f 394 396 395
f 394 395 393
f 396 398 397
f 396 397 395
f 398 400 399
f 398 399 397
f 400 402 401
f 400 401 399
f 402 404 403
f 402 403 401
f 404 406 405
f 404 405 403
f 406 408 407
f 406 407 405
f 408 410 409
f 408 409 407
f 410 412 411
f 410 411 409
f 412 414 413
f 412 413 411
f 414 416 415
f 414 415 413
f 416 388 385
f 416 385 415
f 420 419 418
f 420 418 417
f 419 422 421
f 419 421 418
f 422 424 423
f 422 423 421
f 424 426 425
f 424 425 423
f 426 428 427
f 426 427 425
f 428 430 429
f 428 429 427
f 430 432 431
f 430 431 429
f 432 434 433
f 432 433 431
f 434 436 435
f 434 435 433
f 436 438 437
f 436 437 435
f 438 440 439
f 438 439 437
f 440 442 441
f 440 441 439
f 442 444 443
f 442 443 441
f 444 446 445
f 444 445 443
f 446 448 447
f 446 447 445
f 448 420 417
f 448 417 447
f 426 394 396
f 426 396 428
f 428 396 398
f 428 398 430
f 430 398 400
f 430 400 432
f 432 400 402
f 432 402 434
f 434 402 404
f 434 404 436
f 436 404 406
f 436 406 438
f 438 406 408
f 438 408 440
f 440 408 410
f 440 410 442
f 442 410 412
f 442 412 444
f 444 412 414
f 444 414 446
f 446 414 416
f 446 416 448
f 448 416 388
f 448 388 420
f 420 388 387
f 420 387 419
f 419 387 390
f 419 390 422
f 422 390 392
f 422 392 424
f 424 392 394
f 424 394 426
f 452 451 450
f 452 450 449
f 451 454 453
f 451 453 450
f 454 456 455
f 454 455 453
f 456 458 457
f 456 457 455
f 458 460 459
f 458 459 457
f 460 462 461
f 460 461 459
f 462 464 463
f 462 463 461
f 464 466 465
f 464 465 463
f 466 468 467
f 466 467 465
f 468 470 469
f 468 469 467
f 470 472 471
f 470 471 469
f 472 474 473
f 472 473 471
f 474 476 475
f 474 475 473
f 476 478 477
f 476 477 475
f 478 480 479
f 478 479 477
f 480 452 449
f 480 449 479
f 484 483 482
f 484 482 481
f 483 486 485
f 483 485 482
f 486 488 487
f 486 487 485
f 488 490 489
f 488 489 487
f 490 492 491
f 490 491 489
f 492 494 493
f 492 493 491
f 494 496 495
f 494 495 493
f 496 498 497
f 496 497 495
f 498 500 499
f 498 499 497
f 500 502 501
f 500 501 499
f 502 504 503
f 502 503 501
f 504 506 505
f 504 505 503
f 506 508 507
f 506 507 505
f 508 510 509
f 508 509 507
f 510 512 511
f 510 511 509
f 512 484 481
f 512 481 511
f 490 458 460
f 490 460 492
f 492 460 462
f 492 462 494
f 494 462 464
f 494 464 496
f 496 464 466
f 496 466 498
f 498 466 468
f 498 468 500
f 500 468 470
f 500 470 502
f 502 470 472
f 502 472 504
f 504 472 474
f 504 474 506
f 506 474 476
f 506 476 508
f 508 476 478
f 508 478 510
f 510 478 480
f 510 480 512
f 512 480 452
f 512 452 484
f 484 452 451
f 484 451 483
f 483 451 454
f 483 454 486
f 486 454 456
f 486 456 488
f 488 456 458
f 488 458 490
f 516 515 514
f 516 514 513
f 515 518 517
f 515 517 514
f 518 520 519
f 518 519 517
f 520 522 521
f 520 521 519
f 522 524 523
f 522 523 521
f 524 526 525
f 524 525 523
f 526 528 527
f 526 527 525
f 528 530 529
f 528 529 527
f 530 532 531
f 530 531 529
f 532 534 533
f 532 533 531
f 534 536 535
f 534 535 533
f 536 538 537
f 536 537 535
f 538 540 539
f 538 539 537
f 540 542 541
f 540 541 539
f 542 544 543
f 542 543 541
f 544 516 513
f 544 513 543
f 548 547 546
f 548 546 545
f 547 550 549
f 547 549 546
f 550 552 551
f 550 551 549
f 552 554 553
f 552 553 551
f 554 556 555
f 554 555 553
f 556 558 557
f 556 557 555
f 558 560 559
f 558 559 557
f 560 562 561
f 560 561 559
f 562 564 563
f 562 563 561
f 564 566 565
f 564 565 563
f 566 568 567
f 566 567 565
f 568 570 569
f 568 569 567
f 570 572 571
f 570 571 569
f 572 574 573
f 572 573 571
f 574 576 575
f 574 575 573
f 576 548 545
f 576 545 575
f 554 522 524
f 554 524 556
f 556 524 526
f 556 526 558
f 558 526 528
f 558 528 560
f 560 528 530
f 560 530 562
f 562 530 532
f 562 532 564
f 564 532 534
f 564 534 566
f 566 534 536
f 566 536 568
f 568 536 538
f 568 538 570
f 570 538 540
f 570 540 572
f 572 540 542
f 572 542 574
f 574 542 544
f 574 544 576
f 576 544 516
f 576 516 548
f 548 516 515
f 548 515 547
f 547 515 518
f 547 518 550
f 550 518 520
f 550 520 552
f 552 520 522
f 552 522 554
f 580 579 578
f 580 578 577
f 578 582 581
f 578 581 577
f 577 581 583
f 577 583 580
f 580 583 584
f 580 584 579
f 579 584 582
f 579 582 578
f 585 582 581
f 585 581 586
f 587 583 584
f 587 584 588
f 588 584 582
f 588 582 585
f 586 581 583
f 586 583 587
f 592 591 590
f 592 590 589
f 590 585 586
f 590 586 589
f 589 586 587
f 589 587 592
f 592 587 588
f 592 588 591
f 591 588 585
f 591 585 590
f 596 595 594
f 596 594 593
f 595 598 597
f 595 597 594
f 598 600 599
f 598 599 597
f 600 602 601
f 600 601 599
f 602 604 603
f 602 603 601
f 604 606 605
f 604 605 603
f 606 608 607
f 606 607 605
f 608 610 609
f 608 609 607
f 610 612 611
f 610 611 609
f 612 614 613
f 612 613 611
f 614 616 615
f 614 615 613
f 616 618 617
f 616 617 615
f 618 620 619
f 618 619 617
f 620 622 621
f 620 621 619
f 622 624 623
f 622 623 621
f 624 596 593
f 624 593 623
f 625 593 594
f 625 594 597
f 625 597 599
f 625 599 601
f 625 601 603
f 625 603 605
f 625 605 607
f 625 607 609
f 625 609 611
f 625 611 613
f 625 613 615
f 625 615 617
f 625 617 619
f 625 619 621
f 625 621 623
f 625 623 593
f 629 628 627
f 629 627 626
f 628 631 630
f 628 630 627
f 631 633 632
f 631 632 630
f 633 635 634
f 633 634 632
f 635 637 636
f 635 636 634
f 637 639 638
f 637 638 636
f 639 641 640
f 639 640 638
f 641 643 642
f 641 642 640
f 643 645 644
f 643 644 642
f 645 647 646
f 645 646 644
f 647 649 648
f 647 648 646
f 649 651 650
f 649 650 648
f 651 653 652
f 651 652 650
f 653 655 654
f 653 654 652
f 655 657 656
f 655 656 654
f 657 629 626
f 657 626 656
f 658 626 627
f 658 627 630
f 658 630 632
f 658 632 634
f 658 634 636
f 658 636 638
f 658 638 640
f 658 640 642
f 658 642 644
f 658 644 646
f 658 646 648
f 658 648 650
f 658 650 652
f 658 652 654
f 658 654 656
f 658 656 626
f 662 661 660
f 662 660 659
f 661 664 663
f 661 663 660
f 664 666 665
f 664 665 663
f 666 668 667
f 666 667 665
f 668 670 669
f 668 669 667
f 670 672 671
f 670 671 669
f 672 674 673
f 672 673 671
f 674 676 675
f 674 675 673
f 676 678 677
f 676 677 675
f 678 680 679
f 678 679 677
f 680 682 681
f 680 681 679
f 682 684 683
f 682 683 681
f 684 686 685
f 684 685 683
f 686 688 687
f 686 687 685
f 688 690 689
f 688 689 687
f 690 662 659
f 690 659 689
f 691 659 660
f 691 660 663
f 691 663 665
f 691 665 667
f 691 667 669
f 691 669 671
f 691 671 673
f 691 673 675
f 691 675 677
f 691 677 679
f 691 679 681
f 691 681 683
f 691 683 685
f 691 685 687
f 691 687 689
f 691 689 659
f 695 694 693
f 695 693 692
f 694 697 696
f 694 696 693
f 697 699 698
f 697 698 696
f 699 701 700
f 699 700 698
f 701 703 702
f 701 702 700
f 703 705 704
f 703 704 702
f 705 707 706
f 705 706 704
f 707 709 708
f 707 708 706
f 709 711 710
f 709 710 708
f 711 713 712
f 711 712 710
f 713 715 714
f 713 714 712
f 715 717 716
f 715 716 714
f 717 719 718
f 717 718 716
f 719 721 720
f 719 720 718
f 721 723 722
f 721 722 720
f 723 695 692
f 723 692 722
f 724 692 693
f 724 693 696
f 724 696 698
f 724 698 700
f 724 700 702
f 724 702 704
f 724 704 706
f 724 706 708
f 724 708 710
f 724 710 712
f 724 712 714
f 724 714 716
f 724 716 718
f 724 718 720
f 724 720 722
f 724 722 692
f 728 727 726
f 728 726 725
f 727 730 729
f 727 729 726
f 730 732 731
f 730 731 729
f 732 734 733
f 732 733 731
f 734 736 735
f 734 735 733
f 736 738 737
f 736 737 735
f 738 740 739
f 738 739 737
f 740 742 741
f 740 741 739
f 742 744 743
f 742 743 741
f 744 746 745
f 744 745 743
f 746 748 747
f 746 747 745
f 748 750 749
f 748 749 747
f 750 752 751
f 750 751 749
f 752 754 753
f 752 753 751
f 754 756 755
f 754 755 753
f 756 728 725
f 756 725 755
f 757 725 726
f 757 726 729
f 757 729 731
f 757 731 733
f 757 733 735
f 757 735 737
f 757 737 739
f 757 739 741
f 757 741 743
f 757 743 745
f 757 745 747
f 757 747 749
f 757 749 751
f 757 751 753
f 757 753 755
f 757 755 725
f 761 760 759
f 761 759 758
f 760 763 762
f 760 762 759
f 763 765 764
f 763 764 762
f 765 767 766
f 765 766 764
f 767 769 768
f 767 768 766
f 769 771 770
f 769 770 768
f 771 773 772
f 771 772 770
f 773 775 774
f 773 774 772
f 775 777 776
f 775 776 774
f 777 779 778
f 777 778 776
f 779 781 780
f 779 780 778
f 781 783 782
f 781 782 780
f 783 785 784
f 783 784 782
f 785 787 786
f 785 786 784
f 787 789 788
f 787 788 786
f 789 761 758
f 789 758 788
f 790 758 759
f 790 759 762
f 790 762 764
f 790 764 766
f 790 766 768
f 790 768 770
f 790 770 772
f 790 772 774
f 790 774 776
f 790 776 778
f 790 778 780
f 790 780 782
f 790 782 784
f 790 784 786
f 790 786 788
f 790 788 758
f 794 793 792
f 794 792 791
f 793 796 795
f 793 795 792
f 796 798 797
f 796 797 795
f 798 800 799
f 798 799 797
f 800 802 801
f 800 801 799
f 802 804 803
f 802 803 801
f 804 806 805
f 804 805 803
f 806 808 807
f 806 807 805
f 808 810 809
f 808 809 807
f 810 812 811
f 810 811 809
f 812 814 813
f 812 813 811
f 814 816 815
f 814 815 813
f 816 818 817
f 816 817 815
f 818 820 819
f 818 819 817
f 820 822 821
f 820 821 819
f 822 794 791
f 822 791 821
f 823 791 792
f 823 792 795
f 823 795 797
f 823 797 799
f 823 799 801
f 823 801 803
f 823 803 805
f 823 805 807
f 823 807 809
f 823 809 811
f 823 811 813
f 823 813 815
f 823 815 817
f 823 817 819
f 823 819 821
f 823 821 791
f 827 826 825
f 827 825 824
f 826 829 828
f 826 828 825
f 829 831 830
f 829 830 828
f 831 833 832
f 831 832 830
f 833 835 834
f 833 834 832
f 835 837 836
f 835 836 834
f 837 839 838
f 837 838 836
f 839 841 840
f 839 840 838
f 841 843 842
f 841 842 840
f 843 845 844
f 843 844 842
f 845 847 846
f 845 846 844
f 847 849 848
f 847 848 846
f 849 851 850
f 849 850 848
f 851 853 852
f 851 852 850
f 853 855 854
f 853 854 852
f 855 827 824
f 855 824 854
f 856 824 825
f 856 825 828
f 856 828 830
f 856 830 832
f 856 832 834
f 856 834 836
f 856 836 838
f 856 838 840
f 856 840 842
f 856 842 844
f 856 844 846
f 856 846 848
f 856 848 850
f 856 850 852
f 856 852 854
f 856 854 824
f 860 859 858
f 860 858 857
f 859 862 861
f 859 861 858
f 862 864 863
f 862 863 861
f 864 866 865
f 864 865 863
f 866 868 867
f 866 867 865
f 868 870 869
f 868 869 867
f 870 872 871
f 870 871 869
f 872 874 873
f 872 873 871
f 874 876 875
f 874 875 873
f 876 878 877
f 876 877 875
f 878 880 879
f 878 879 877
f 880 882 881
f 880 881 879
f 882 884 883
f 882 883 881
f 884 886 885
f 884 885 883
f 886 888 887
f 886 887 885
f 888 860 857
f 888 857 887
f 889 857 858
f 889 858 861
f 889 861 863
f 889 863 865
f 889 865 867
f 889 867 869
f 889 869 871
f 889 871 873
f 889 873 875
f 889 875 877
f 889 877 879
f 889 879 881
f 889 881 883
f 889 883 885
f 889 885 887
f 889 887 857
f 893 892 891
f 893 891 890
f 892 895 894
f 892 894 891
f 895 897 896
f 895 896 894
f 897 899 898
f 897 898 896
f 899 901 900
f 899 900 898
f 901 903 902
f 901 902 900
f 903 905 904
f 903 904 902
f 905 907 906
f 905 906 904
f 907 909 908
f 907 908 906
f 909 911 910
f 909 910 908
f 911 913 912
f 911 912 910
f 913 915 914
f 913 914 912
f 915 917 916
f 915 916 914
f 917 919 918
f 917 918 916
f 919 921 920
f 919 920 918
f 921 893 890
f 921 890 920
f 922 890 891
f 922 891 894
f 922 894 896
f 922 896 898
f 922 898 900
f 922 900 902
f 922 902 904
f 922 904 906
f 922 906 908
f 922 908 910
f 922 910 912
f 922 912 914
f 922 914 916
f 922 916 918
f 922 918 920
f 922 920 890
f 926 925 924
f 926 924 923
f 925 928 927
f 925 927 924
f 928 930 929
f 928 929 927
f 930 932 931
f 930 931 929
f 932 934 933
f 932 933 931
f 934 936 935
f 934 935 933
f 936 938 937
f 936 937 935
f 938 940 939
f 938 939 937
f 940 942 941
f 940 941 939
f 942 944 943
f 942 943 941
f 944 946 945
f 944 945 943
f 946 948 947
f 946 947 945
f 948 950 949
f 948 949 947
f 950 952 951
f 950 951 949
f 952 954 953
f 952 953 951
f 954 926 923
f 954 923 953
f 955 923 924
f 955 924 927
f 955 927 929
f 955 929 931
f 955 931 933
f 955 933 935
f 955 935 937
f 955 937 939
f 955 939 941
f 955 941 943
f 955 943 945
f 955 945 947
f 955 947 949
f 955 949 951
f 955 951 953
f 955 953 923
f 959 958 957
f 959 957 956
f 958 961 960
f 958 960 957
f 961 963 962
f 961 962 960
f 963 965 964
f 963 964 962
f 965 967 966
f 965 966 964
f 967 969 968
f 967 968 966
f 969 971 970
f 969 970 968
f 971 973 972
f 971 972 970
f 973 975 974
f 973 974 972
f 975 977 976
f 975 976 974
f 977 979 978
f 977 978 976
f 979 981 980
f 979 980 978
f 981 983 982
f 981 982 980
f 983 985 984
f 983 984 982
f 985 987 986
f 985 986 984
f 987 959 956
f 987 956 986
f 988 956 957
f 988 957 960
f 988 960 962
f 988 962 964
f 988 964 966
f 988 966 968
f 988 968 970
f 988 970 972
f 988 972 974
f 988 974 976
f 988 976 978
f 988 978 980
f 988 980 982
f 988 982 984
f 988 984 986
f 988 986 956
f 992 991 990
f 992 990 989
f 991 994 993
f 991 993 990
f 994 996 995
f 994 995 993
f 996 998 997
f 996 997 995
f 998 1000 999
f 998 999 997
f 1000 1002 1001
f 1000 1001 999
f 1002 1004 1003
f 1002 1003 1001
f 1004 1006 1005
f 1004 1005 1003
f 1006 1008 1007
f 1006 1007 1005
f 1008 1010 1009
f 1008 1009 1007
f 1010 1012 1011
f 1010 1011 1009
f 1012 1014 1013
f 1012 1013 1011
f 1014 1016 1015
f 1014 1015 1013
f 1016 1018 1017
f 1016 1017 1015
f 1018 1020 1019
f 1018 1019 1017
f 1020 992 989
f 1020 989 1019
f 1021 989 990
f 1021 990 993
f 1021 993 995
f 1021 995 997
f 1021 997 999
f 1021 999 1001
f 1021 1001 1003
f 1021 1003 1005
f 1021 1005 1007
f 1021 1007 1009
f 1021 1009 1011
f 1021 1011 1013
f 1021 1013 1015
f 1021 1015 1017
f 1021 1017 1019
f 1021 1019 989
f 1025 1024 1023
f 1025 1023 1022
f 1024 1027 1026
f 1024 1026 1023
f 1027 1029 1028
f 1027 1028 1026
f 1029 1031 1030
f 1029 1030 1028
f 1031 1033 1032
f 1031 1032 1030
f 1033 1035 1034
f 1033 1034 1032
f 1035 1037 1036
f 1035 1036 1034
f 1037 1039 1038
f 1037 1038 1036
f 1039 1041 1040
f 1039 1040 1038
f 1041 1043 1042
f 1041 1042 1040
f 1043 1045 1044
f 1043 1044 1042
f 1045 1047 1046
f 1045 1046 1044
f 1047 1049 1048
f 1047 1048 1046
f 1049 1051 1050
f 1049 1050 1048
f 1051 1053 1052
f 1051 1052 1050
f 1053 1025 1022
f 1053 1022 1052
f 1054 1022 1023
f 1054 1023 1026
f 1054 1026 1028
f 1054 1028 1030
f 1054 1030 1032
f 1054 1032 1034
f 1054 1034 1036
f 1054 1036 1038
f 1054 1038 1040
f 1054 1040 1042
f 1054 1042 1044
f 1054 1044 1046
f 1054 1046 1048
f 1054 1048 1050
f 1054 1050 1052
f 1054 1052 1022
f 1058 1057 1056
f 1058 1056 1055
f 1057 1060 1059
f 1057 1059 1056
f 1060 1062 1061
f 1060 1061 1059
f 1062 1064 1063
f 1062 1063 1061
f 1064 1066 1065
f 1064 1065 1063
f 1066 1068 1067
f 1066 1067 1065
f 1068 1070 1069
f 1068 1069 1067
f 1070 1072 1071
f 1070 1071 1069
f 1072 1074 1073
f 1072 1073 1071
f 1074 1076 1075
f 1074 1075 1073
f 1076 1078 1077
f 1076 1077 1075
f 1078 1080 1079
f 1078 1079 1077
f 1080 1082 1081
f 1080 1081 1079
f 1082 1084 1083
f 1082 1083 1081
f 1084 1086 1085
f 1084 1085 1083
f 1086 1058 1055
f 1086 1055 1085
f 1087 1055 1056
f 1087 1056 1059
f 1087 1059 1061
f 1087 1061 1063
f 1087 1063 1065
f 1087 1065 1067
f 1087 1067 1069
f 1087 1069 1071
f 1087 1071 1073
f 1087 1073 1075
f 1087 1075 1077
f 1087 1077 1079
f 1087 1079 1081
f 1087 1081 1083
f 1087 1083 1085
f 1087 1085 1055
f 1091 1090 1089
f 1091 1089 1088
f 1090 1093 1092
f 1090 1092 1089
f 1093 1095 1094
f 1093 1094 1092
f 1095 1097 1096
f 1095 1096 1094
f 1097 1099 1098
f 1097 1098 1096
f 1099 1101 1100
f 1099 1100 1098
f 1101 1103 1102
f 1101 1102 1100
f 1103 1105 1104
f 1103 1104 1102
f 1105 1107 1106
f 1105 1106 1104
f 1107 1109 1108
f 1107 1108 1106
f 1109 1111 1110
f 1109 1110 1108
f 1111 1113 1112
f 1111 1112 1110
f 1113 1115 1114
f 1113 1114 1112
f 1115 1117 1116
f 1115 1116 1114
f 1117 1119 1118
f 1117 1118 1116
f 1119 1091 1088
f 1119 1088 1118
f 1120 1088 1089
f 1120 1089 1092
f 1120 1092 1094
f 1120 1094 1096
f 1120 1096 1098
f 1120 1098 1100
f 1120 1100 1102
f 1120 1102 1104
f 1120 1104 1106
f 1120 1106 1108
f 1120 1108 1110
f 1120 1110 1112
f 1120 1112 1114
f 1120 1114 1116
f 1120 1116 1118
f 1120 1118 1088
