o 3068b
v -0.0080000 0.0080000 -0.0028000
v -0.0080000 0.0080000 -0.0000000
v 0.0080000 0.0080000 -0.0000000
v 0.0080000 0.0080000 -0.0028000
v -0.0080000 -0.0080000 -0.0028000
v -0.0080000 -0.0080000 -0.0000000
v 0.0080000 -0.0080000 -0.0028000
v 0.0080000 -0.0080000 -0.0000000
v -0.0076000 0.0076000 -0.0032000
v -0.0076000 0.0076000 -0.0028000
v 0.0076000 0.0076000 -0.0028000
v 0.0076000 0.0076000 -0.0032000
v -0.0076000 -0.0076000 -0.0032000
v -0.0076000 -0.0076000 -0.0028000
v 0.0076000 -0.0076000 -0.0032000
v 0.0076000 -0.0076000 -0.0028000
v -0.0064000 0.0064000 -0.0032000
v -0.0064000 0.0064000 -0.0016000
v 0.0064000 0.0064000 -0.0016000
v 0.0064000 0.0064000 -0.0032000
v -0.0064000 -0.0064000 -0.0032000
v -0.0064000 -0.0064000 -0.0016000
v 0.0064000 -0.0064000 -0.0032000
v 0.0064000 -0.0064000 -0.0016000
v 0.0024000 0.0000000 -0.0016000
v 0.0022174 0.0009185 -0.0016000
v 0.0022174 0.0009185 -0.0032000
v 0.0024000 0.0000000 -0.0032000
v 0.0016970 0.0016970 -0.0016000
v 0.0016970 0.0016970 -0.0032000
v 0.0009185 0.0022174 -0.0016000
v 0.0009185 0.0022174 -0.0032000
v 0.0000000 0.0024000 -0.0016000
v 0.0000000 0.0024000 -0.0032000
v -0.0009185 0.0022174 -0.0016000
v -0.0009185 0.0022174 -0.0032000
v -0.0016970 0.0016970 -0.0016000
v -0.0016970 0.0016970 -0.0032000
v -0.0022174 0.0009185 -0.0016000
v -0.0022174 0.0009185 -0.0032000
v -0.0024000 0.0000000 -0.0016000
v -0.0024000 0.0000000 -0.0032000
v -0.0022174 -0.0009185 -0.0016000
v -0.0022174 -0.0009185 -0.0032000
v -0.0016970 -0.0016970 -0.0016000
v -0.0016970 -0.0016970 -0.0032000
v -0.0009185 -0.0022174 -0.0016000
v -0.0009185 -0.0022174 -0.0032000
v 0.0000000 -0.0024000 -0.0016000
v 0.0000000 -0.0024000 -0.0032000
v 0.0009185 -0.0022174 -0.0016000
v 0.0009185 -0.0022174 -0.0032000
v 0.0016970 -0.0016970 -0.0016000
v 0.0016970 -0.0016970 -0.0032000
v 0.0022174 -0.0009185 -0.0016000
v 0.0022174 -0.0009185 -0.0032000
v 0.0032000 0.0000000 -0.0016000
v 0.0029565 0.0012246 -0.0016000
v 0.0029565 0.0012246 -0.0032000
v 0.0032000 0.0000000 -0.0032000
v 0.0022627 0.0022627 -0.0016000
v 0.0022627 0.0022627 -0.0032000
v 0.0012246 0.0029565 -0.0016000
v 0.0012246 0.0029565 -0.0032000
v 0.0000000 0.0032000 -0.0016000
v 0.0000000 0.0032000 -0.0032000
v -0.0012246 0.0029565 -0.0016000
v -0.0012246 0.0029565 -0.0032000
v -0.0022627 0.0022627 -0.0016000
v -0.0022627 0.0022627 -0.0032000
v -0.0029565 0.0012246 -0.0016000
v -0.0029565 0.0012246 -0.0032000
v -0.0032000 0.0000000 -0.0016000
v -0.0032000 0.0000000 -0.0032000
v -0.0029565 -0.0012246 -0.0016000
v -0.0029565 -0.0012246 -0.0032000
v -0.0022627 -0.0022627 -0.0016000
v -0.0022627 -0.0022627 -0.0032000
v -0.0012246 -0.0029565 -0.0016000
v -0.0012246 -0.0029565 -0.0032000
v 0.0000000 -0.0032000 -0.0016000
v 0.0000000 -0.0032000 -0.0032000
v 0.0012246 -0.0029565 -0.0016000
v 0.0012246 -0.0029565 -0.0032000
v 0.0022627 -0.0022627 -0.0016000
v 0.0022627 -0.0022627 -0.0032000
v 0.0029565 -0.0012246 -0.0016000
v 0.0029565 -0.0012246 -0.0032000
v 0.0000000 0.0000000 -0.0016000
v 0.0032000 0.0032000 -0.0016000
v -0.0032000 0.0032000 -0.0016000
v -0.0032000 -0.0032000 -0.0016000
v 0.0032000 -0.0032000 -0.0016000
usemtl c16
f 1 2 3
f 1 3 4
f 5 6 2
f 5 2 1
f 7 8 6
f 7 6 5
f 4 3 8
f 4 8 7
f 9 10 11
f 9 11 12
f 13 14 10
f 13 10 9
f 15 16 14
f 15 14 13
f 12 11 16
f 12 16 15
f 17 18 19
f 17 19 20
f 21 22 18
f 21 18 17
f 23 24 22
f 23 22 21
f 20 19 24
f 20 24 23
f 28 27 26
f 28 26 25
f 27 30 29
f 27 29 26
f 30 32 31
f 30 31 29
f 32 34 33
f 32 33 31
f 34 36 35
f 34 35 33
f 36 38 37
f 36 37 35
f 38 40 39
f 38 39 37
f 40 42 41
f 40 41 39
f 42 44 43
f 42 43 41
f 44 46 45
f 44 45 43
f 46 48 47
f 46 47 45
f 48 50 49
f 48 49 47
f 50 52 51
f 50 51 49
f 52 54 53
f 52 53 51
f 54 56 55
f 54 55 53
f 56 28 25
f 56 25 55
f 60 59 58
f 60 58 57
f 59 62 61
f 59 61 58
f 62 64 63
f 62 63 61
f 64 66 65
f 64 65 63
f 66 68 67
f 66 67 65
f 68 70 69
f 68 69 67
f 70 72 71
f 70 71 69
f 72 74 73
f 72 73 71
f 74 76 75
f 74 75 73
f 76 78 77
f 76 77 75
f 78 80 79
f 78 79 77
f 80 82 81
f 80 81 79
f 82 84 83
f 82 83 81
f 84 86 85
f 84 85 83
f 86 88 87
f 86 87 85
f 88 60 57
f 88 57 87
f 66 34 36
f 66 36 68
f 68 36 38
f 68 38 70
f 70 38 40
f 70 40 72
f 72 40 42
f 72 42 74
f 74 42 44
f 74 44 76
f 76 44 46
f 76 46 78
f 78 46 48
f 78 48 80
f 80 48 50
f 80 50 82
f 82 50 52
f 82 52 84
f 84 52 54
f 84 54 86
f 86 54 56
f 86 56 88
f 88 56 28
f 88 28 60
f 60 28 27
f 60 27 59
f 59 27 30
f 59 30 62
f 62 30 32
f 62 32 64
f 64 32 34
f 64 34 66
f 26 25 89
f 29 26 89
f 31 29 89
f 33 31 89
f 35 33 89
f 37 35 89
f 39 37 89
f 41 39 89
f 43 41 89
f 45 43 89
f 47 45 89
f 49 47 89
f 51 49 89
f 53 51 89
f 55 53 89
f 25 55 89
f 90 57 58
f 90 58 61
f 90 61 63
f 90 63 65
f 91 65 67
f 91 67 69
f 91 69 71
f 91 71 73
f 92 73 75
f 92 75 77
f 92 77 79
f 92 79 81
f 93 81 83
f 93 83 85
f 93 85 87
f 93 87 57
f 14 16 7
f 14 7 5
f 7 16 11
f 7 11 4
f 4 11 10
f 4 10 1
f 1 10 14
f 1 14 5
f 21 23 15
f 21 15 13
f 15 23 20
f 15 20 12
f 12 20 17
f 12 17 9
f 9 17 21
f 9 21 13
f 92 93 24
f 92 24 22
f 24 93 90
f 24 90 19
f 19 90 91
f 19 91 18
f 18 91 92
f 18 92 22
f 6 8 3
f 6 3 2
