o 3623
v 0.0040000 0.0000000 -0.0032000
v 0.0056000 0.0000000 -0.0032000
v 0.0054782 0.0006123 -0.0032000
v 0.0051314 0.0011314 -0.0032000
v 0.0046123 0.0014782 -0.0032000
v 0.0040000 0.0016000 -0.0032000
v 0.0033877 0.0014782 -0.0032000
v 0.0028686 0.0011314 -0.0032000
v 0.0025218 0.0006123 -0.0032000
v 0.0024000 0.0000000 -0.0032000
v 0.0025218 -0.0006123 -0.0032000
v 0.0028686 -0.0011314 -0.0032000
v 0.0033877 -0.0014782 -0.0032000
v 0.0040000 -0.0016000 -0.0032000
v 0.0046123 -0.0014782 -0.0032000
v 0.0051314 -0.0011314 -0.0032000
v 0.0054782 -0.0006123 -0.0032000
v 0.0056000 0.0000000 -0.0016000
v 0.0054782 0.0006123 -0.0016000
v 0.0051314 0.0011314 -0.0016000
v 0.0046123 0.0014782 -0.0016000
v 0.0040000 0.0016000 -0.0016000
v 0.0033877 0.0014782 -0.0016000
v 0.0028686 0.0011314 -0.0016000
v 0.0025218 0.0006123 -0.0016000
v 0.0024000 0.0000000 -0.0016000
v 0.0025218 -0.0006123 -0.0016000
v 0.0028686 -0.0011314 -0.0016000
v 0.0033877 -0.0014782 -0.0016000
v 0.0040000 -0.0016000 -0.0016000
v 0.0046123 -0.0014782 -0.0016000
v 0.0051314 -0.0011314 -0.0016000
v 0.0054782 -0.0006123 -0.0016000
v -0.0040000 0.0000000 -0.0032000
v -0.0024000 0.0000000 -0.0032000
v -0.0025218 0.0006123 -0.0032000
v -0.0028686 0.0011314 -0.0032000
v -0.0033877 0.0014782 -0.0032000
v -0.0040000 0.0016000 -0.0032000
v -0.0046123 0.0014782 -0.0032000
v -0.0051314 0.0011314 -0.0032000
v -0.0054782 0.0006123 -0.0032000
v -0.0056000 0.0000000 -0.0032000
v -0.0054782 -0.0006123 -0.0032000
v -0.0051314 -0.0011314 -0.0032000
v -0.0046123 -0.0014782 -0.0032000
v -0.0040000 -0.0016000 -0.0032000
v -0.0033877 -0.0014782 -0.0032000
v -0.0028686 -0.0011314 -0.0032000
v -0.0025218 -0.0006123 -0.0032000
v -0.0024000 0.0000000 -0.0016000
v -0.0025218 0.0006123 -0.0016000
v -0.0028686 0.0011314 -0.0016000
v -0.0033877 0.0014782 -0.0016000
v -0.0040000 0.0016000 -0.0016000
v -0.0046123 0.0014782 -0.0016000
v -0.0051314 0.0011314 -0.0016000
v -0.0054782 0.0006123 -0.0016000
v -0.0056000 0.0000000 -0.0016000
v -0.0054782 -0.0006123 -0.0016000
v -0.0051314 -0.0011314 -0.0016000
v -0.0046123 -0.0014782 -0.0016000
v -0.0040000 -0.0016000 -0.0016000
v -0.0033877 -0.0014782 -0.0016000
v -0.0028686 -0.0011314 -0.0016000
v -0.0025218 -0.0006123 -0.0016000
v -0.0104000 0.0024000 -0.0016000
v 0.0104000 0.0024000 -0.0016000
v 0.0104000 -0.0024000 -0.0016000
v -0.0104000 -0.0024000 -0.0016000
v -0.0104000 0.0024000 -0.0032000
v 0.0104000 0.0024000 -0.0032000
v -0.0104000 -0.0024000 -0.0032000
v 0.0104000 -0.0024000 -0.0032000
v 0.0120000 0.0040000 -0.0032000
v -0.0120000 0.0040000 -0.0032000
v -0.0120000 -0.0040000 -0.0032000
v 0.0120000 -0.0040000 -0.0032000
v 0.0120000 0.0040000 -0.0000000
v 0.0120000 -0.0040000 -0.0000000
v -0.0120000 -0.0040000 -0.0000000
v -0.0120000 0.0040000 -0.0000000
v -0.0056000 0.0000000 0.0016000
v -0.0057826 0.0009185 0.0016000
v -0.0057826 0.0009185 -0.0000000
v -0.0056000 0.0000000 -0.0000000
v -0.0063030 0.0016970 0.0016000
v -0.0063030 0.0016970 -0.0000000
v -0.0070815 0.0022174 0.0016000
v -0.0070815 0.0022174 -0.0000000
v -0.0080000 0.0024000 0.0016000
v -0.0080000 0.0024000 -0.0000000
v -0.0089185 0.0022174 0.0016000
v -0.0089185 0.0022174 -0.0000000
v -0.0096970 0.0016970 0.0016000
v -0.0096970 0.0016970 -0.0000000
v -0.0102174 0.0009185 0.0016000
v -0.0102174 0.0009185 -0.0000000
v -0.0104000 0.0000000 0.0016000
v -0.0104000 0.0000000 -0.0000000
v -0.0102174 -0.0009185 0.0016000
v -0.0102174 -0.0009185 -0.0000000
v -0.0096970 -0.0016970 0.0016000
v -0.0096970 -0.0016970 -0.0000000
v -0.0089185 -0.0022174 0.0016000
v -0.0089185 -0.0022174 -0.0000000
v -0.0080000 -0.0024000 0.0016000
v -0.0080000 -0.0024000 -0.0000000
v -0.0070815 -0.0022174 0.0016000
v -0.0070815 -0.0022174 -0.0000000
v -0.0063030 -0.0016970 0.0016000
v -0.0063030 -0.0016970 -0.0000000
v -0.0057826 -0.0009185 0.0016000
v -0.0057826 -0.0009185 -0.0000000
v -0.0080000 0.0000000 0.0016000
v 0.0024000 0.0000000 0.0016000
v 0.0022174 0.0009185 0.0016000
v 0.0022174 0.0009185 -0.0000000
v 0.0024000 0.0000000 -0.0000000
v 0.0016970 0.0016970 0.0016000
v 0.0016970 0.0016970 -0.0000000
v 0.0009185 0.0022174 0.0016000
v 0.0009185 0.0022174 -0.0000000
v 0.0000000 0.0024000 0.0016000
v 0.0000000 0.0024000 -0.0000000
v -0.0009185 0.0022174 0.0016000
v -0.0009185 0.0022174 -0.0000000
v -0.0016970 0.0016970 0.0016000
v -0.0016970 0.0016970 -0.0000000
v -0.0022174 0.0009185 0.0016000
v -0.0022174 0.0009185 -0.0000000
v -0.0024000 0.0000000 0.0016000
v -0.0024000 0.0000000 -0.0000000
v -0.0022174 -0.0009185 0.0016000
v -0.0022174 -0.0009185 -0.0000000
v -0.0016970 -0.0016970 0.0016000
v -0.0016970 -0.0016970 -0.0000000
v -0.0009185 -0.0022174 0.0016000
v -0.0009185 -0.0022174 -0.0000000
v 0.0000000 -0.0024000 0.0016000
v 0.0000000 -0.0024000 -0.0000000
v 0.0009185 -0.0022174 0.0016000
v 0.0009185 -0.0022174 -0.0000000
v 0.0016970 -0.0016970 0.0016000
v 0.0016970 -0.0016970 -0.0000000
v 0.0022174 -0.0009185 0.0016000
v 0.0022174 -0.0009185 -0.0000000
v 0.0000000 0.0000000 0.0016000
v 0.0104000 0.0000000 0.0016000
v 0.0102174 0.0009185 0.0016000
v 0.0102174 0.0009185 -0.0000000
v 0.0104000 0.0000000 -0.0000000
v 0.0096970 0.0016970 0.0016000
v 0.0096970 0.0016970 -0.0000000
v 0.0089185 0.0022174 0.0016000
v 0.0089185 0.0022174 -0.0000000
v 0.0080000 0.0024000 0.0016000
v 0.0080000 0.0024000 -0.0000000
v 0.0070815 0.0022174 0.0016000
v 0.0070815 0.0022174 -0.0000000
v 0.0063030 0.0016970 0.0016000
v 0.0063030 0.0016970 -0.0000000
v 0.0057826 0.0009185 0.0016000
v 0.0057826 0.0009185 -0.0000000
v 0.0056000 0.0000000 0.0016000
v 0.0056000 0.0000000 -0.0000000
v 0.0057826 -0.0009185 0.0016000
v 0.0057826 -0.0009185 -0.0000000
v 0.0063030 -0.0016970 0.0016000
v 0.0063030 -0.0016970 -0.0000000
v 0.0070815 -0.0022174 0.0016000
v 0.0070815 -0.0022174 -0.0000000
v 0.0080000 -0.0024000 0.0016000
v 0.0080000 -0.0024000 -0.0000000
v 0.0089185 -0.0022174 0.0016000
v 0.0089185 -0.0022174 -0.0000000
v 0.0096970 -0.0016970 0.0016000
v 0.0096970 -0.0016970 -0.0000000
v 0.0102174 -0.0009185 0.0016000
v 0.0102174 -0.0009185 -0.0000000
v 0.0080000 0.0000000 0.0016000
usemtl c16
f 3 2 1
f 4 3 1
f 5 4 1
f 6 5 1
f 7 6 1
f 8 7 1
f 9 8 1
f 10 9 1
f 11 10 1
f 12 11 1
f 13 12 1
f 14 13 1
f 15 14 1
f 16 15 1
f 17 16 1
f 2 17 1
f 2 3 19
f 2 19 18
f 3 4 20
f 3 20 19
f 4 5 21
f 4 21 20
f 5 6 22
f 5 22 21
f 6 7 23
f 6 23 22
f 7 8 24
f 7 24 23
f 8 9 25
f 8 25 24
f 9 10 26
f 9 26 25
f 10 11 27
f 10 27 26
f 11 12 28
f 11 28 27
f 12 13 29
f 12 29 28
f 13 14 30
f 13 30 29
f 14 15 31
f 14 31 30
f 15 16 32
f 15 32 31
f 16 17 33
f 16 33 32
f 17 2 18
f 17 18 33
f 36 35 34
f 37 36 34
f 38 37 34
f 39 38 34
f 40 39 34
f 41 40 34
f 42 41 34
f 43 42 34
f 44 43 34
f 45 44 34
f 46 45 34
f 47 46 34
f 48 47 34
f 49 48 34
f 50 49 34
f 35 50 34
f 35 36 52
f 35 52 51
f 36 37 53
f 36 53 52
f 37 38 54
f 37 54 53
f 38 39 55
f 38 55 54
f 39 40 56
f 39 56 55
f 40 41 57
f 40 57 56
f 41 42 58
f 41 58 57
f 42 43 59
f 42 59 58
f 43 44 60
f 43 60 59
f 44 45 61
f 44 61 60
f 45 46 62
f 45 62 61
f 46 47 63
f 46 63 62
f 47 48 64
f 47 64 63
f 48 49 65
f 48 65 64
f 49 50 66
f 49 66 65
f 50 35 51
f 50 51 66
f 70 69 68
f 70 68 67
f 68 72 71
f 68 71 67
f 67 71 73
f 67 73 70
f 70 73 74
f 70 74 69
f 69 74 72
f 69 72 68
f 75 72 71
f 75 71 76
f 76 71 73
f 76 73 77
f 77 73 74
f 77 74 78
f 78 74 72
f 78 72 75
f 82 81 80
f 82 80 79
f 75 76 82
f 75 82 79
f 76 77 81
f 76 81 82
f 78 75 79
f 78 79 80
f 86 85 84
f 86 84 83
f 85 88 87
f 85 87 84
f 88 90 89
f 88 89 87
f 90 92 91
f 90 91 89
f 92 94 93
f 92 93 91
f 94 96 95
f 94 95 93
f 96 98 97
f 96 97 95
f 98 100 99
f 98 99 97
f 100 102 101
f 100 101 99
f 102 104 103
f 102 103 101
f 104 106 105
f 104 105 103
f 106 108 107
f 106 107 105
f 108 110 109
f 108 109 107
f 110 112 111
f 110 111 109
f 112 114 113
f 112 113 111
f 114 86 83
f 114 83 113
f 115 83 84
f 115 84 87
f 115 87 89
f 115 89 91
f 115 91 93
f 115 93 95
f 115 95 97
f 115 97 99
f 115 99 101
f 115 101 103
f 115 103 105
f 115 105 107
f 115 107 109
f 115 109 111
f 115 111 113
f 115 113 83
f 119 118 117
f 119 117 116
f 118 121 120
f 118 120 117
f 121 123 122
f 121 122 120
f 123 125 124
f 123 124 122
f 125 127 126
f 125 126 124
f 127 129 128
f 127 128 126
f 129 131 130
f 129 130 128
f 131 133 132
f 131 132 130
f 133 135 134
f 133 134 132
f 135 137 136
f 135 136 134
f 137 139 138
f 137 138 136
f 139 141 140
f 139 140 138
f 141 143 142
f 141 142 140
f 143 145 144
f 143 144 142
f 145 147 146
f 145 146 144
f 147 119 116
f 147 116 146
f 148 116 117
f 148 117 120
f 148 120 122
f 148 122 124
f 148 124 126
f 148 126 128
f 148 128 130
f 148 130 132
f 148 132 134
f 148 134 136
f 148 136 138
f 148 138 140
f 148 140 142
f 148 142 144
f 148 144 146
f 148 146 116
f 152 151 150
f 152 150 149
f 151 154 153
f 151 153 150
f 154 156 155
f 154 155 153
f 156 158 157
f 156 157 155
f 158 160 159
f 158 159 157
f 160 162 161
f 160 161 159
f 162 164 163
f 162 163 161
f 164 166 165
f 164 165 163
f 166 168 167
f 166 167 165
f 168 170 169
f 168 169 167
f 170 172 171
f 170 171 169
f 172 174 173
f 172 173 171
f 174 176 175
f 174 175 173
f 176 178 177
f 176 177 175
f 178 180 179
f 178 179 177
f 180 152 149
f 180 149 179
f 181 149 150
f 181 150 153
f 181 153 155
f 181 155 157
f 181 157 159
f 181 159 161
f 181 161 163
f 181 163 165
f 181 165 167
f 181 167 169
f 181 169 171
f 181 171 173
f 181 173 175
f 181 175 177
f 181 177 179
f 181 179 149
f 77 78 80
f 77 80 81
