o 3641
v 0.0054925 0.0000000 0.0010926
v 0.0054925 -0.0032000 0.0010926
v 0.0056000 -0.0032000 -0.0000000
v 0.0056000 0.0000000 -0.0000000
v 0.0070618 -0.0032000 0.0014047
v 0.0070618 0.0000000 0.0014047
v 0.0066521 0.0000000 0.0027554
v 0.0066521 -0.0032000 0.0027554
v 0.0051738 -0.0032000 0.0021431
v 0.0051738 0.0000000 0.0021431
v 0.0046564 0.0000000 0.0031114
v 0.0046564 -0.0032000 0.0031114
v 0.0059868 -0.0032000 0.0040003
v 0.0059868 0.0000000 0.0040003
v 0.0050911 0.0000000 0.0050911
v 0.0050911 -0.0032000 0.0050911
v 0.0039598 0.0000000 0.0039598
v 0.0039598 -0.0032000 0.0039598
v 0.0031114 0.0000000 0.0046564
v 0.0031114 -0.0032000 0.0046564
v 0.0040003 0.0000000 0.0059868
v 0.0040003 -0.0032000 0.0059868
v 0.0027554 0.0000000 0.0066521
v 0.0027554 -0.0032000 0.0066521
v 0.0021431 0.0000000 0.0051738
v 0.0021431 -0.0032000 0.0051738
v 0.0010926 0.0000000 0.0054925
v 0.0010926 -0.0032000 0.0054925
v 0.0014047 0.0000000 0.0070618
v 0.0014047 -0.0032000 0.0070618
v 0.0000000 0.0000000 0.0072000
v 0.0000000 -0.0032000 0.0072000
v 0.0000000 0.0000000 0.0056000
v 0.0000000 -0.0032000 0.0056000
v 0.0040000 -0.0032000 0.0028284
v 0.0036956 -0.0032000 0.0015308
v 0.0040000 -0.0032000 -0.0000000
v 0.0028284 -0.0032000 0.0028284
v 0.0028284 -0.0032000 0.0040000
v 0.0015308 -0.0032000 0.0036956
v 0.0000000 -0.0032000 0.0040000
v 0.0010926 0.0000000 -0.0054925
v 0.0010926 -0.0032000 -0.0054925
v 0.0000000 -0.0032000 -0.0056000
v 0.0000000 0.0000000 -0.0056000
v 0.0014047 -0.0032000 -0.0070618
v 0.0014047 0.0000000 -0.0070618
v 0.0027554 0.0000000 -0.0066521
v 0.0027554 -0.0032000 -0.0066521
v 0.0021431 -0.0032000 -0.0051738
v 0.0021431 0.0000000 -0.0051738
v 0.0031114 0.0000000 -0.0046564
v 0.0031114 -0.0032000 -0.0046564
v 0.0040003 -0.0032000 -0.0059868
v 0.0040003 0.0000000 -0.0059868
v 0.0050911 0.0000000 -0.0050911
v 0.0050911 -0.0032000 -0.0050911
v 0.0039598 0.0000000 -0.0039598
v 0.0039598 -0.0032000 -0.0039598
v 0.0046564 0.0000000 -0.0031114
v 0.0046564 -0.0032000 -0.0031114
v 0.0059868 0.0000000 -0.0040003
v 0.0059868 -0.0032000 -0.0040003
v 0.0066521 0.0000000 -0.0027554
v 0.0066521 -0.0032000 -0.0027554
v 0.0051738 0.0000000 -0.0021431
v 0.0051738 -0.0032000 -0.0021431
v 0.0054925 0.0000000 -0.0010926
v 0.0054925 -0.0032000 -0.0010926
v 0.0070618 0.0000000 -0.0014047
v 0.0070618 -0.0032000 -0.0014047
v 0.0072000 0.0000000 -0.0000000
v 0.0072000 -0.0032000 -0.0000000
v 0.0028284 -0.0032000 -0.0040000
v 0.0015308 -0.0032000 -0.0036956
v 0.0000000 -0.0032000 -0.0040000
v 0.0028284 -0.0032000 -0.0028284
v 0.0040000 -0.0032000 -0.0028284
v 0.0036956 -0.0032000 -0.0015308
v -0.0054925 0.0000000 -0.0010926
v -0.0054925 -0.0032000 -0.0010926
v -0.0056000 -0.0032000 -0.0000000
v -0.0056000 0.0000000 -0.0000000
v -0.0070618 -0.0032000 -0.0014047
v -0.0070618 0.0000000 -0.0014047
v -0.0066521 0.0000000 -0.0027554
v -0.0066521 -0.0032000 -0.0027554
v -0.0051738 -0.0032000 -0.0021431
v -0.0051738 0.0000000 -0.0021431
v -0.0046564 0.0000000 -0.0031114
v -0.0046564 -0.0032000 -0.0031114
v -0.0059868 -0.0032000 -0.0040003
v -0.0059868 0.0000000 -0.0040003
v -0.0050911 0.0000000 -0.0050911
v -0.0050911 -0.0032000 -0.0050911
v -0.0039598 0.0000000 -0.0039598
v -0.0039598 -0.0032000 -0.0039598
v -0.0031114 0.0000000 -0.0046564
v -0.0031114 -0.0032000 -0.0046564
v -0.0040003 0.0000000 -0.0059868
v -0.0040003 -0.0032000 -0.0059868
v -0.0027554 0.0000000 -0.0066521
v -0.0027554 -0.0032000 -0.0066521
v -0.0021431 0.0000000 -0.0051738
v -0.0021431 -0.0032000 -0.0051738
v -0.0010926 0.0000000 -0.0054925
v -0.0010926 -0.0032000 -0.0054925
v -0.0014047 0.0000000 -0.0070618
v -0.0014047 -0.0032000 -0.0070618
v 0.0000000 0.0000000 -0.0072000
v 0.0000000 -0.0032000 -0.0072000
v -0.0040000 -0.0032000 -0.0028284
v -0.0036956 -0.0032000 -0.0015308
v -0.0040000 -0.0032000 -0.0000000
v -0.0028284 -0.0032000 -0.0028284
v -0.0028284 -0.0032000 -0.0040000
v -0.0015308 -0.0032000 -0.0036956
v -0.0010926 0.0000000 0.0054925
v -0.0010926 -0.0032000 0.0054925
v -0.0014047 -0.0032000 0.0070618
v -0.0014047 0.0000000 0.0070618
v -0.0027554 0.0000000 0.0066521
v -0.0027554 -0.0032000 0.0066521
v -0.0021431 -0.0032000 0.0051738
v -0.0021431 0.0000000 0.0051738
v -0.0031114 0.0000000 0.0046564
v -0.0031114 -0.0032000 0.0046564
v -0.0040003 -0.0032000 0.0059868
v -0.0040003 0.0000000 0.0059868
v -0.0050911 0.0000000 0.0050911
v -0.0050911 -0.0032000 0.0050911
v -0.0039598 0.0000000 0.0039598
v -0.0039598 -0.0032000 0.0039598
v -0.0046564 0.0000000 0.0031114
v -0.0046564 -0.0032000 0.0031114
v -0.0059868 0.0000000 0.0040003
v -0.0059868 -0.0032000 0.0040003
v -0.0066521 0.0000000 0.0027554
v -0.0066521 -0.0032000 0.0027554
v -0.0051738 0.0000000 0.0021431
v -0.0051738 -0.0032000 0.0021431
v -0.0054925 0.0000000 0.0010926
v -0.0054925 -0.0032000 0.0010926
v -0.0070618 0.0000000 0.0014047
v -0.0070618 -0.0032000 0.0014047
v -0.0072000 0.0000000 -0.0000000
v -0.0072000 -0.0032000 -0.0000000
v -0.0028284 -0.0032000 0.0040000
v -0.0015308 -0.0032000 0.0036956
v -0.0028284 -0.0032000 0.0028284
v -0.0040000 -0.0032000 0.0028284
v -0.0036956 -0.0032000 0.0015308
v 0.0010926 0.0032000 0.0054925
v 0.0000000 0.0032000 0.0056000
v 0.0014047 0.0032000 0.0070618
v 0.0027554 0.0032000 0.0066521
v 0.0021431 0.0032000 0.0051738
v 0.0031114 0.0032000 0.0046564
v 0.0040003 0.0032000 0.0059868
v 0.0050911 0.0032000 0.0050911
v 0.0039598 0.0032000 0.0039598
v 0.0046564 0.0032000 0.0031114
v 0.0059868 0.0032000 0.0040003
v 0.0066521 0.0032000 0.0027554
v 0.0051738 0.0032000 0.0021431
v 0.0054925 0.0032000 0.0010926
v 0.0070618 0.0032000 0.0014047
v 0.0072000 0.0032000 -0.0000000
v 0.0056000 0.0032000 -0.0000000
v 0.0028284 0.0032000 0.0040000
v 0.0015308 0.0032000 0.0036956
v 0.0000000 0.0032000 0.0040000
v 0.0028284 0.0032000 0.0028284
v 0.0040000 0.0032000 0.0028284
v 0.0036956 0.0032000 0.0015308
v 0.0040000 0.0032000 -0.0000000
v 0.0054925 0.0032000 -0.0010926
v 0.0070618 0.0032000 -0.0014047
v 0.0066521 0.0032000 -0.0027554
v 0.0051738 0.0032000 -0.0021431
v 0.0046564 0.0032000 -0.0031114
v 0.0059868 0.0032000 -0.0040003
v 0.0050911 0.0032000 -0.0050911
v 0.0039598 0.0032000 -0.0039598
v 0.0031114 0.0032000 -0.0046564
v 0.0040003 0.0032000 -0.0059868
v 0.0027554 0.0032000 -0.0066521
v 0.0021431 0.0032000 -0.0051738
v 0.0010926 0.0032000 -0.0054925
v 0.0014047 0.0032000 -0.0070618
v 0.0000000 0.0032000 -0.0072000
v 0.0000000 0.0032000 -0.0056000
v 0.0040000 0.0032000 -0.0028284
v 0.0036956 0.0032000 -0.0015308
v 0.0028284 0.0032000 -0.0028284
v 0.0028284 0.0032000 -0.0040000
v 0.0015308 0.0032000 -0.0036956
v 0.0000000 0.0032000 -0.0040000
v -0.0010926 0.0032000 -0.0054925
v -0.0014047 0.0032000 -0.0070618
v -0.0027554 0.0032000 -0.0066521
v -0.0021431 0.0032000 -0.0051738
v -0.0031114 0.0032000 -0.0046564
v -0.0040003 0.0032000 -0.0059868
v -0.0050911 0.0032000 -0.0050911
v -0.0039598 0.0032000 -0.0039598
v -0.0046564 0.0032000 -0.0031114
v -0.0059868 0.0032000 -0.0040003
v -0.0066521 0.0032000 -0.0027554
v -0.0051738 0.0032000 -0.0021431
v -0.0054925 0.0032000 -0.0010926
v -0.0070618 0.0032000 -0.0014047
v -0.0072000 0.0032000 -0.0000000
v -0.0056000 0.0032000 -0.0000000
v -0.0028284 0.0032000 -0.0040000
v -0.0015308 0.0032000 -0.0036956
v -0.0028284 0.0032000 -0.0028284
v -0.0040000 0.0032000 -0.0028284
v -0.0036956 0.0032000 -0.0015308
v -0.0040000 0.0032000 -0.0000000
v -0.0054925 0.0032000 0.0010926
v -0.0070618 0.0032000 0.0014047
v -0.0066521 0.0032000 0.0027554
v -0.0051738 0.0032000 0.0021431
v -0.0046564 0.0032000 0.0031114
v -0.0059868 0.0032000 0.0040003
v -0.0050911 0.0032000 0.0050911
v -0.0039598 0.0032000 0.0039598
v -0.0031114 0.0032000 0.0046564
v -0.0040003 0.0032000 0.0059868
v -0.0027554 0.0032000 0.0066521
v -0.0021431 0.0032000 0.0051738
v -0.0010926 0.0032000 0.0054925
v -0.0014047 0.0032000 0.0070618
v 0.0000000 0.0032000 0.0072000
v -0.0040000 0.0032000 0.0028284
v -0.0036956 0.0032000 0.0015308
v -0.0028284 0.0032000 0.0028284
v -0.0028284 0.0032000 0.0040000
v -0.0015308 0.0032000 0.0036956
v -0.0040000 -0.0016000 -0.0000000
v -0.0036956 -0.0016000 -0.0015308
v -0.0028284 -0.0016000 -0.0028284
v -0.0015308 -0.0016000 -0.0036956
v 0.0000000 -0.0016000 -0.0040000
v 0.0015308 -0.0016000 -0.0036956
v 0.0028284 -0.0016000 -0.0028284
v 0.0036956 -0.0016000 -0.0015308
v 0.0040000 -0.0016000 -0.0000000
v 0.0036956 -0.0016000 0.0015308
v 0.0028284 -0.0016000 0.0028284
v 0.0015308 -0.0016000 0.0036956
v 0.0000000 -0.0016000 0.0040000
v -0.0015308 -0.0016000 0.0036956
v -0.0028284 -0.0016000 0.0028284
v -0.0036956 -0.0016000 0.0015308
v 0.0032000 -0.0012000 -0.0000000
v 0.0029565 -0.0012000 -0.0012246
v 0.0022627 -0.0012000 -0.0022627
v 0.0012246 -0.0012000 -0.0029565
v 0.0000000 -0.0012000 -0.0032000
v -0.0012246 -0.0012000 -0.0029565
v -0.0022627 -0.0012000 -0.0022627
v -0.0029565 -0.0012000 -0.0012246
v -0.0032000 -0.0012000 -0.0000000
v -0.0029565 -0.0012000 0.0012246
v -0.0022627 -0.0012000 0.0022627
v -0.0012246 -0.0012000 0.0029565
v 0.0000000 -0.0012000 0.0032000
v 0.0012246 -0.0012000 0.0029565
v 0.0022627 -0.0012000 0.0022627
v 0.0029565 -0.0012000 0.0012246
v 0.0029565 0.0012000 -0.0012246
v 0.0032000 0.0012000 -0.0000000
v 0.0022627 0.0012000 -0.0022627
v 0.0012246 0.0012000 -0.0029565
v 0.0000000 0.0012000 -0.0032000
v -0.0012246 0.0012000 -0.0029565
v -0.0022627 0.0012000 -0.0022627
v -0.0029565 0.0012000 -0.0012246
v -0.0032000 0.0012000 -0.0000000
v -0.0029565 0.0012000 0.0012246
v -0.0022627 0.0012000 0.0022627
v -0.0012246 0.0012000 0.0029565
v 0.0000000 0.0012000 0.0032000
v 0.0012246 0.0012000 0.0029565
v 0.0022627 0.0012000 0.0022627
v 0.0029565 0.0012000 0.0012246
v -0.0036956 0.0016000 -0.0015308
v -0.0040000 0.0016000 -0.0000000
v -0.0028284 0.0016000 -0.0028284
v -0.0015308 0.0016000 -0.0036956
v 0.0000000 0.0016000 -0.0040000
v 0.0015308 0.0016000 -0.0036956
v 0.0028284 0.0016000 -0.0028284
v 0.0036956 0.0016000 -0.0015308
v 0.0040000 0.0016000 -0.0000000
v 0.0036956 0.0016000 0.0015308
v 0.0028284 0.0016000 0.0028284
v 0.0015308 0.0016000 0.0036956
v 0.0000000 0.0016000 0.0040000
v -0.0015308 0.0016000 0.0036956
v -0.0028284 0.0016000 0.0028284
v -0.0036956 0.0016000 0.0015308
usemtl c16
f 1 2 3
f 1 3 4
f 6 5 2
f 6 2 1
f 7 8 5
f 7 5 6
f 10 9 8
f 10 8 7
f 11 12 9
f 11 9 10
f 14 13 12
f 14 12 11
f 15 16 13
f 15 13 14
f 16 15 17
f 16 17 18
f 19 20 18
f 19 18 17
f 20 19 21
f 20 21 22
f 23 24 22
f 23 22 21
f 24 23 25
f 24 25 26
f 27 28 26
f 27 26 25
f 28 27 29
f 28 29 30
f 31 32 30
f 31 30 29
f 32 31 33
f 32 33 34
f 7 6 1
f 7 1 10
f 15 14 11
f 15 11 17
f 23 21 19
f 23 19 25
f 31 29 27
f 31 27 33
f 30 32 34
f 30 34 28
f 22 24 26
f 22 26 20
f 13 16 18
f 13 18 12
f 5 8 9
f 5 9 2
f 35 36 37
f 35 38 36
f 41 40 39
f 40 38 39
f 28 34 41
f 28 41 26
f 26 41 39
f 26 39 20
f 18 20 39
f 18 39 38
f 18 38 35
f 18 35 12
f 9 12 35
f 9 35 37
f 2 9 37
f 2 37 3
f 42 43 44
f 42 44 45
f 47 46 43
f 47 43 42
f 48 49 46
f 48 46 47
f 51 50 49
f 51 49 48
f 52 53 50
f 52 50 51
f 55 54 53
f 55 53 52
f 56 57 54
f 56 54 55
f 57 56 58
f 57 58 59
f 60 61 59
f 60 59 58
f 61 60 62
f 61 62 63
f 64 65 63
f 64 63 62
f 65 64 66
f 65 66 67
f 68 69 67
f 68 67 66
f 69 68 70
f 69 70 71
f 72 73 71
f 72 71 70
f 73 72 4
f 73 4 3
f 48 47 42
f 48 42 51
f 56 55 52
f 56 52 58
f 64 62 60
f 64 60 66
f 72 70 68
f 72 68 4
f 71 73 3
f 71 3 69
f 63 65 67
f 63 67 61
f 54 57 59
f 54 59 53
f 46 49 50
f 46 50 43
f 74 75 76
f 74 77 75
f 37 79 78
f 79 77 78
f 69 3 37
f 69 37 67
f 67 37 78
f 67 78 61
f 59 61 78
f 59 78 77
f 59 77 74
f 59 74 53
f 50 53 74
f 50 74 76
f 43 50 76
f 43 76 44
f 80 81 82
f 80 82 83
f 85 84 81
f 85 81 80
f 86 87 84
f 86 84 85
f 89 88 87
f 89 87 86
f 90 91 88
f 90 88 89
f 93 92 91
f 93 91 90
f 94 95 92
f 94 92 93
f 95 94 96
f 95 96 97
f 98 99 97
f 98 97 96
f 99 98 100
f 99 100 101
f 102 103 101
f 102 101 100
f 103 102 104
f 103 104 105
f 106 107 105
f 106 105 104
f 107 106 108
f 107 108 109
f 110 111 109
f 110 109 108
f 111 110 45
f 111 45 44
f 86 85 80
f 86 80 89
f 94 93 90
f 94 90 96
f 102 100 98
f 102 98 104
f 110 108 106
f 110 106 45
f 109 111 44
f 109 44 107
f 101 103 105
f 101 105 99
f 92 95 97
f 92 97 91
f 84 87 88
f 84 88 81
f 112 113 114
f 112 115 113
f 76 117 116
f 117 115 116
f 107 44 76
f 107 76 105
f 105 76 116
f 105 116 99
f 97 99 116
f 97 116 115
f 97 115 112
f 97 112 91
f 88 91 112
f 88 112 114
f 81 88 114
f 81 114 82
f 118 119 34
f 118 34 33
f 121 120 119
f 121 119 118
f 122 123 120
f 122 120 121
f 125 124 123
f 125 123 122
f 126 127 124
f 126 124 125
f 129 128 127
f 129 127 126
f 130 131 128
f 130 128 129
f 131 130 132
f 131 132 133
f 134 135 133
f 134 133 132
f 135 134 136
f 135 136 137
f 138 139 137
f 138 137 136
f 139 138 140
f 139 140 141
f 142 143 141
f 142 141 140
f 143 142 144
f 143 144 145
f 146 147 145
f 146 145 144
f 147 146 83
f 147 83 82
f 122 121 118
f 122 118 125
f 130 129 126
f 130 126 132
f 138 136 134
f 138 134 140
f 146 144 142
f 146 142 83
f 145 147 82
f 145 82 143
f 137 139 141
f 137 141 135
f 128 131 133
f 128 133 127
f 120 123 124
f 120 124 119
f 148 149 41
f 148 150 149
f 114 152 151
f 152 150 151
f 143 82 114
f 143 114 141
f 141 114 151
f 141 151 135
f 133 135 151
f 133 151 150
f 133 150 148
f 133 148 127
f 124 127 148
f 124 148 41
f 119 124 41
f 119 41 34
f 27 153 154
f 27 154 33
f 29 155 153
f 29 153 27
f 23 156 155
f 23 155 29
f 25 157 156
f 25 156 23
f 19 158 157
f 19 157 25
f 21 159 158
f 21 158 19
f 15 160 159
f 15 159 21
f 160 15 17
f 160 17 161
f 11 162 161
f 11 161 17
f 162 11 14
f 162 14 163
f 7 164 163
f 7 163 14
f 164 7 10
f 164 10 165
f 1 166 165
f 1 165 10
f 166 1 6
f 166 6 167
f 72 168 167
f 72 167 6
f 168 72 4
f 168 4 169
f 23 29 27
f 23 27 25
f 15 21 19
f 15 19 17
f 7 14 11
f 7 11 10
f 72 6 1
f 72 1 4
f 167 168 169
f 167 169 166
f 163 164 165
f 163 165 162
f 159 160 161
f 159 161 158
f 155 156 157
f 155 157 153
f 170 171 172
f 170 173 171
f 176 175 174
f 175 173 174
f 166 169 176
f 166 176 165
f 165 176 174
f 165 174 162
f 161 162 174
f 161 174 173
f 161 173 170
f 161 170 158
f 157 158 170
f 157 170 172
f 153 157 172
f 153 172 154
f 68 177 169
f 68 169 4
f 70 178 177
f 70 177 68
f 64 179 178
f 64 178 70
f 66 180 179
f 66 179 64
f 60 181 180
f 60 180 66
f 62 182 181
f 62 181 60
f 56 183 182
f 56 182 62
f 183 56 58
f 183 58 184
f 52 185 184
f 52 184 58
f 185 52 55
f 185 55 186
f 48 187 186
f 48 186 55
f 187 48 51
f 187 51 188
f 42 189 188
f 42 188 51
f 189 42 47
f 189 47 190
f 110 191 190
f 110 190 47
f 191 110 45
f 191 45 192
f 64 70 68
f 64 68 66
f 56 62 60
f 56 60 58
f 48 55 52
f 48 52 51
f 110 47 42
f 110 42 45
f 190 191 192
f 190 192 189
f 186 187 188
f 186 188 185
f 182 183 184
f 182 184 181
f 178 179 180
f 178 180 177
f 193 194 176
f 193 195 194
f 198 197 196
f 197 195 196
f 189 192 198
f 189 198 188
f 188 198 196
f 188 196 185
f 184 185 196
f 184 196 195
f 184 195 193
f 184 193 181
f 180 181 193
f 180 193 176
f 177 180 176
f 177 176 169
f 106 199 192
f 106 192 45
f 108 200 199
f 108 199 106
f 102 201 200
f 102 200 108
f 104 202 201
f 104 201 102
f 98 203 202
f 98 202 104
f 100 204 203
f 100 203 98
f 94 205 204
f 94 204 100
f 205 94 96
f 205 96 206
f 90 207 206
f 90 206 96
f 207 90 93
f 207 93 208
f 86 209 208
f 86 208 93
f 209 86 89
f 209 89 210
f 80 211 210
f 80 210 89
f 211 80 85
f 211 85 212
f 146 213 212
f 146 212 85
f 213 146 83
f 213 83 214
f 102 108 106
f 102 106 104
f 94 100 98
f 94 98 96
f 86 93 90
f 86 90 89
f 146 85 80
f 146 80 83
f 212 213 214
f 212 214 211
f 208 209 210
f 208 210 207
f 204 205 206
f 204 206 203
f 200 201 202
f 200 202 199
f 215 216 198
f 215 217 216
f 220 219 218
f 219 217 218
f 211 214 220
f 211 220 210
f 210 220 218
f 210 218 207
f 206 207 218
f 206 218 217
f 206 217 215
f 206 215 203
f 202 203 215
f 202 215 198
f 199 202 198
f 199 198 192
f 142 221 214
f 142 214 83
f 144 222 221
f 144 221 142
f 138 223 222
f 138 222 144
f 140 224 223
f 140 223 138
f 134 225 224
f 134 224 140
f 136 226 225
f 136 225 134
f 130 227 226
f 130 226 136
f 227 130 132
f 227 132 228
f 126 229 228
f 126 228 132
f 229 126 129
f 229 129 230
f 122 231 230
f 122 230 129
f 231 122 125
f 231 125 232
f 118 233 232
f 118 232 125
f 233 118 121
f 233 121 234
f 31 235 234
f 31 234 121
f 235 31 33
f 235 33 154
f 138 144 142
f 138 142 140
f 130 136 134
f 130 134 132
f 122 129 126
f 122 126 125
f 31 121 118
f 31 118 33
f 234 235 154
f 234 154 233
f 230 231 232
f 230 232 229
f 226 227 228
f 226 228 225
f 222 223 224
f 222 224 221
f 236 237 220
f 236 238 237
f 172 240 239
f 240 238 239
f 233 154 172
f 233 172 232
f 232 172 239
f 232 239 229
f 228 229 239
f 228 239 238
f 228 238 236
f 228 236 225
f 224 225 236
f 224 236 220
f 221 224 220
f 221 220 214
f 241 242 113
f 241 113 114
f 242 243 115
f 242 115 113
f 243 244 117
f 243 117 115
f 244 245 76
f 244 76 117
f 245 246 75
f 245 75 76
f 246 247 77
f 246 77 75
f 247 248 79
f 247 79 77
f 248 249 37
f 248 37 79
f 249 250 36
f 249 36 37
f 250 251 38
f 250 38 36
f 251 252 40
f 251 40 38
f 252 253 41
f 252 41 40
f 253 254 149
f 253 149 41
f 254 255 150
f 254 150 149
f 255 256 152
f 255 152 150
f 256 241 114
f 256 114 152
f 249 248 258
f 249 258 257
f 248 247 259
f 248 259 258
f 247 246 260
f 247 260 259
f 246 245 261
f 246 261 260
f 245 244 262
f 245 262 261
f 244 243 263
f 244 263 262
f 243 242 264
f 243 264 263
f 242 241 265
f 242 265 264
f 241 256 266
f 241 266 265
f 256 255 267
f 256 267 266
f 255 254 268
f 255 268 267
f 254 253 269
f 254 269 268
f 253 252 270
f 253 270 269
f 252 251 271
f 252 271 270
f 251 250 272
f 251 272 271
f 250 249 257
f 250 257 272
f 257 258 273
f 257 273 274
f 258 259 275
f 258 275 273
f 259 260 276
f 259 276 275
f 260 261 277
f 260 277 276
f 261 262 278
f 261 278 277
f 262 263 279
f 262 279 278
f 263 264 280
f 263 280 279
f 264 265 281
f 264 281 280
f 265 266 282
f 265 282 281
f 266 267 283
f 266 283 282
f 267 268 284
f 267 284 283
f 268 269 285
f 268 285 284
f 269 270 286
f 269 286 285
f 270 271 287
f 270 287 286
f 271 272 288
f 271 288 287
f 272 257 274
f 272 274 288
f 290 289 280
f 290 280 281
f 289 291 279
f 289 279 280
f 291 292 278
f 291 278 279
f 292 293 277
f 292 277 278
f 293 294 276
f 293 276 277
f 294 295 275
f 294 275 276
f 295 296 273
f 295 273 275
f 296 297 274
f 296 274 273
f 297 298 288
f 297 288 274
f 298 299 287
f 298 287 288
f 299 300 286
f 299 286 287
f 300 301 285
f 300 285 286
f 301 302 284
f 301 284 285
f 302 303 283
f 302 283 284
f 303 304 282
f 303 282 283
f 304 290 281
f 304 281 282
f 297 296 194
f 297 194 176
f 296 295 195
f 296 195 194
f 295 294 197
f 295 197 195
f 294 293 198
f 294 198 197
f 293 292 216
f 293 216 198
f 292 291 217
f 292 217 216
f 291 289 219
f 291 219 217
f 289 290 220
f 289 220 219
f 290 304 237
f 290 237 220
f 304 303 238
f 304 238 237
f 303 302 240
f 303 240 238
f 302 301 172
f 302 172 240
f 301 300 171
f 301 171 172
f 300 299 173
f 300 173 171
f 299 298 175
f 299 175 173
f 298 297 176
f 298 176 175
