o 3710
v -0.0080000 0.0000000 -0.0032000
v -0.0064000 0.0000000 -0.0032000
v -0.0065218 0.0006123 -0.0032000
v -0.0068686 0.0011314 -0.0032000
v -0.0073877 0.0014782 -0.0032000
v -0.0080000 0.0016000 -0.0032000
v -0.0086123 0.0014782 -0.0032000
v -0.0091314 0.0011314 -0.0032000
v -0.0094782 0.0006123 -0.0032000
v -0.0096000 0.0000000 -0.0032000
v -0.0094782 -0.0006123 -0.0032000
v -0.0091314 -0.0011314 -0.0032000
v -0.0086123 -0.0014782 -0.0032000
v -0.0080000 -0.0016000 -0.0032000
v -0.0073877 -0.0014782 -0.0032000
v -0.0068686 -0.0011314 -0.0032000
v -0.0065218 -0.0006123 -0.0032000
v -0.0064000 0.0000000 -0.0016000
v -0.0065218 0.0006123 -0.0016000
v -0.0068686 0.0011314 -0.0016000
v -0.0073877 0.0014782 -0.0016000
v -0.0080000 0.0016000 -0.0016000
v -0.0086123 0.0014782 -0.0016000
v -0.0091314 0.0011314 -0.0016000
v -0.0094782 0.0006123 -0.0016000
v -0.0096000 0.0000000 -0.0016000
v -0.0094782 -0.0006123 -0.0016000
v -0.0091314 -0.0011314 -0.0016000
v -0.0086123 -0.0014782 -0.0016000
v -0.0080000 -0.0016000 -0.0016000
v -0.0073877 -0.0014782 -0.0016000
v -0.0068686 -0.0011314 -0.0016000
v -0.0065218 -0.0006123 -0.0016000
v 0.0000000 0.0000000 -0.0032000
v 0.0016000 0.0000000 -0.0032000
v 0.0014782 0.0006123 -0.0032000
v 0.0011314 0.0011314 -0.0032000
v 0.0006123 0.0014782 -0.0032000
v 0.0000000 0.0016000 -0.0032000
v -0.0006123 0.0014782 -0.0032000
v -0.0011314 0.0011314 -0.0032000
v -0.0014782 0.0006123 -0.0032000
v -0.0016000 0.0000000 -0.0032000
v -0.0014782 -0.0006123 -0.0032000
v -0.0011314 -0.0011314 -0.0032000
v -0.0006123 -0.0014782 -0.0032000
v 0.0000000 -0.0016000 -0.0032000
v 0.0006123 -0.0014782 -0.0032000
v 0.0011314 -0.0011314 -0.0032000
v 0.0014782 -0.0006123 -0.0032000
v 0.0016000 0.0000000 -0.0016000
v 0.0014782 0.0006123 -0.0016000
v 0.0011314 0.0011314 -0.0016000
v 0.0006123 0.0014782 -0.0016000
v 0.0000000 0.0016000 -0.0016000
v -0.0006123 0.0014782 -0.0016000
v -0.0011314 0.0011314 -0.0016000
v -0.0014782 0.0006123 -0.0016000
v -0.0016000 0.0000000 -0.0016000
v -0.0014782 -0.0006123 -0.0016000
v -0.0011314 -0.0011314 -0.0016000
v -0.0006123 -0.0014782 -0.0016000
v 0.0000000 -0.0016000 -0.0016000
v 0.0006123 -0.0014782 -0.0016000
v 0.0011314 -0.0011314 -0.0016000
v 0.0014782 -0.0006123 -0.0016000
v 0.0080000 0.0000000 -0.0032000
v 0.0096000 0.0000000 -0.0032000
v 0.0094782 0.0006123 -0.0032000
v 0.0091314 0.0011314 -0.0032000
v 0.0086123 0.0014782 -0.0032000
v 0.0080000 0.0016000 -0.0032000
v 0.0073877 0.0014782 -0.0032000
v 0.0068686 0.0011314 -0.0032000
v 0.0065218 0.0006123 -0.0032000
v 0.0064000 0.0000000 -0.0032000
v 0.0065218 -0.0006123 -0.0032000
v 0.0068686 -0.0011314 -0.0032000
v 0.0073877 -0.0014782 -0.0032000
v 0.0080000 -0.0016000 -0.0032000
v 0.0086123 -0.0014782 -0.0032000
v 0.0091314 -0.0011314 -0.0032000
v 0.0094782 -0.0006123 -0.0032000
v 0.0096000 0.0000000 -0.0016000
v 0.0094782 0.0006123 -0.0016000
v 0.0091314 0.0011314 -0.0016000
v 0.0086123 0.0014782 -0.0016000
v 0.0080000 0.0016000 -0.0016000
v 0.0073877 0.0014782 -0.0016000
v 0.0068686 0.0011314 -0.0016000
v 0.0065218 0.0006123 -0.0016000
v 0.0064000 0.0000000 -0.0016000
v 0.0065218 -0.0006123 -0.0016000
v 0.0068686 -0.0011314 -0.0016000
v 0.0073877 -0.0014782 -0.0016000
v 0.0080000 -0.0016000 -0.0016000
v 0.0086123 -0.0014782 -0.0016000
v 0.0091314 -0.0011314 -0.0016000
v 0.0094782 -0.0006123 -0.0016000
v -0.0144000 0.0024000 -0.0016000
v 0.0144000 0.0024000 -0.0016000
v 0.0144000 -0.0024000 -0.0016000
v -0.0144000 -0.0024000 -0.0016000
v -0.0144000 0.0024000 -0.0032000
v 0.0144000 0.0024000 -0.0032000
v -0.0144000 -0.0024000 -0.0032000
v 0.0144000 -0.0024000 -0.0032000
v 0.0160000 0.0040000 -0.0032000
v -0.0160000 0.0040000 -0.0032000
v -0.0160000 -0.0040000 -0.0032000
v 0.0160000 -0.0040000 -0.0032000
v 0.0160000 0.0040000 -0.0000000
v 0.0160000 -0.0040000 -0.0000000
v -0.0160000 -0.0040000 -0.0000000
v -0.0160000 0.0040000 -0.0000000
v -0.0096000 0.0000000 0.0016000
v -0.0097826 0.0009185 0.0016000
v -0.0097826 0.0009185 -0.0000000
v -0.0096000 0.0000000 -0.0000000
v -0.0103030 0.0016970 0.0016000
v -0.0103030 0.0016970 -0.0000000
v -0.0110815 0.0022174 0.0016000
v -0.0110815 0.0022174 -0.0000000
v -0.0120000 0.0024000 0.0016000
v -0.0120000 0.0024000 -0.0000000
v -0.0129185 0.0022174 0.0016000
v -0.0129185 0.0022174 -0.0000000
v -0.0136970 0.0016970 0.0016000
v -0.0136970 0.0016970 -0.0000000
v -0.0142174 0.0009185 0.0016000
v -0.0142174 0.0009185 -0.0000000
v -0.0144000 0.0000000 0.0016000
v -0.0144000 0.0000000 -0.0000000
v -0.0142174 -0.0009185 0.0016000
v -0.0142174 -0.0009185 -0.0000000
v -0.0136970 -0.0016970 0.0016000
v -0.0136970 -0.0016970 -0.0000000
v -0.0129185 -0.0022174 0.0016000
v -0.0129185 -0.0022174 -0.0000000
v -0.0120000 -0.0024000 0.0016000
v -0.0120000 -0.0024000 -0.0000000
v -0.0110815 -0.0022174 0.0016000
v -0.0110815 -0.0022174 -0.0000000
v -0.0103030 -0.0016970 0.0016000
v -0.0103030 -0.0016970 -0.0000000
v -0.0097826 -0.0009185 0.0016000
v -0.0097826 -0.0009185 -0.0000000
v -0.0120000 0.0000000 0.0016000
v -0.0016000 0.0000000 0.0016000
v -0.0017826 0.0009185 0.0016000
v -0.0017826 0.0009185 -0.0000000
v -0.0016000 0.0000000 -0.0000000
v -0.0023030 0.0016970 0.0016000
v -0.0023030 0.0016970 -0.0000000
v -0.0030815 0.0022174 0.0016000
v -0.0030815 0.0022174 -0.0000000
v -0.0040000 0.0024000 0.0016000
v -0.0040000 0.0024000 -0.0000000
v -0.0049185 0.0022174 0.0016000
v -0.0049185 0.0022174 -0.0000000
v -0.0056970 0.0016970 0.0016000
v -0.0056970 0.0016970 -0.0000000
v -0.0062174 0.0009185 0.0016000
v -0.0062174 0.0009185 -0.0000000
v -0.0064000 0.0000000 0.0016000
v -0.0064000 0.0000000 -0.0000000
v -0.0062174 -0.0009185 0.0016000
v -0.0062174 -0.0009185 -0.0000000
v -0.0056970 -0.0016970 0.0016000
v -0.0056970 -0.0016970 -0.0000000
v -0.0049185 -0.0022174 0.0016000
v -0.0049185 -0.0022174 -0.0000000
v -0.0040000 -0.0024000 0.0016000
v -0.0040000 -0.0024000 -0.0000000
v -0.0030815 -0.0022174 0.0016000
v -0.0030815 -0.0022174 -0.0000000
v -0.0023030 -0.0016970 0.0016000
v -0.0023030 -0.0016970 -0.0000000
v -0.0017826 -0.0009185 0.0016000
v -0.0017826 -0.0009185 -0.0000000
v -0.0040000 0.0000000 0.0016000
v 0.0064000 0.0000000 0.0016000
v 0.0062174 0.0009185 0.0016000
v 0.0062174 0.0009185 -0.0000000
v 0.0064000 0.0000000 -0.0000000
v 0.0056970 0.0016970 0.0016000
v 0.0056970 0.0016970 -0.0000000
v 0.0049185 0.0022174 0.0016000
v 0.0049185 0.0022174 -0.0000000
v 0.0040000 0.0024000 0.0016000
v 0.0040000 0.0024000 -0.0000000
v 0.0030815 0.0022174 0.0016000
v 0.0030815 0.0022174 -0.0000000
v 0.0023030 0.0016970 0.0016000
v 0.0023030 0.0016970 -0.0000000
v 0.0017826 0.0009185 0.0016000
v 0.0017826 0.0009185 -0.0000000
v 0.0016000 0.0000000 0.0016000
v 0.0016000 0.0000000 -0.0000000
v 0.0017826 -0.0009185 0.0016000
v 0.0017826 -0.0009185 -0.0000000
v 0.0023030 -0.0016970 0.0016000
v 0.0023030 -0.0016970 -0.0000000
v 0.0030815 -0.0022174 0.0016000
v 0.0030815 -0.0022174 -0.0000000
v 0.0040000 -0.0024000 0.0016000
v 0.0040000 -0.0024000 -0.0000000
v 0.0049185 -0.0022174 0.0016000
v 0.0049185 -0.0022174 -0.0000000
v 0.0056970 -0.0016970 0.0016000
v 0.0056970 -0.0016970 -0.0000000
v 0.0062174 -0.0009185 0.0016000
v 0.0062174 -0.0009185 -0.0000000
v 0.0040000 0.0000000 0.0016000
v 0.0144000 0.0000000 0.0016000
v 0.0142174 0.0009185 0.0016000
v 0.0142174 0.0009185 -0.0000000
v 0.0144000 0.0000000 -0.0000000
v 0.0136970 0.0016970 0.0016000
v 0.0136970 0.0016970 -0.0000000
v 0.0129185 0.0022174 0.0016000
v 0.0129185 0.0022174 -0.0000000
v 0.0120000 0.0024000 0.0016000
v 0.0120000 0.0024000 -0.0000000
v 0.0110815 0.0022174 0.0016000
v 0.0110815 0.0022174 -0.0000000
v 0.0103030 0.0016970 0.0016000
v 0.0103030 0.0016970 -0.0000000
v 0.0097826 0.0009185 0.0016000
v 0.0097826 0.0009185 -0.0000000
v 0.0096000 0.0000000 0.0016000
v 0.0096000 0.0000000 -0.0000000
v 0.0097826 -0.0009185 0.0016000
v 0.0097826 -0.0009185 -0.0000000
v 0.0103030 -0.0016970 0.0016000
v 0.0103030 -0.0016970 -0.0000000
v 0.0110815 -0.0022174 0.0016000
v 0.0110815 -0.0022174 -0.0000000
v 0.0120000 -0.0024000 0.0016000
v 0.0120000 -0.0024000 -0.0000000
v 0.0129185 -0.0022174 0.0016000
v 0.0129185 -0.0022174 -0.0000000
v 0.0136970 -0.0016970 0.0016000
v 0.0136970 -0.0016970 -0.0000000
v 0.0142174 -0.0009185 0.0016000
v 0.0142174 -0.0009185 -0.0000000
v 0.0120000 0.0000000 0.0016000
usemtl c16
f 3 2 1
f 4 3 1
f 5 4 1
f 6 5 1
f 7 6 1
f 8 7 1
f 9 8 1
f 10 9 1
f 11 10 1
f 12 11 1
f 13 12 1
f 14 13 1
f 15 14 1
f 16 15 1
f 17 16 1
f 2 17 1
f 2 3 19
f 2 19 18
f 3 4 20
f 3 20 19
f 4 5 21
f 4 21 20
f 5 6 22
f 5 22 21
f 6 7 23
f 6 23 22
f 7 8 24
f 7 24 23
f 8 9 25
f 8 25 24
f 9 10 26
f 9 26 25
f 10 11 27
f 10 27 26
f 11 12 28
f 11 28 27
f 12 13 29
f 12 29 28
f 13 14 30
f 13 30 29
f 14 15 31
f 14 31 30
f 15 16 32
f 15 32 31
f 16 17 33
f 16 33 32
f 17 2 18
f 17 18 33
f 36 35 34
f 37 36 34
f 38 37 34
f 39 38 34
f 40 39 34
f 41 40 34
f 42 41 34
f 43 42 34
f 44 43 34
f 45 44 34
f 46 45 34
f 47 46 34
f 48 47 34
f 49 48 34
f 50 49 34
f 35 50 34
f 35 36 52
f 35 52 51
f 36 37 53
f 36 53 52
f 37 38 54
f 37 54 53
f 38 39 55
f 38 55 54
f 39 40 56
f 39 56 55
f 40 41 57
f 40 57 56
f 41 42 58
f 41 58 57
f 42 43 59
f 42 59 58
f 43 44 60
f 43 60 59
f 44 45 61
f 44 61 60
f 45 46 62
f 45 62 61
f 46 47 63
f 46 63 62
f 47 48 64
f 47 64 63
f 48 49 65
f 48 65 64
f 49 50 66
f 49 66 65
f 50 35 51
f 50 51 66
f 69 68 67
f 70 69 67
f 71 70 67
f 72 71 67
f 73 72 67
f 74 73 67
f 75 74 67
f 76 75 67
f 77 76 67
f 78 77 67
f 79 78 67
f 80 79 67
f 81 80 67
f 82 81 67
f 83 82 67
f 68 83 67
f 68 69 85
f 68 85 84
f 69 70 86
f 69 86 85
f 70 71 87
f 70 87 86
f 71 72 88
f 71 88 87
f 72 73 89
f 72 89 88
f 73 74 90
f 73 90 89
f 74 75 91
f 74 91 90
f 75 76 92
f 75 92 91
f 76 77 93
f 76 93 92
f 77 78 94
f 77 94 93
f 78 79 95
f 78 95 94
f 79 80 96
f 79 96 95
f 80 81 97
f 80 97 96
f 81 82 98
f 81 98 97
f 82 83 99
f 82 99 98
f 83 68 84
f 83 84 99
f 103 102 101
f 103 101 100
f 101 105 104
f 101 104 100
f 100 104 106
f 100 106 103
f 103 106 107
f 103 107 102
f 102 107 105
f 102 105 101
f 108 105 104
f 108 104 109
f 109 104 106
f 109 106 110
f 110 106 107
f 110 107 111
f 111 107 105
f 111 105 108
f 115 114 113
f 115 113 112
f 108 109 115
f 108 115 112
f 109 110 114
f 109 114 115
f 111 108 112
f 111 112 113
f 119 118 117
f 119 117 116
f 118 121 120
f 118 120 117
f 121 123 122
f 121 122 120
f 123 125 124
f 123 124 122
f 125 127 126
f 125 126 124
f 127 129 128
f 127 128 126
f 129 131 130
f 129 130 128
f 131 133 132
f 131 132 130
f 133 135 134
f 133 134 132
f 135 137 136
f 135 136 134
f 137 139 138
f 137 138 136
f 139 141 140
f 139 140 138
f 141 143 142
f 141 142 140
f 143 145 144
f 143 144 142
f 145 147 146
f 145 146 144
f 147 119 116
f 147 116 146
f 148 116 117
f 148 117 120
f 148 120 122
f 148 122 124
f 148 124 126
f 148 126 128
f 148 128 130
f 148 130 132
f 148 132 134
f 148 134 136
f 148 136 138
f 148 138 140
f 148 140 142
f 148 142 144
f 148 144 146
f 148 146 116
f 152 151 150
f 152 150 149
f 151 154 153
f 151 153 150
f 154 156 155
f 154 155 153
f 156 158 157
f 156 157 155
f 158 160 159
f 158 159 157
f 160 162 161
f 160 161 159
f 162 164 163
f 162 163 161
f 164 166 165
f 164 165 163
f 166 168 167
f 166 167 165
f 168 170 169
f 168 169 167
f 170 172 171
f 170 171 169
f 172 174 173
f 172 173 171
f 174 176 175
f 174 175 173
f 176 178 177
f 176 177 175
f 178 180 179
f 178 179 177
f 180 152 149
f 180 149 179
f 181 149 150
f 181 150 153
f 181 153 155
f 181 155 157
f 181 157 159
f 181 159 161
f 181 161 163
f 181 163 165
f 181 165 167
f 181 167 169
f 181 169 171
f 181 171 173
f 181 173 175
f 181 175 177
f 181 177 179
f 181 179 149
f 185 184 183
f 185 183 182
f 184 187 186
f 184 186 183
f 187 189 188
f 187 188 186
f 189 191 190
f 189 190 188
f 191 193 192
f 191 192 190
f 193 195 194
f 193 194 192
f 195 197 196
f 195 196 194
f 197 199 198
f 197 198 196
f 199 201 200
f 199 200 198
f 201 203 202
f 201 202 200
f 203 205 204
f 203 204 202
f 205 207 206
f 205 206 204
f 207 209 208
f 207 208 206
f 209 211 210
f 209 210 208
f 211 213 212
f 211 212 210
f 213 185 182
f 213 182 212
f 214 182 183
f 214 183 186
f 214 186 188
f 214 188 190
f 214 190 192
f 214 192 194
f 214 194 196
f 214 196 198
f 214 198 200
f 214 200 202
f 214 202 204
f 214 204 206
f 214 206 208
f 214 208 210
f 214 210 212
f 214 212 182
f 218 217 216
f 218 216 215
f 217 220 219
f 217 219 216
f 220 222 221
f 220 221 219
f 222 224 223
f 222 223 221
f 224 226 225
f 224 225 223
f 226 228 227
f 226 227 225
f 228 230 229
f 228 229 227
f 230 232 231
f 230 231 229
f 232 234 233
f 232 233 231
f 234 236 235
f 234 235 233
f 236 238 237
f 236 237 235
f 238 240 239
f 238 239 237
f 240 242 241
f 240 241 239
f 242 244 243
f 242 243 241
f 244 246 245
f 244 245 243
f 246 218 215
f 246 215 245
f 247 215 216
f 247 216 219
f 247 219 221
f 247 221 223
f 247 223 225
f 247 225 227
f 247 227 229
f 247 229 231
f 247 231 233
f 247 233 235
f 247 235 237
f 247 237 239
f 247 239 241
f 247 241 243
f 247 243 245
f 247 245 215
f 114 110 111
f 114 111 113
