o 3788
v -0.0120000 0.0016000 0.0016000
v -0.0110815 0.0017826 0.0016000
v -0.0110815 0.0017826 -0.0000000
v -0.0120000 0.0016000 -0.0000000
v -0.0103030 0.0023030 0.0016000
v -0.0103030 0.0023030 -0.0000000
v -0.0097826 0.0030815 0.0016000
v -0.0097826 0.0030815 -0.0000000
v -0.0096000 0.0040000 0.0016000
v -0.0096000 0.0040000 -0.0000000
v -0.0097826 0.0049185 0.0016000
v -0.0097826 0.0049185 -0.0000000
v -0.0103030 0.0056970 0.0016000
v -0.0103030 0.0056970 -0.0000000
v -0.0110815 0.0062174 0.0016000
v -0.0110815 0.0062174 -0.0000000
v -0.0120000 0.0064000 0.0016000
v -0.0120000 0.0064000 -0.0000000
v -0.0129185 0.0062174 0.0016000
v -0.0129185 0.0062174 -0.0000000
v -0.0136970 0.0056970 0.0016000
v -0.0136970 0.0056970 -0.0000000
v -0.0142174 0.0049185 0.0016000
v -0.0142174 0.0049185 -0.0000000
v -0.0144000 0.0040000 0.0016000
v -0.0144000 0.0040000 -0.0000000
v -0.0142174 0.0030815 0.0016000
v -0.0142174 0.0030815 -0.0000000
v -0.0136970 0.0023030 0.0016000
v -0.0136970 0.0023030 -0.0000000
v -0.0129185 0.0017826 0.0016000
v -0.0129185 0.0017826 -0.0000000
v -0.0120000 0.0040000 0.0016000
v -0.0120000 -0.0064000 0.0016000
v -0.0110815 -0.0062174 0.0016000
v -0.0110815 -0.0062174 -0.0000000
v -0.0120000 -0.0064000 -0.0000000
v -0.0103030 -0.0056970 0.0016000
v -0.0103030 -0.0056970 -0.0000000
v -0.0097826 -0.0049185 0.0016000
v -0.0097826 -0.0049185 -0.0000000
v -0.0096000 -0.0040000 0.0016000
v -0.0096000 -0.0040000 -0.0000000
v -0.0097826 -0.0030815 0.0016000
v -0.0097826 -0.0030815 -0.0000000
v -0.0103030 -0.0023030 0.0016000
v -0.0103030 -0.0023030 -0.0000000
v -0.0110815 -0.0017826 0.0016000
v -0.0110815 -0.0017826 -0.0000000
v -0.0120000 -0.0016000 0.0016000
v -0.0120000 -0.0016000 -0.0000000
v -0.0129185 -0.0017826 0.0016000
v -0.0129185 -0.0017826 -0.0000000
v -0.0136970 -0.0023030 0.0016000
v -0.0136970 -0.0023030 -0.0000000
v -0.0142174 -0.0030815 0.0016000
v -0.0142174 -0.0030815 -0.0000000
v -0.0144000 -0.0040000 0.0016000
v -0.0144000 -0.0040000 -0.0000000
v -0.0142174 -0.0049185 0.0016000
v -0.0142174 -0.0049185 -0.0000000
v -0.0136970 -0.0056970 0.0016000
v -0.0136970 -0.0056970 -0.0000000
v -0.0129185 -0.0062174 0.0016000
v -0.0129185 -0.0062174 -0.0000000
v -0.0120000 -0.0040000 0.0016000
v 0.0120000 0.0016000 0.0016000
v 0.0129185 0.0017826 0.0016000
v 0.0129185 0.0017826 -0.0000000
v 0.0120000 0.0016000 -0.0000000
v 0.0136970 0.0023030 0.0016000
v 0.0136970 0.0023030 -0.0000000
v 0.0142174 0.0030815 0.0016000
v 0.0142174 0.0030815 -0.0000000
v 0.0144000 0.0040000 0.0016000
v 0.0144000 0.0040000 -0.0000000
v 0.0142174 0.0049185 0.0016000
v 0.0142174 0.0049185 -0.0000000
v 0.0136970 0.0056970 0.0016000
v 0.0136970 0.0056970 -0.0000000
v 0.0129185 0.0062174 0.0016000
v 0.0129185 0.0062174 -0.0000000
v 0.0120000 0.0064000 0.0016000
v 0.0120000 0.0064000 -0.0000000
v 0.0110815 0.0062174 0.0016000
v 0.0110815 0.0062174 -0.0000000
v 0.0103030 0.0056970 0.0016000
v 0.0103030 0.0056970 -0.0000000
v 0.0097826 0.0049185 0.0016000
v 0.0097826 0.0049185 -0.0000000
v 0.0096000 0.0040000 0.0016000
v 0.0096000 0.0040000 -0.0000000
v 0.0097826 0.0030815 0.0016000
v 0.0097826 0.0030815 -0.0000000
v 0.0103030 0.0023030 0.0016000
v 0.0103030 0.0023030 -0.0000000
v 0.0110815 0.0017826 0.0016000
v 0.0110815 0.0017826 -0.0000000
v 0.0120000 0.0040000 0.0016000
v 0.0120000 -0.0064000 0.0016000
v 0.0129185 -0.0062174 0.0016000
v 0.0129185 -0.0062174 -0.0000000
v 0.0120000 -0.0064000 -0.0000000
v 0.0136970 -0.0056970 0.0016000
v 0.0136970 -0.0056970 -0.0000000
v 0.0142174 -0.0049185 0.0016000
v 0.0142174 -0.0049185 -0.0000000
v 0.0144000 -0.0040000 0.0016000
v 0.0144000 -0.0040000 -0.0000000
v 0.0142174 -0.0030815 0.0016000
v 0.0142174 -0.0030815 -0.0000000
v 0.0136970 -0.0023030 0.0016000
v 0.0136970 -0.0023030 -0.0000000
v 0.0129185 -0.0017826 0.0016000
v 0.0129185 -0.0017826 -0.0000000
v 0.0120000 -0.0016000 0.0016000
v 0.0120000 -0.0016000 -0.0000000
v 0.0110815 -0.0017826 0.0016000
v 0.0110815 -0.0017826 -0.0000000
v 0.0103030 -0.0023030 0.0016000
v 0.0103030 -0.0023030 -0.0000000
v 0.0097826 -0.0030815 0.0016000
v 0.0097826 -0.0030815 -0.0000000
v 0.0096000 -0.0040000 0.0016000
v 0.0096000 -0.0040000 -0.0000000
v 0.0097826 -0.0049185 0.0016000
v 0.0097826 -0.0049185 -0.0000000
v 0.0103030 -0.0056970 0.0016000
v 0.0103030 -0.0056970 -0.0000000
v 0.0110815 -0.0062174 0.0016000
v 0.0110815 -0.0062174 -0.0000000
v 0.0120000 -0.0040000 0.0016000
v -0.0040000 0.0016000 -0.0016000
v -0.0030815 0.0017826 -0.0016000
v -0.0030815 0.0017826 -0.0032000
v -0.0040000 0.0016000 -0.0032000
v -0.0023030 0.0023030 -0.0016000
v -0.0023030 0.0023030 -0.0032000
v -0.0017826 0.0030815 -0.0016000
v -0.0017826 0.0030815 -0.0032000
v -0.0016000 0.0040000 -0.0016000
v -0.0016000 0.0040000 -0.0032000
v -0.0017826 0.0049185 -0.0016000
v -0.0017826 0.0049185 -0.0032000
v -0.0023030 0.0056970 -0.0016000
v -0.0023030 0.0056970 -0.0032000
v -0.0030815 0.0062174 -0.0016000
v -0.0030815 0.0062174 -0.0032000
v -0.0040000 0.0064000 -0.0016000
v -0.0040000 0.0064000 -0.0032000
v -0.0049185 0.0062174 -0.0016000
v -0.0049185 0.0062174 -0.0032000
v -0.0056970 0.0056970 -0.0016000
v -0.0056970 0.0056970 -0.0032000
v -0.0062174 0.0049185 -0.0016000
v -0.0062174 0.0049185 -0.0032000
v -0.0064000 0.0040000 -0.0016000
v -0.0064000 0.0040000 -0.0032000
v -0.0062174 0.0030815 -0.0016000
v -0.0062174 0.0030815 -0.0032000
v -0.0056970 0.0023030 -0.0016000
v -0.0056970 0.0023030 -0.0032000
v -0.0049185 0.0017826 -0.0016000
v -0.0049185 0.0017826 -0.0032000
v -0.0040000 0.0040000 -0.0016000
v -0.0040000 -0.0064000 -0.0016000
v -0.0030815 -0.0062174 -0.0016000
v -0.0030815 -0.0062174 -0.0032000
v -0.0040000 -0.0064000 -0.0032000
v -0.0023030 -0.0056970 -0.0016000
v -0.0023030 -0.0056970 -0.0032000
v -0.0017826 -0.0049185 -0.0016000
v -0.0017826 -0.0049185 -0.0032000
v -0.0016000 -0.0040000 -0.0016000
v -0.0016000 -0.0040000 -0.0032000
v -0.0017826 -0.0030815 -0.0016000
v -0.0017826 -0.0030815 -0.0032000
v -0.0023030 -0.0023030 -0.0016000
v -0.0023030 -0.0023030 -0.0032000
v -0.0030815 -0.0017826 -0.0016000
v -0.0030815 -0.0017826 -0.0032000
v -0.0040000 -0.0016000 -0.0016000
v -0.0040000 -0.0016000 -0.0032000
v -0.0049185 -0.0017826 -0.0016000
v -0.0049185 -0.0017826 -0.0032000
v -0.0056970 -0.0023030 -0.0016000
v -0.0056970 -0.0023030 -0.0032000
v -0.0062174 -0.0030815 -0.0016000
v -0.0062174 -0.0030815 -0.0032000
v -0.0064000 -0.0040000 -0.0016000
v -0.0064000 -0.0040000 -0.0032000
v -0.0062174 -0.0049185 -0.0016000
v -0.0062174 -0.0049185 -0.0032000
v -0.0056970 -0.0056970 -0.0016000
v -0.0056970 -0.0056970 -0.0032000
v -0.0049185 -0.0062174 -0.0016000
v -0.0049185 -0.0062174 -0.0032000
v -0.0040000 -0.0040000 -0.0016000
v 0.0040000 0.0016000 -0.0016000
v 0.0049185 0.0017826 -0.0016000
v 0.0049185 0.0017826 -0.0032000
v 0.0040000 0.0016000 -0.0032000
v 0.0056970 0.0023030 -0.0016000
v 0.0056970 0.0023030 -0.0032000
v 0.0062174 0.0030815 -0.0016000
v 0.0062174 0.0030815 -0.0032000
v 0.0064000 0.0040000 -0.0016000
v 0.0064000 0.0040000 -0.0032000
v 0.0062174 0.0049185 -0.0016000
v 0.0062174 0.0049185 -0.0032000
v 0.0056970 0.0056970 -0.0016000
v 0.0056970 0.0056970 -0.0032000
v 0.0049185 0.0062174 -0.0016000
v 0.0049185 0.0062174 -0.0032000
v 0.0040000 0.0064000 -0.0016000
v 0.0040000 0.0064000 -0.0032000
v 0.0030815 0.0062174 -0.0016000
v 0.0030815 0.0062174 -0.0032000
v 0.0023030 0.0056970 -0.0016000
v 0.0023030 0.0056970 -0.0032000
v 0.0017826 0.0049185 -0.0016000
v 0.0017826 0.0049185 -0.0032000
v 0.0016000 0.0040000 -0.0016000
v 0.0016000 0.0040000 -0.0032000
v 0.0017826 0.0030815 -0.0016000
v 0.0017826 0.0030815 -0.0032000
v 0.0023030 0.0023030 -0.0016000
v 0.0023030 0.0023030 -0.0032000
v 0.0030815 0.0017826 -0.0016000
v 0.0030815 0.0017826 -0.0032000
v 0.0040000 0.0040000 -0.0016000
v 0.0040000 -0.0064000 -0.0016000
v 0.0049185 -0.0062174 -0.0016000
v 0.0049185 -0.0062174 -0.0032000
v 0.0040000 -0.0064000 -0.0032000
v 0.0056970 -0.0056970 -0.0016000
v 0.0056970 -0.0056970 -0.0032000
v 0.0062174 -0.0049185 -0.0016000
v 0.0062174 -0.0049185 -0.0032000
v 0.0064000 -0.0040000 -0.0016000
v 0.0064000 -0.0040000 -0.0032000
v 0.0062174 -0.0030815 -0.0016000
v 0.0062174 -0.0030815 -0.0032000
v 0.0056970 -0.0023030 -0.0016000
v 0.0056970 -0.0023030 -0.0032000
v 0.0049185 -0.0017826 -0.0016000
v 0.0049185 -0.0017826 -0.0032000
v 0.0040000 -0.0016000 -0.0016000
v 0.0040000 -0.0016000 -0.0032000
v 0.0030815 -0.0017826 -0.0016000
v 0.0030815 -0.0017826 -0.0032000
v 0.0023030 -0.0023030 -0.0016000
v 0.0023030 -0.0023030 -0.0032000
v 0.0017826 -0.0030815 -0.0016000
v 0.0017826 -0.0030815 -0.0032000
v 0.0016000 -0.0040000 -0.0016000
v 0.0016000 -0.0040000 -0.0032000
v 0.0017826 -0.0049185 -0.0016000
v 0.0017826 -0.0049185 -0.0032000
v 0.0023030 -0.0056970 -0.0016000
v 0.0023030 -0.0056970 -0.0032000
v 0.0030815 -0.0062174 -0.0016000
v 0.0030815 -0.0062174 -0.0032000
v 0.0040000 -0.0040000 -0.0016000
v -0.0064000 0.0064000 -0.0048000
v 0.0064000 0.0064000 -0.0048000
v 0.0064000 -0.0064000 -0.0048000
v -0.0064000 -0.0064000 -0.0048000
v -0.0064000 0.0064000 -0.0064000
v 0.0064000 0.0064000 -0.0064000
v -0.0064000 -0.0064000 -0.0064000
v 0.0064000 -0.0064000 -0.0064000
v 0.0080000 0.0064000 -0.0064000
v 0.0080000 -0.0064000 -0.0064000
v -0.0080000 -0.0064000 -0.0064000
v -0.0080000 0.0064000 -0.0064000
v 0.0160000 0.0080000 -0.0064000
v 0.0160000 0.0064000 -0.0064000
v -0.0160000 0.0064000 -0.0064000
v -0.0160000 0.0080000 -0.0064000
v -0.0160000 -0.0080000 -0.0064000
v -0.0160000 -0.0064000 -0.0064000
v 0.0160000 -0.0064000 -0.0064000
v 0.0160000 -0.0080000 -0.0064000
v 0.0096000 0.0064000 -0.0016000
v 0.0096000 -0.0064000 -0.0016000
v 0.0144000 -0.0064000 -0.0016000
v 0.0144000 0.0064000 -0.0016000
v -0.0144000 0.0064000 -0.0016000
v -0.0144000 -0.0064000 -0.0016000
v -0.0096000 -0.0064000 -0.0016000
v -0.0096000 0.0064000 -0.0016000
v -0.0080000 0.0080000 -0.0032000
v -0.0080000 -0.0080000 -0.0032000
v 0.0080000 -0.0080000 -0.0032000
v 0.0080000 0.0080000 -0.0032000
v 0.0080000 0.0080000 -0.0000000
v 0.0080000 -0.0080000 -0.0000000
v 0.0160000 -0.0080000 -0.0032000
v 0.0160000 -0.0080000 -0.0000000
v 0.0160000 0.0080000 -0.0000000
v 0.0160000 0.0080000 -0.0032000
v -0.0080000 0.0080000 -0.0000000
v -0.0080000 -0.0080000 -0.0000000
v -0.0160000 -0.0080000 -0.0032000
v -0.0160000 -0.0080000 -0.0000000
v -0.0160000 0.0080000 -0.0000000
v -0.0160000 0.0080000 -0.0032000
v 0.0160000 0.0032000 -0.0020000
v 0.0160000 -0.0032000 -0.0020000
v 0.0144000 0.0064000 -0.0064000
v 0.0144000 0.0032000 -0.0020000
v 0.0144000 -0.0032000 -0.0020000
v 0.0144000 -0.0064000 -0.0064000
v 0.0096000 0.0064000 -0.0024000
v 0.0096000 -0.0064000 -0.0024000
v -0.0096000 -0.0064000 -0.0024000
v -0.0096000 0.0064000 -0.0024000
v -0.0144000 0.0032000 -0.0020000
v -0.0144000 0.0064000 -0.0064000
v -0.0144000 -0.0064000 -0.0064000
v -0.0144000 -0.0032000 -0.0020000
v -0.0160000 0.0032000 -0.0020000
v -0.0160000 -0.0032000 -0.0020000
v 0.0024000 0.0000000 -0.0048000
v 0.0022174 0.0009185 -0.0048000
v 0.0022174 0.0009185 -0.0064000
v 0.0024000 0.0000000 -0.0064000
v 0.0016970 0.0016970 -0.0048000
v 0.0016970 0.0016970 -0.0064000
v 0.0009185 0.0022174 -0.0048000
v 0.0009185 0.0022174 -0.0064000
v 0.0000000 0.0024000 -0.0048000
v 0.0000000 0.0024000 -0.0064000
v -0.0009185 0.0022174 -0.0048000
v -0.0009185 0.0022174 -0.0064000
v -0.0016970 0.0016970 -0.0048000
v -0.0016970 0.0016970 -0.0064000
v -0.0022174 0.0009185 -0.0048000
v -0.0022174 0.0009185 -0.0064000
v -0.0024000 0.0000000 -0.0048000
v -0.0024000 0.0000000 -0.0064000
v -0.0022174 -0.0009185 -0.0048000
v -0.0022174 -0.0009185 -0.0064000
v -0.0016970 -0.0016970 -0.0048000
v -0.0016970 -0.0016970 -0.0064000
v -0.0009185 -0.0022174 -0.0048000
v -0.0009185 -0.0022174 -0.0064000
v 0.0000000 -0.0024000 -0.0048000
v 0.0000000 -0.0024000 -0.0064000
v 0.0009185 -0.0022174 -0.0048000
v 0.0009185 -0.0022174 -0.0064000
v 0.0016970 -0.0016970 -0.0048000
v 0.0016970 -0.0016970 -0.0064000
v 0.0022174 -0.0009185 -0.0048000
v 0.0022174 -0.0009185 -0.0064000
v 0.0032000 0.0000000 -0.0048000
v 0.0029565 0.0012246 -0.0048000
v 0.0029565 0.0012246 -0.0064000
v 0.0032000 0.0000000 -0.0064000
v 0.0022627 0.0022627 -0.0048000
v 0.0022627 0.0022627 -0.0064000
v 0.0012246 0.0029565 -0.0048000
v 0.0012246 0.0029565 -0.0064000
v 0.0000000 0.0032000 -0.0048000
v 0.0000000 0.0032000 -0.0064000
v -0.0012246 0.0029565 -0.0048000
v -0.0012246 0.0029565 -0.0064000
v -0.0022627 0.0022627 -0.0048000
v -0.0022627 0.0022627 -0.0064000
v -0.0029565 0.0012246 -0.0048000
v -0.0029565 0.0012246 -0.0064000
v -0.0032000 0.0000000 -0.0048000
v -0.0032000 0.0000000 -0.0064000
v -0.0029565 -0.0012246 -0.0048000
v -0.0029565 -0.0012246 -0.0064000
v -0.0022627 -0.0022627 -0.0048000
v -0.0022627 -0.0022627 -0.0064000
v -0.0012246 -0.0029565 -0.0048000
v -0.0012246 -0.0029565 -0.0064000
v 0.0000000 -0.0032000 -0.0048000
v 0.0000000 -0.0032000 -0.0064000
v 0.0012246 -0.0029565 -0.0048000
v 0.0012246 -0.0029565 -0.0064000
v 0.0022627 -0.0022627 -0.0048000
v 0.0022627 -0.0022627 -0.0064000
v 0.0029565 -0.0012246 -0.0048000
v 0.0029565 -0.0012246 -0.0064000
usemtl c16
f 4 3 2
f 4 2 1
f 3 6 5
f 3 5 2
f 6 8 7
f 6 7 5
f 8 10 9
f 8 9 7
f 10 12 11
f 10 11 9
f 12 14 13
f 12 13 11
f 14 16 15
f 14 15 13
f 16 18 17
f 16 17 15
f 18 20 19
f 18 19 17
f 20 22 21
f 20 21 19
f 22 24 23
f 22 23 21
f 24 26 25
f 24 25 23
f 26 28 27
f 26 27 25
f 28 30 29
f 28 29 27
f 30 32 31
f 30 31 29
f 32 4 1
f 32 1 31
f 33 1 2
f 33 2 5
f 33 5 7
f 33 7 9
f 33 9 11
f 33 11 13
f 33 13 15
f 33 15 17
f 33 17 19
f 33 19 21
f 33 21 23
f 33 23 25
f 33 25 27
f 33 27 29
f 33 29 31
f 33 31 1
f 37 36 35
f 37 35 34
f 36 39 38
f 36 38 35
f 39 41 40
f 39 40 38
f 41 43 42
f 41 42 40
f 43 45 44
f 43 44 42
f 45 47 46
f 45 46 44
f 47 49 48
f 47 48 46
f 49 51 50
f 49 50 48
f 51 53 52
f 51 52 50
f 53 55 54
f 53 54 52
f 55 57 56
f 55 56 54
f 57 59 58
f 57 58 56
f 59 61 60
f 59 60 58
f 61 63 62
f 61 62 60
f 63 65 64
f 63 64 62
f 65 37 34
f 65 34 64
f 66 34 35
f 66 35 38
f 66 38 40
f 66 40 42
f 66 42 44
f 66 44 46
f 66 46 48
f 66 48 50
f 66 50 52
f 66 52 54
f 66 54 56
f 66 56 58
f 66 58 60
f 66 60 62
f 66 62 64
f 66 64 34
f 70 69 68
f 70 68 67
f 69 72 71
f 69 71 68
f 72 74 73
f 72 73 71
f 74 76 75
f 74 75 73
f 76 78 77
f 76 77 75
f 78 80 79
f 78 79 77
f 80 82 81
f 80 81 79
f 82 84 83
f 82 83 81
f 84 86 85
f 84 85 83
f 86 88 87
f 86 87 85
f 88 90 89
f 88 89 87
f 90 92 91
f 90 91 89
f 92 94 93
f 92 93 91
f 94 96 95
f 94 95 93
f 96 98 97
f 96 97 95
f 98 70 67
f 98 67 97
f 99 67 68
f 99 68 71
f 99 71 73
f 99 73 75
f 99 75 77
f 99 77 79
f 99 79 81
f 99 81 83
f 99 83 85
f 99 85 87
f 99 87 89
f 99 89 91
f 99 91 93
f 99 93 95
f 99 95 97
f 99 97 67
f 103 102 101
f 103 101 100
f 102 105 104
f 102 104 101
f 105 107 106
f 105 106 104
f 107 109 108
f 107 108 106
f 109 111 110
f 109 110 108
f 111 113 112
f 111 112 110
f 113 115 114
f 113 114 112
f 115 117 116
f 115 116 114
f 117 119 118
f 117 118 116
f 119 121 120
f 119 120 118
f 121 123 122
f 121 122 120
f 123 125 124
f 123 124 122
f 125 127 126
f 125 126 124
f 127 129 128
f 127 128 126
f 129 131 130
f 129 130 128
f 131 103 100
f 131 100 130
f 132 100 101
f 132 101 104
f 132 104 106
f 132 106 108
f 132 108 110
f 132 110 112
f 132 112 114
f 132 114 116
f 132 116 118
f 132 118 120
f 132 120 122
f 132 122 124
f 132 124 126
f 132 126 128
f 132 128 130
f 132 130 100
f 136 135 134
f 136 134 133
f 135 138 137
f 135 137 134
f 138 140 139
f 138 139 137
f 140 142 141
f 140 141 139
f 142 144 143
f 142 143 141
f 144 146 145
f 144 145 143
f 146 148 147
f 146 147 145
f 148 150 149
f 148 149 147
f 150 152 151
f 150 151 149
f 152 154 153
f 152 153 151
f 154 156 155
f 154 155 153
f 156 158 157
f 156 157 155
f 158 160 159
f 158 159 157
f 160 162 161
f 160 161 159
f 162 164 163
f 162 163 161
f 164 136 133
f 164 133 163
f 165 133 134
f 165 134 137
f 165 137 139
f 165 139 141
f 165 141 143
f 165 143 145
f 165 145 147
f 165 147 149
f 165 149 151
f 165 151 153
f 165 153 155
f 165 155 157
f 165 157 159
f 165 159 161
f 165 161 163
f 165 163 133
f 169 168 167
f 169 167 166
f 168 171 170
f 168 170 167
f 171 173 172
f 171 172 170
f 173 175 174
f 173 174 172
f 175 177 176
f 175 176 174
f 177 179 178
f 177 178 176
f 179 181 180
f 179 180 178
f 181 183 182
f 181 182 180
f 183 185 184
f 183 184 182
f 185 187 186
f 185 186 184
f 187 189 188
f 187 188 186
f 189 191 190
f 189 190 188
f 191 193 192
f 191 192 190
f 193 195 194
f 193 194 192
f 195 197 196
f 195 196 194
f 197 169 166
f 197 166 196
f 198 166 167
f 198 167 170
f 198 170 172
f 198 172 174
f 198 174 176
f 198 176 178
f 198 178 180
f 198 180 182
f 198 182 184
f 198 184 186
f 198 186 188
f 198 188 190
f 198 190 192
f 198 192 194
f 198 194 196
f 198 196 166
f 202 201 200
f 202 200 199
f 201 204 203
f 201 203 200
f 204 206 205
f 204 205 203
f 206 208 207
f 206 207 205
f 208 210 209
f 208 209 207
f 210 212 211
f 210 211 209
f 212 214 213
f 212 213 211
f 214 216 215
f 214 215 213
f 216 218 217
f 216 217 215
f 218 220 219
f 218 219 217
f 220 222 221
f 220 221 219
f 222 224 223
f 222 223 221
f 224 226 225
f 224 225 223
f 226 228 227
f 226 227 225
f 228 230 229
f 228 229 227
f 230 202 199
f 230 199 229
f 231 199 200
f 231 200 203
f 231 203 205
f 231 205 207
f 231 207 209
f 231 209 211
f 231 211 213
f 231 213 215
f 231 215 217
f 231 217 219
f 231 219 221
f 231 221 223
f 231 223 225
f 231 225 227
f 231 227 229
f 231 229 199
f 235 234 233
f 235 233 232
f 234 237 236
f 234 236 233
f 237 239 238
f 237 238 236
f 239 241 240
f 239 240 238
f 241 243 242
f 241 242 240
f 243 245 244
f 243 244 242
f 245 247 246
f 245 246 244
f 247 249 248
f 247 248 246
f 249 251 250
f 249 250 248
f 251 253 252
f 251 252 250
f 253 255 254
f 253 254 252
f 255 257 256
f 255 256 254
f 257 259 258
f 257 258 256
f 259 261 260
f 259 260 258
f 261 263 262
f 261 262 260
f 263 235 232
f 263 232 262
f 264 232 233
f 264 233 236
f 264 236 238
f 264 238 240
f 264 240 242
f 264 242 244
f 264 244 246
f 264 246 248
f 264 248 250
f 264 250 252
f 264 252 254
f 264 254 256
f 264 256 258
f 264 258 260
f 264 260 262
f 264 262 232
f 268 267 266
f 268 266 265
f 266 270 269
f 266 269 265
f 265 269 271
f 265 271 268
f 268 271 272
f 268 272 267
f 267 272 270
f 267 270 266
f 272 270 273
f 272 273 274
f 269 271 275
f 269 275 276
f 277 278 279
f 277 279 280
f 281 282 283
f 281 283 284
f 288 287 286
f 288 286 285
f 292 291 290
f 292 290 289
f 293 294 295
f 293 295 296
f 297 296 295
f 297 295 298
f 298 295 299
f 298 299 300
f 296 297 301
f 296 301 302
f 297 298 300
f 297 300 301
f 304 294 293
f 304 293 303
f 306 305 294
f 306 294 304
f 308 307 303
f 308 303 293
f 307 306 304
f 307 304 303
f 301 309 278
f 301 278 277
f 284 283 310
f 284 310 300
f 300 310 309
f 300 309 301
f 311 312 288
f 287 313 314
f 288 312 313
f 288 313 287
f 315 285 286
f 315 286 316
f 274 273 315
f 274 315 316
f 317 291 292
f 317 292 318
f 276 275 317
f 276 317 318
f 289 319 320
f 321 322 290
f 290 322 319
f 290 319 289
f 280 279 323
f 280 323 307
f 306 324 282
f 306 282 281
f 307 323 324
f 307 324 306
f 277 280 308
f 277 308 302
f 311 288 285
f 311 285 273
f 276 292 289
f 276 289 320
f 274 286 287
f 274 287 314
f 321 290 291
f 321 291 275
f 281 284 299
f 281 299 305
f 310 283 314
f 310 314 313
f 309 310 313
f 309 313 312
f 309 312 311
f 309 311 278
f 324 323 319
f 324 319 322
f 279 320 319
f 279 319 323
f 324 322 321
f 324 321 282
f 328 327 326
f 328 326 325
f 327 330 329
f 327 329 326
f 330 332 331
f 330 331 329
f 332 334 333
f 332 333 331
f 334 336 335
f 334 335 333
f 336 338 337
f 336 337 335
f 338 340 339
f 338 339 337
f 340 342 341
f 340 341 339
f 342 344 343
f 342 343 341
f 344 346 345
f 344 345 343
f 346 348 347
f 346 347 345
f 348 350 349
f 348 349 347
f 350 352 351
f 350 351 349
f 352 354 353
f 352 353 351
f 354 356 355
f 354 355 353
f 356 328 325
f 356 325 355
f 360 359 358
f 360 358 357
f 359 362 361
f 359 361 358
f 362 364 363
f 362 363 361
f 364 366 365
f 364 365 363
f 366 368 367
f 366 367 365
f 368 370 369
f 368 369 367
f 370 372 371
f 370 371 369
f 372 374 373
f 372 373 371
f 374 376 375
f 374 375 373
f 376 378 377
f 376 377 375
f 378 380 379
f 378 379 377
f 380 382 381
f 380 381 379
f 382 384 383
f 382 383 381
f 384 386 385
f 384 385 383
f 386 388 387
f 386 387 385
f 388 360 357
f 388 357 387
f 366 334 336
f 366 336 368
f 368 336 338
f 368 338 370
f 370 338 340
f 370 340 372
f 372 340 342
f 372 342 374
f 374 342 344
f 374 344 376
f 376 344 346
f 376 346 378
f 378 346 348
f 378 348 380
f 380 348 350
f 380 350 382
f 382 350 352
f 382 352 384
f 384 352 354
f 384 354 386
f 386 354 356
f 386 356 388
f 388 356 328
f 388 328 360
f 360 328 327
f 360 327 359
f 359 327 330
f 359 330 362
f 362 330 332
f 362 332 364
f 364 332 334
f 364 334 366
