o 3821
v 0.0000000 0.0000000 -0.0016000
v -0.0024000 0.0000000 -0.0016000
v -0.0022174 0.0009185 -0.0016000
v -0.0016970 0.0016970 -0.0016000
v -0.0009185 0.0022174 -0.0016000
v 0.0000000 0.0024000 -0.0016000
v 0.0009185 0.0022174 -0.0016000
v 0.0016970 0.0016970 -0.0016000
v 0.0022174 0.0009185 -0.0016000
v 0.0024000 0.0000000 -0.0016000
v 0.0022174 -0.0009185 -0.0016000
v 0.0016970 -0.0016970 -0.0016000
v 0.0009185 -0.0022174 -0.0016000
v 0.0000000 -0.0024000 -0.0016000
v -0.0009185 -0.0022174 -0.0016000
v -0.0016970 -0.0016970 -0.0016000
v -0.0022174 -0.0009185 -0.0016000
v -0.0024000 0.0000000 -0.0096000
v -0.0022174 0.0009185 -0.0096000
v -0.0016970 0.0016970 -0.0096000
v -0.0009185 0.0022174 -0.0096000
v 0.0000000 0.0024000 -0.0096000
v 0.0009185 0.0022174 -0.0096000
v 0.0016970 0.0016970 -0.0096000
v 0.0022174 0.0009185 -0.0096000
v 0.0024000 0.0000000 -0.0096000
v 0.0022174 -0.0009185 -0.0096000
v 0.0016970 -0.0016970 -0.0096000
v 0.0009185 -0.0022174 -0.0096000
v 0.0000000 -0.0024000 -0.0096000
v -0.0009185 -0.0022174 -0.0096000
v -0.0016970 -0.0016970 -0.0096000
v -0.0022174 -0.0009185 -0.0096000
v -0.0015308 0.0036956 -0.0096000
v 0.0000000 0.0040000 -0.0096000
v -0.0040000 0.0040000 -0.0096000
v -0.0028284 0.0028284 -0.0096000
v -0.0036956 0.0015308 -0.0096000
v -0.0040000 0.0000000 -0.0096000
v -0.0024000 0.0040000 -0.0096000
v -0.0024000 0.0200000 -0.0096000
v -0.0040000 0.0200000 -0.0096000
v -0.0024000 0.0200000 -0.0000000
v -0.0040000 0.0200000 -0.0000000
v -0.0036956 -0.0015308 -0.0096000
v -0.0036956 -0.0015308 -0.0000000
v -0.0040000 0.0000000 -0.0000000
v -0.0028284 -0.0028284 -0.0096000
v -0.0028284 -0.0028284 -0.0000000
v -0.0015308 -0.0036956 -0.0096000
v -0.0015308 -0.0036956 -0.0000000
v 0.0000000 -0.0040000 -0.0096000
v 0.0000000 -0.0040000 -0.0000000
v 0.0015308 -0.0036956 -0.0096000
v 0.0015308 -0.0036956 -0.0000000
v 0.0028284 -0.0028284 -0.0096000
v 0.0028284 -0.0028284 -0.0000000
v 0.0036956 -0.0015308 -0.0096000
v 0.0036956 -0.0015308 -0.0000000
v 0.0040000 0.0000000 -0.0096000
v 0.0040000 0.0000000 -0.0000000
v 0.0036956 0.0015308 -0.0096000
v 0.0036956 0.0015308 -0.0000000
v 0.0028284 0.0028284 -0.0096000
v 0.0028284 0.0028284 -0.0000000
v 0.0015308 0.0036956 -0.0096000
v 0.0015308 0.0036956 -0.0000000
v 0.0000000 0.0040000 -0.0000000
v -0.0024000 0.0040000 -0.0000000
v 0.0000000 0.0000000 -0.0000000
v -0.0040000 0.0040000 -0.0000000
v -0.0024000 0.0179062 -0.0055391
v -0.0024000 0.0176000 -0.0056000
v -0.0024000 0.0184000 -0.0056000
v -0.0024000 0.0181657 -0.0053657
v -0.0024000 0.0183391 -0.0051062
v -0.0024000 0.0184000 -0.0048000
v -0.0024000 0.0183391 -0.0044938
v -0.0024000 0.0184000 -0.0040000
v -0.0024000 0.0181657 -0.0042343
v -0.0024000 0.0179062 -0.0040609
v -0.0024000 0.0176000 -0.0040000
v -0.0024000 0.0172938 -0.0040609
v -0.0024000 0.0168000 -0.0040000
v -0.0024000 0.0170343 -0.0042343
v -0.0024000 0.0168609 -0.0044938
v -0.0024000 0.0168000 -0.0048000
v -0.0024000 0.0168609 -0.0051062
v -0.0024000 0.0168000 -0.0056000
v -0.0024000 0.0170343 -0.0053657
v -0.0024000 0.0172938 -0.0055391
v -0.0040000 0.0179062 -0.0040609
v -0.0040000 0.0176000 -0.0040000
v -0.0040000 0.0184000 -0.0040000
v -0.0040000 0.0181657 -0.0042343
v -0.0040000 0.0183391 -0.0044938
v -0.0040000 0.0184000 -0.0048000
v -0.0040000 0.0183391 -0.0051062
v -0.0040000 0.0184000 -0.0056000
v -0.0040000 0.0181657 -0.0053657
v -0.0040000 0.0179062 -0.0055391
v -0.0040000 0.0176000 -0.0056000
v -0.0040000 0.0140938 -0.0040609
v -0.0040000 0.0144000 -0.0040000
v -0.0040000 0.0136000 -0.0040000
v -0.0040000 0.0138343 -0.0042343
v -0.0040000 0.0136609 -0.0044938
v -0.0040000 0.0136000 -0.0048000
v -0.0040000 0.0136609 -0.0051062
v -0.0040000 0.0136000 -0.0056000
v -0.0040000 0.0138343 -0.0053657
v -0.0040000 0.0140938 -0.0055391
v -0.0040000 0.0144000 -0.0056000
v -0.0052000 0.0176000 -0.0048000
v -0.0052000 0.0176000 -0.0056000
v -0.0052000 0.0179062 -0.0055391
v -0.0052000 0.0181657 -0.0053657
v -0.0052000 0.0183391 -0.0051062
v -0.0052000 0.0184000 -0.0048000
v -0.0052000 0.0183391 -0.0044938
v -0.0052000 0.0181657 -0.0042343
v -0.0052000 0.0179062 -0.0040609
v -0.0052000 0.0176000 -0.0040000
v -0.0052000 0.0172938 -0.0040609
v -0.0052000 0.0170343 -0.0042343
v -0.0052000 0.0168609 -0.0044938
v -0.0052000 0.0168000 -0.0048000
v -0.0052000 0.0168609 -0.0051062
v -0.0052000 0.0170343 -0.0053657
v -0.0052000 0.0172938 -0.0055391
v -0.0060000 0.0176000 -0.0048000
v -0.0060000 0.0176000 -0.0040000
v -0.0060000 0.0179062 -0.0040609
v -0.0060000 0.0181657 -0.0042343
v -0.0060000 0.0183391 -0.0044938
v -0.0060000 0.0184000 -0.0048000
v -0.0060000 0.0183391 -0.0051062
v -0.0060000 0.0181657 -0.0053657
v -0.0060000 0.0179062 -0.0055391
v -0.0060000 0.0176000 -0.0056000
v -0.0060000 0.0144000 -0.0048000
v -0.0060000 0.0144000 -0.0040000
v -0.0060000 0.0140938 -0.0040609
v -0.0060000 0.0138343 -0.0042343
v -0.0060000 0.0136609 -0.0044938
v -0.0060000 0.0136000 -0.0048000
v -0.0060000 0.0136609 -0.0051062
v -0.0060000 0.0138343 -0.0053657
v -0.0060000 0.0140938 -0.0055391
v -0.0060000 0.0144000 -0.0056000
v 0.0012246 -0.0029565 -0.0096000
v 0.0000000 -0.0032000 -0.0096000
v 0.0022627 -0.0022627 -0.0096000
v 0.0029565 -0.0012246 -0.0096000
v 0.0032000 0.0000000 -0.0096000
v 0.0029565 0.0012246 -0.0096000
v 0.0022627 0.0022627 -0.0096000
v 0.0012246 0.0029565 -0.0096000
v 0.0000000 0.0032000 -0.0096000
v -0.0012246 0.0029565 -0.0096000
v -0.0022627 0.0022627 -0.0096000
v -0.0029565 0.0012246 -0.0096000
v -0.0032000 0.0000000 -0.0096000
v -0.0029565 -0.0012246 -0.0096000
v -0.0022627 -0.0022627 -0.0096000
v -0.0012246 -0.0029565 -0.0096000
v 0.0024000 0.0000000 0.0016000
v 0.0022174 0.0009185 0.0016000
v 0.0022174 0.0009185 -0.0000000
v 0.0024000 0.0000000 -0.0000000
v 0.0016970 0.0016970 0.0016000
v 0.0016970 0.0016970 -0.0000000
v 0.0009185 0.0022174 0.0016000
v 0.0009185 0.0022174 -0.0000000
v 0.0000000 0.0024000 0.0016000
v 0.0000000 0.0024000 -0.0000000
v -0.0009185 0.0022174 0.0016000
v -0.0009185 0.0022174 -0.0000000
v -0.0016970 0.0016970 0.0016000
v -0.0016970 0.0016970 -0.0000000
v -0.0022174 0.0009185 0.0016000
v -0.0022174 0.0009185 -0.0000000
v -0.0024000 0.0000000 0.0016000
v -0.0024000 0.0000000 -0.0000000
v -0.0022174 -0.0009185 0.0016000
v -0.0022174 -0.0009185 -0.0000000
v -0.0016970 -0.0016970 0.0016000
v -0.0016970 -0.0016970 -0.0000000
v -0.0009185 -0.0022174 0.0016000
v -0.0009185 -0.0022174 -0.0000000
v 0.0000000 -0.0024000 0.0016000
v 0.0000000 -0.0024000 -0.0000000
v 0.0009185 -0.0022174 0.0016000
v 0.0009185 -0.0022174 -0.0000000
v 0.0016970 -0.0016970 0.0016000
v 0.0016970 -0.0016970 -0.0000000
v 0.0022174 -0.0009185 0.0016000
v 0.0022174 -0.0009185 -0.0000000
v 0.0000000 0.0000000 0.0016000
usemtl c16
f 1 2 3
f 1 3 4
f 1 4 5
f 1 5 6
f 1 6 7
f 1 7 8
f 1 8 9
f 1 9 10
f 1 10 11
f 1 11 12
f 1 12 13
f 1 13 14
f 1 14 15
f 1 15 16
f 1 16 17
f 1 17 2
f 2 3 19
f 2 19 18
f 3 4 20
f 3 20 19
f 4 5 21
f 4 21 20
f 5 6 22
f 5 22 21
f 6 7 23
f 6 23 22
f 7 8 24
f 7 24 23
f 8 9 25
f 8 25 24
f 9 10 26
f 9 26 25
f 10 11 27
f 10 27 26
f 11 12 28
f 11 28 27
f 12 13 29
f 12 29 28
f 13 14 30
f 13 30 29
f 14 15 31
f 14 31 30
f 15 16 32
f 15 32 31
f 16 17 33
f 16 33 32
f 17 2 18
f 17 18 33
f 36 35 34
f 36 34 37
f 36 37 38
f 36 38 39
f 36 42 41
f 36 41 40
f 42 44 43
f 42 43 41
f 45 46 47
f 45 47 39
f 48 49 46
f 48 46 45
f 50 51 49
f 50 49 48
f 52 53 51
f 52 51 50
f 54 55 53
f 54 53 52
f 56 57 55
f 56 55 54
f 58 59 57
f 58 57 56
f 60 61 59
f 60 59 58
f 62 63 61
f 62 61 60
f 64 65 63
f 64 63 62
f 66 67 65
f 66 65 64
f 35 68 67
f 35 67 66
f 40 69 68
f 40 68 35
f 70 47 46
f 70 46 49
f 70 49 51
f 70 51 53
f 70 53 55
f 70 55 57
f 70 57 59
f 70 59 61
f 70 61 63
f 70 63 65
f 70 65 67
f 70 67 68
f 47 70 68
f 47 68 71
f 71 69 43
f 71 43 44
f 72 73 74
f 75 72 74
f 76 75 74
f 77 76 74
f 78 77 79
f 80 78 79
f 81 80 79
f 82 81 79
f 83 82 84
f 85 83 84
f 86 85 84
f 87 86 84
f 88 87 89
f 90 88 89
f 91 90 89
f 73 91 89
f 92 93 94
f 95 92 94
f 96 95 94
f 97 96 94
f 98 97 99
f 100 98 99
f 101 100 99
f 102 101 99
f 105 104 103
f 105 103 106
f 105 106 107
f 105 107 108
f 110 108 109
f 110 109 111
f 110 111 112
f 110 112 113
f 114 115 116
f 114 116 117
f 114 117 118
f 114 118 119
f 114 119 120
f 114 120 121
f 114 121 122
f 114 122 123
f 114 123 124
f 114 124 125
f 114 125 126
f 114 126 127
f 114 127 128
f 114 128 129
f 114 129 130
f 114 130 115
f 131 132 133
f 131 133 134
f 131 134 135
f 131 135 136
f 131 136 137
f 131 137 138
f 131 138 139
f 131 139 140
f 143 142 141
f 144 143 141
f 145 144 141
f 146 145 141
f 147 146 141
f 148 147 141
f 149 148 141
f 150 149 141
f 73 102 101
f 73 101 72
f 72 101 100
f 72 100 75
f 75 100 98
f 75 98 76
f 76 98 97
f 76 97 77
f 77 97 96
f 77 96 78
f 78 96 95
f 78 95 80
f 80 95 92
f 80 92 81
f 81 92 93
f 81 93 82
f 91 130 115
f 91 115 73
f 90 129 130
f 90 130 91
f 88 128 129
f 88 129 90
f 87 127 128
f 87 128 88
f 86 126 127
f 86 127 87
f 85 125 126
f 85 126 86
f 83 124 125
f 83 125 85
f 82 123 124
f 82 124 83
f 115 140 139
f 115 139 116
f 116 139 138
f 116 138 117
f 117 138 137
f 117 137 118
f 118 137 136
f 118 136 119
f 119 136 135
f 119 135 120
f 120 135 134
f 120 134 121
f 121 134 133
f 121 133 122
f 122 133 132
f 122 132 123
f 112 149 150
f 112 150 113
f 111 148 149
f 111 149 112
f 109 147 148
f 109 148 111
f 108 146 147
f 108 147 109
f 107 145 146
f 107 146 108
f 106 144 145
f 106 145 107
f 103 143 144
f 103 144 106
f 104 142 143
f 104 143 103
f 150 142 132
f 150 132 140
f 113 150 140
f 113 140 102
f 104 93 132
f 104 132 142
f 40 41 74
f 40 74 89
f 69 40 89
f 69 89 84
f 43 69 84
f 43 84 79
f 41 43 79
f 41 79 74
f 152 30 29
f 152 29 151
f 151 29 28
f 151 28 153
f 153 28 27
f 153 27 154
f 154 27 26
f 154 26 155
f 155 26 25
f 155 25 156
f 156 25 24
f 156 24 157
f 157 24 23
f 157 23 158
f 158 23 22
f 158 22 159
f 159 22 21
f 159 21 160
f 160 21 20
f 160 20 161
f 161 20 19
f 161 19 162
f 162 19 18
f 162 18 163
f 163 18 33
f 163 33 164
f 164 33 32
f 164 32 165
f 165 32 31
f 165 31 166
f 166 31 30
f 166 30 152
f 52 152 151
f 52 151 54
f 54 151 153
f 54 153 56
f 56 153 154
f 56 154 58
f 58 154 155
f 58 155 60
f 60 155 156
f 60 156 62
f 62 156 157
f 62 157 64
f 64 157 158
f 64 158 66
f 66 158 159
f 66 159 35
f 35 159 160
f 35 160 34
f 34 160 161
f 34 161 37
f 37 161 162
f 37 162 38
f 38 162 163
f 38 163 39
f 39 163 164
f 39 164 45
f 45 164 165
f 45 165 48
f 48 165 166
f 48 166 50
f 50 166 152
f 50 152 52
f 110 99 42
f 110 42 39
f 105 110 39
f 105 39 47
f 94 105 47
f 94 47 44
f 99 94 44
f 99 44 42
f 170 169 168
f 170 168 167
f 169 172 171
f 169 171 168
f 172 174 173
f 172 173 171
f 174 176 175
f 174 175 173
f 176 178 177
f 176 177 175
f 178 180 179
f 178 179 177
f 180 182 181
f 180 181 179
f 182 184 183
f 182 183 181
f 184 186 185
f 184 185 183
f 186 188 187
f 186 187 185
f 188 190 189
f 188 189 187
f 190 192 191
f 190 191 189
f 192 194 193
f 192 193 191
f 194 196 195
f 194 195 193
f 196 198 197
f 196 197 195
f 198 170 167
f 198 167 197
f 199 167 168
f 199 168 171
f 199 171 173
f 199 173 175
f 199 175 177
f 199 177 179
f 199 179 181
f 199 181 183
f 199 183 185
f 199 185 187
f 199 187 189
f 199 189 191
f 199 191 193
f 199 193 195
f 199 195 197
f 199 197 167
