o 3822
v 0.0000000 0.0000000 -0.0016000
v 0.0024000 0.0000000 -0.0016000
v 0.0022174 0.0009185 -0.0016000
v 0.0016970 0.0016970 -0.0016000
v 0.0009185 0.0022174 -0.0016000
v 0.0000000 0.0024000 -0.0016000
v -0.0009185 0.0022174 -0.0016000
v -0.0016970 0.0016970 -0.0016000
v -0.0022174 0.0009185 -0.0016000
v -0.0024000 0.0000000 -0.0016000
v -0.0022174 -0.0009185 -0.0016000
v -0.0016970 -0.0016970 -0.0016000
v -0.0009185 -0.0022174 -0.0016000
v 0.0000000 -0.0024000 -0.0016000
v 0.0009185 -0.0022174 -0.0016000
v 0.0016970 -0.0016970 -0.0016000
v 0.0022174 -0.0009185 -0.0016000
v 0.0024000 0.0000000 -0.0096000
v 0.0022174 0.0009185 -0.0096000
v 0.0016970 0.0016970 -0.0096000
v 0.0009185 0.0022174 -0.0096000
v 0.0000000 0.0024000 -0.0096000
v -0.0009185 0.0022174 -0.0096000
v -0.0016970 0.0016970 -0.0096000
v -0.0022174 0.0009185 -0.0096000
v -0.0024000 0.0000000 -0.0096000
v -0.0022174 -0.0009185 -0.0096000
v -0.0016970 -0.0016970 -0.0096000
v -0.0009185 -0.0022174 -0.0096000
v 0.0000000 -0.0024000 -0.0096000
v 0.0009185 -0.0022174 -0.0096000
v 0.0016970 -0.0016970 -0.0096000
v 0.0022174 -0.0009185 -0.0096000
v 0.0015308 0.0036956 -0.0096000
v 0.0000000 0.0040000 -0.0096000
v 0.0040000 0.0040000 -0.0096000
v 0.0028284 0.0028284 -0.0096000
v 0.0036956 0.0015308 -0.0096000
v 0.0040000 0.0000000 -0.0096000
v 0.0024000 0.0040000 -0.0096000
v 0.0024000 0.0200000 -0.0096000
v 0.0040000 0.0200000 -0.0096000
v 0.0024000 0.0200000 -0.0000000
v 0.0040000 0.0200000 -0.0000000
v 0.0036956 -0.0015308 -0.0096000
v 0.0036956 -0.0015308 -0.0000000
v 0.0040000 0.0000000 -0.0000000
v 0.0028284 -0.0028284 -0.0096000
v 0.0028284 -0.0028284 -0.0000000
v 0.0015308 -0.0036956 -0.0096000
v 0.0015308 -0.0036956 -0.0000000
v 0.0000000 -0.0040000 -0.0096000
v 0.0000000 -0.0040000 -0.0000000
v -0.0015308 -0.0036956 -0.0096000
v -0.0015308 -0.0036956 -0.0000000
v -0.0028284 -0.0028284 -0.0096000
v -0.0028284 -0.0028284 -0.0000000
v -0.0036956 -0.0015308 -0.0096000
v -0.0036956 -0.0015308 -0.0000000
v -0.0040000 0.0000000 -0.0096000
v -0.0040000 0.0000000 -0.0000000
v -0.0036956 0.0015308 -0.0096000
v -0.0036956 0.0015308 -0.0000000
v -0.0028284 0.0028284 -0.0096000
v -0.0028284 0.0028284 -0.0000000
v -0.0015308 0.0036956 -0.0096000
v -0.0015308 0.0036956 -0.0000000
v 0.0000000 0.0040000 -0.0000000
v 0.0024000 0.0040000 -0.0000000
v 0.0000000 0.0000000 -0.0000000
v 0.0040000 0.0040000 -0.0000000
v 0.0024000 0.0179062 -0.0055391
v 0.0024000 0.0176000 -0.0056000
v 0.0024000 0.0184000 -0.0056000
v 0.0024000 0.0181657 -0.0053657
v 0.0024000 0.0183391 -0.0051062
v 0.0024000 0.0184000 -0.0048000
v 0.0024000 0.0183391 -0.0044938
v 0.0024000 0.0184000 -0.0040000
v 0.0024000 0.0181657 -0.0042343
v 0.0024000 0.0179062 -0.0040609
v 0.0024000 0.0176000 -0.0040000
v 0.0024000 0.0172938 -0.0040609
v 0.0024000 0.0168000 -0.0040000
v 0.0024000 0.0170343 -0.0042343
v 0.0024000 0.0168609 -0.0044938
v 0.0024000 0.0168000 -0.0048000
v 0.0024000 0.0168609 -0.0051062
v 0.0024000 0.0168000 -0.0056000
v 0.0024000 0.0170343 -0.0053657
v 0.0024000 0.0172938 -0.0055391
v 0.0040000 0.0179062 -0.0040609
v 0.0040000 0.0176000 -0.0040000
v 0.0040000 0.0184000 -0.0040000
v 0.0040000 0.0181657 -0.0042343
v 0.0040000 0.0183391 -0.0044938
v 0.0040000 0.0184000 -0.0048000
v 0.0040000 0.0183391 -0.0051062
v 0.0040000 0.0184000 -0.0056000
v 0.0040000 0.0181657 -0.0053657
v 0.0040000 0.0179062 -0.0055391
v 0.0040000 0.0176000 -0.0056000
v 0.0040000 0.0140938 -0.0040609
v 0.0040000 0.0144000 -0.0040000
v 0.0040000 0.0136000 -0.0040000
v 0.0040000 0.0138343 -0.0042343
v 0.0040000 0.0136609 -0.0044938
v 0.0040000 0.0136000 -0.0048000
v 0.0040000 0.0136609 -0.0051062
v 0.0040000 0.0136000 -0.0056000
v 0.0040000 0.0138343 -0.0053657
v 0.0040000 0.0140938 -0.0055391
v 0.0040000 0.0144000 -0.0056000
v 0.0052000 0.0176000 -0.0048000
v 0.0052000 0.0176000 -0.0056000
v 0.0052000 0.0179062 -0.0055391
v 0.0052000 0.0181657 -0.0053657
v 0.0052000 0.0183391 -0.0051062
v 0.0052000 0.0184000 -0.0048000
v 0.0052000 0.0183391 -0.0044938
v 0.0052000 0.0181657 -0.0042343
v 0.0052000 0.0179062 -0.0040609
v 0.0052000 0.0176000 -0.0040000
v 0.0052000 0.0172938 -0.0040609
v 0.0052000 0.0170343 -0.0042343
v 0.0052000 0.0168609 -0.0044938
v 0.0052000 0.0168000 -0.0048000
v 0.0052000 0.0168609 -0.0051062
v 0.0052000 0.0170343 -0.0053657
v 0.0052000 0.0172938 -0.0055391
v 0.0060000 0.0176000 -0.0048000
v 0.0060000 0.0176000 -0.0040000
v 0.0060000 0.0179062 -0.0040609
v 0.0060000 0.0181657 -0.0042343
v 0.0060000 0.0183391 -0.0044938
v 0.0060000 0.0184000 -0.0048000
v 0.0060000 0.0183391 -0.0051062
v 0.0060000 0.0181657 -0.0053657
v 0.0060000 0.0179062 -0.0055391
v 0.0060000 0.0176000 -0.0056000
v 0.0060000 0.0144000 -0.0048000
v 0.0060000 0.0144000 -0.0040000
v 0.0060000 0.0140938 -0.0040609
v 0.0060000 0.0138343 -0.0042343
v 0.0060000 0.0136609 -0.0044938
v 0.0060000 0.0136000 -0.0048000
v 0.0060000 0.0136609 -0.0051062
v 0.0060000 0.0138343 -0.0053657
v 0.0060000 0.0140938 -0.0055391
v 0.0060000 0.0144000 -0.0056000
v -0.0012246 -0.0029565 -0.0096000
v 0.0000000 -0.0032000 -0.0096000
v -0.0022627 -0.0022627 -0.0096000
v -0.0029565 -0.0012246 -0.0096000
v -0.0032000 0.0000000 -0.0096000
v -0.0029565 0.0012246 -0.0096000
v -0.0022627 0.0022627 -0.0096000
v -0.0012246 0.0029565 -0.0096000
v 0.0000000 0.0032000 -0.0096000
v 0.0012246 0.0029565 -0.0096000
v 0.0022627 0.0022627 -0.0096000
v 0.0029565 0.0012246 -0.0096000
v 0.0032000 0.0000000 -0.0096000
v 0.0029565 -0.0012246 -0.0096000
v 0.0022627 -0.0022627 -0.0096000
v 0.0012246 -0.0029565 -0.0096000
v 0.0024000 0.0000000 0.0016000
v 0.0022174 0.0009185 0.0016000
v 0.0022174 0.0009185 -0.0000000
v 0.0024000 0.0000000 -0.0000000
v 0.0016970 0.0016970 0.0016000
v 0.0016970 0.0016970 -0.0000000
v 0.0009185 0.0022174 0.0016000
v 0.0009185 0.0022174 -0.0000000
v 0.0000000 0.0024000 0.0016000
v 0.0000000 0.0024000 -0.0000000
v -0.0009185 0.0022174 0.0016000
v -0.0009185 0.0022174 -0.0000000
v -0.0016970 0.0016970 0.0016000
v -0.0016970 0.0016970 -0.0000000
v -0.0022174 0.0009185 0.0016000
v -0.0022174 0.0009185 -0.0000000
v -0.0024000 0.0000000 0.0016000
v -0.0024000 0.0000000 -0.0000000
v -0.0022174 -0.0009185 0.0016000
v -0.0022174 -0.0009185 -0.0000000
v -0.0016970 -0.0016970 0.0016000
v -0.0016970 -0.0016970 -0.0000000
v -0.0009185 -0.0022174 0.0016000
v -0.0009185 -0.0022174 -0.0000000
v 0.0000000 -0.0024000 0.0016000
v 0.0000000 -0.0024000 -0.0000000
v 0.0009185 -0.0022174 0.0016000
v 0.0009185 -0.0022174 -0.0000000
v 0.0016970 -0.0016970 0.0016000
v 0.0016970 -0.0016970 -0.0000000
v 0.0022174 -0.0009185 0.0016000
v 0.0022174 -0.0009185 -0.0000000
v 0.0000000 0.0000000 0.0016000
usemtl c16
f 3 2 1
f 4 3 1
f 5 4 1
f 6 5 1
f 7 6 1
f 8 7 1
f 9 8 1
f 10 9 1
f 11 10 1
f 12 11 1
f 13 12 1
f 14 13 1
f 15 14 1
f 16 15 1
f 17 16 1
f 2 17 1
f 18 19 3
f 18 3 2
f 19 20 4
f 19 4 3
f 20 21 5
f 20 5 4
f 21 22 6
f 21 6 5
f 22 23 7
f 22 7 6
f 23 24 8
f 23 8 7
f 24 25 9
f 24 9 8
f 25 26 10
f 25 10 9
f 26 27 11
f 26 11 10
f 27 28 12
f 27 12 11
f 28 29 13
f 28 13 12
f 29 30 14
f 29 14 13
f 30 31 15
f 30 15 14
f 31 32 16
f 31 16 15
f 32 33 17
f 32 17 16
f 33 18 2
f 33 2 17
f 34 35 36
f 37 34 36
f 38 37 36
f 39 38 36
f 40 41 42
f 40 42 36
f 41 43 44
f 41 44 42
f 39 47 46
f 39 46 45
f 45 46 49
f 45 49 48
f 48 49 51
f 48 51 50
f 50 51 53
f 50 53 52
f 52 53 55
f 52 55 54
f 54 55 57
f 54 57 56
f 56 57 59
f 56 59 58
f 58 59 61
f 58 61 60
f 60 61 63
f 60 63 62
f 62 63 65
f 62 65 64
f 64 65 67
f 64 67 66
f 66 67 68
f 66 68 35
f 35 68 69
f 35 69 40
f 46 47 70
f 49 46 70
f 51 49 70
f 53 51 70
f 55 53 70
f 57 55 70
f 59 57 70
f 61 59 70
f 63 61 70
f 65 63 70
f 67 65 70
f 68 67 70
f 71 68 70
f 71 70 47
f 44 43 69
f 44 69 71
f 74 73 72
f 74 72 75
f 74 75 76
f 74 76 77
f 79 77 78
f 79 78 80
f 79 80 81
f 79 81 82
f 84 82 83
f 84 83 85
f 84 85 86
f 84 86 87
f 89 87 88
f 89 88 90
f 89 90 91
f 89 91 73
f 94 93 92
f 94 92 95
f 94 95 96
f 94 96 97
f 99 97 98
f 99 98 100
f 99 100 101
f 99 101 102
f 103 104 105
f 106 103 105
f 107 106 105
f 108 107 105
f 109 108 110
f 111 109 110
f 112 111 110
f 113 112 110
f 116 115 114
f 117 116 114
f 118 117 114
f 119 118 114
f 120 119 114
f 121 120 114
f 122 121 114
f 123 122 114
f 124 123 114
f 125 124 114
f 126 125 114
f 127 126 114
f 128 127 114
f 129 128 114
f 130 129 114
f 115 130 114
f 133 132 131
f 134 133 131
f 135 134 131
f 136 135 131
f 137 136 131
f 138 137 131
f 139 138 131
f 140 139 131
f 141 142 143
f 141 143 144
f 141 144 145
f 141 145 146
f 141 146 147
f 141 147 148
f 141 148 149
f 141 149 150
f 72 101 102
f 72 102 73
f 75 100 101
f 75 101 72
f 76 98 100
f 76 100 75
f 77 97 98
f 77 98 76
f 78 96 97
f 78 97 77
f 80 95 96
f 80 96 78
f 81 92 95
f 81 95 80
f 82 93 92
f 82 92 81
f 73 115 130
f 73 130 91
f 91 130 129
f 91 129 90
f 90 129 128
f 90 128 88
f 88 128 127
f 88 127 87
f 87 127 126
f 87 126 86
f 86 126 125
f 86 125 85
f 85 125 124
f 85 124 83
f 83 124 123
f 83 123 82
f 116 139 140
f 116 140 115
f 117 138 139
f 117 139 116
f 118 137 138
f 118 138 117
f 119 136 137
f 119 137 118
f 120 135 136
f 120 136 119
f 121 134 135
f 121 135 120
f 122 133 134
f 122 134 121
f 123 132 133
f 123 133 122
f 113 150 149
f 113 149 112
f 112 149 148
f 112 148 111
f 111 148 147
f 111 147 109
f 109 147 146
f 109 146 108
f 108 146 145
f 108 145 107
f 107 145 144
f 107 144 106
f 106 144 143
f 106 143 103
f 103 143 142
f 103 142 104
f 140 132 142
f 140 142 150
f 102 140 150
f 102 150 113
f 142 132 93
f 142 93 104
f 89 74 41
f 89 41 40
f 84 89 40
f 84 40 69
f 79 84 69
f 79 69 43
f 74 79 43
f 74 43 41
f 151 29 30
f 151 30 152
f 153 28 29
f 153 29 151
f 154 27 28
f 154 28 153
f 155 26 27
f 155 27 154
f 156 25 26
f 156 26 155
f 157 24 25
f 157 25 156
f 158 23 24
f 158 24 157
f 159 22 23
f 159 23 158
f 160 21 22
f 160 22 159
f 161 20 21
f 161 21 160
f 162 19 20
f 162 20 161
f 163 18 19
f 163 19 162
f 164 33 18
f 164 18 163
f 165 32 33
f 165 33 164
f 166 31 32
f 166 32 165
f 152 30 31
f 152 31 166
f 54 151 152
f 54 152 52
f 56 153 151
f 56 151 54
f 58 154 153
f 58 153 56
f 60 155 154
f 60 154 58
f 62 156 155
f 62 155 60
f 64 157 156
f 64 156 62
f 66 158 157
f 66 157 64
f 35 159 158
f 35 158 66
f 34 160 159
f 34 159 35
f 37 161 160
f 37 160 34
f 38 162 161
f 38 161 37
f 39 163 162
f 39 162 38
f 45 164 163
f 45 163 39
f 48 165 164
f 48 164 45
f 50 166 165
f 50 165 48
f 52 152 166
f 52 166 50
f 42 99 110
f 42 110 39
f 39 110 105
f 39 105 47
f 47 105 94
f 47 94 44
f 44 94 99
f 44 99 42
f 170 169 168
f 170 168 167
f 169 172 171
f 169 171 168
f 172 174 173
f 172 173 171
f 174 176 175
f 174 175 173
f 176 178 177
f 176 177 175
f 178 180 179
f 178 179 177
f 180 182 181
f 180 181 179
f 182 184 183
f 182 183 181
f 184 186 185
f 184 185 183
f 186 188 187
f 186 187 185
f 188 190 189
f 188 189 187
f 190 192 191
f 190 191 189
f 192 194 193
f 192 193 191
f 194 196 195
f 194 195 193
f 196 198 197
f 196 197 195
f 198 170 167
f 198 167 197
f 199 167 168
f 199 168 171
f 199 171 173
f 199 173 175
f 199 175 177
f 199 177 179
f 199 179 181
f 199 181 183
f 199 183 185
f 199 185 187
f 199 187 189
f 199 189 191
f 199 191 193
f 199 193 195
f 199 195 197
f 199 197 167
