o 3823
v 0.0120000 -0.0040000 -0.0192000
v 0.0136000 -0.0040000 -0.0192000
v 0.0134782 -0.0033877 -0.0192000
v 0.0131314 -0.0028686 -0.0192000
v 0.0126123 -0.0025218 -0.0192000
v 0.0120000 -0.0024000 -0.0192000
v 0.0113877 -0.0025218 -0.0192000
v 0.0108686 -0.0028686 -0.0192000
v 0.0105218 -0.0033877 -0.0192000
v 0.0104000 -0.0040000 -0.0192000
v 0.0105218 -0.0046123 -0.0192000
v 0.0108686 -0.0051314 -0.0192000
v 0.0113877 -0.0054782 -0.0192000
v 0.0120000 -0.0056000 -0.0192000
v 0.0126123 -0.0054782 -0.0192000
v 0.0131314 -0.0051314 -0.0192000
v 0.0134782 -0.0046123 -0.0192000
v 0.0136000 -0.0040000 -0.0176000
v 0.0134782 -0.0033877 -0.0176000
v 0.0131314 -0.0028686 -0.0176000
v 0.0126123 -0.0025218 -0.0176000
v 0.0120000 -0.0024000 -0.0176000
v 0.0113877 -0.0025218 -0.0176000
v 0.0108686 -0.0028686 -0.0176000
v 0.0105218 -0.0033877 -0.0176000
v 0.0104000 -0.0040000 -0.0176000
v 0.0105218 -0.0046123 -0.0176000
v 0.0108686 -0.0051314 -0.0176000
v 0.0113877 -0.0054782 -0.0176000
v 0.0120000 -0.0056000 -0.0176000
v 0.0126123 -0.0054782 -0.0176000
v 0.0131314 -0.0051314 -0.0176000
v 0.0134782 -0.0046123 -0.0176000
v -0.0120000 -0.0040000 -0.0192000
v -0.0104000 -0.0040000 -0.0192000
v -0.0105218 -0.0033877 -0.0192000
v -0.0108686 -0.0028686 -0.0192000
v -0.0113877 -0.0025218 -0.0192000
v -0.0120000 -0.0024000 -0.0192000
v -0.0126123 -0.0025218 -0.0192000
v -0.0131314 -0.0028686 -0.0192000
v -0.0134782 -0.0033877 -0.0192000
v -0.0136000 -0.0040000 -0.0192000
v -0.0134782 -0.0046123 -0.0192000
v -0.0131314 -0.0051314 -0.0192000
v -0.0126123 -0.0054782 -0.0192000
v -0.0120000 -0.0056000 -0.0192000
v -0.0113877 -0.0054782 -0.0192000
v -0.0108686 -0.0051314 -0.0192000
v -0.0105218 -0.0046123 -0.0192000
v -0.0104000 -0.0040000 -0.0176000
v -0.0105218 -0.0033877 -0.0176000
v -0.0108686 -0.0028686 -0.0176000
v -0.0113877 -0.0025218 -0.0176000
v -0.0120000 -0.0024000 -0.0176000
v -0.0126123 -0.0025218 -0.0176000
v -0.0131314 -0.0028686 -0.0176000
v -0.0134782 -0.0033877 -0.0176000
v -0.0136000 -0.0040000 -0.0176000
v -0.0134782 -0.0046123 -0.0176000
v -0.0131314 -0.0051314 -0.0176000
v -0.0126123 -0.0054782 -0.0176000
v -0.0120000 -0.0056000 -0.0176000
v -0.0113877 -0.0054782 -0.0176000
v -0.0108686 -0.0051314 -0.0176000
v -0.0105218 -0.0046123 -0.0176000
v 0.0080000 -0.0080000 -0.0192000
v 0.0096000 -0.0080000 -0.0192000
v 0.0094782 -0.0073877 -0.0192000
v 0.0091314 -0.0068686 -0.0192000
v 0.0086123 -0.0065218 -0.0192000
v 0.0080000 -0.0064000 -0.0192000
v 0.0073877 -0.0065218 -0.0192000
v 0.0068686 -0.0068686 -0.0192000
v 0.0065218 -0.0073877 -0.0192000
v 0.0064000 -0.0080000 -0.0192000
v 0.0065218 -0.0086123 -0.0192000
v 0.0068686 -0.0091314 -0.0192000
v 0.0073877 -0.0094782 -0.0192000
v 0.0080000 -0.0096000 -0.0192000
v 0.0086123 -0.0094782 -0.0192000
v 0.0091314 -0.0091314 -0.0192000
v 0.0094782 -0.0086123 -0.0192000
v 0.0096000 -0.0080000 -0.0176000
v 0.0094782 -0.0073877 -0.0176000
v 0.0091314 -0.0068686 -0.0176000
v 0.0086123 -0.0065218 -0.0176000
v 0.0080000 -0.0064000 -0.0176000
v 0.0073877 -0.0065218 -0.0176000
v 0.0068686 -0.0068686 -0.0176000
v 0.0065218 -0.0073877 -0.0176000
v 0.0064000 -0.0080000 -0.0176000
v 0.0065218 -0.0086123 -0.0176000
v 0.0068686 -0.0091314 -0.0176000
v 0.0073877 -0.0094782 -0.0176000
v 0.0080000 -0.0096000 -0.0176000
v 0.0086123 -0.0094782 -0.0176000
v 0.0091314 -0.0091314 -0.0176000
v 0.0094782 -0.0086123 -0.0176000
v 0.0000000 -0.0080000 -0.0192000
v 0.0016000 -0.0080000 -0.0192000
v 0.0014782 -0.0073877 -0.0192000
v 0.0011314 -0.0068686 -0.0192000
v 0.0006123 -0.0065218 -0.0192000
v 0.0000000 -0.0064000 -0.0192000
v -0.0006123 -0.0065218 -0.0192000
v -0.0011314 -0.0068686 -0.0192000
v -0.0014782 -0.0073877 -0.0192000
v -0.0016000 -0.0080000 -0.0192000
v -0.0014782 -0.0086123 -0.0192000
v -0.0011314 -0.0091314 -0.0192000
v -0.0006123 -0.0094782 -0.0192000
v 0.0000000 -0.0096000 -0.0192000
v 0.0006123 -0.0094782 -0.0192000
v 0.0011314 -0.0091314 -0.0192000
v 0.0014782 -0.0086123 -0.0192000
v 0.0016000 -0.0080000 -0.0176000
v 0.0014782 -0.0073877 -0.0176000
v 0.0011314 -0.0068686 -0.0176000
v 0.0006123 -0.0065218 -0.0176000
v 0.0000000 -0.0064000 -0.0176000
v -0.0006123 -0.0065218 -0.0176000
v -0.0011314 -0.0068686 -0.0176000
v -0.0014782 -0.0073877 -0.0176000
v -0.0016000 -0.0080000 -0.0176000
v -0.0014782 -0.0086123 -0.0176000
v -0.0011314 -0.0091314 -0.0176000
v -0.0006123 -0.0094782 -0.0176000
v 0.0000000 -0.0096000 -0.0176000
v 0.0006123 -0.0094782 -0.0176000
v 0.0011314 -0.0091314 -0.0176000
v 0.0014782 -0.0086123 -0.0176000
v -0.0080000 -0.0080000 -0.0192000
v -0.0064000 -0.0080000 -0.0192000
v -0.0065218 -0.0073877 -0.0192000
v -0.0068686 -0.0068686 -0.0192000
v -0.0073877 -0.0065218 -0.0192000
v -0.0080000 -0.0064000 -0.0192000
v -0.0086123 -0.0065218 -0.0192000
v -0.0091314 -0.0068686 -0.0192000
v -0.0094782 -0.0073877 -0.0192000
v -0.0096000 -0.0080000 -0.0192000
v -0.0094782 -0.0086123 -0.0192000
v -0.0091314 -0.0091314 -0.0192000
v -0.0086123 -0.0094782 -0.0192000
v -0.0080000 -0.0096000 -0.0192000
v -0.0073877 -0.0094782 -0.0192000
v -0.0068686 -0.0091314 -0.0192000
v -0.0065218 -0.0086123 -0.0192000
v -0.0064000 -0.0080000 -0.0176000
v -0.0065218 -0.0073877 -0.0176000
v -0.0068686 -0.0068686 -0.0176000
v -0.0073877 -0.0065218 -0.0176000
v -0.0080000 -0.0064000 -0.0176000
v -0.0086123 -0.0065218 -0.0176000
v -0.0091314 -0.0068686 -0.0176000
v -0.0094782 -0.0073877 -0.0176000
v -0.0096000 -0.0080000 -0.0176000
v -0.0094782 -0.0086123 -0.0176000
v -0.0091314 -0.0091314 -0.0176000
v -0.0086123 -0.0094782 -0.0176000
v -0.0080000 -0.0096000 -0.0176000
v -0.0073877 -0.0094782 -0.0176000
v -0.0068686 -0.0091314 -0.0176000
v -0.0065218 -0.0086123 -0.0176000
v 0.0120000 0.0024000 -0.0192000
v 0.0120000 0.0024000 -0.0176000
v 0.0120000 0.0040000 -0.0176000
v 0.0120000 0.0040000 -0.0192000
v 0.0144000 0.0024000 -0.0192000
v 0.0144000 0.0024000 -0.0176000
v 0.0144000 -0.0080000 -0.0192000
v 0.0144000 -0.0080000 -0.0176000
v -0.0120000 -0.0104000 -0.0192000
v -0.0120000 -0.0104000 -0.0176000
v 0.0120000 -0.0104000 -0.0176000
v 0.0120000 -0.0104000 -0.0192000
v -0.0144000 0.0024000 -0.0192000
v -0.0144000 0.0024000 -0.0176000
v -0.0144000 -0.0080000 -0.0176000
v -0.0144000 -0.0080000 -0.0192000
v -0.0120000 0.0024000 -0.0192000
v -0.0120000 0.0024000 -0.0176000
v -0.0120000 0.0040000 -0.0192000
v -0.0120000 0.0040000 -0.0176000
v -0.0096000 0.0000000 -0.0192000
v -0.0096000 0.0000000 -0.0176000
v -0.0080000 0.0000000 -0.0176000
v -0.0080000 0.0000000 -0.0192000
v -0.0096000 -0.0056000 -0.0192000
v -0.0096000 -0.0056000 -0.0176000
v 0.0096000 -0.0056000 -0.0192000
v 0.0096000 -0.0056000 -0.0176000
v 0.0096000 0.0000000 -0.0192000
v 0.0096000 0.0000000 -0.0176000
v 0.0080000 0.0000000 -0.0192000
v 0.0080000 0.0000000 -0.0176000
v 0.0116956 0.0024692 -0.0176000
v 0.0116956 0.0024692 -0.0160000
v 0.0120000 0.0040000 -0.0160000
v 0.0108284 0.0011716 -0.0176000
v 0.0108284 0.0011716 -0.0160000
v 0.0095308 0.0003044 -0.0176000
v 0.0095308 0.0003044 -0.0160000
v 0.0080000 0.0000000 -0.0160000
v -0.0116956 0.0024692 -0.0176000
v -0.0116956 0.0024692 -0.0160000
v -0.0120000 0.0040000 -0.0160000
v -0.0108284 0.0011716 -0.0176000
v -0.0108284 0.0011716 -0.0160000
v -0.0095308 0.0003044 -0.0176000
v -0.0095308 0.0003044 -0.0160000
v -0.0080000 0.0000000 -0.0160000
v 0.0160000 -0.0080000 -0.0192000
v 0.0156956 -0.0095308 -0.0192000
v 0.0156956 -0.0095308 -0.0160000
v 0.0160000 -0.0080000 -0.0160000
v 0.0148284 -0.0108284 -0.0192000
v 0.0148284 -0.0108284 -0.0160000
v 0.0135308 -0.0116956 -0.0192000
v 0.0135308 -0.0116956 -0.0160000
v 0.0120000 -0.0120000 -0.0192000
v 0.0120000 -0.0120000 -0.0160000
v -0.0160000 -0.0080000 -0.0192000
v -0.0156956 -0.0095308 -0.0192000
v -0.0156956 -0.0095308 -0.0160000
v -0.0160000 -0.0080000 -0.0160000
v -0.0148284 -0.0108284 -0.0192000
v -0.0148284 -0.0108284 -0.0160000
v -0.0135308 -0.0116956 -0.0192000
v -0.0135308 -0.0116956 -0.0160000
v -0.0120000 -0.0120000 -0.0192000
v -0.0120000 -0.0120000 -0.0160000
v 0.0142174 -0.0089185 -0.0192000
v 0.0142174 -0.0089185 -0.0176000
v 0.0136970 -0.0096970 -0.0192000
v 0.0136970 -0.0096970 -0.0176000
v 0.0129185 -0.0102174 -0.0192000
v 0.0129185 -0.0102174 -0.0176000
v -0.0142174 -0.0089185 -0.0192000
v -0.0142174 -0.0089185 -0.0176000
v -0.0136970 -0.0096970 -0.0192000
v -0.0136970 -0.0096970 -0.0176000
v -0.0129185 -0.0102174 -0.0192000
v -0.0129185 -0.0102174 -0.0176000
v 0.0160000 0.0040000 -0.0192000
v 0.0160000 0.0040000 -0.0160000
v 0.0080000 -0.0040000 -0.0192000
v 0.0080000 -0.0040000 -0.0160000
v -0.0080000 -0.0040000 -0.0192000
v -0.0080000 -0.0040000 -0.0160000
v -0.0160000 0.0040000 -0.0192000
v -0.0160000 0.0040000 -0.0160000
v 0.0144000 -0.0080000 -0.0160000
v 0.0142174 -0.0089185 -0.0160000
v 0.0142174 -0.0017185 -0.0016000
v 0.0144000 -0.0008000 -0.0016000
v 0.0136970 -0.0096970 -0.0160000
v 0.0136970 -0.0024970 -0.0016000
v 0.0129185 -0.0102174 -0.0160000
v 0.0129185 -0.0030174 -0.0016000
v 0.0120000 -0.0104000 -0.0160000
v 0.0120000 -0.0032000 -0.0016000
v -0.0144000 -0.0080000 -0.0160000
v -0.0142174 -0.0089185 -0.0160000
v -0.0142174 -0.0017185 -0.0016000
v -0.0144000 -0.0008000 -0.0016000
v -0.0136970 -0.0096970 -0.0160000
v -0.0136970 -0.0024970 -0.0016000
v -0.0129185 -0.0102174 -0.0160000
v -0.0129185 -0.0030174 -0.0016000
v -0.0120000 -0.0104000 -0.0160000
v -0.0120000 -0.0032000 -0.0016000
v 0.0156956 -0.0015308 -0.0000000
v 0.0160000 0.0000000 -0.0000000
v 0.0148284 -0.0028284 -0.0000000
v 0.0135308 -0.0036956 -0.0000000
v 0.0120000 -0.0040000 -0.0000000
v -0.0156956 -0.0015308 -0.0000000
v -0.0160000 0.0000000 -0.0000000
v -0.0148284 -0.0028284 -0.0000000
v -0.0135308 -0.0036956 -0.0000000
v -0.0120000 -0.0040000 -0.0000000
v 0.0144000 0.0040000 -0.0160000
v 0.0144000 0.0040000 -0.0016000
v 0.0160000 0.0040000 -0.0000000
v -0.0144000 0.0040000 -0.0160000
v -0.0144000 0.0040000 -0.0016000
v -0.0160000 0.0040000 -0.0000000
v 0.0080000 0.0000000 -0.0016000
v 0.0083044 0.0015308 -0.0016000
v 0.0083044 0.0015308 -0.0000000
v 0.0080000 0.0000000 -0.0000000
v 0.0091716 0.0028284 -0.0016000
v 0.0091716 0.0028284 -0.0000000
v 0.0104692 0.0036956 -0.0016000
v 0.0104692 0.0036956 -0.0000000
v 0.0120000 0.0040000 -0.0016000
v 0.0120000 0.0040000 -0.0000000
v -0.0080000 0.0000000 -0.0016000
v -0.0083044 0.0015308 -0.0016000
v -0.0083044 0.0015308 -0.0000000
v -0.0080000 0.0000000 -0.0000000
v -0.0091716 0.0028284 -0.0016000
v -0.0091716 0.0028284 -0.0000000
v -0.0104692 0.0036956 -0.0016000
v -0.0104692 0.0036956 -0.0000000
v -0.0120000 0.0040000 -0.0016000
v -0.0120000 0.0040000 -0.0000000
v 0.0080000 -0.0032000 -0.0016000
v 0.0080000 -0.0024000 -0.0000000
v -0.0080000 -0.0024000 -0.0000000
v -0.0080000 -0.0032000 -0.0016000
v -0.0142160 -0.0089200 -0.0192000
v -0.0156960 -0.0095320 -0.0192000
v -0.0136960 -0.0096960 -0.0192000
v -0.0148280 -0.0108280 -0.0192000
v -0.0129200 -0.0102160 -0.0192000
v -0.0135320 -0.0116960 -0.0192000
v 0.0129200 -0.0102160 -0.0192000
v 0.0135320 -0.0116960 -0.0192000
v 0.0136960 -0.0096960 -0.0192000
v 0.0148280 -0.0108280 -0.0192000
v 0.0142160 -0.0089200 -0.0192000
v 0.0156960 -0.0095320 -0.0192000
v 0.0120000 0.0000000 -0.0176000
v -0.0120000 0.0000000 -0.0176000
v 0.0120000 -0.0080000 -0.0176000
v -0.0120000 -0.0080000 -0.0176000
v 0.0144000 0.0000000 -0.0176000
v -0.0144000 0.0000000 -0.0176000
v 0.0144000 -0.0056000 -0.0176000
v -0.0144000 -0.0056000 -0.0176000
v 0.0120000 0.0000000 -0.0160000
v -0.0120000 0.0000000 -0.0160000
v 0.0120000 -0.0080000 -0.0160000
v -0.0120000 -0.0080000 -0.0160000
v 0.0144000 0.0000000 -0.0160000
v -0.0144000 0.0000000 -0.0160000
v 0.0144000 -0.0040000 -0.0160000
v -0.0144000 -0.0040000 -0.0160000
v 0.0120000 0.0000000 -0.0016000
v -0.0120000 0.0000000 -0.0016000
v 0.0120000 -0.0008000 -0.0016000
v -0.0120000 -0.0008000 -0.0016000
v 0.0144000 0.0000000 -0.0016000
v -0.0144000 0.0000000 -0.0016000
v 0.0080000 -0.0008000 -0.0016000
v -0.0080000 -0.0008000 -0.0016000
v 0.0120000 0.0000000 -0.0000000
v -0.0120000 0.0000000 -0.0000000
v 0.0080000 -0.0040000 -0.0000000
v -0.0080000 -0.0040000 -0.0000000
v 0.0136000 0.0000000 -0.0000000
v 0.0134782 0.0006123 -0.0000000
v 0.0134782 0.0006123 0.0016000
v 0.0136000 0.0000000 0.0016000
v 0.0131314 0.0011314 -0.0000000
v 0.0131314 0.0011314 0.0016000
v 0.0126123 0.0014782 -0.0000000
v 0.0126123 0.0014782 0.0016000
v 0.0120000 0.0016000 -0.0000000
v 0.0120000 0.0016000 0.0016000
v 0.0113877 0.0014782 -0.0000000
v 0.0113877 0.0014782 0.0016000
v 0.0108686 0.0011314 -0.0000000
v 0.0108686 0.0011314 0.0016000
v 0.0105218 0.0006123 -0.0000000
v 0.0105218 0.0006123 0.0016000
v 0.0104000 0.0000000 -0.0000000
v 0.0104000 0.0000000 0.0016000
v 0.0105218 -0.0006123 -0.0000000
v 0.0105218 -0.0006123 0.0016000
v 0.0108686 -0.0011314 -0.0000000
v 0.0108686 -0.0011314 0.0016000
v 0.0113877 -0.0014782 -0.0000000
v 0.0113877 -0.0014782 0.0016000
v 0.0120000 -0.0016000 -0.0000000
v 0.0120000 -0.0016000 0.0016000
v 0.0126123 -0.0014782 -0.0000000
v 0.0126123 -0.0014782 0.0016000
v 0.0131314 -0.0011314 -0.0000000
v 0.0131314 -0.0011314 0.0016000
v 0.0134782 -0.0006123 -0.0000000
v 0.0134782 -0.0006123 0.0016000
v 0.0144000 0.0000000 -0.0000000
v 0.0142174 0.0009185 -0.0000000
v 0.0142174 0.0009185 0.0016000
v 0.0144000 0.0000000 0.0016000
v 0.0136970 0.0016970 -0.0000000
v 0.0136970 0.0016970 0.0016000
v 0.0129185 0.0022174 -0.0000000
v 0.0129185 0.0022174 0.0016000
v 0.0120000 0.0024000 -0.0000000
v 0.0120000 0.0024000 0.0016000
v 0.0110815 0.0022174 -0.0000000
v 0.0110815 0.0022174 0.0016000
v 0.0103030 0.0016970 -0.0000000
v 0.0103030 0.0016970 0.0016000
v 0.0097826 0.0009185 -0.0000000
v 0.0097826 0.0009185 0.0016000
v 0.0096000 0.0000000 -0.0000000
v 0.0096000 0.0000000 0.0016000
v 0.0097826 -0.0009185 -0.0000000
v 0.0097826 -0.0009185 0.0016000
v 0.0103030 -0.0016970 -0.0000000
v 0.0103030 -0.0016970 0.0016000
v 0.0110815 -0.0022174 -0.0000000
v 0.0110815 -0.0022174 0.0016000
v 0.0120000 -0.0024000 -0.0000000
v 0.0120000 -0.0024000 0.0016000
v 0.0129185 -0.0022174 -0.0000000
v 0.0129185 -0.0022174 0.0016000
v 0.0136970 -0.0016970 -0.0000000
v 0.0136970 -0.0016970 0.0016000
v 0.0142174 -0.0009185 -0.0000000
v 0.0142174 -0.0009185 0.0016000
v -0.0104000 0.0000000 -0.0000000
v -0.0105218 0.0006123 -0.0000000
v -0.0105218 0.0006123 0.0016000
v -0.0104000 0.0000000 0.0016000
v -0.0108686 0.0011314 -0.0000000
v -0.0108686 0.0011314 0.0016000
v -0.0113877 0.0014782 -0.0000000
v -0.0113877 0.0014782 0.0016000
v -0.0120000 0.0016000 -0.0000000
v -0.0120000 0.0016000 0.0016000
v -0.0126123 0.0014782 -0.0000000
v -0.0126123 0.0014782 0.0016000
v -0.0131314 0.0011314 -0.0000000
v -0.0131314 0.0011314 0.0016000
v -0.0134782 0.0006123 -0.0000000
v -0.0134782 0.0006123 0.0016000
v -0.0136000 0.0000000 -0.0000000
v -0.0136000 0.0000000 0.0016000
v -0.0134782 -0.0006123 -0.0000000
v -0.0134782 -0.0006123 0.0016000
v -0.0131314 -0.0011314 -0.0000000
v -0.0131314 -0.0011314 0.0016000
v -0.0126123 -0.0014782 -0.0000000
v -0.0126123 -0.0014782 0.0016000
v -0.0120000 -0.0016000 -0.0000000
v -0.0120000 -0.0016000 0.0016000
v -0.0113877 -0.0014782 -0.0000000
v -0.0113877 -0.0014782 0.0016000
v -0.0108686 -0.0011314 -0.0000000
v -0.0108686 -0.0011314 0.0016000
v -0.0105218 -0.0006123 -0.0000000
v -0.0105218 -0.0006123 0.0016000
v -0.0096000 0.0000000 -0.0000000
v -0.0097826 0.0009185 -0.0000000
v -0.0097826 0.0009185 0.0016000
v -0.0096000 0.0000000 0.0016000
v -0.0103030 0.0016970 -0.0000000
v -0.0103030 0.0016970 0.0016000
v -0.0110815 0.0022174 -0.0000000
v -0.0110815 0.0022174 0.0016000
v -0.0120000 0.0024000 -0.0000000
v -0.0120000 0.0024000 0.0016000
v -0.0129185 0.0022174 -0.0000000
v -0.0129185 0.0022174 0.0016000
v -0.0136970 0.0016970 -0.0000000
v -0.0136970 0.0016970 0.0016000
v -0.0142174 0.0009185 -0.0000000
v -0.0142174 0.0009185 0.0016000
v -0.0144000 0.0000000 -0.0000000
v -0.0144000 0.0000000 0.0016000
v -0.0142174 -0.0009185 -0.0000000
v -0.0142174 -0.0009185 0.0016000
v -0.0136970 -0.0016970 -0.0000000
v -0.0136970 -0.0016970 0.0016000
v -0.0129185 -0.0022174 -0.0000000
v -0.0129185 -0.0022174 0.0016000
v -0.0120000 -0.0024000 -0.0000000
v -0.0120000 -0.0024000 0.0016000
v -0.0110815 -0.0022174 -0.0000000
v -0.0110815 -0.0022174 0.0016000
v -0.0103030 -0.0016970 -0.0000000
v -0.0103030 -0.0016970 0.0016000
v -0.0097826 -0.0009185 -0.0000000
v -0.0097826 -0.0009185 0.0016000
usemtl c16
f 3 2 1
f 4 3 1
f 5 4 1
f 6 5 1
f 7 6 1
f 8 7 1
f 9 8 1
f 10 9 1
f 11 10 1
f 12 11 1
f 13 12 1
f 14 13 1
f 15 14 1
f 16 15 1
f 17 16 1
f 2 17 1
f 2 3 19
f 2 19 18
f 3 4 20
f 3 20 19
f 4 5 21
f 4 21 20
f 5 6 22
f 5 22 21
f 6 7 23
f 6 23 22
f 7 8 24
f 7 24 23
f 8 9 25
f 8 25 24
f 9 10 26
f 9 26 25
f 10 11 27
f 10 27 26
f 11 12 28
f 11 28 27
f 12 13 29
f 12 29 28
f 13 14 30
f 13 30 29
f 14 15 31
f 14 31 30
f 15 16 32
f 15 32 31
f 16 17 33
f 16 33 32
f 17 2 18
f 17 18 33
f 36 35 34
f 37 36 34
f 38 37 34
f 39 38 34
f 40 39 34
f 41 40 34
f 42 41 34
f 43 42 34
f 44 43 34
f 45 44 34
f 46 45 34
f 47 46 34
f 48 47 34
f 49 48 34
f 50 49 34
f 35 50 34
f 35 36 52
f 35 52 51
f 36 37 53
f 36 53 52
f 37 38 54
f 37 54 53
f 38 39 55
f 38 55 54
f 39 40 56
f 39 56 55
f 40 41 57
f 40 57 56
f 41 42 58
f 41 58 57
f 42 43 59
f 42 59 58
f 43 44 60
f 43 60 59
f 44 45 61
f 44 61 60
f 45 46 62
f 45 62 61
f 46 47 63
f 46 63 62
f 47 48 64
f 47 64 63
f 48 49 65
f 48 65 64
f 49 50 66
f 49 66 65
f 50 35 51
f 50 51 66
f 69 68 67
f 70 69 67
f 71 70 67
f 72 71 67
f 73 72 67
f 74 73 67
f 75 74 67
f 76 75 67
f 77 76 67
f 78 77 67
f 79 78 67
f 80 79 67
f 81 80 67
f 82 81 67
f 83 82 67
f 68 83 67
f 68 69 85
f 68 85 84
f 69 70 86
f 69 86 85
f 70 71 87
f 70 87 86
f 71 72 88
f 71 88 87
f 72 73 89
f 72 89 88
f 73 74 90
f 73 90 89
f 74 75 91
f 74 91 90
f 75 76 92
f 75 92 91
f 76 77 93
f 76 93 92
f 77 78 94
f 77 94 93
f 78 79 95
f 78 95 94
f 79 80 96
f 79 96 95
f 80 81 97
f 80 97 96
f 81 82 98
f 81 98 97
f 82 83 99
f 82 99 98
f 83 68 84
f 83 84 99
f 102 101 100
f 103 102 100
f 104 103 100
f 105 104 100
f 106 105 100
f 107 106 100
f 108 107 100
f 109 108 100
f 110 109 100
f 111 110 100
f 112 111 100
f 113 112 100
f 114 113 100
f 115 114 100
f 116 115 100
f 101 116 100
f 101 102 118
f 101 118 117
f 102 103 119
f 102 119 118
f 103 104 120
f 103 120 119
f 104 105 121
f 104 121 120
f 105 106 122
f 105 122 121
f 106 107 123
f 106 123 122
f 107 108 124
f 107 124 123
f 108 109 125
f 108 125 124
f 109 110 126
f 109 126 125
f 110 111 127
f 110 127 126
f 111 112 128
f 111 128 127
f 112 113 129
f 112 129 128
f 113 114 130
f 113 130 129
f 114 115 131
f 114 131 130
f 115 116 132
f 115 132 131
f 116 101 117
f 116 117 132
f 135 134 133
f 136 135 133
f 137 136 133
f 138 137 133
f 139 138 133
f 140 139 133
f 141 140 133
f 142 141 133
f 143 142 133
f 144 143 133
f 145 144 133
f 146 145 133
f 147 146 133
f 148 147 133
f 149 148 133
f 134 149 133
f 134 135 151
f 134 151 150
f 135 136 152
f 135 152 151
f 136 137 153
f 136 153 152
f 137 138 154
f 137 154 153
f 138 139 155
f 138 155 154
f 139 140 156
f 139 156 155
f 140 141 157
f 140 157 156
f 141 142 158
f 141 158 157
f 142 143 159
f 142 159 158
f 143 144 160
f 143 160 159
f 144 145 161
f 144 161 160
f 145 146 162
f 145 162 161
f 146 147 163
f 146 163 162
f 147 148 164
f 147 164 163
f 148 149 165
f 148 165 164
f 149 134 150
f 149 150 165
f 166 167 168
f 166 168 169
f 170 171 167
f 170 167 166
f 172 173 171
f 172 171 170
f 174 175 176
f 174 176 177
f 178 179 180
f 178 180 181
f 182 183 179
f 182 179 178
f 184 185 183
f 184 183 182
f 186 187 188
f 186 188 189
f 190 191 187
f 190 187 186
f 192 193 191
f 192 191 190
f 194 195 193
f 194 193 192
f 196 197 195
f 196 195 194
f 200 199 198
f 200 198 168
f 199 202 201
f 199 201 198
f 202 204 203
f 202 203 201
f 204 205 197
f 204 197 203
f 185 206 207
f 185 207 208
f 206 209 210
f 206 210 207
f 209 211 212
f 209 212 210
f 211 188 213
f 211 213 212
f 217 216 215
f 217 215 214
f 216 219 218
f 216 218 215
f 219 221 220
f 219 220 218
f 221 223 222
f 221 222 220
f 224 225 226
f 224 226 227
f 225 228 229
f 225 229 226
f 228 230 231
f 228 231 229
f 230 232 233
f 230 233 231
f 173 235 234
f 173 234 172
f 235 237 236
f 235 236 234
f 237 239 238
f 237 238 236
f 239 176 177
f 239 177 238
f 181 240 241
f 181 241 180
f 240 242 243
f 240 243 241
f 242 244 245
f 242 245 243
f 244 174 175
f 244 175 245
f 246 169 200
f 246 200 247
f 196 248 249
f 196 249 205
f 248 250 251
f 248 251 249
f 250 189 213
f 250 213 251
f 184 252 253
f 184 253 208
f 252 224 227
f 252 227 253
f 232 222 223
f 232 223 233
f 214 246 247
f 214 247 217
f 257 256 255
f 257 255 254
f 256 259 258
f 256 258 255
f 259 261 260
f 259 260 258
f 261 263 262
f 261 262 260
f 264 265 266
f 264 266 267
f 265 268 269
f 265 269 266
f 268 270 271
f 268 271 269
f 270 272 273
f 270 273 271
f 275 274 216
f 275 216 217
f 274 276 219
f 274 219 216
f 276 277 221
f 276 221 219
f 277 278 223
f 277 223 221
f 227 226 279
f 227 279 280
f 226 229 281
f 226 281 279
f 229 231 282
f 229 282 281
f 231 233 283
f 231 283 282
f 247 284 285
f 247 285 286
f 284 254 257
f 284 257 285
f 262 272 273
f 262 273 263
f 264 287 288
f 264 288 267
f 287 253 289
f 287 289 288
f 253 227 280
f 253 280 289
f 233 223 278
f 233 278 283
f 217 247 286
f 217 286 275
f 293 292 291
f 293 291 290
f 292 295 294
f 292 294 291
f 295 297 296
f 295 296 294
f 297 299 298
f 297 298 296
f 300 301 302
f 300 302 303
f 301 304 305
f 301 305 302
f 304 306 307
f 304 307 305
f 306 308 309
f 306 309 307
f 285 298 299
f 285 299 286
f 290 310 311
f 290 311 293
f 289 309 308
f 289 308 288
f 303 312 313
f 303 313 300
f 313 312 311
f 313 311 310
f 181 314 315
f 181 315 224
f 314 316 317
f 314 317 315
f 316 318 319
f 316 319 317
f 318 174 232
f 318 232 319
f 177 320 321
f 177 321 222
f 320 322 323
f 320 323 321
f 322 324 325
f 322 325 323
f 324 172 214
f 324 214 325
f 246 170 166
f 246 166 169
f 184 182 178
f 184 178 252
f 214 172 170
f 214 170 246
f 252 178 181
f 252 181 224
f 232 174 177
f 232 177 222
f 196 194 192
f 196 192 248
f 250 190 186
f 250 186 189
f 248 192 190
f 248 190 250
f 198 168 326
f 201 198 326
f 203 201 326
f 197 203 326
f 327 185 206
f 327 206 209
f 327 209 211
f 327 211 188
f 328 173 235
f 328 235 237
f 328 237 239
f 328 239 176
f 241 180 329
f 243 241 329
f 245 243 329
f 175 245 329
f 330 326 167
f 330 167 171
f 179 183 327
f 179 327 331
f 332 193 195
f 332 195 330
f 331 187 191
f 331 191 333
f 173 180 333
f 173 333 332
f 176 175 329
f 176 329 328
f 334 200 199
f 334 199 202
f 334 202 204
f 334 204 205
f 207 208 335
f 210 207 335
f 212 210 335
f 213 212 335
f 255 254 336
f 258 255 336
f 260 258 336
f 262 260 336
f 337 264 265
f 337 265 268
f 337 268 270
f 337 270 272
f 284 200 334
f 284 334 338
f 339 335 208
f 339 208 287
f 338 205 249
f 338 249 340
f 341 251 213
f 341 213 339
f 340 341 264
f 340 264 254
f 336 337 272
f 336 272 262
f 342 290 291
f 342 291 294
f 342 294 296
f 342 296 298
f 301 300 343
f 304 301 343
f 306 304 343
f 308 306 343
f 344 257 256
f 344 256 259
f 344 259 261
f 344 261 263
f 266 267 345
f 269 266 345
f 271 269 345
f 273 271 345
f 346 342 298
f 346 298 285
f 288 308 343
f 288 343 347
f 257 348 290
f 257 290 346
f 347 300 349
f 347 349 267
f 263 310 348
f 263 348 344
f 345 349 313
f 345 313 273
f 292 293 350
f 295 292 350
f 297 295 350
f 299 297 350
f 351 303 302
f 351 302 305
f 351 305 307
f 351 307 309
f 274 275 350
f 276 274 350
f 277 276 350
f 278 277 350
f 351 280 279
f 351 279 281
f 351 281 282
f 351 282 283
f 286 299 350
f 286 350 275
f 280 351 309
f 280 309 289
f 350 293 352
f 350 352 278
f 283 353 303
f 283 303 351
f 311 312 353
f 311 353 352
f 354 355 356
f 354 356 357
f 355 358 359
f 355 359 356
f 358 360 361
f 358 361 359
f 360 362 363
f 360 363 361
f 362 364 365
f 362 365 363
f 364 366 367
f 364 367 365
f 366 368 369
f 366 369 367
f 368 370 371
f 368 371 369
f 370 372 373
f 370 373 371
f 372 374 375
f 372 375 373
f 374 376 377
f 374 377 375
f 376 378 379
f 376 379 377
f 378 380 381
f 378 381 379
f 380 382 383
f 380 383 381
f 382 384 385
f 382 385 383
f 384 354 357
f 384 357 385
f 386 387 388
f 386 388 389
f 387 390 391
f 387 391 388
f 390 392 393
f 390 393 391
f 392 394 395
f 392 395 393
f 394 396 397
f 394 397 395
f 396 398 399
f 396 399 397
f 398 400 401
f 398 401 399
f 400 402 403
f 400 403 401
f 402 404 405
f 402 405 403
f 404 406 407
f 404 407 405
f 406 408 409
f 406 409 407
f 408 410 411
f 408 411 409
f 410 412 413
f 410 413 411
f 412 414 415
f 412 415 413
f 414 416 417
f 414 417 415
f 416 386 389
f 416 389 417
f 397 365 363
f 397 363 395
f 399 367 365
f 399 365 397
f 401 369 367
f 401 367 399
f 403 371 369
f 403 369 401
f 405 373 371
f 405 371 403
f 407 375 373
f 407 373 405
f 409 377 375
f 409 375 407
f 411 379 377
f 411 377 409
f 413 381 379
f 413 379 411
f 415 383 381
f 415 381 413
f 417 385 383
f 417 383 415
f 389 357 385
f 389 385 417
f 388 356 357
f 388 357 389
f 391 359 356
f 391 356 388
f 393 361 359
f 393 359 391
f 395 363 361
f 395 361 393
f 418 419 420
f 418 420 421
f 419 422 423
f 419 423 420
f 422 424 425
f 422 425 423
f 424 426 427
f 424 427 425
f 426 428 429
f 426 429 427
f 428 430 431
f 428 431 429
f 430 432 433
f 430 433 431
f 432 434 435
f 432 435 433
f 434 436 437
f 434 437 435
f 436 438 439
f 436 439 437
f 438 440 441
f 438 441 439
f 440 442 443
f 440 443 441
f 442 444 445
f 442 445 443
f 444 446 447
f 444 447 445
f 446 448 449
f 446 449 447
f 448 418 421
f 448 421 449
f 450 451 452
f 450 452 453
f 451 454 455
f 451 455 452
f 454 456 457
f 454 457 455
f 456 458 459
f 456 459 457
f 458 460 461
f 458 461 459
f 460 462 463
f 460 463 461
f 462 464 465
f 462 465 463
f 464 466 467
f 464 467 465
f 466 468 469
f 466 469 467
f 468 470 471
f 468 471 469
f 470 472 473
f 470 473 471
f 472 474 475
f 472 475 473
f 474 476 477
f 474 477 475
f 476 478 479
f 476 479 477
f 478 480 481
f 478 481 479
f 480 450 453
f 480 453 481
f 461 429 427
f 461 427 459
f 463 431 429
f 463 429 461
f 465 433 431
f 465 431 463
f 467 435 433
f 467 433 465
f 469 437 435
f 469 435 467
f 471 439 437
f 471 437 469
f 473 441 439
f 473 439 471
f 475 443 441
f 475 441 473
f 477 445 443
f 477 443 475
f 479 447 445
f 479 445 477
f 481 449 447
f 481 447 479
f 453 421 449
f 453 449 481
f 452 420 421
f 452 421 453
f 455 423 420
f 455 420 452
f 457 425 423
f 457 423 455
f 459 427 425
f 459 425 457
