o 3829c01
v 0.0000000 0.0000000 -0.0032000
v 0.0016000 0.0000000 -0.0032000
v 0.0014782 0.0006123 -0.0032000
v 0.0011314 0.0011314 -0.0032000
v 0.0006123 0.0014782 -0.0032000
v 0.0000000 0.0016000 -0.0032000
v -0.0006123 0.0014782 -0.0032000
v -0.0011314 0.0011314 -0.0032000
v -0.0014782 0.0006123 -0.0032000
v -0.0016000 0.0000000 -0.0032000
v -0.0014782 -0.0006123 -0.0032000
v -0.0011314 -0.0011314 -0.0032000
v -0.0006123 -0.0014782 -0.0032000
v 0.0000000 -0.0016000 -0.0032000
v 0.0006123 -0.0014782 -0.0032000
v 0.0011314 -0.0011314 -0.0032000
v 0.0014782 -0.0006123 -0.0032000
v 0.0016000 0.0000000 -0.0016000
v 0.0014782 0.0006123 -0.0016000
v 0.0011314 0.0011314 -0.0016000
v 0.0006123 0.0014782 -0.0016000
v 0.0000000 0.0016000 -0.0016000
v -0.0006123 0.0014782 -0.0016000
v -0.0011314 0.0011314 -0.0016000
v -0.0014782 0.0006123 -0.0016000
v -0.0016000 0.0000000 -0.0016000
v -0.0014782 -0.0006123 -0.0016000
v -0.0011314 -0.0011314 -0.0016000
v -0.0006123 -0.0014782 -0.0016000
v 0.0000000 -0.0016000 -0.0016000
v 0.0006123 -0.0014782 -0.0016000
v 0.0011314 -0.0011314 -0.0016000
v 0.0014782 -0.0006123 -0.0016000
v 0.0080000 0.0040000 -0.0000000
v -0.0080000 0.0040000 -0.0000000
v -0.0080000 0.0040000 -0.0032000
v 0.0080000 0.0040000 -0.0032000
v -0.0080000 -0.0040000 -0.0000000
v -0.0080000 -0.0040000 -0.0032000
v 0.0080000 -0.0040000 -0.0032000
v 0.0080000 -0.0040000 -0.0000000
v -0.0064000 0.0024000 -0.0016000
v 0.0064000 0.0024000 -0.0016000
v 0.0064000 -0.0024000 -0.0016000
v -0.0064000 -0.0024000 -0.0016000
v -0.0064000 0.0024000 -0.0032000
v 0.0064000 0.0024000 -0.0032000
v -0.0064000 -0.0024000 -0.0032000
v 0.0064000 -0.0024000 -0.0032000
v 0.0024000 -0.0024000 -0.0000000
v 0.0024000 -0.0020160 -0.0000000
v 0.0024000 -0.0020160 0.0090880
v 0.0024000 -0.0024000 0.0096000
v -0.0024000 -0.0024000 0.0096000
v -0.0024000 -0.0020160 0.0090880
v -0.0024000 -0.0020160 -0.0000000
v -0.0024000 -0.0024000 -0.0000000
v -0.0040000 -0.0024000 -0.0000000
v 0.0040000 -0.0024000 -0.0000000
v 0.0040000 -0.0040000 -0.0000000
v -0.0040000 -0.0040000 -0.0000000
v 0.0040000 -0.0040000 0.0096000
v -0.0040000 -0.0040000 0.0096000
v -0.0040000 -0.0024000 0.0096000
v 0.0040000 -0.0024000 0.0096000
v 0.0000000 -0.0000960 0.0105280
v 0.0016000 -0.0000960 0.0105280
v 0.0014782 0.0002714 0.0100382
v 0.0011314 0.0005828 0.0096229
v 0.0006123 0.0007910 0.0093454
v 0.0000000 0.0008640 0.0092480
v -0.0006123 0.0007910 0.0093454
v -0.0011314 0.0005828 0.0096229
v -0.0014782 0.0002714 0.0100382
v -0.0016000 -0.0000960 0.0105280
v -0.0014782 -0.0004634 0.0110178
v -0.0011314 -0.0007748 0.0114331
v -0.0006123 -0.0009830 0.0117106
v 0.0000000 -0.0010560 0.0118080
v 0.0006123 -0.0009830 0.0117106
v 0.0011314 -0.0007748 0.0114331
v 0.0014782 -0.0004634 0.0110178
v -0.0014782 -0.0023834 0.0095778
v -0.0016000 -0.0020160 0.0090880
v -0.0011314 -0.0026948 0.0099931
v -0.0006123 -0.0029030 0.0102706
v 0.0000000 -0.0029760 0.0103680
v 0.0006123 -0.0029030 0.0102706
v 0.0011314 -0.0026948 0.0099931
v 0.0014782 -0.0023834 0.0095778
v 0.0016000 -0.0020160 0.0090880
v 0.0014782 -0.0016486 0.0085982
v 0.0011314 -0.0013372 0.0081829
v 0.0006123 -0.0011290 0.0079054
v 0.0000000 -0.0010560 0.0078080
v -0.0006123 -0.0011290 0.0079054
v -0.0011314 -0.0013372 0.0081829
v -0.0014782 -0.0016486 0.0085982
v -0.0014782 -0.0034074 0.0088098
v -0.0016000 -0.0030400 0.0083200
v -0.0011314 -0.0037188 0.0092251
v -0.0006123 -0.0039270 0.0095026
v 0.0000000 -0.0040000 0.0096000
v 0.0006123 -0.0039270 0.0095026
v 0.0011314 -0.0037188 0.0092251
v 0.0014782 -0.0034074 0.0088098
v 0.0016000 -0.0030400 0.0083200
v 0.0000000 -0.0020160 0.0090880
v 0.0022174 -0.0014649 0.0083532
v 0.0016970 -0.0009978 0.0077304
v 0.0009185 -0.0006856 0.0073141
v 0.0000000 -0.0005760 0.0071680
v -0.0009185 -0.0006856 0.0073141
v -0.0016970 -0.0009978 0.0077304
v -0.0022174 -0.0014649 0.0083532
v 0.0022174 -0.0014649 0.0071680
v 0.0022174 -0.0014649 -0.0000000
v 0.0024000 -0.0020160 0.0071680
v 0.0016970 -0.0009978 0.0071680
v 0.0016970 -0.0009978 -0.0000000
v 0.0009185 -0.0006856 0.0071680
v 0.0009185 -0.0006856 -0.0000000
v 0.0000000 -0.0005760 -0.0000000
v -0.0009185 -0.0006856 0.0071680
v -0.0009185 -0.0006856 -0.0000000
v -0.0016970 -0.0009978 0.0071680
v -0.0016970 -0.0009978 -0.0000000
v -0.0022174 -0.0014649 0.0071680
v -0.0022174 -0.0014649 -0.0000000
v -0.0024000 -0.0020160 0.0071680
v 0.0007308 -0.0027871 0.0154495
v 0.0000000 -0.0028160 0.0154880
v 0.0000000 -0.0040960 0.0145280
v 0.0007308 -0.0040671 0.0144895
v 0.0014493 -0.0027014 0.0153352
v 0.0014493 -0.0039814 0.0143752
v 0.0021431 -0.0025603 0.0151471
v 0.0021431 -0.0038403 0.0141871
v 0.0028000 -0.0023658 0.0148877
v 0.0028000 -0.0036458 0.0139277
v 0.0034093 -0.0021218 0.0145624
v 0.0034093 -0.0034018 0.0136024
v 0.0039598 -0.0018318 0.0141758
v 0.0039598 -0.0031118 0.0132158
v 0.0044430 -0.0015016 0.0137354
v 0.0044430 -0.0027816 0.0127754
v 0.0048496 -0.0011360 0.0132480
v 0.0048496 -0.0024160 0.0122880
v 0.0051738 -0.0007419 0.0127225
v 0.0051738 -0.0020219 0.0117625
v 0.0054090 -0.0003256 0.0121674
v 0.0054090 -0.0016056 0.0112074
v 0.0055518 0.0001055 0.0115926
v 0.0055518 -0.0011745 0.0106326
v 0.0056000 0.0005440 0.0110080
v 0.0056000 -0.0007360 0.0100480
v 0.0055518 0.0009825 0.0104234
v 0.0055518 -0.0002975 0.0094634
v 0.0054090 0.0014136 0.0098486
v 0.0054090 0.0001336 0.0088886
v 0.0051738 0.0018299 0.0092935
v 0.0051738 0.0005499 0.0083335
v 0.0048496 0.0022240 0.0087680
v 0.0048496 0.0009440 0.0078080
v 0.0044430 0.0025896 0.0082806
v 0.0044430 0.0013096 0.0073206
v 0.0039598 0.0029198 0.0078402
v 0.0039598 0.0016398 0.0068802
v 0.0034093 0.0032098 0.0074536
v 0.0034093 0.0019298 0.0064936
v 0.0028000 0.0034538 0.0071283
v 0.0028000 0.0021738 0.0061683
v 0.0021431 0.0036483 0.0068689
v 0.0021431 0.0023683 0.0059089
v 0.0014493 0.0037894 0.0066808
v 0.0014493 0.0025094 0.0057208
v 0.0007308 0.0038751 0.0065665
v 0.0007308 0.0025951 0.0056065
v 0.0000000 0.0039040 0.0065280
v 0.0000000 0.0026240 0.0055680
v -0.0007308 0.0038751 0.0065665
v -0.0007308 0.0025951 0.0056065
v -0.0014493 0.0037894 0.0066808
v -0.0014493 0.0025094 0.0057208
v -0.0021431 0.0036483 0.0068689
v -0.0021431 0.0023683 0.0059089
v -0.0028000 0.0034538 0.0071283
v -0.0028000 0.0021738 0.0061683
v -0.0034093 0.0032098 0.0074536
v -0.0034093 0.0019298 0.0064936
v -0.0039598 0.0029198 0.0078402
v -0.0039598 0.0016398 0.0068802
v -0.0044430 0.0025896 0.0082806
v -0.0044430 0.0013096 0.0073206
v -0.0048496 0.0022240 0.0087680
v -0.0048496 0.0009440 0.0078080
v -0.0051738 0.0018299 0.0092935
v -0.0051738 0.0005499 0.0083335
v -0.0054090 0.0014136 0.0098486
v -0.0054090 0.0001336 0.0088886
v -0.0055518 0.0009825 0.0104234
v -0.0055518 -0.0002975 0.0094634
v -0.0056000 0.0005440 0.0110080
v -0.0056000 -0.0007360 0.0100480
v -0.0055518 0.0001055 0.0115926
v -0.0055518 -0.0011745 0.0106326
v -0.0054090 -0.0003256 0.0121674
v -0.0054090 -0.0016056 0.0112074
v -0.0051738 -0.0007419 0.0127225
v -0.0051738 -0.0020219 0.0117625
v -0.0048496 -0.0011360 0.0132480
v -0.0048496 -0.0024160 0.0122880
v -0.0044430 -0.0015016 0.0137354
v -0.0044430 -0.0027816 0.0127754
v -0.0039598 -0.0018318 0.0141758
v -0.0039598 -0.0031118 0.0132158
v -0.0034093 -0.0021218 0.0145624
v -0.0034093 -0.0034018 0.0136024
v -0.0028000 -0.0023658 0.0148877
v -0.0028000 -0.0036458 0.0139277
v -0.0021431 -0.0025603 0.0151471
v -0.0021431 -0.0038403 0.0141871
v -0.0014493 -0.0027014 0.0153352
v -0.0014493 -0.0039814 0.0143752
v -0.0007308 -0.0027871 0.0154495
v -0.0007308 -0.0040671 0.0144895
v 0.0006264 -0.0023112 0.0148150
v 0.0000000 -0.0023360 0.0148480
v 0.0000000 -0.0036160 0.0138880
v 0.0006264 -0.0035912 0.0138550
v 0.0012422 -0.0022378 0.0147170
v 0.0012422 -0.0035178 0.0137570
v 0.0018370 -0.0021168 0.0145558
v 0.0018370 -0.0033968 0.0135958
v 0.0024000 -0.0019501 0.0143334
v 0.0024000 -0.0032301 0.0133734
v 0.0029222 -0.0017410 0.0140546
v 0.0029222 -0.0030210 0.0130946
v 0.0033941 -0.0014924 0.0137233
v 0.0033941 -0.0027724 0.0127633
v 0.0038083 -0.0012094 0.0133458
v 0.0038083 -0.0024894 0.0123858
v 0.0041568 -0.0008960 0.0129280
v 0.0041568 -0.0021760 0.0119680
v 0.0044347 -0.0005582 0.0124776
v 0.0044347 -0.0018382 0.0115176
v 0.0046363 -0.0002014 0.0120018
v 0.0046363 -0.0014814 0.0110418
v 0.0047587 0.0001682 0.0115091
v 0.0047587 -0.0011118 0.0105491
v 0.0048000 0.0005440 0.0110080
v 0.0048000 -0.0007360 0.0100480
v 0.0047587 0.0009198 0.0105069
v 0.0047587 -0.0003602 0.0095469
v 0.0046363 0.0012894 0.0100142
v 0.0046363 0.0000094 0.0090542
v 0.0044347 0.0016462 0.0095384
v 0.0044347 0.0003662 0.0085784
v 0.0041568 0.0019840 0.0090880
v 0.0041568 0.0007040 0.0081280
v 0.0038083 0.0022974 0.0086702
v 0.0038083 0.0010174 0.0077102
v 0.0033941 0.0025804 0.0082927
v 0.0033941 0.0013004 0.0073327
v 0.0029222 0.0028290 0.0079614
v 0.0029222 0.0015490 0.0070014
v 0.0024000 0.0030381 0.0076826
v 0.0024000 0.0017581 0.0067226
v 0.0018370 0.0032048 0.0074602
v 0.0018370 0.0019248 0.0065002
v 0.0012422 0.0033258 0.0072990
v 0.0012422 0.0020458 0.0063390
v 0.0006264 0.0033992 0.0072010
v 0.0006264 0.0021192 0.0062410
v 0.0000000 0.0034240 0.0071680
v 0.0000000 0.0021440 0.0062080
v -0.0006264 0.0033992 0.0072010
v -0.0006264 0.0021192 0.0062410
v -0.0012422 0.0033258 0.0072990
v -0.0012422 0.0020458 0.0063390
v -0.0018370 0.0032048 0.0074602
v -0.0018370 0.0019248 0.0065002
v -0.0024000 0.0030381 0.0076826
v -0.0024000 0.0017581 0.0067226
v -0.0029222 0.0028290 0.0079614
v -0.0029222 0.0015490 0.0070014
v -0.0033941 0.0025804 0.0082927
v -0.0033941 0.0013004 0.0073327
v -0.0038083 0.0022974 0.0086702
v -0.0038083 0.0010174 0.0077102
v -0.0041568 0.0019840 0.0090880
v -0.0041568 0.0007040 0.0081280
v -0.0044347 0.0016462 0.0095384
v -0.0044347 0.0003662 0.0085784
v -0.0046363 0.0012894 0.0100142
v -0.0046363 0.0000094 0.0090542
v -0.0047587 0.0009198 0.0105069
v -0.0047587 -0.0003602 0.0095469
v -0.0048000 0.0005440 0.0110080
v -0.0048000 -0.0007360 0.0100480
v -0.0047587 0.0001682 0.0115091
v -0.0047587 -0.0011118 0.0105491
v -0.0046363 -0.0002014 0.0120018
v -0.0046363 -0.0014814 0.0110418
v -0.0044347 -0.0005582 0.0124776
v -0.0044347 -0.0018382 0.0115176
v -0.0041568 -0.0008960 0.0129280
v -0.0041568 -0.0021760 0.0119680
v -0.0038083 -0.0012094 0.0133458
v -0.0038083 -0.0024894 0.0123858
v -0.0033941 -0.0014924 0.0137233
v -0.0033941 -0.0027724 0.0127633
v -0.0029222 -0.0017410 0.0140546
v -0.0029222 -0.0030210 0.0130946
v -0.0024000 -0.0019501 0.0143334
v -0.0024000 -0.0032301 0.0133734
v -0.0018370 -0.0021168 0.0145558
v -0.0018370 -0.0033968 0.0135958
v -0.0012422 -0.0022378 0.0147170
v -0.0012422 -0.0035178 0.0137570
v -0.0006264 -0.0023112 0.0148150
v -0.0006264 -0.0035912 0.0138550
v 0.0000000 -0.0015360 0.0124480
v 0.0003132 -0.0015236 0.0124315
v 0.0002088 -0.0010478 0.0117970
v 0.0006211 -0.0014869 0.0123825
v 0.0004141 -0.0010233 0.0117644
v 0.0009185 -0.0014264 0.0123019
v 0.0012000 -0.0013430 0.0121907
v 0.0008000 -0.0009274 0.0116365
v 0.0014611 -0.0012385 0.0120513
v 0.0009741 -0.0008577 0.0115436
v 0.0016970 -0.0011142 0.0118856
v 0.0019042 -0.0009727 0.0116969
v 0.0012694 -0.0006804 0.0113073
v 0.0020784 -0.0008160 0.0114880
v 0.0013856 -0.0005760 0.0111680
v 0.0022174 -0.0006471 0.0112628
v 0.0023182 -0.0004687 0.0110249
v 0.0015454 -0.0003444 0.0108593
v 0.0023794 -0.0002839 0.0107786
v 0.0015862 -0.0002213 0.0106950
v 0.0024000 -0.0000960 0.0105280
v 0.0023794 0.0000919 0.0102774
v 0.0015862 0.0000293 0.0103610
v 0.0023182 0.0002767 0.0100311
v 0.0015454 0.0001524 0.0101967
v 0.0022174 0.0004551 0.0097932
v 0.0020784 0.0006240 0.0095680
v 0.0013856 0.0003840 0.0098880
v 0.0019042 0.0007807 0.0093591
v 0.0012694 0.0004884 0.0097487
v 0.0016970 0.0009222 0.0091704
v 0.0014611 0.0010465 0.0090047
v 0.0009741 0.0006657 0.0095124
v 0.0012000 0.0011510 0.0088653
v 0.0008000 0.0007354 0.0094195
v 0.0009185 0.0012344 0.0087541
v 0.0006211 0.0012949 0.0086735
v 0.0004141 0.0008313 0.0092916
v 0.0003132 0.0013316 0.0086245
v 0.0002088 0.0008558 0.0092590
v 0.0000000 0.0013440 0.0086080
v -0.0003132 0.0013316 0.0086245
v -0.0002088 0.0008558 0.0092590
v -0.0006211 0.0012949 0.0086735
v -0.0004141 0.0008313 0.0092916
v -0.0009185 0.0012344 0.0087541
v -0.0012000 0.0011510 0.0088653
v -0.0008000 0.0007354 0.0094195
v -0.0014611 0.0010465 0.0090047
v -0.0009741 0.0006657 0.0095124
v -0.0016970 0.0009222 0.0091704
v -0.0019042 0.0007807 0.0093591
v -0.0012694 0.0004884 0.0097487
v -0.0020784 0.0006240 0.0095680
v -0.0013856 0.0003840 0.0098880
v -0.0022174 0.0004551 0.0097932
v -0.0023182 0.0002767 0.0100311
v -0.0015454 0.0001524 0.0101967
v -0.0023794 0.0000919 0.0102774
v -0.0015862 0.0000293 0.0103610
v -0.0024000 -0.0000960 0.0105280
v -0.0023794 -0.0002839 0.0107786
v -0.0015862 -0.0002213 0.0106950
v -0.0023182 -0.0004687 0.0110249
v -0.0015454 -0.0003444 0.0108593
v -0.0022174 -0.0006471 0.0112628
v -0.0020784 -0.0008160 0.0114880
v -0.0013856 -0.0005760 0.0111680
v -0.0019042 -0.0009727 0.0116969
v -0.0012694 -0.0006804 0.0113073
v -0.0016970 -0.0011142 0.0118856
v -0.0014611 -0.0012385 0.0120513
v -0.0009741 -0.0008577 0.0115436
v -0.0012000 -0.0013430 0.0121907
v -0.0008000 -0.0009274 0.0116365
v -0.0009185 -0.0014264 0.0123019
v -0.0006211 -0.0014869 0.0123825
v -0.0004141 -0.0010233 0.0117644
v -0.0003132 -0.0015236 0.0124315
v -0.0002088 -0.0010478 0.0117970
v 0.0000000 -0.0034560 0.0110080
v 0.0003132 -0.0034436 0.0109915
v 0.0002088 -0.0029678 0.0103570
v 0.0006211 -0.0034069 0.0109425
v 0.0004141 -0.0029433 0.0103244
v 0.0009185 -0.0033464 0.0108619
v 0.0012000 -0.0032630 0.0107507
v 0.0008000 -0.0028474 0.0101965
v 0.0014611 -0.0031585 0.0106113
v 0.0009741 -0.0027777 0.0101036
v 0.0016970 -0.0030342 0.0104456
v 0.0019042 -0.0028927 0.0102569
v 0.0012694 -0.0026004 0.0098673
v 0.0020784 -0.0027360 0.0100480
v 0.0013856 -0.0024960 0.0097280
v 0.0022174 -0.0025671 0.0098228
v 0.0023182 -0.0023887 0.0095849
v 0.0015454 -0.0022644 0.0094193
v 0.0023794 -0.0022039 0.0093386
v 0.0015862 -0.0021413 0.0092550
v 0.0023794 -0.0018281 0.0088374
v 0.0015862 -0.0018907 0.0089210
v 0.0023182 -0.0016433 0.0085911
v 0.0015454 -0.0017676 0.0087567
v 0.0020784 -0.0012960 0.0081280
v 0.0013856 -0.0015360 0.0084480
v 0.0019042 -0.0011393 0.0079191
v 0.0012694 -0.0014316 0.0083087
v 0.0014611 -0.0008735 0.0075647
v 0.0009741 -0.0012543 0.0080724
v 0.0012000 -0.0007690 0.0074253
v 0.0008000 -0.0011846 0.0079795
v 0.0006211 -0.0006251 0.0072335
v 0.0004141 -0.0010887 0.0078516
v 0.0003132 -0.0005884 0.0071845
v 0.0002088 -0.0010642 0.0078190
v -0.0003132 -0.0005884 0.0071845
v -0.0002088 -0.0010642 0.0078190
v -0.0006211 -0.0006251 0.0072335
v -0.0004141 -0.0010887 0.0078516
v -0.0012000 -0.0007690 0.0074253
v -0.0008000 -0.0011846 0.0079795
v -0.0014611 -0.0008735 0.0075647
v -0.0009741 -0.0012543 0.0080724
v -0.0019042 -0.0011393 0.0079191
v -0.0012694 -0.0014316 0.0083087
v -0.0020784 -0.0012960 0.0081280
v -0.0013856 -0.0015360 0.0084480
v -0.0023182 -0.0016433 0.0085911
v -0.0015454 -0.0017676 0.0087567
v -0.0023794 -0.0018281 0.0088374
v -0.0015862 -0.0018907 0.0089210
v -0.0023794 -0.0022039 0.0093386
v -0.0015862 -0.0021413 0.0092550
v -0.0023182 -0.0023887 0.0095849
v -0.0015454 -0.0022644 0.0094193
v -0.0022174 -0.0025671 0.0098228
v -0.0020784 -0.0027360 0.0100480
v -0.0013856 -0.0024960 0.0097280
v -0.0019042 -0.0028927 0.0102569
v -0.0012694 -0.0026004 0.0098673
v -0.0016970 -0.0030342 0.0104456
v -0.0014611 -0.0031585 0.0106113
v -0.0009741 -0.0027777 0.0101036
v -0.0012000 -0.0032630 0.0107507
v -0.0008000 -0.0028474 0.0101965
v -0.0009185 -0.0033464 0.0108619
v -0.0006211 -0.0034069 0.0109425
v -0.0004141 -0.0029433 0.0103244
v -0.0003132 -0.0034436 0.0109915
v -0.0002088 -0.0029678 0.0103570
v 0.0023794 -0.0002840 0.0107786
v 0.0023182 -0.0004687 0.0110249
v 0.0023182 -0.0023887 0.0095849
v 0.0023794 -0.0022040 0.0093386
v 0.0023999 -0.0000960 0.0105280
v 0.0023999 -0.0020160 0.0090880
v 0.0023795 0.0000920 0.0102774
v 0.0023795 -0.0018280 0.0088374
v 0.0023182 0.0002767 0.0100310
v 0.0023182 -0.0016433 0.0085910
v 0.0022174 0.0004551 0.0097932
v 0.0022174 -0.0014649 0.0083532
v 0.0020784 0.0006240 0.0095680
v 0.0020784 -0.0012960 0.0081280
v 0.0016970 0.0009222 0.0091704
v 0.0016970 -0.0009978 0.0077304
v 0.0014611 0.0010464 0.0090047
v 0.0014611 -0.0008736 0.0075647
v 0.0011999 0.0011510 0.0088653
v 0.0011999 -0.0007690 0.0074253
v 0.0009184 0.0012343 0.0087542
v 0.0009184 -0.0006857 0.0073142
v 0.0006212 0.0012949 0.0086734
v 0.0006212 -0.0006251 0.0072334
v -0.0009184 0.0012343 0.0087542
v -0.0006212 0.0012949 0.0086734
v -0.0006212 -0.0006251 0.0072334
v -0.0009184 -0.0006857 0.0073142
v -0.0011999 0.0011510 0.0088653
v -0.0011999 -0.0007690 0.0074253
v -0.0014611 0.0010464 0.0090047
v -0.0014611 -0.0008736 0.0075647
v -0.0016970 0.0009222 0.0091704
v -0.0016970 -0.0009978 0.0077304
v -0.0020784 0.0006240 0.0095680
v -0.0020784 -0.0012960 0.0081280
v -0.0022174 0.0004551 0.0097932
v -0.0022174 -0.0014649 0.0083532
v -0.0023182 0.0002767 0.0100310
v -0.0023182 -0.0016433 0.0085910
v -0.0023795 0.0000920 0.0102774
v -0.0023795 -0.0018280 0.0088374
v -0.0023999 -0.0000960 0.0105280
v -0.0023999 -0.0020160 0.0090880
v -0.0023794 -0.0002840 0.0107786
v -0.0023794 -0.0022040 0.0093386
v -0.0023182 -0.0004687 0.0110249
v -0.0023182 -0.0023887 0.0095849
v -0.0014610 -0.0012384 0.0120512
v -0.0014610 -0.0031584 0.0106112
v -0.0009184 -0.0014264 0.0123019
v -0.0009184 -0.0033464 0.0108619
v -0.0006211 -0.0014869 0.0123826
v -0.0006211 -0.0034069 0.0109426
v -0.0003133 -0.0015238 0.0124317
v -0.0003133 -0.0034438 0.0109917
v 0.0003133 -0.0015238 0.0124317
v 0.0003133 -0.0034438 0.0109917
v 0.0006211 -0.0014869 0.0123826
v 0.0006211 -0.0034069 0.0109426
v 0.0009184 -0.0014264 0.0123019
v 0.0009184 -0.0033464 0.0108619
v 0.0014610 -0.0012384 0.0120512
v 0.0014610 -0.0031584 0.0106112
v 0.0006264 0.0027593 0.0067210
v 0.0006212 0.0012948 0.0086736
v 0.0006212 -0.0006252 0.0072336
v 0.0006264 0.0021193 0.0062410
v -0.0006264 0.0021193 0.0062410
v -0.0006212 -0.0006252 0.0072336
v -0.0006212 0.0012948 0.0086736
v -0.0006264 0.0027593 0.0067210
v 0.0000000 0.0027840 0.0066880
v -0.0044348 -0.0011981 0.0119974
v -0.0023180 -0.0004687 0.0110250
v -0.0023180 -0.0023887 0.0095850
v -0.0044348 -0.0018381 0.0115174
v -0.0038084 -0.0024894 0.0123859
v -0.0016972 -0.0030343 0.0104458
v -0.0016972 -0.0011143 0.0118858
v -0.0038084 -0.0018494 0.0128659
v -0.0041568 -0.0015360 0.0124480
v 0.0038084 -0.0018494 0.0128659
v 0.0016972 -0.0011143 0.0118858
v 0.0016972 -0.0030343 0.0104458
v 0.0038084 -0.0024894 0.0123859
v 0.0044348 -0.0018381 0.0115174
v 0.0023180 -0.0023887 0.0095850
v 0.0023180 -0.0004687 0.0110250
v 0.0044348 -0.0011981 0.0119974
v 0.0041568 -0.0015360 0.0124480
usemtl c0
f 131 132 133
f 131 133 134
f 135 131 134
f 135 134 136
f 137 135 136
f 137 136 138
f 139 137 138
f 139 138 140
f 141 139 140
f 141 140 142
f 143 141 142
f 143 142 144
f 145 143 144
f 145 144 146
f 147 145 146
f 147 146 148
f 149 147 148
f 149 148 150
f 151 149 150
f 151 150 152
f 153 151 152
f 153 152 154
f 155 153 154
f 155 154 156
f 157 155 156
f 157 156 158
f 159 157 158
f 159 158 160
f 161 159 160
f 161 160 162
f 163 161 162
f 163 162 164
f 165 163 164
f 165 164 166
f 167 165 166
f 167 166 168
f 169 167 168
f 169 168 170
f 171 169 170
f 171 170 172
f 173 171 172
f 173 172 174
f 175 173 174
f 175 174 176
f 177 175 176
f 177 176 178
f 179 177 178
f 179 178 180
f 181 179 180
f 181 180 182
f 183 181 182
f 183 182 184
f 185 183 184
f 185 184 186
f 187 185 186
f 187 186 188
f 189 187 188
f 189 188 190
f 191 189 190
f 191 190 192
f 193 191 192
f 193 192 194
f 195 193 194
f 195 194 196
f 197 195 196
f 197 196 198
f 199 197 198
f 199 198 200
f 201 199 200
f 201 200 202
f 203 201 202
f 203 202 204
f 205 203 204
f 205 204 206
f 207 205 206
f 207 206 208
f 209 207 208
f 209 208 210
f 211 209 210
f 211 210 212
f 213 211 212
f 213 212 214
f 215 213 214
f 215 214 216
f 217 215 216
f 217 216 218
f 219 217 218
f 219 218 220
f 221 219 220
f 221 220 222
f 223 221 222
f 223 222 224
f 225 223 224
f 225 224 226
f 132 225 226
f 132 226 133
f 227 228 229
f 227 229 230
f 231 227 230
f 231 230 232
f 233 231 232
f 233 232 234
f 235 233 234
f 235 234 236
f 237 235 236
f 237 236 238
f 239 237 238
f 239 238 240
f 241 239 240
f 241 240 242
f 243 241 242
f 243 242 244
f 245 243 244
f 245 244 246
f 247 245 246
f 247 246 248
f 249 247 248
f 249 248 250
f 251 249 250
f 251 250 252
f 253 251 252
f 253 252 254
f 255 253 254
f 255 254 256
f 257 255 256
f 257 256 258
f 259 257 258
f 259 258 260
f 261 259 260
f 261 260 262
f 263 261 262
f 263 262 264
f 265 263 264
f 265 264 266
f 267 265 266
f 267 266 268
f 269 267 268
f 269 268 270
f 271 269 270
f 271 270 272
f 273 271 272
f 273 272 274
f 275 273 274
f 275 274 276
f 277 275 276
f 277 276 278
f 279 277 278
f 279 278 280
f 281 279 280
f 281 280 282
f 283 281 282
f 283 282 284
f 285 283 284
f 285 284 286
f 287 285 286
f 287 286 288
f 289 287 288
f 289 288 290
f 291 289 290
f 291 290 292
f 293 291 292
f 293 292 294
f 295 293 294
f 295 294 296
f 297 295 296
f 297 296 298
f 299 297 298
f 299 298 300
f 301 299 300
f 301 300 302
f 303 301 302
f 303 302 304
f 305 303 304
f 305 304 306
f 307 305 306
f 307 306 308
f 309 307 308
f 309 308 310
f 311 309 310
f 311 310 312
f 313 311 312
f 313 312 314
f 315 313 314
f 315 314 316
f 317 315 316
f 317 316 318
f 319 317 318
f 319 318 320
f 321 319 320
f 321 320 322
f 228 321 322
f 228 322 229
f 132 131 227
f 132 227 228
f 131 135 231
f 131 231 227
f 135 137 233
f 135 233 231
f 137 139 235
f 137 235 233
f 139 141 237
f 139 237 235
f 141 143 239
f 141 239 237
f 143 145 241
f 143 241 239
f 145 147 243
f 145 243 241
f 147 149 245
f 147 245 243
f 149 151 247
f 149 247 245
f 151 153 249
f 151 249 247
f 153 155 251
f 153 251 249
f 155 157 253
f 155 253 251
f 157 159 255
f 157 255 253
f 159 161 257
f 159 257 255
f 161 163 259
f 161 259 257
f 163 165 261
f 163 261 259
f 165 167 263
f 165 263 261
f 167 169 265
f 167 265 263
f 169 171 267
f 169 267 265
f 171 173 269
f 171 269 267
f 173 175 271
f 173 271 269
f 175 177 273
f 175 273 271
f 177 179 275
f 177 275 273
f 179 181 277
f 179 277 275
f 181 183 279
f 181 279 277
f 183 185 281
f 183 281 279
f 185 187 283
f 185 283 281
f 187 189 285
f 187 285 283
f 189 191 287
f 189 287 285
f 191 193 289
f 191 289 287
f 193 195 291
f 193 291 289
f 195 197 293
f 195 293 291
f 197 199 295
f 197 295 293
f 199 201 297
f 199 297 295
f 201 203 299
f 201 299 297
f 203 205 301
f 203 301 299
f 205 207 303
f 205 303 301
f 207 209 305
f 207 305 303
f 209 211 307
f 209 307 305
f 211 213 309
f 211 309 307
f 213 215 311
f 213 311 309
f 215 217 313
f 215 313 311
f 217 219 315
f 217 315 313
f 219 221 317
f 219 317 315
f 221 223 319
f 221 319 317
f 223 225 321
f 223 321 319
f 225 132 228
f 225 228 321
f 229 230 134
f 229 134 133
f 230 232 136
f 230 136 134
f 232 234 138
f 232 138 136
f 234 236 140
f 234 140 138
f 236 238 142
f 236 142 140
f 238 240 144
f 238 144 142
f 240 242 146
f 240 146 144
f 242 244 148
f 242 148 146
f 244 246 150
f 244 150 148
f 246 248 152
f 246 152 150
f 248 250 154
f 248 154 152
f 250 252 156
f 250 156 154
f 252 254 158
f 252 158 156
f 254 256 160
f 254 160 158
f 256 258 162
f 256 162 160
f 258 260 164
f 258 164 162
f 260 262 166
f 260 166 164
f 262 264 168
f 262 168 166
f 264 266 170
f 264 170 168
f 266 268 172
f 266 172 170
f 268 270 174
f 268 174 172
f 270 272 176
f 270 176 174
f 272 274 178
f 272 178 176
f 274 276 180
f 274 180 178
f 276 278 182
f 276 182 180
f 278 280 184
f 278 184 182
f 280 282 186
f 280 186 184
f 282 284 188
f 282 188 186
f 284 286 190
f 284 190 188
f 286 288 192
f 286 192 190
f 288 290 194
f 288 194 192
f 290 292 196
f 290 196 194
f 292 294 198
f 292 198 196
f 294 296 200
f 294 200 198
f 296 298 202
f 296 202 200
f 298 300 204
f 298 204 202
f 300 302 206
f 300 206 204
f 302 304 208
f 302 208 206
f 304 306 210
f 304 210 208
f 306 308 212
f 306 212 210
f 308 310 214
f 308 214 212
f 310 312 216
f 310 216 214
f 312 314 218
f 312 218 216
f 314 316 220
f 314 220 218
f 316 318 222
f 316 222 220
f 318 320 224
f 318 224 222
f 320 322 226
f 320 226 224
f 322 229 133
f 322 133 226
f 323 324 325
f 323 325 79
f 324 326 327
f 324 327 325
f 326 328 80
f 326 80 327
f 328 329 330
f 328 330 80
f 329 331 332
f 329 332 330
f 331 333 81
f 331 81 332
f 333 334 335
f 333 335 81
f 334 336 337
f 334 337 335
f 336 338 82
f 336 82 337
f 338 339 340
f 338 340 82
f 339 341 342
f 339 342 340
f 341 343 67
f 341 67 342
f 343 344 345
f 343 345 67
f 344 346 347
f 344 347 345
f 346 348 68
f 346 68 347
f 348 349 350
f 348 350 68
f 349 351 352
f 349 352 350
f 351 353 69
f 351 69 352
f 353 354 355
f 353 355 69
f 354 356 357
f 354 357 355
f 356 358 70
f 356 70 357
f 358 359 360
f 358 360 70
f 359 361 362
f 359 362 360
f 361 363 71
f 361 71 362
f 363 364 365
f 363 365 71
f 364 366 367
f 364 367 365
f 366 368 72
f 366 72 367
f 368 369 370
f 368 370 72
f 369 371 372
f 369 372 370
f 371 373 73
f 371 73 372
f 373 374 375
f 373 375 73
f 374 376 377
f 374 377 375
f 376 378 74
f 376 74 377
f 378 379 380
f 378 380 74
f 379 381 382
f 379 382 380
f 381 383 75
f 381 75 382
f 383 384 385
f 383 385 75
f 384 386 387
f 384 387 385
f 386 388 76
f 386 76 387
f 388 389 390
f 388 390 76
f 389 391 392
f 389 392 390
f 391 393 77
f 391 77 392
f 393 394 395
f 393 395 77
f 394 396 397
f 394 397 395
f 396 398 78
f 396 78 397
f 398 399 400
f 398 400 78
f 399 401 402
f 399 402 400
f 401 323 79
f 401 79 402
f 87 405 404
f 87 404 403
f 405 407 406
f 405 406 404
f 407 88 408
f 407 408 406
f 88 410 409
f 88 409 408
f 410 412 411
f 410 411 409
f 412 89 413
f 412 413 411
f 89 415 414
f 89 414 413
f 415 417 416
f 415 416 414
f 417 90 418
f 417 418 416
f 90 420 419
f 90 419 418
f 420 422 421
f 420 421 419
f 422 91 52
f 422 52 421
f 91 424 423
f 91 423 52
f 424 426 425
f 424 425 423
f 426 92 109
f 426 109 425
f 92 428 427
f 92 427 109
f 428 430 429
f 428 429 427
f 430 93 110
f 430 110 429
f 93 432 431
f 93 431 110
f 432 434 433
f 432 433 431
f 434 94 111
f 434 111 433
f 94 436 435
f 94 435 111
f 436 438 437
f 436 437 435
f 438 95 112
f 438 112 437
f 95 440 439
f 95 439 112
f 440 442 441
f 440 441 439
f 442 96 113
f 442 113 441
f 96 444 443
f 96 443 113
f 444 446 445
f 444 445 443
f 446 97 114
f 446 114 445
f 97 448 447
f 97 447 114
f 448 450 449
f 448 449 447
f 450 98 115
f 450 115 449
f 98 452 451
f 98 451 115
f 452 454 453
f 452 453 451
f 454 84 55
f 454 55 453
f 84 456 455
f 84 455 55
f 456 458 457
f 456 457 455
f 458 83 459
f 458 459 457
f 83 461 460
f 83 460 459
f 461 463 462
f 461 462 460
f 463 85 464
f 463 464 462
f 85 466 465
f 85 465 464
f 466 468 467
f 466 467 465
f 468 86 469
f 468 469 467
f 86 471 470
f 86 470 469
f 471 473 472
f 471 472 470
f 473 87 403
f 473 403 472
f 325 79 87
f 325 87 405
f 327 325 405
f 327 405 407
f 80 327 407
f 80 407 88
f 330 80 88
f 330 88 410
f 332 330 410
f 332 410 412
f 81 332 412
f 81 412 89
f 335 81 89
f 335 89 415
f 337 335 415
f 337 415 417
f 82 337 417
f 82 417 90
f 340 82 90
f 340 90 420
f 342 340 420
f 342 420 422
f 67 342 422
f 67 422 91
f 345 67 91
f 345 91 424
f 347 345 424
f 347 424 426
f 68 347 426
f 68 426 92
f 350 68 92
f 350 92 428
f 352 350 428
f 352 428 430
f 69 352 430
f 69 430 93
f 355 69 93
f 355 93 432
f 357 355 432
f 357 432 434
f 70 357 434
f 70 434 94
f 360 70 94
f 360 94 436
f 362 360 436
f 362 436 438
f 71 362 438
f 71 438 95
f 365 71 95
f 365 95 440
f 367 365 440
f 367 440 442
f 72 367 442
f 72 442 96
f 370 72 96
f 370 96 444
f 372 370 444
f 372 444 446
f 73 372 446
f 73 446 97
f 375 73 97
f 375 97 448
f 377 375 448
f 377 448 450
f 74 377 450
f 74 450 98
f 380 74 98
f 380 98 452
f 382 380 452
f 382 452 454
f 75 382 454
f 75 454 84
f 385 75 84
f 385 84 456
f 387 385 456
f 387 456 458
f 76 387 458
f 76 458 83
f 390 76 83
f 390 83 461
f 392 390 461
f 392 461 463
f 77 392 463
f 77 463 85
f 395 77 85
f 395 85 466
f 397 395 466
f 397 466 468
f 78 397 468
f 78 468 86
f 400 78 86
f 400 86 471
f 402 400 471
f 402 471 473
f 79 402 473
f 79 473 87
f 474 475 476
f 474 476 477
f 478 474 477
f 478 477 479
f 480 478 479
f 480 479 481
f 482 480 481
f 482 481 483
f 484 482 483
f 484 483 485
f 486 484 485
f 486 485 487
f 351 486 487
f 351 487 429
f 488 351 429
f 488 429 489
f 490 488 489
f 490 489 491
f 492 490 491
f 492 491 493
f 494 492 493
f 494 493 495
f 496 494 495
f 496 495 497
f 498 499 500
f 498 500 501
f 502 498 501
f 502 501 503
f 504 502 503
f 504 503 505
f 506 504 505
f 506 505 507
f 374 506 507
f 374 507 447
f 508 374 447
f 508 447 509
f 510 508 509
f 510 509 511
f 512 510 511
f 512 511 513
f 514 512 513
f 514 513 515
f 516 514 515
f 516 515 517
f 518 516 517
f 518 517 519
f 520 518 519
f 520 519 521
f 522 393 464
f 522 464 523
f 396 522 523
f 396 523 467
f 524 396 467
f 524 467 525
f 526 524 525
f 526 525 527
f 528 526 527
f 528 527 529
f 323 528 529
f 323 529 403
f 530 323 403
f 530 403 531
f 532 530 531
f 532 531 533
f 534 532 533
f 534 533 535
f 329 534 535
f 329 535 409
f 536 329 409
f 536 409 537
f 333 536 537
f 333 537 413
f 538 539 540
f 538 540 541
f 542 543 544
f 542 544 545
f 546 363 539
f 546 539 538
f 545 544 363
f 545 363 546
f 541 540 112
f 541 112 276
f 276 112 543
f 276 543 542
f 547 548 549
f 547 549 550
f 551 552 553
f 551 553 554
f 555 389 548
f 555 548 547
f 554 553 389
f 554 389 555
f 550 549 460
f 550 460 308
f 308 460 552
f 308 552 551
f 556 557 558
f 556 558 559
f 560 561 562
f 560 562 563
f 564 336 557
f 564 557 556
f 563 562 336
f 563 336 564
f 559 558 416
f 559 416 244
f 244 416 561
f 244 561 560
usemtl c16
f 3 2 1
f 4 3 1
f 5 4 1
f 6 5 1
f 7 6 1
f 8 7 1
f 9 8 1
f 10 9 1
f 11 10 1
f 12 11 1
f 13 12 1
f 14 13 1
f 15 14 1
f 16 15 1
f 17 16 1
f 2 17 1
f 2 3 19
f 2 19 18
f 3 4 20
f 3 20 19
f 4 5 21
f 4 21 20
f 5 6 22
f 5 22 21
f 6 7 23
f 6 23 22
f 7 8 24
f 7 24 23
f 8 9 25
f 8 25 24
f 9 10 26
f 9 26 25
f 10 11 27
f 10 27 26
f 11 12 28
f 11 28 27
f 12 13 29
f 12 29 28
f 13 14 30
f 13 30 29
f 14 15 31
f 14 31 30
f 15 16 32
f 15 32 31
f 16 17 33
f 16 33 32
f 17 2 18
f 17 18 33
f 37 36 35
f 37 35 34
f 36 39 38
f 36 38 35
f 34 41 40
f 34 40 37
f 45 44 43
f 45 43 42
f 43 47 46
f 43 46 42
f 42 46 48
f 42 48 45
f 45 48 49
f 45 49 44
f 44 49 47
f 44 47 43
f 37 47 46
f 37 46 36
f 36 46 48
f 36 48 39
f 39 48 49
f 39 49 40
f 40 49 47
f 40 47 37
f 50 51 52
f 50 52 53
f 54 55 56
f 54 56 57
f 53 52 55
f 53 55 54
f 35 58 59
f 35 59 34
f 59 60 41
f 59 41 34
f 35 38 61
f 35 61 58
f 61 60 62
f 61 62 63
f 41 38 39
f 41 39 40
f 64 63 62
f 64 62 65
f 64 54 57
f 64 57 58
f 64 58 61
f 64 61 63
f 65 62 60
f 65 60 59
f 65 59 50
f 65 50 53
f 66 67 68
f 66 68 69
f 66 69 70
f 66 70 71
f 66 71 72
f 66 72 73
f 66 73 74
f 66 74 75
f 66 75 76
f 66 76 77
f 66 77 78
f 66 78 79
f 66 79 80
f 66 80 81
f 66 81 82
f 66 82 67
f 84 83 76
f 84 76 75
f 83 85 77
f 83 77 76
f 85 86 78
f 85 78 77
f 86 87 79
f 86 79 78
f 87 88 80
f 87 80 79
f 88 89 81
f 88 81 80
f 89 90 82
f 89 82 81
f 90 91 67
f 90 67 82
f 91 92 68
f 91 68 67
f 92 93 69
f 92 69 68
f 93 94 70
f 93 70 69
f 94 95 71
f 94 71 70
f 95 96 72
f 95 72 71
f 96 97 73
f 96 73 72
f 97 98 74
f 97 74 73
f 98 84 75
f 98 75 74
f 99 83 84
f 99 84 100
f 101 85 83
f 101 83 99
f 102 86 85
f 102 85 101
f 103 87 86
f 103 86 102
f 104 88 87
f 104 87 103
f 105 89 88
f 105 88 104
f 106 90 89
f 106 89 105
f 107 91 90
f 107 90 106
f 108 52 109
f 108 109 110
f 108 110 111
f 108 111 112
f 108 112 113
f 108 113 114
f 108 114 115
f 108 115 55
f 118 51 117
f 118 117 116
f 116 117 120
f 116 120 119
f 119 120 122
f 119 122 121
f 121 122 123
f 121 123 112
f 112 123 125
f 112 125 124
f 124 125 127
f 124 127 126
f 126 127 129
f 126 129 128
f 128 129 56
f 128 56 130
f 112 124 113
f 124 126 114
f 124 114 113
f 126 128 115
f 126 115 114
f 128 130 55
f 128 55 115
f 111 121 112
f 111 110 119
f 111 119 121
f 110 109 116
f 110 116 119
f 109 52 118
f 109 118 116
