o 3937
v 0.0064000 0.0024000 -0.0080000
v 0.0064000 0.0024000 -0.0096000
v 0.0064000 -0.0024000 -0.0096000
v 0.0064000 -0.0024000 -0.0080000
v 0.0008000 -0.0024000 -0.0096000
v 0.0008000 -0.0024000 -0.0080000
v 0.0008000 0.0024000 -0.0080000
v 0.0008000 0.0024000 -0.0096000
v -0.0064000 -0.0024000 -0.0080000
v -0.0064000 -0.0024000 -0.0096000
v -0.0064000 0.0024000 -0.0096000
v -0.0064000 0.0024000 -0.0080000
v -0.0008000 0.0024000 -0.0096000
v -0.0008000 0.0024000 -0.0080000
v -0.0008000 -0.0024000 -0.0080000
v -0.0008000 -0.0024000 -0.0096000
v 0.0016000 0.0008000 -0.0096000
v 0.0016000 0.0008000 -0.0080000
v 0.0016000 -0.0008000 -0.0080000
v 0.0016000 -0.0008000 -0.0096000
v 0.0008000 -0.0008000 -0.0080000
v 0.0008000 -0.0008000 -0.0096000
v 0.0008000 0.0008000 -0.0096000
v 0.0008000 0.0008000 -0.0080000
v -0.0016000 0.0008000 -0.0096000
v -0.0016000 0.0008000 -0.0080000
v -0.0016000 -0.0008000 -0.0080000
v -0.0016000 -0.0008000 -0.0096000
v -0.0008000 -0.0008000 -0.0080000
v -0.0008000 -0.0008000 -0.0096000
v -0.0008000 0.0008000 -0.0096000
v -0.0008000 0.0008000 -0.0080000
v -0.0080000 0.0040000 -0.0096000
v 0.0080000 0.0040000 -0.0096000
v -0.0080000 -0.0040000 -0.0096000
v 0.0080000 -0.0040000 -0.0096000
v 0.0080000 -0.0040000 -0.0080000
v -0.0080000 -0.0040000 -0.0080000
v -0.0080000 -0.0032000 -0.0080000
v 0.0080000 -0.0032000 -0.0080000
v 0.0064000 -0.0032000 -0.0064000
v -0.0064000 -0.0032000 -0.0064000
v 0.0080000 -0.0032000 -0.0040000
v 0.0064000 -0.0032000 -0.0040000
v -0.0064000 -0.0032000 -0.0040000
v -0.0080000 -0.0032000 -0.0040000
v -0.0080000 0.0040000 -0.0008000
v 0.0080000 0.0040000 -0.0008000
v 0.0064000 0.0028000 -0.0064000
v -0.0064000 0.0028000 -0.0064000
v -0.0064000 0.0028000 -0.0008000
v 0.0064000 0.0028000 -0.0008000
v 0.0064000 0.0018000 -0.0008000
v 0.0080000 0.0018000 -0.0008000
v 0.0008000 0.0007391 -0.0036938
v -0.0008000 0.0007391 -0.0036938
v -0.0008000 0.0008000 -0.0040000
v 0.0008000 0.0008000 -0.0040000
v 0.0008000 0.0005657 -0.0034343
v -0.0008000 0.0005657 -0.0034343
v 0.0008000 0.0003062 -0.0032609
v -0.0008000 0.0003062 -0.0032609
v 0.0008000 0.0000000 -0.0032000
v -0.0008000 0.0000000 -0.0032000
v 0.0008000 -0.0003062 -0.0032609
v -0.0008000 -0.0003062 -0.0032609
v 0.0008000 -0.0005657 -0.0034343
v -0.0008000 -0.0005657 -0.0034343
v 0.0008000 -0.0007391 -0.0036938
v -0.0008000 -0.0007391 -0.0036938
v 0.0008000 -0.0008000 -0.0040000
v -0.0008000 -0.0008000 -0.0040000
v -0.0008000 0.0008000 -0.0064000
v 0.0008000 0.0008000 -0.0064000
v -0.0008000 -0.0008000 -0.0064000
v 0.0008000 -0.0008000 -0.0064000
v 0.0064000 -0.0006123 -0.0054782
v 0.0064000 0.0000000 -0.0056000
v 0.0080000 0.0000000 -0.0056000
v 0.0080000 -0.0006123 -0.0054782
v 0.0064000 -0.0011314 -0.0051314
v 0.0080000 -0.0011314 -0.0051314
v 0.0064000 -0.0014782 -0.0046123
v 0.0080000 -0.0014782 -0.0046123
v 0.0064000 -0.0016000 -0.0040000
v 0.0080000 -0.0016000 -0.0040000
v 0.0064000 -0.0014782 -0.0033877
v 0.0080000 -0.0014782 -0.0033877
v 0.0064000 0.0006123 -0.0054782
v 0.0080000 0.0006123 -0.0054782
v 0.0064000 0.0011314 -0.0051314
v 0.0080000 0.0011314 -0.0051314
v 0.0064000 0.0014782 -0.0046123
v 0.0080000 0.0014782 -0.0046123
v 0.0064000 0.0016000 -0.0040000
v 0.0080000 0.0016000 -0.0040000
v 0.0064000 0.0014782 -0.0033877
v 0.0080000 0.0014782 -0.0033877
v 0.0064000 0.0012694 -0.0030259
v 0.0080000 0.0012694 -0.0030259
v 0.0064000 -0.0016405 -0.0017374
v 0.0064000 -0.0015116 -0.0020202
v 0.0080000 -0.0015116 -0.0020202
v 0.0080000 -0.0016405 -0.0017374
v 0.0064000 -0.0019516 -0.0016202
v 0.0080000 -0.0019516 -0.0016202
v 0.0064000 -0.0022627 -0.0017374
v 0.0080000 -0.0022627 -0.0017374
v 0.0064000 -0.0012694 -0.0030259
v 0.0080000 -0.0012694 -0.0030259
v 0.0080000 -0.0016000 -0.0033877
v 0.0064000 -0.0016000 -0.0033877
v 0.0064000 -0.0029565 -0.0027754
v 0.0080000 -0.0029565 -0.0027754
v 0.0064000 -0.0022627 -0.0017373
v 0.0080000 -0.0022627 -0.0017373
v -0.0064000 -0.0029565 -0.0027754
v -0.0080000 -0.0029565 -0.0027754
v -0.0064000 -0.0022627 -0.0017373
v -0.0080000 -0.0022627 -0.0017373
v 0.0080000 0.0016000 -0.0056000
v 0.0080000 -0.0016000 -0.0056000
v 0.0080000 0.0016000 -0.0033877
v 0.0064000 0.0016000 -0.0033877
v 0.0064000 0.0016000 -0.0056000
v 0.0064000 -0.0016000 -0.0056000
v 0.0064000 -0.0022640 -0.0017360
v -0.0064000 0.0014782 -0.0046123
v -0.0064000 0.0016000 -0.0040000
v -0.0064000 0.0016000 -0.0056000
v -0.0064000 0.0011314 -0.0051314
v -0.0064000 0.0006123 -0.0054782
v -0.0064000 0.0000000 -0.0056000
v -0.0064000 -0.0006123 -0.0054782
v -0.0064000 -0.0016000 -0.0056000
v -0.0064000 -0.0011314 -0.0051314
v -0.0064000 -0.0014782 -0.0046123
v -0.0064000 -0.0016000 -0.0040000
v -0.0080000 0.0014782 -0.0046123
v -0.0080000 0.0016000 -0.0040000
v -0.0080000 0.0016000 -0.0056000
v -0.0080000 0.0011314 -0.0051314
v -0.0080000 0.0006123 -0.0054782
v -0.0080000 0.0000000 -0.0056000
v -0.0080000 -0.0006123 -0.0054782
v -0.0080000 -0.0016000 -0.0056000
v -0.0080000 -0.0011314 -0.0051314
v -0.0080000 -0.0014782 -0.0046123
v -0.0080000 -0.0016000 -0.0040000
v -0.0064000 0.0018000 -0.0008000
v -0.0080000 0.0018000 -0.0008000
v -0.0064000 -0.0014782 -0.0033877
v -0.0080000 -0.0014782 -0.0033877
v -0.0064000 0.0014782 -0.0033877
v -0.0080000 0.0014782 -0.0033877
v -0.0064000 0.0012694 -0.0030259
v -0.0080000 0.0012694 -0.0030259
v -0.0064000 -0.0016405 -0.0017374
v -0.0064000 -0.0015116 -0.0020202
v -0.0080000 -0.0015116 -0.0020202
v -0.0080000 -0.0016405 -0.0017374
v -0.0064000 -0.0019516 -0.0016202
v -0.0080000 -0.0019516 -0.0016202
v -0.0064000 -0.0022627 -0.0017374
v -0.0080000 -0.0022627 -0.0017374
v -0.0080000 -0.0012694 -0.0030259
v -0.0064000 -0.0012694 -0.0030259
v -0.0080000 -0.0016000 -0.0033877
v -0.0064000 -0.0016000 -0.0033877
v -0.0080000 0.0016000 -0.0033877
v -0.0064000 0.0016000 -0.0033877
v -0.0064000 -0.0022640 -0.0017360
usemtl c16
f 4 3 2
f 4 2 1
f 6 5 3
f 6 3 4
f 8 7 1
f 8 1 2
f 7 6 4
f 7 4 1
f 12 11 10
f 12 10 9
f 14 13 11
f 14 11 12
f 16 15 9
f 16 9 10
f 15 14 12
f 15 12 9
f 17 18 19
f 17 19 20
f 20 19 21
f 20 21 22
f 18 17 23
f 18 23 24
f 17 20 22
f 17 22 23
f 28 27 26
f 28 26 25
f 30 29 27
f 30 27 28
f 32 31 25
f 32 25 26
f 31 30 28
f 31 28 25
f 16 30 22
f 16 22 5
f 22 21 6
f 22 6 5
f 16 15 29
f 16 29 30
f 31 13 8
f 31 8 23
f 8 7 24
f 8 24 23
f 31 32 14
f 31 14 13
f 23 22 30
f 23 30 31
f 2 11 33
f 2 33 34
f 11 10 35
f 11 35 33
f 10 3 36
f 10 36 35
f 3 2 34
f 3 34 36
f 38 35 36
f 38 36 37
f 40 39 38
f 40 38 37
f 41 42 39
f 41 39 40
f 43 44 41
f 43 41 40
f 45 46 39
f 45 39 42
f 33 47 48
f 33 48 34
f 49 41 42
f 49 42 50
f 49 50 51
f 49 51 52
f 48 47 51
f 48 51 52
f 48 52 53
f 48 53 54
f 58 57 56
f 58 56 55
f 55 56 60
f 55 60 59
f 59 60 62
f 59 62 61
f 61 62 64
f 61 64 63
f 63 64 66
f 63 66 65
f 65 66 68
f 65 68 67
f 67 68 70
f 67 70 69
f 69 70 72
f 69 72 71
f 57 72 70
f 57 70 56
f 56 70 68
f 56 68 60
f 60 68 66
f 60 66 62
f 62 66 64
f 55 69 71
f 55 71 58
f 59 67 69
f 59 69 55
f 61 65 67
f 61 67 59
f 63 65 61
f 58 74 73
f 58 73 57
f 57 73 75
f 57 75 72
f 72 75 76
f 72 76 71
f 71 76 74
f 71 74 58
f 77 78 79
f 77 79 80
f 81 77 80
f 81 80 82
f 83 81 82
f 83 82 84
f 85 83 84
f 85 84 86
f 87 85 86
f 87 86 88
f 90 79 78
f 90 78 89
f 92 90 89
f 92 89 91
f 94 92 91
f 94 91 93
f 96 94 93
f 96 93 95
f 98 96 95
f 98 95 97
f 54 53 99
f 54 99 100
f 100 99 97
f 100 97 98
f 104 103 102
f 104 102 101
f 106 104 101
f 106 101 105
f 108 106 105
f 108 105 107
f 102 107 105
f 102 105 101
f 104 106 108
f 104 108 103
f 109 102 103
f 109 103 110
f 109 110 88
f 109 88 87
f 88 110 103
f 88 103 111
f 87 112 102
f 87 102 109
f 44 43 114
f 44 114 113
f 113 114 116
f 113 116 115
f 117 118 46
f 117 46 45
f 119 120 118
f 119 118 117
f 116 114 43
f 46 118 120
f 44 113 115
f 119 117 45
f 121 96 94
f 121 94 92
f 121 92 90
f 121 90 79
f 122 79 80
f 122 80 82
f 122 82 84
f 122 84 86
f 123 98 96
f 95 97 124
f 86 88 111
f 112 87 85
f 93 95 125
f 91 93 125
f 89 91 125
f 78 89 125
f 77 78 126
f 81 77 126
f 83 81 126
f 85 83 126
f 111 103 108
f 111 108 43
f 122 111 43
f 122 43 40
f 36 34 40
f 36 40 37
f 40 34 121
f 40 121 122
f 96 121 34
f 96 34 48
f 48 123 96
f 123 48 54
f 123 54 98
f 54 100 98
f 44 112 126
f 44 126 41
f 127 102 112
f 127 112 44
f 125 49 41
f 125 41 126
f 97 99 53
f 53 52 124
f 53 124 97
f 49 95 124
f 49 124 52
f 49 125 95
f 130 129 128
f 130 128 131
f 130 131 132
f 130 132 133
f 135 133 134
f 135 134 136
f 135 136 137
f 135 137 138
f 42 50 130
f 42 130 135
f 139 140 141
f 142 139 141
f 143 142 141
f 144 143 141
f 145 144 146
f 147 145 146
f 148 147 146
f 149 148 146
f 39 33 35
f 39 35 38
f 141 33 39
f 141 39 146
f 150 51 47
f 150 47 151
f 145 144 133
f 145 133 134
f 147 145 134
f 147 134 136
f 148 147 136
f 148 136 137
f 149 148 137
f 149 137 138
f 153 149 138
f 153 138 152
f 132 133 144
f 132 144 143
f 131 132 143
f 131 143 142
f 128 131 142
f 128 142 139
f 129 128 139
f 129 139 140
f 154 129 140
f 154 140 155
f 156 150 151
f 156 151 157
f 155 154 156
f 155 156 157
f 158 159 160
f 158 160 161
f 162 158 161
f 162 161 163
f 164 162 163
f 164 163 165
f 158 162 164
f 158 164 159
f 160 165 163
f 160 163 161
f 166 160 159
f 166 159 167
f 152 153 166
f 152 166 167
f 160 166 153
f 160 153 168
f 159 169 152
f 159 152 167
f 140 155 170
f 171 154 129
f 168 153 149
f 138 152 169
f 168 46 165
f 168 165 160
f 46 168 146
f 46 146 39
f 33 141 140
f 33 140 47
f 170 47 140
f 151 47 170
f 151 170 155
f 157 151 155
f 135 169 45
f 135 45 42
f 172 45 169
f 172 169 159
f 156 154 150
f 171 51 150
f 171 150 154
f 171 129 50
f 171 50 51
f 130 50 129
