o 3938
v 0.0080000 0.0040000 -0.0008000
v 0.0080000 -0.0040000 -0.0008000
v -0.0080000 -0.0040000 -0.0008000
v -0.0080000 0.0040000 -0.0008000
v -0.0080000 -0.0040000 -0.0000000
v 0.0080000 -0.0040000 -0.0000000
v 0.0080000 0.0040000 -0.0000000
v -0.0080000 0.0040000 -0.0000000
v 0.0056000 0.0000000 -0.0000000
v 0.0054782 0.0006123 -0.0000000
v 0.0054782 0.0006123 0.0016000
v 0.0056000 0.0000000 0.0016000
v 0.0051314 0.0011314 -0.0000000
v 0.0051314 0.0011314 0.0016000
v 0.0046123 0.0014782 -0.0000000
v 0.0046123 0.0014782 0.0016000
v 0.0040000 0.0016000 -0.0000000
v 0.0040000 0.0016000 0.0016000
v 0.0033877 0.0014782 -0.0000000
v 0.0033877 0.0014782 0.0016000
v 0.0028686 0.0011314 -0.0000000
v 0.0028686 0.0011314 0.0016000
v 0.0025218 0.0006123 -0.0000000
v 0.0025218 0.0006123 0.0016000
v 0.0024000 0.0000000 -0.0000000
v 0.0024000 0.0000000 0.0016000
v 0.0025218 -0.0006123 -0.0000000
v 0.0025218 -0.0006123 0.0016000
v 0.0028686 -0.0011314 -0.0000000
v 0.0028686 -0.0011314 0.0016000
v 0.0033877 -0.0014782 -0.0000000
v 0.0033877 -0.0014782 0.0016000
v 0.0040000 -0.0016000 -0.0000000
v 0.0040000 -0.0016000 0.0016000
v 0.0046123 -0.0014782 -0.0000000
v 0.0046123 -0.0014782 0.0016000
v 0.0051314 -0.0011314 -0.0000000
v 0.0051314 -0.0011314 0.0016000
v 0.0054782 -0.0006123 -0.0000000
v 0.0054782 -0.0006123 0.0016000
v 0.0064000 0.0000000 -0.0000000
v 0.0062174 0.0009185 -0.0000000
v 0.0062174 0.0009185 0.0016000
v 0.0064000 0.0000000 0.0016000
v 0.0056970 0.0016970 -0.0000000
v 0.0056970 0.0016970 0.0016000
v 0.0049185 0.0022174 -0.0000000
v 0.0049185 0.0022174 0.0016000
v 0.0040000 0.0024000 -0.0000000
v 0.0040000 0.0024000 0.0016000
v 0.0030815 0.0022174 -0.0000000
v 0.0030815 0.0022174 0.0016000
v 0.0023030 0.0016970 -0.0000000
v 0.0023030 0.0016970 0.0016000
v 0.0017826 0.0009185 -0.0000000
v 0.0017826 0.0009185 0.0016000
v 0.0016000 0.0000000 -0.0000000
v 0.0016000 0.0000000 0.0016000
v 0.0017826 -0.0009185 -0.0000000
v 0.0017826 -0.0009185 0.0016000
v 0.0023030 -0.0016970 -0.0000000
v 0.0023030 -0.0016970 0.0016000
v 0.0030815 -0.0022174 -0.0000000
v 0.0030815 -0.0022174 0.0016000
v 0.0040000 -0.0024000 -0.0000000
v 0.0040000 -0.0024000 0.0016000
v 0.0049185 -0.0022174 -0.0000000
v 0.0049185 -0.0022174 0.0016000
v 0.0056970 -0.0016970 -0.0000000
v 0.0056970 -0.0016970 0.0016000
v 0.0062174 -0.0009185 -0.0000000
v 0.0062174 -0.0009185 0.0016000
v -0.0024000 0.0000000 -0.0000000
v -0.0025218 0.0006123 -0.0000000
v -0.0025218 0.0006123 0.0016000
v -0.0024000 0.0000000 0.0016000
v -0.0028686 0.0011314 -0.0000000
v -0.0028686 0.0011314 0.0016000
v -0.0033877 0.0014782 -0.0000000
v -0.0033877 0.0014782 0.0016000
v -0.0040000 0.0016000 -0.0000000
v -0.0040000 0.0016000 0.0016000
v -0.0046123 0.0014782 -0.0000000
v -0.0046123 0.0014782 0.0016000
v -0.0051314 0.0011314 -0.0000000
v -0.0051314 0.0011314 0.0016000
v -0.0054782 0.0006123 -0.0000000
v -0.0054782 0.0006123 0.0016000
v -0.0056000 0.0000000 -0.0000000
v -0.0056000 0.0000000 0.0016000
v -0.0054782 -0.0006123 -0.0000000
v -0.0054782 -0.0006123 0.0016000
v -0.0051314 -0.0011314 -0.0000000
v -0.0051314 -0.0011314 0.0016000
v -0.0046123 -0.0014782 -0.0000000
v -0.0046123 -0.0014782 0.0016000
v -0.0040000 -0.0016000 -0.0000000
v -0.0040000 -0.0016000 0.0016000
v -0.0033877 -0.0014782 -0.0000000
v -0.0033877 -0.0014782 0.0016000
v -0.0028686 -0.0011314 -0.0000000
v -0.0028686 -0.0011314 0.0016000
v -0.0025218 -0.0006123 -0.0000000
v -0.0025218 -0.0006123 0.0016000
v -0.0016000 0.0000000 -0.0000000
v -0.0017826 0.0009185 -0.0000000
v -0.0017826 0.0009185 0.0016000
v -0.0016000 0.0000000 0.0016000
v -0.0023030 0.0016970 -0.0000000
v -0.0023030 0.0016970 0.0016000
v -0.0030815 0.0022174 -0.0000000
v -0.0030815 0.0022174 0.0016000
v -0.0040000 0.0024000 -0.0000000
v -0.0040000 0.0024000 0.0016000
v -0.0049185 0.0022174 -0.0000000
v -0.0049185 0.0022174 0.0016000
v -0.0056970 0.0016970 -0.0000000
v -0.0056970 0.0016970 0.0016000
v -0.0062174 0.0009185 -0.0000000
v -0.0062174 0.0009185 0.0016000
v -0.0064000 0.0000000 -0.0000000
v -0.0064000 0.0000000 0.0016000
v -0.0062174 -0.0009185 -0.0000000
v -0.0062174 -0.0009185 0.0016000
v -0.0056970 -0.0016970 -0.0000000
v -0.0056970 -0.0016970 0.0016000
v -0.0049185 -0.0022174 -0.0000000
v -0.0049185 -0.0022174 0.0016000
v -0.0040000 -0.0024000 -0.0000000
v -0.0040000 -0.0024000 0.0016000
v -0.0030815 -0.0022174 -0.0000000
v -0.0030815 -0.0022174 0.0016000
v -0.0023030 -0.0016970 -0.0000000
v -0.0023030 -0.0016970 0.0016000
v -0.0017826 -0.0009185 -0.0000000
v -0.0017826 -0.0009185 0.0016000
v 0.0064000 0.0014782 -0.0046123
v 0.0064000 0.0016000 -0.0040000
v 0.0064000 0.0016000 -0.0056000
v 0.0064000 0.0011314 -0.0051314
v 0.0064000 0.0006123 -0.0054782
v 0.0064000 0.0000000 -0.0056000
v 0.0064000 -0.0006123 -0.0054782
v 0.0064000 -0.0016000 -0.0056000
v 0.0064000 -0.0011314 -0.0051314
v 0.0064000 -0.0014782 -0.0046123
v 0.0064000 -0.0016000 -0.0040000
v 0.0064000 -0.0014782 -0.0033877
v 0.0064000 -0.0016000 -0.0024000
v 0.0064000 -0.0011314 -0.0028686
v 0.0064000 -0.0006123 -0.0025218
v 0.0064000 0.0000000 -0.0024000
v 0.0064000 0.0006123 -0.0025218
v 0.0064000 0.0016000 -0.0024000
v 0.0064000 0.0011314 -0.0028686
v 0.0064000 0.0014782 -0.0033877
v 0.0064000 0.0000000 -0.0040000
v 0.0064000 0.0008000 -0.0040000
v 0.0064000 0.0007391 -0.0043062
v 0.0064000 0.0005657 -0.0045657
v 0.0064000 0.0003062 -0.0047391
v 0.0064000 0.0000000 -0.0048000
v 0.0064000 -0.0003062 -0.0047391
v 0.0064000 -0.0005657 -0.0045657
v 0.0064000 -0.0007391 -0.0043062
v 0.0064000 -0.0008000 -0.0040000
v 0.0064000 -0.0007391 -0.0036938
v 0.0064000 -0.0005657 -0.0034343
v 0.0064000 -0.0003062 -0.0032609
v 0.0064000 0.0000000 -0.0032000
v 0.0064000 0.0003062 -0.0032609
v 0.0064000 0.0005657 -0.0034343
v 0.0064000 0.0007391 -0.0036938
v 0.0080000 0.0006123 -0.0054782
v 0.0080000 0.0000000 -0.0056000
v 0.0080000 0.0011314 -0.0051314
v 0.0080000 0.0014782 -0.0046123
v 0.0080000 0.0016000 -0.0040000
v 0.0080000 0.0014782 -0.0033877
v 0.0080000 0.0011314 -0.0028686
v 0.0080000 0.0006123 -0.0025218
v 0.0080000 0.0000000 -0.0024000
v 0.0080000 -0.0006123 -0.0025218
v 0.0080000 -0.0011314 -0.0028686
v 0.0080000 -0.0014782 -0.0033877
v 0.0080000 -0.0016000 -0.0040000
v 0.0080000 -0.0014782 -0.0046123
v 0.0080000 -0.0011314 -0.0051314
v 0.0080000 -0.0006123 -0.0054782
v 0.0080000 0.0007391 -0.0036938
v 0.0080000 0.0008000 -0.0040000
v 0.0080000 0.0005657 -0.0034343
v 0.0080000 0.0003062 -0.0032609
v 0.0080000 0.0000000 -0.0032000
v 0.0080000 -0.0003062 -0.0032609
v 0.0080000 -0.0005657 -0.0034343
v 0.0080000 -0.0007391 -0.0036938
v 0.0080000 -0.0008000 -0.0040000
v 0.0080000 -0.0007391 -0.0043062
v 0.0080000 -0.0005657 -0.0045657
v 0.0080000 -0.0003062 -0.0047391
v 0.0080000 0.0000000 -0.0048000
v 0.0080000 0.0003062 -0.0047391
v 0.0080000 0.0005657 -0.0045657
v 0.0080000 0.0007391 -0.0043062
v 0.0064000 0.0024000 -0.0008000
v 0.0064000 -0.0024000 -0.0008000
v 0.0064000 0.0024000 -0.0040000
v 0.0064000 0.0022174 -0.0049185
v 0.0064000 0.0016970 -0.0056970
v 0.0064000 0.0000000 -0.0064000
v 0.0064000 0.0009185 -0.0062174
v 0.0064000 -0.0024000 -0.0040000
v 0.0064000 -0.0022174 -0.0049185
v 0.0064000 -0.0016970 -0.0056970
v 0.0064000 -0.0009185 -0.0062174
v 0.0056000 0.0022174 -0.0049185
v 0.0056000 0.0024000 -0.0040000
v 0.0056000 0.0016970 -0.0056970
v 0.0056000 0.0009185 -0.0062174
v 0.0056000 0.0000000 -0.0064000
v 0.0056000 -0.0009185 -0.0062174
v 0.0056000 -0.0016970 -0.0056970
v 0.0056000 -0.0022174 -0.0049185
v 0.0056000 -0.0024000 -0.0040000
v 0.0056000 0.0024000 -0.0008000
v 0.0056000 -0.0024000 -0.0008000
v 0.0056000 -0.0008000 -0.0062000
v 0.0056000 0.0008000 -0.0062000
v 0.0056000 0.0008000 -0.0008000
v 0.0056000 -0.0008000 -0.0008000
v -0.0064000 0.0014782 -0.0046123
v -0.0064000 0.0016000 -0.0040000
v -0.0064000 0.0016000 -0.0056000
v -0.0064000 0.0011314 -0.0051314
v -0.0064000 0.0006123 -0.0054782
v -0.0064000 0.0000000 -0.0056000
v -0.0064000 -0.0006123 -0.0054782
v -0.0064000 -0.0016000 -0.0056000
v -0.0064000 -0.0011314 -0.0051314
v -0.0064000 -0.0014782 -0.0046123
v -0.0064000 -0.0016000 -0.0040000
v -0.0064000 -0.0014782 -0.0033877
v -0.0064000 -0.0016000 -0.0024000
v -0.0064000 -0.0011314 -0.0028686
v -0.0064000 -0.0006123 -0.0025218
v -0.0064000 0.0000000 -0.0024000
v -0.0064000 0.0006123 -0.0025218
v -0.0064000 0.0016000 -0.0024000
v -0.0064000 0.0011314 -0.0028686
v -0.0064000 0.0014782 -0.0033877
v -0.0064000 0.0000000 -0.0040000
v -0.0064000 0.0008000 -0.0040000
v -0.0064000 0.0007391 -0.0043062
v -0.0064000 0.0005657 -0.0045657
v -0.0064000 0.0003062 -0.0047391
v -0.0064000 0.0000000 -0.0048000
v -0.0064000 -0.0003062 -0.0047391
v -0.0064000 -0.0005657 -0.0045657
v -0.0064000 -0.0007391 -0.0043062
v -0.0064000 -0.0008000 -0.0040000
v -0.0064000 -0.0007391 -0.0036938
v -0.0064000 -0.0005657 -0.0034343
v -0.0064000 -0.0003062 -0.0032609
v -0.0064000 0.0000000 -0.0032000
v -0.0064000 0.0003062 -0.0032609
v -0.0064000 0.0005657 -0.0034343
v -0.0064000 0.0007391 -0.0036938
v -0.0080000 0.0006123 -0.0054782
v -0.0080000 0.0000000 -0.0056000
v -0.0080000 0.0011314 -0.0051314
v -0.0080000 0.0014782 -0.0046123
v -0.0080000 0.0016000 -0.0040000
v -0.0080000 0.0014782 -0.0033877
v -0.0080000 0.0011314 -0.0028686
v -0.0080000 0.0006123 -0.0025218
v -0.0080000 0.0000000 -0.0024000
v -0.0080000 -0.0006123 -0.0025218
v -0.0080000 -0.0011314 -0.0028686
v -0.0080000 -0.0014782 -0.0033877
v -0.0080000 -0.0016000 -0.0040000
v -0.0080000 -0.0014782 -0.0046123
v -0.0080000 -0.0011314 -0.0051314
v -0.0080000 -0.0006123 -0.0054782
v -0.0080000 0.0007391 -0.0036938
v -0.0080000 0.0008000 -0.0040000
v -0.0080000 0.0005657 -0.0034343
v -0.0080000 0.0003062 -0.0032609
v -0.0080000 0.0000000 -0.0032000
v -0.0080000 -0.0003062 -0.0032609
v -0.0080000 -0.0005657 -0.0034343
v -0.0080000 -0.0007391 -0.0036938
v -0.0080000 -0.0008000 -0.0040000
v -0.0080000 -0.0007391 -0.0043062
v -0.0080000 -0.0005657 -0.0045657
v -0.0080000 -0.0003062 -0.0047391
v -0.0080000 0.0000000 -0.0048000
v -0.0080000 0.0003062 -0.0047391
v -0.0080000 0.0005657 -0.0045657
v -0.0080000 0.0007391 -0.0043062
v -0.0064000 0.0024000 -0.0008000
v -0.0064000 -0.0024000 -0.0008000
v -0.0064000 0.0024000 -0.0040000
v -0.0064000 0.0022174 -0.0049185
v -0.0064000 0.0016970 -0.0056970
v -0.0064000 0.0000000 -0.0064000
v -0.0064000 0.0009185 -0.0062174
v -0.0064000 -0.0024000 -0.0040000
v -0.0064000 -0.0022174 -0.0049185
v -0.0064000 -0.0016970 -0.0056970
v -0.0064000 -0.0009185 -0.0062174
v -0.0056000 0.0022174 -0.0049185
v -0.0056000 0.0024000 -0.0040000
v -0.0056000 0.0016970 -0.0056970
v -0.0056000 0.0009185 -0.0062174
v -0.0056000 0.0000000 -0.0064000
v -0.0056000 -0.0009185 -0.0062174
v -0.0056000 -0.0016970 -0.0056970
v -0.0056000 -0.0022174 -0.0049185
v -0.0056000 -0.0024000 -0.0040000
v -0.0056000 0.0024000 -0.0008000
v -0.0056000 -0.0024000 -0.0008000
v -0.0056000 -0.0008000 -0.0062000
v -0.0056000 0.0008000 -0.0062000
v -0.0056000 0.0008000 -0.0008000
v -0.0056000 -0.0008000 -0.0008000
v 0.0008000 0.0008000 -0.0032000
v 0.0008000 -0.0008000 -0.0032000
v -0.0008000 -0.0008000 -0.0032000
v -0.0008000 0.0008000 -0.0032000
v 0.0008000 0.0008000 -0.0062000
v 0.0008000 -0.0008000 -0.0062000
v -0.0008000 0.0008000 -0.0062000
v -0.0008000 -0.0008000 -0.0062000
usemtl c16
f 1 2 3
f 1 3 4
f 5 6 7
f 5 7 8
f 8 7 1
f 8 1 4
f 5 8 4
f 5 4 3
f 6 5 3
f 6 3 2
f 7 6 2
f 7 2 1
f 9 10 11
f 9 11 12
f 10 13 14
f 10 14 11
f 13 15 16
f 13 16 14
f 15 17 18
f 15 18 16
f 17 19 20
f 17 20 18
f 19 21 22
f 19 22 20
f 21 23 24
f 21 24 22
f 23 25 26
f 23 26 24
f 25 27 28
f 25 28 26
f 27 29 30
f 27 30 28
f 29 31 32
f 29 32 30
f 31 33 34
f 31 34 32
f 33 35 36
f 33 36 34
f 35 37 38
f 35 38 36
f 37 39 40
f 37 40 38
f 39 9 12
f 39 12 40
f 41 42 43
f 41 43 44
f 42 45 46
f 42 46 43
f 45 47 48
f 45 48 46
f 47 49 50
f 47 50 48
f 49 51 52
f 49 52 50
f 51 53 54
f 51 54 52
f 53 55 56
f 53 56 54
f 55 57 58
f 55 58 56
f 57 59 60
f 57 60 58
f 59 61 62
f 59 62 60
f 61 63 64
f 61 64 62
f 63 65 66
f 63 66 64
f 65 67 68
f 65 68 66
f 67 69 70
f 67 70 68
f 69 71 72
f 69 72 70
f 71 41 44
f 71 44 72
f 52 20 18
f 52 18 50
f 54 22 20
f 54 20 52
f 56 24 22
f 56 22 54
f 58 26 24
f 58 24 56
f 60 28 26
f 60 26 58
f 62 30 28
f 62 28 60
f 64 32 30
f 64 30 62
f 66 34 32
f 66 32 64
f 68 36 34
f 68 34 66
f 70 38 36
f 70 36 68
f 72 40 38
f 72 38 70
f 44 12 40
f 44 40 72
f 43 11 12
f 43 12 44
f 46 14 11
f 46 11 43
f 48 16 14
f 48 14 46
f 50 18 16
f 50 16 48
f 73 74 75
f 73 75 76
f 74 77 78
f 74 78 75
f 77 79 80
f 77 80 78
f 79 81 82
f 79 82 80
f 81 83 84
f 81 84 82
f 83 85 86
f 83 86 84
f 85 87 88
f 85 88 86
f 87 89 90
f 87 90 88
f 89 91 92
f 89 92 90
f 91 93 94
f 91 94 92
f 93 95 96
f 93 96 94
f 95 97 98
f 95 98 96
f 97 99 100
f 97 100 98
f 99 101 102
f 99 102 100
f 101 103 104
f 101 104 102
f 103 73 76
f 103 76 104
f 105 106 107
f 105 107 108
f 106 109 110
f 106 110 107
f 109 111 112
f 109 112 110
f 111 113 114
f 111 114 112
f 113 115 116
f 113 116 114
f 115 117 118
f 115 118 116
f 117 119 120
f 117 120 118
f 119 121 122
f 119 122 120
f 121 123 124
f 121 124 122
f 123 125 126
f 123 126 124
f 125 127 128
f 125 128 126
f 127 129 130
f 127 130 128
f 129 131 132
f 129 132 130
f 131 133 134
f 131 134 132
f 133 135 136
f 133 136 134
f 135 105 108
f 135 108 136
f 116 84 82
f 116 82 114
f 118 86 84
f 118 84 116
f 120 88 86
f 120 86 118
f 122 90 88
f 122 88 120
f 124 92 90
f 124 90 122
f 126 94 92
f 126 92 124
f 128 96 94
f 128 94 126
f 130 98 96
f 130 96 128
f 132 100 98
f 132 98 130
f 134 102 100
f 134 100 132
f 136 104 102
f 136 102 134
f 108 76 104
f 108 104 136
f 107 75 76
f 107 76 108
f 110 78 75
f 110 75 107
f 112 80 78
f 112 78 110
f 114 82 80
f 114 80 112
f 139 138 137
f 139 137 140
f 139 140 141
f 139 141 142
f 144 142 143
f 144 143 145
f 144 145 146
f 144 146 147
f 149 147 148
f 149 148 150
f 149 150 151
f 149 151 152
f 154 152 153
f 154 153 155
f 154 155 156
f 154 156 138
f 159 158 157
f 160 159 157
f 161 160 157
f 162 161 157
f 163 162 157
f 164 163 157
f 165 164 157
f 166 165 157
f 167 166 157
f 168 167 157
f 169 168 157
f 170 169 157
f 171 170 157
f 172 171 157
f 173 172 157
f 158 173 157
f 142 141 174
f 142 174 175
f 141 140 176
f 141 176 174
f 140 137 177
f 140 177 176
f 137 138 178
f 137 178 177
f 138 156 179
f 138 179 178
f 156 155 180
f 156 180 179
f 155 153 181
f 155 181 180
f 153 152 182
f 153 182 181
f 152 151 183
f 152 183 182
f 151 150 184
f 151 184 183
f 150 148 185
f 150 185 184
f 148 147 186
f 148 186 185
f 147 146 187
f 147 187 186
f 146 145 188
f 146 188 187
f 145 143 189
f 145 189 188
f 143 142 175
f 143 175 189
f 179 190 191
f 179 191 178
f 180 192 190
f 180 190 179
f 181 193 192
f 181 192 180
f 182 194 193
f 182 193 181
f 183 195 194
f 183 194 182
f 184 196 195
f 184 195 183
f 185 197 196
f 185 196 184
f 186 198 197
f 186 197 185
f 187 199 198
f 187 198 186
f 188 200 199
f 188 199 187
f 189 201 200
f 189 200 188
f 175 202 201
f 175 201 189
f 174 203 202
f 174 202 175
f 176 204 203
f 176 203 174
f 177 205 204
f 177 204 176
f 178 191 205
f 178 205 177
f 162 161 203
f 162 203 202
f 161 160 204
f 161 204 203
f 160 159 205
f 160 205 204
f 159 158 191
f 159 191 205
f 158 173 190
f 158 190 191
f 173 172 192
f 173 192 190
f 172 171 193
f 172 193 192
f 171 170 194
f 171 194 193
f 170 169 195
f 170 195 194
f 169 168 196
f 169 196 195
f 168 167 197
f 168 197 196
f 167 166 198
f 167 198 197
f 166 165 199
f 166 199 198
f 165 164 200
f 165 200 199
f 164 163 201
f 164 201 200
f 163 162 202
f 163 202 201
f 154 206 207
f 154 207 152
f 210 209 208
f 211 212 210
f 138 208 206
f 138 206 154
f 210 208 138
f 210 138 139
f 210 139 142
f 210 142 211
f 213 214 215
f 215 216 211
f 207 213 147
f 207 147 149
f 149 152 207
f 147 213 215
f 147 215 144
f 142 144 215
f 142 215 211
f 218 208 209
f 218 209 217
f 217 209 210
f 217 210 219
f 219 210 212
f 219 212 220
f 220 212 211
f 220 211 221
f 221 211 216
f 221 216 222
f 222 216 215
f 222 215 223
f 223 215 214
f 223 214 224
f 224 214 213
f 224 213 225
f 206 208 218
f 206 218 226
f 227 225 213
f 227 213 207
f 220 221 228
f 220 228 229
f 218 217 219
f 218 219 220
f 230 218 220
f 230 220 229
f 218 230 226
f 222 223 224
f 222 224 225
f 228 221 222
f 222 225 231
f 222 231 228
f 231 225 227
f 232 233 234
f 235 232 234
f 236 235 234
f 237 236 234
f 238 237 239
f 240 238 239
f 241 240 239
f 242 241 239
f 243 242 244
f 245 243 244
f 246 245 244
f 247 246 244
f 248 247 249
f 250 248 249
f 251 250 249
f 233 251 249
f 252 253 254
f 252 254 255
f 252 255 256
f 252 256 257
f 252 257 258
f 252 258 259
f 252 259 260
f 252 260 261
f 252 261 262
f 252 262 263
f 252 263 264
f 252 264 265
f 252 265 266
f 252 266 267
f 252 267 268
f 252 268 253
f 270 269 236
f 270 236 237
f 269 271 235
f 269 235 236
f 271 272 232
f 271 232 235
f 272 273 233
f 272 233 232
f 273 274 251
f 273 251 233
f 274 275 250
f 274 250 251
f 275 276 248
f 275 248 250
f 276 277 247
f 276 247 248
f 277 278 246
f 277 246 247
f 278 279 245
f 278 245 246
f 279 280 243
f 279 243 245
f 280 281 242
f 280 242 243
f 281 282 241
f 281 241 242
f 282 283 240
f 282 240 241
f 283 284 238
f 283 238 240
f 284 270 237
f 284 237 238
f 273 286 285
f 273 285 274
f 274 285 287
f 274 287 275
f 275 287 288
f 275 288 276
f 276 288 289
f 276 289 277
f 277 289 290
f 277 290 278
f 278 290 291
f 278 291 279
f 279 291 292
f 279 292 280
f 280 292 293
f 280 293 281
f 281 293 294
f 281 294 282
f 282 294 295
f 282 295 283
f 283 295 296
f 283 296 284
f 284 296 297
f 284 297 270
f 270 297 298
f 270 298 269
f 269 298 299
f 269 299 271
f 271 299 300
f 271 300 272
f 272 300 286
f 272 286 273
f 297 298 256
f 297 256 257
f 298 299 255
f 298 255 256
f 299 300 254
f 299 254 255
f 300 286 253
f 300 253 254
f 286 285 268
f 286 268 253
f 285 287 267
f 285 267 268
f 287 288 266
f 287 266 267
f 288 289 265
f 288 265 266
f 289 290 264
f 289 264 265
f 290 291 263
f 290 263 264
f 291 292 262
f 291 262 263
f 292 293 261
f 292 261 262
f 293 294 260
f 293 260 261
f 294 295 259
f 294 259 260
f 295 296 258
f 295 258 259
f 296 297 257
f 296 257 258
f 247 302 301
f 247 301 249
f 303 304 305
f 305 307 306
f 249 301 303
f 249 303 233
f 234 233 303
f 234 303 305
f 306 237 234
f 306 234 305
f 310 309 308
f 306 311 310
f 244 242 308
f 244 308 302
f 302 247 244
f 239 310 308
f 239 308 242
f 306 310 239
f 306 239 237
f 312 304 303
f 312 303 313
f 314 305 304
f 314 304 312
f 315 307 305
f 315 305 314
f 316 306 307
f 316 307 315
f 317 311 306
f 317 306 316
f 318 310 311
f 318 311 317
f 319 309 310
f 319 310 318
f 320 308 309
f 320 309 319
f 321 313 303
f 321 303 301
f 302 308 320
f 302 320 322
f 324 323 316
f 324 316 315
f 315 314 312
f 315 312 313
f 324 315 313
f 324 313 325
f 321 325 313
f 320 319 318
f 320 318 317
f 317 316 323
f 323 326 320
f 323 320 317
f 322 320 326
f 327 328 329
f 327 329 330
f 331 229 228
f 331 228 332
f 331 332 328
f 331 328 327
f 334 323 324
f 334 324 333
f 330 329 334
f 330 334 333
f 329 328 231
f 329 231 326
f 323 334 329
f 323 329 326
f 328 332 228
f 328 228 231
f 230 327 330
f 230 330 325
f 330 333 324
f 330 324 325
f 229 331 327
f 229 327 230
