o 4070
v 0.0040000 0.0040000 -0.0096000
v 0.0024000 0.0024000 -0.0096000
v -0.0024000 0.0024000 -0.0096000
v -0.0040000 0.0040000 -0.0096000
v -0.0024000 -0.0024000 -0.0096000
v -0.0040000 -0.0040000 -0.0096000
v 0.0024000 -0.0024000 -0.0096000
v 0.0040000 -0.0040000 -0.0096000
v -0.0040000 -0.0024000 -0.0080000
v -0.0040000 -0.0040000 -0.0080000
v 0.0040000 -0.0040000 -0.0080000
v 0.0040000 -0.0024000 -0.0080000
v 0.0024000 -0.0008000 -0.0080000
v 0.0024000 -0.0024000 -0.0080000
v -0.0024000 -0.0024000 -0.0080000
v -0.0024000 -0.0008000 -0.0080000
v -0.0024000 0.0040000 -0.0064000
v -0.0024000 0.0024000 -0.0064000
v 0.0024000 0.0024000 -0.0064000
v 0.0024000 0.0040000 -0.0064000
v 0.0024000 0.0040000 -0.0016000
v 0.0024000 -0.0008000 -0.0016000
v -0.0024000 -0.0008000 -0.0016000
v -0.0024000 0.0040000 -0.0016000
v -0.0040000 0.0040000 -0.0000000
v -0.0040000 -0.0024000 -0.0000000
v 0.0040000 -0.0024000 -0.0000000
v 0.0040000 0.0040000 -0.0000000
v 0.0014782 -0.0008000 -0.0033877
v 0.0016000 -0.0008000 -0.0040000
v 0.0016000 -0.0008000 -0.0024000
v 0.0011314 -0.0008000 -0.0028686
v 0.0006123 -0.0008000 -0.0025218
v 0.0000000 -0.0008000 -0.0024000
v -0.0006123 -0.0008000 -0.0025218
v -0.0016000 -0.0008000 -0.0024000
v -0.0011314 -0.0008000 -0.0028686
v -0.0014782 -0.0008000 -0.0033877
v -0.0016000 -0.0008000 -0.0040000
v -0.0014782 -0.0008000 -0.0046123
v -0.0016000 -0.0008000 -0.0056000
v -0.0011314 -0.0008000 -0.0051314
v -0.0006123 -0.0008000 -0.0054782
v 0.0000000 -0.0008000 -0.0056000
v 0.0006123 -0.0008000 -0.0054782
v 0.0016000 -0.0008000 -0.0056000
v 0.0011314 -0.0008000 -0.0051314
v 0.0014782 -0.0008000 -0.0046123
v 0.0016000 -0.0024000 -0.0040000
v 0.0014782 -0.0024000 -0.0046123
v 0.0011314 -0.0024000 -0.0051314
v 0.0006123 -0.0024000 -0.0054782
v 0.0000000 -0.0024000 -0.0056000
v -0.0006123 -0.0024000 -0.0054782
v -0.0011314 -0.0024000 -0.0051314
v -0.0014782 -0.0024000 -0.0046123
v -0.0016000 -0.0024000 -0.0040000
v -0.0014782 -0.0024000 -0.0033877
v -0.0011314 -0.0024000 -0.0028686
v -0.0006123 -0.0024000 -0.0025218
v 0.0000000 -0.0024000 -0.0024000
v 0.0006123 -0.0024000 -0.0025218
v 0.0011314 -0.0024000 -0.0028686
v 0.0014782 -0.0024000 -0.0033877
v 0.0022174 -0.0024000 -0.0049185
v 0.0024000 -0.0024000 -0.0040000
v 0.0024000 -0.0024000 -0.0064000
v 0.0016970 -0.0024000 -0.0056970
v 0.0009185 -0.0024000 -0.0062174
v 0.0000000 -0.0024000 -0.0064000
v -0.0009185 -0.0024000 -0.0062174
v -0.0024000 -0.0024000 -0.0064000
v -0.0016970 -0.0024000 -0.0056970
v -0.0022174 -0.0024000 -0.0049185
v -0.0024000 -0.0024000 -0.0040000
v -0.0022174 -0.0024000 -0.0030815
v -0.0024000 -0.0024000 -0.0016000
v -0.0016970 -0.0024000 -0.0023030
v -0.0009185 -0.0024000 -0.0017826
v 0.0000000 -0.0024000 -0.0016000
v 0.0009185 -0.0024000 -0.0017826
v 0.0024000 -0.0024000 -0.0016000
v 0.0016970 -0.0024000 -0.0023030
v 0.0022174 -0.0024000 -0.0030815
v 0.0024000 0.0000000 0.0016000
v 0.0022174 0.0009185 0.0016000
v 0.0022174 0.0009185 -0.0000000
v 0.0024000 0.0000000 -0.0000000
v 0.0016970 0.0016970 0.0016000
v 0.0016970 0.0016970 -0.0000000
v 0.0009185 0.0022174 0.0016000
v 0.0009185 0.0022174 -0.0000000
v 0.0000000 0.0024000 0.0016000
v 0.0000000 0.0024000 -0.0000000
v -0.0009185 0.0022174 0.0016000
v -0.0009185 0.0022174 -0.0000000
v -0.0016970 0.0016970 0.0016000
v -0.0016970 0.0016970 -0.0000000
v -0.0022174 0.0009185 0.0016000
v -0.0022174 0.0009185 -0.0000000
v -0.0024000 0.0000000 0.0016000
v -0.0024000 0.0000000 -0.0000000
v -0.0022174 -0.0009185 0.0016000
v -0.0022174 -0.0009185 -0.0000000
v -0.0016970 -0.0016970 0.0016000
v -0.0016970 -0.0016970 -0.0000000
v -0.0009185 -0.0022174 0.0016000
v -0.0009185 -0.0022174 -0.0000000
v 0.0000000 -0.0024000 0.0016000
v 0.0000000 -0.0024000 -0.0000000
v 0.0009185 -0.0022174 0.0016000
v 0.0009185 -0.0022174 -0.0000000
v 0.0016970 -0.0016970 0.0016000
v 0.0016970 -0.0016970 -0.0000000
v 0.0022174 -0.0009185 0.0016000
v 0.0022174 -0.0009185 -0.0000000
v 0.0000000 0.0000000 0.0016000
v 0.0014782 -0.0040000 -0.0046123
v 0.0016000 -0.0040000 -0.0040000
v 0.0011314 -0.0040000 -0.0051314
v 0.0006123 -0.0040000 -0.0054782
v 0.0000000 -0.0040000 -0.0056000
v -0.0006123 -0.0040000 -0.0054782
v -0.0011314 -0.0040000 -0.0051314
v -0.0014782 -0.0040000 -0.0046123
v -0.0016000 -0.0040000 -0.0040000
v -0.0014782 -0.0040000 -0.0033877
v -0.0011314 -0.0040000 -0.0028686
v -0.0006123 -0.0040000 -0.0025218
v 0.0000000 -0.0040000 -0.0024000
v 0.0006123 -0.0040000 -0.0025218
v 0.0011314 -0.0040000 -0.0028686
v 0.0014782 -0.0040000 -0.0033877
v 0.0022174 -0.0040000 -0.0049185
v 0.0024000 -0.0040000 -0.0040000
v 0.0016970 -0.0040000 -0.0056970
v 0.0009185 -0.0040000 -0.0062174
v 0.0000000 -0.0040000 -0.0064000
v -0.0009185 -0.0040000 -0.0062174
v -0.0016970 -0.0040000 -0.0056970
v -0.0022174 -0.0040000 -0.0049185
v -0.0024000 -0.0040000 -0.0040000
v -0.0022174 -0.0040000 -0.0030815
v -0.0016970 -0.0040000 -0.0023030
v -0.0009185 -0.0040000 -0.0017826
v 0.0000000 -0.0040000 -0.0016000
v 0.0009185 -0.0040000 -0.0017826
v 0.0016970 -0.0040000 -0.0023030
v 0.0022174 -0.0040000 -0.0030815
usemtl c16
f 1 2 3
f 1 3 4
f 4 3 5
f 4 5 6
f 6 5 7
f 6 7 8
f 8 7 2
f 8 2 1
f 9 10 11
f 9 11 12
f 13 14 15
f 13 15 16
f 17 18 19
f 17 19 20
f 21 22 23
f 21 23 24
f 25 26 27
f 25 27 28
f 31 30 29
f 31 29 32
f 31 32 33
f 31 33 34
f 36 34 35
f 36 35 37
f 36 37 38
f 36 38 39
f 41 39 40
f 41 40 42
f 41 42 43
f 41 43 44
f 46 44 45
f 46 45 47
f 46 47 48
f 46 48 30
f 49 50 48
f 49 48 30
f 50 51 47
f 50 47 48
f 51 52 45
f 51 45 47
f 52 53 44
f 52 44 45
f 53 54 43
f 53 43 44
f 54 55 42
f 54 42 43
f 55 56 40
f 55 40 42
f 56 57 39
f 56 39 40
f 57 58 38
f 57 38 39
f 58 59 37
f 58 37 38
f 59 60 35
f 59 35 37
f 60 61 34
f 60 34 35
f 61 62 33
f 61 33 34
f 62 63 32
f 62 32 33
f 63 64 29
f 63 29 32
f 64 49 30
f 64 30 29
f 67 66 65
f 67 65 68
f 67 68 69
f 67 69 70
f 72 70 71
f 72 71 73
f 72 73 74
f 72 74 75
f 77 75 76
f 77 76 78
f 77 78 79
f 77 79 80
f 82 80 81
f 82 81 83
f 82 83 84
f 82 84 66
f 17 20 1
f 17 1 4
f 24 17 4
f 24 4 25
f 21 24 25
f 21 25 28
f 20 21 28
f 20 28 1
f 2 19 18
f 2 18 3
f 41 46 13
f 41 13 16
f 36 41 16
f 36 16 23
f 31 36 23
f 31 23 22
f 46 31 22
f 46 22 13
f 12 67 72
f 12 72 9
f 9 72 77
f 9 77 26
f 26 77 82
f 26 82 27
f 27 82 67
f 27 67 12
f 15 14 7
f 15 7 5
f 8 11 10
f 8 10 6
f 1 12 11
f 1 11 8
f 1 28 27
f 1 27 12
f 14 13 2
f 14 2 7
f 2 13 22
f 2 22 19
f 22 21 20
f 22 20 19
f 3 16 15
f 3 15 5
f 23 16 3
f 23 3 18
f 17 24 23
f 17 23 18
f 10 9 4
f 10 4 6
f 26 25 4
f 26 4 9
f 88 87 86
f 88 86 85
f 87 90 89
f 87 89 86
f 90 92 91
f 90 91 89
f 92 94 93
f 92 93 91
f 94 96 95
f 94 95 93
f 96 98 97
f 96 97 95
f 98 100 99
f 98 99 97
f 100 102 101
f 100 101 99
f 102 104 103
f 102 103 101
f 104 106 105
f 104 105 103
f 106 108 107
f 106 107 105
f 108 110 109
f 108 109 107
f 110 112 111
f 110 111 109
f 112 114 113
f 112 113 111
f 114 116 115
f 114 115 113
f 116 88 85
f 116 85 115
f 117 85 86
f 117 86 89
f 117 89 91
f 117 91 93
f 117 93 95
f 117 95 97
f 117 97 99
f 117 99 101
f 117 101 103
f 117 103 105
f 117 105 107
f 117 107 109
f 117 109 111
f 117 111 113
f 117 113 115
f 117 115 85
f 119 118 50
f 119 50 49
f 118 120 51
f 118 51 50
f 120 121 52
f 120 52 51
f 121 122 53
f 121 53 52
f 122 123 54
f 122 54 53
f 123 124 55
f 123 55 54
f 124 125 56
f 124 56 55
f 125 126 57
f 125 57 56
f 126 127 58
f 126 58 57
f 127 128 59
f 127 59 58
f 128 129 60
f 128 60 59
f 129 130 61
f 129 61 60
f 130 131 62
f 130 62 61
f 131 132 63
f 131 63 62
f 132 133 64
f 132 64 63
f 133 119 49
f 133 49 64
f 135 134 65
f 135 65 66
f 134 136 68
f 134 68 65
f 136 137 69
f 136 69 68
f 137 138 70
f 137 70 69
f 138 139 71
f 138 71 70
f 139 140 73
f 139 73 71
f 140 141 74
f 140 74 73
f 141 142 75
f 141 75 74
f 142 143 76
f 142 76 75
f 143 144 78
f 143 78 76
f 144 145 79
f 144 79 78
f 145 146 80
f 145 80 79
f 146 147 81
f 146 81 80
f 147 148 83
f 147 83 81
f 148 149 84
f 148 84 83
f 149 135 66
f 149 66 84
f 138 122 123
f 138 123 139
f 139 123 124
f 139 124 140
f 140 124 125
f 140 125 141
f 141 125 126
f 141 126 142
f 142 126 127
f 142 127 143
f 143 127 128
f 143 128 144
f 144 128 129
f 144 129 145
f 145 129 130
f 145 130 146
f 146 130 131
f 146 131 147
f 147 131 132
f 147 132 148
f 148 132 133
f 148 133 149
f 149 133 119
f 149 119 135
f 135 119 118
f 135 118 134
f 134 118 120
f 134 120 136
f 136 120 121
f 136 121 137
f 137 121 122
f 137 122 138
