o 4079
v 0.0024000 0.0000000 -0.0016000
v 0.0022174 0.0009185 -0.0016000
v 0.0022174 0.0009185 -0.0032000
v 0.0024000 0.0000000 -0.0032000
v 0.0016970 0.0016970 -0.0016000
v 0.0016970 0.0016970 -0.0032000
v 0.0009185 0.0022174 -0.0016000
v 0.0009185 0.0022174 -0.0032000
v 0.0000000 0.0024000 -0.0016000
v 0.0000000 0.0024000 -0.0032000
v -0.0009185 0.0022174 -0.0016000
v -0.0009185 0.0022174 -0.0032000
v -0.0016970 0.0016970 -0.0016000
v -0.0016970 0.0016970 -0.0032000
v -0.0022174 0.0009185 -0.0016000
v -0.0022174 0.0009185 -0.0032000
v -0.0024000 0.0000000 -0.0016000
v -0.0024000 0.0000000 -0.0032000
v -0.0022174 -0.0009185 -0.0016000
v -0.0022174 -0.0009185 -0.0032000
v -0.0016970 -0.0016970 -0.0016000
v -0.0016970 -0.0016970 -0.0032000
v -0.0009185 -0.0022174 -0.0016000
v -0.0009185 -0.0022174 -0.0032000
v 0.0000000 -0.0024000 -0.0016000
v 0.0000000 -0.0024000 -0.0032000
v 0.0009185 -0.0022174 -0.0016000
v 0.0009185 -0.0022174 -0.0032000
v 0.0016970 -0.0016970 -0.0016000
v 0.0016970 -0.0016970 -0.0032000
v 0.0022174 -0.0009185 -0.0016000
v 0.0022174 -0.0009185 -0.0032000
v 0.0032000 0.0000000 -0.0016000
v 0.0029565 0.0012246 -0.0016000
v 0.0029565 0.0012246 -0.0032000
v 0.0032000 0.0000000 -0.0032000
v 0.0022627 0.0022627 -0.0016000
v 0.0022627 0.0022627 -0.0032000
v 0.0012246 0.0029565 -0.0016000
v 0.0012246 0.0029565 -0.0032000
v 0.0000000 0.0032000 -0.0016000
v 0.0000000 0.0032000 -0.0032000
v -0.0012246 0.0029565 -0.0016000
v -0.0012246 0.0029565 -0.0032000
v -0.0022627 0.0022627 -0.0016000
v -0.0022627 0.0022627 -0.0032000
v -0.0029565 0.0012246 -0.0016000
v -0.0029565 0.0012246 -0.0032000
v -0.0032000 0.0000000 -0.0016000
v -0.0032000 0.0000000 -0.0032000
v -0.0029565 -0.0012246 -0.0016000
v -0.0029565 -0.0012246 -0.0032000
v -0.0022627 -0.0022627 -0.0016000
v -0.0022627 -0.0022627 -0.0032000
v -0.0012246 -0.0029565 -0.0016000
v -0.0012246 -0.0029565 -0.0032000
v 0.0000000 -0.0032000 -0.0016000
v 0.0000000 -0.0032000 -0.0032000
v 0.0012246 -0.0029565 -0.0016000
v 0.0012246 -0.0029565 -0.0032000
v 0.0022627 -0.0022627 -0.0016000
v 0.0022627 -0.0022627 -0.0032000
v 0.0029565 -0.0012246 -0.0016000
v 0.0029565 -0.0012246 -0.0032000
v -0.0064000 0.0064000 -0.0016000
v 0.0064000 0.0064000 -0.0016000
v 0.0064000 -0.0064000 -0.0016000
v -0.0064000 -0.0064000 -0.0016000
v -0.0064000 0.0064000 -0.0032000
v 0.0064000 0.0064000 -0.0032000
v -0.0064000 -0.0064000 -0.0032000
v 0.0064000 -0.0064000 -0.0032000
v 0.0080000 0.0080000 -0.0032000
v -0.0080000 0.0080000 -0.0032000
v -0.0064000 -0.0080000 -0.0032000
v 0.0064000 -0.0080000 -0.0032000
v 0.0080000 -0.0064000 -0.0032000
v -0.0080000 -0.0064000 -0.0032000
v 0.0078782 -0.0070123 -0.0032000
v 0.0075314 -0.0075314 -0.0032000
v 0.0070123 -0.0078782 -0.0032000
v -0.0078782 -0.0070123 -0.0032000
v -0.0075314 -0.0075314 -0.0032000
v -0.0070123 -0.0078782 -0.0032000
v -0.0080000 0.0080000 -0.0000000
v 0.0080000 0.0080000 -0.0000000
v -0.0080000 0.0087840 0.0012240
v 0.0080000 0.0087840 0.0012240
v -0.0080000 0.0092000 0.0032000
v 0.0080000 0.0092000 0.0032000
v -0.0080000 0.0099000 0.0144000
v 0.0080000 0.0099000 0.0144000
v -0.0064000 0.0099000 0.0144000
v -0.0064000 0.0100000 0.0160000
v 0.0064000 0.0100000 0.0160000
v 0.0064000 0.0099000 0.0144000
v 0.0078782 0.0099383 0.0150123
v 0.0075314 0.0099707 0.0155314
v 0.0070123 0.0099924 0.0158782
v -0.0078782 0.0099383 0.0150123
v -0.0075314 0.0099707 0.0155314
v -0.0070123 0.0099924 0.0158782
v -0.0064000 -0.0064000 -0.0000000
v -0.0064000 -0.0080000 -0.0000000
v 0.0064000 -0.0080000 -0.0000000
v 0.0064000 -0.0064000 -0.0000000
v 0.0080000 -0.0064000 -0.0000000
v 0.0078782 -0.0070123 -0.0000000
v 0.0075314 -0.0075314 -0.0000000
v 0.0070123 -0.0078782 -0.0000000
v -0.0080000 -0.0064000 -0.0000000
v -0.0078782 -0.0070123 -0.0000000
v -0.0075314 -0.0075314 -0.0000000
v -0.0070123 -0.0078782 -0.0000000
v -0.0080000 0.0040000 -0.0000000
v 0.0080000 0.0040000 -0.0000000
v -0.0056000 0.0062200 -0.0000000
v -0.0056000 0.0040000 -0.0000000
v 0.0056000 0.0040000 -0.0000000
v 0.0056000 0.0062200 -0.0000000
v 0.0056000 0.0052246 0.0002435
v 0.0080000 0.0052246 0.0002435
v 0.0056000 0.0062627 0.0009373
v 0.0080000 0.0062627 0.0009373
v 0.0056000 0.0069565 0.0019754
v 0.0080000 0.0069565 0.0019754
v 0.0056000 0.0072000 0.0032000
v 0.0080000 0.0072000 0.0032000
v -0.0056000 0.0052246 0.0002435
v -0.0080000 0.0052246 0.0002435
v -0.0056000 0.0062627 0.0009373
v -0.0080000 0.0062627 0.0009373
v -0.0056000 0.0069565 0.0019754
v -0.0080000 0.0069565 0.0019754
v -0.0056000 0.0072000 0.0032000
v -0.0080000 0.0072000 0.0032000
v 0.0080000 0.0079000 0.0144000
v 0.0064000 0.0079000 0.0144000
v -0.0064000 0.0079000 0.0144000
v -0.0080000 0.0079000 0.0144000
v 0.0056000 0.0080000 0.0160000
v 0.0064000 0.0080000 0.0160000
v -0.0056000 0.0080000 0.0160000
v -0.0064000 0.0080000 0.0160000
v 0.0078782 0.0079383 0.0150123
v 0.0075314 0.0079707 0.0155314
v 0.0070123 0.0079924 0.0158782
v -0.0078782 0.0079383 0.0150123
v -0.0075314 0.0079707 0.0155314
v -0.0070123 0.0079924 0.0158782
v -0.0056000 0.0068000 0.0004000
v 0.0056000 0.0068000 0.0004000
v -0.0056000 0.0076956 0.0016692
v 0.0056000 0.0076956 0.0016692
v 0.0056000 0.0080000 0.0032000
v -0.0056000 0.0080000 0.0032000
v -0.0056000 0.0068284 0.0003716
v 0.0056000 0.0068284 0.0003716
v 0.0080000 0.0072000 -0.0000000
v -0.0080000 0.0072000 -0.0000000
v 0.0080000 0.0070000 -0.0000000
v -0.0080000 0.0070000 -0.0000000
v 0.0056000 0.0072000 -0.0000000
v -0.0056000 0.0072000 -0.0000000
v 0.0056000 0.0080000 -0.0000000
v -0.0056000 0.0080000 -0.0000000
v 0.0064000 -0.0040000 0.0016000
v 0.0062174 -0.0030815 0.0016000
v 0.0062174 -0.0030815 -0.0000000
v 0.0064000 -0.0040000 -0.0000000
v 0.0056970 -0.0023030 0.0016000
v 0.0056970 -0.0023030 -0.0000000
v 0.0049185 -0.0017826 0.0016000
v 0.0049185 -0.0017826 -0.0000000
v 0.0040000 -0.0016000 0.0016000
v 0.0040000 -0.0016000 -0.0000000
v 0.0030815 -0.0017826 0.0016000
v 0.0030815 -0.0017826 -0.0000000
v 0.0023030 -0.0023030 0.0016000
v 0.0023030 -0.0023030 -0.0000000
v 0.0017826 -0.0030815 0.0016000
v 0.0017826 -0.0030815 -0.0000000
v 0.0016000 -0.0040000 0.0016000
v 0.0016000 -0.0040000 -0.0000000
v 0.0017826 -0.0049185 0.0016000
v 0.0017826 -0.0049185 -0.0000000
v 0.0023030 -0.0056970 0.0016000
v 0.0023030 -0.0056970 -0.0000000
v 0.0030815 -0.0062174 0.0016000
v 0.0030815 -0.0062174 -0.0000000
v 0.0040000 -0.0064000 0.0016000
v 0.0040000 -0.0064000 -0.0000000
v 0.0049185 -0.0062174 0.0016000
v 0.0049185 -0.0062174 -0.0000000
v 0.0056970 -0.0056970 0.0016000
v 0.0056970 -0.0056970 -0.0000000
v 0.0062174 -0.0049185 0.0016000
v 0.0062174 -0.0049185 -0.0000000
v 0.0040000 -0.0040000 0.0016000
v -0.0016000 -0.0040000 0.0016000
v -0.0017826 -0.0030815 0.0016000
v -0.0017826 -0.0030815 -0.0000000
v -0.0016000 -0.0040000 -0.0000000
v -0.0023030 -0.0023030 0.0016000
v -0.0023030 -0.0023030 -0.0000000
v -0.0030815 -0.0017826 0.0016000
v -0.0030815 -0.0017826 -0.0000000
v -0.0040000 -0.0016000 0.0016000
v -0.0040000 -0.0016000 -0.0000000
v -0.0049185 -0.0017826 0.0016000
v -0.0049185 -0.0017826 -0.0000000
v -0.0056970 -0.0023030 0.0016000
v -0.0056970 -0.0023030 -0.0000000
v -0.0062174 -0.0030815 0.0016000
v -0.0062174 -0.0030815 -0.0000000
v -0.0064000 -0.0040000 0.0016000
v -0.0064000 -0.0040000 -0.0000000
v -0.0062174 -0.0049185 0.0016000
v -0.0062174 -0.0049185 -0.0000000
v -0.0056970 -0.0056970 0.0016000
v -0.0056970 -0.0056970 -0.0000000
v -0.0049185 -0.0062174 0.0016000
v -0.0049185 -0.0062174 -0.0000000
v -0.0040000 -0.0064000 0.0016000
v -0.0040000 -0.0064000 -0.0000000
v -0.0030815 -0.0062174 0.0016000
v -0.0030815 -0.0062174 -0.0000000
v -0.0023030 -0.0056970 0.0016000
v -0.0023030 -0.0056970 -0.0000000
v -0.0017826 -0.0049185 0.0016000
v -0.0017826 -0.0049185 -0.0000000
v -0.0040000 -0.0040000 0.0016000
usemtl c16
f 4 3 2
f 4 2 1
f 3 6 5
f 3 5 2
f 6 8 7
f 6 7 5
f 8 10 9
f 8 9 7
f 10 12 11
f 10 11 9
f 12 14 13
f 12 13 11
f 14 16 15
f 14 15 13
f 16 18 17
f 16 17 15
f 18 20 19
f 18 19 17
f 20 22 21
f 20 21 19
f 22 24 23
f 22 23 21
f 24 26 25
f 24 25 23
f 26 28 27
f 26 27 25
f 28 30 29
f 28 29 27
f 30 32 31
f 30 31 29
f 32 4 1
f 32 1 31
f 36 35 34
f 36 34 33
f 35 38 37
f 35 37 34
f 38 40 39
f 38 39 37
f 40 42 41
f 40 41 39
f 42 44 43
f 42 43 41
f 44 46 45
f 44 45 43
f 46 48 47
f 46 47 45
f 48 50 49
f 48 49 47
f 50 52 51
f 50 51 49
f 52 54 53
f 52 53 51
f 54 56 55
f 54 55 53
f 56 58 57
f 56 57 55
f 58 60 59
f 58 59 57
f 60 62 61
f 60 61 59
f 62 64 63
f 62 63 61
f 64 36 33
f 64 33 63
f 42 10 12
f 42 12 44
f 44 12 14
f 44 14 46
f 46 14 16
f 46 16 48
f 48 16 18
f 48 18 50
f 50 18 20
f 50 20 52
f 52 20 22
f 52 22 54
f 54 22 24
f 54 24 56
f 56 24 26
f 56 26 58
f 58 26 28
f 58 28 60
f 60 28 30
f 60 30 62
f 62 30 32
f 62 32 64
f 64 32 4
f 64 4 36
f 36 4 3
f 36 3 35
f 35 3 6
f 35 6 38
f 38 6 8
f 38 8 40
f 40 8 10
f 40 10 42
f 68 67 66
f 68 66 65
f 66 70 69
f 66 69 65
f 65 69 71
f 65 71 68
f 68 71 72
f 68 72 67
f 67 72 70
f 67 70 66
f 73 70 69
f 73 69 74
f 75 71 72
f 75 72 76
f 77 72 70
f 77 70 73
f 71 78 74
f 71 74 69
f 72 77 79
f 72 79 80
f 72 80 81
f 72 81 76
f 82 78 71
f 83 82 71
f 84 83 71
f 75 84 71
f 74 85 86
f 74 86 73
f 85 87 88
f 85 88 86
f 87 89 90
f 87 90 88
f 89 91 92
f 89 92 90
f 93 94 95
f 93 95 96
f 96 92 97
f 96 97 98
f 96 98 99
f 96 99 95
f 100 91 93
f 101 100 93
f 102 101 93
f 94 102 93
f 103 104 105
f 103 105 106
f 108 107 106
f 109 108 106
f 110 109 106
f 105 110 106
f 103 111 112
f 103 112 113
f 103 113 114
f 103 114 104
f 115 111 107
f 115 107 116
f 117 118 119
f 117 119 120
f 119 121 122
f 119 122 116
f 121 123 124
f 121 124 122
f 123 125 126
f 123 126 124
f 125 127 128
f 125 128 126
f 115 130 129
f 115 129 118
f 130 132 131
f 130 131 129
f 132 134 133
f 132 133 131
f 134 136 135
f 134 135 133
f 127 128 137
f 127 137 138
f 135 139 140
f 135 140 136
f 141 127 138
f 141 138 142
f 143 144 139
f 143 139 135
f 138 137 145
f 138 145 146
f 138 146 147
f 138 147 142
f 148 140 139
f 149 148 139
f 150 149 139
f 144 150 139
f 151 117 120
f 151 120 152
f 156 155 154
f 156 154 153
f 153 154 158
f 153 158 157
f 143 156 155
f 143 155 141
f 104 75 76
f 104 76 105
f 107 108 79
f 107 79 77
f 108 109 80
f 108 80 79
f 109 110 81
f 109 81 80
f 110 105 76
f 110 76 81
f 78 82 112
f 78 112 111
f 82 83 113
f 82 113 112
f 83 84 114
f 83 114 113
f 84 75 104
f 84 104 114
f 73 86 107
f 73 107 77
f 85 74 78
f 85 78 111
f 122 116 159
f 124 122 159
f 126 124 159
f 128 126 159
f 160 115 130
f 160 130 132
f 160 132 134
f 160 134 136
f 161 86 88
f 161 88 90
f 162 89 87
f 162 87 85
f 161 90 92
f 161 92 137
f 162 140 91
f 162 91 89
f 92 97 145
f 92 145 137
f 97 98 146
f 97 146 145
f 98 99 147
f 98 147 146
f 99 95 142
f 99 142 147
f 140 148 100
f 140 100 91
f 148 149 101
f 148 101 100
f 149 150 102
f 149 102 101
f 150 144 94
f 150 94 102
f 94 144 142
f 94 142 95
f 163 119 121
f 163 121 123
f 163 123 125
f 163 125 127
f 129 118 164
f 131 129 164
f 133 131 164
f 135 133 164
f 163 127 141
f 163 141 165
f 164 166 143
f 164 143 135
f 170 169 168
f 170 168 167
f 169 172 171
f 169 171 168
f 172 174 173
f 172 173 171
f 174 176 175
f 174 175 173
f 176 178 177
f 176 177 175
f 178 180 179
f 178 179 177
f 180 182 181
f 180 181 179
f 182 184 183
f 182 183 181
f 184 186 185
f 184 185 183
f 186 188 187
f 186 187 185
f 188 190 189
f 188 189 187
f 190 192 191
f 190 191 189
f 192 194 193
f 192 193 191
f 194 196 195
f 194 195 193
f 196 198 197
f 196 197 195
f 198 170 167
f 198 167 197
f 199 167 168
f 199 168 171
f 199 171 173
f 199 173 175
f 199 175 177
f 199 177 179
f 199 179 181
f 199 181 183
f 199 183 185
f 199 185 187
f 199 187 189
f 199 189 191
f 199 191 193
f 199 193 195
f 199 195 197
f 199 197 167
f 203 202 201
f 203 201 200
f 202 205 204
f 202 204 201
f 205 207 206
f 205 206 204
f 207 209 208
f 207 208 206
f 209 211 210
f 209 210 208
f 211 213 212
f 211 212 210
f 213 215 214
f 213 214 212
f 215 217 216
f 215 216 214
f 217 219 218
f 217 218 216
f 219 221 220
f 219 220 218
f 221 223 222
f 221 222 220
f 223 225 224
f 223 224 222
f 225 227 226
f 225 226 224
f 227 229 228
f 227 228 226
f 229 231 230
f 229 230 228
f 231 203 200
f 231 200 230
f 232 200 201
f 232 201 204
f 232 204 206
f 232 206 208
f 232 208 210
f 232 210 212
f 232 212 214
f 232 214 216
f 232 216 218
f 232 218 220
f 232 220 222
f 232 222 224
f 232 224 226
f 232 226 228
f 232 228 230
f 232 230 200
