o 4213
v -0.0160000 -0.0160000 -0.0000000
v 0.0160000 -0.0160000 -0.0000000
v 0.0160000 -0.0160000 -0.0032000
v -0.0160000 -0.0160000 -0.0032000
v 0.0160000 0.0128000 -0.0000000
v 0.0160000 0.0128000 -0.0032000
v -0.0160000 0.0128000 -0.0032000
v -0.0160000 0.0128000 -0.0000000
v -0.0144000 0.0128000 -0.0000000
v -0.0088000 0.0128000 -0.0000000
v -0.0072000 0.0128000 -0.0000000
v -0.0008000 0.0128000 -0.0000000
v 0.0008000 0.0128000 -0.0000000
v 0.0072000 0.0128000 -0.0000000
v 0.0088000 0.0128000 -0.0000000
v 0.0144000 0.0128000 -0.0000000
v 0.0008000 0.0144000 -0.0000000
v 0.0072000 0.0144000 -0.0000000
v -0.0072000 0.0144000 -0.0000000
v -0.0008000 0.0144000 -0.0000000
v 0.0088000 0.0144000 -0.0000000
v 0.0144000 0.0144000 -0.0000000
v -0.0088000 0.0144000 -0.0000000
v -0.0144000 0.0144000 -0.0000000
v 0.0144000 0.0128000 -0.0032000
v 0.0088000 0.0128000 -0.0032000
v 0.0072000 0.0128000 -0.0032000
v 0.0088000 0.0144000 -0.0032000
v 0.0072000 0.0144000 -0.0032000
v 0.0008000 0.0128000 -0.0032000
v -0.0008000 0.0128000 -0.0032000
v 0.0008000 0.0144000 -0.0032000
v -0.0008000 0.0144000 -0.0032000
v -0.0072000 0.0128000 -0.0032000
v -0.0088000 0.0128000 -0.0032000
v -0.0072000 0.0144000 -0.0032000
v -0.0088000 0.0144000 -0.0032000
v -0.0144000 0.0128000 -0.0032000
v 0.0088000 0.0144000 -0.0016000
v 0.0088000 0.0150123 -0.0030782
v 0.0088000 0.0155314 -0.0027314
v 0.0088000 0.0158782 -0.0022123
v 0.0088000 0.0160000 -0.0016000
v 0.0088000 0.0158782 -0.0009877
v 0.0088000 0.0155314 -0.0004686
v 0.0088000 0.0150123 -0.0001218
v 0.0144000 0.0150123 -0.0030782
v 0.0144000 0.0144000 -0.0032000
v 0.0144000 0.0155314 -0.0027314
v 0.0144000 0.0158782 -0.0022123
v 0.0144000 0.0160000 -0.0016000
v 0.0144000 0.0158782 -0.0009877
v 0.0144000 0.0155314 -0.0004686
v 0.0144000 0.0150123 -0.0001218
v 0.0008000 0.0144000 -0.0016000
v 0.0008000 0.0150123 -0.0030782
v 0.0008000 0.0155314 -0.0027314
v 0.0008000 0.0158782 -0.0022123
v 0.0008000 0.0160000 -0.0016000
v 0.0008000 0.0158782 -0.0009877
v 0.0008000 0.0155314 -0.0004686
v 0.0008000 0.0150123 -0.0001218
v 0.0072000 0.0150123 -0.0030782
v 0.0072000 0.0155314 -0.0027314
v 0.0072000 0.0158782 -0.0022123
v 0.0072000 0.0160000 -0.0016000
v 0.0072000 0.0158782 -0.0009877
v 0.0072000 0.0155314 -0.0004686
v 0.0072000 0.0150123 -0.0001218
v -0.0072000 0.0144000 -0.0016000
v -0.0072000 0.0150123 -0.0030782
v -0.0072000 0.0155314 -0.0027314
v -0.0072000 0.0158782 -0.0022123
v -0.0072000 0.0160000 -0.0016000
v -0.0072000 0.0158782 -0.0009877
v -0.0072000 0.0155314 -0.0004686
v -0.0072000 0.0150123 -0.0001218
v -0.0008000 0.0150123 -0.0030782
v -0.0008000 0.0155314 -0.0027314
v -0.0008000 0.0158782 -0.0022123
v -0.0008000 0.0160000 -0.0016000
v -0.0008000 0.0158782 -0.0009877
v -0.0008000 0.0155314 -0.0004686
v -0.0008000 0.0150123 -0.0001218
v -0.0088000 0.0144000 -0.0016000
v -0.0088000 0.0150123 -0.0030782
v -0.0088000 0.0155314 -0.0027314
v -0.0088000 0.0158782 -0.0022123
v -0.0088000 0.0160000 -0.0016000
v -0.0088000 0.0158782 -0.0009877
v -0.0088000 0.0155314 -0.0004686
v -0.0088000 0.0150123 -0.0001218
v -0.0144000 0.0150123 -0.0030782
v -0.0144000 0.0144000 -0.0032000
v -0.0144000 0.0155314 -0.0027314
v -0.0144000 0.0158782 -0.0022123
v -0.0144000 0.0160000 -0.0016000
v -0.0144000 0.0158782 -0.0009877
v -0.0144000 0.0155314 -0.0004686
v -0.0144000 0.0150123 -0.0001218
v 0.0072000 0.0144000 -0.0016000
v -0.0008000 0.0144000 -0.0016000
v 0.0142650 0.0154500 -0.0016000
v 0.0142650 0.0153701 -0.0011982
v 0.0144000 0.0156934 -0.0010642
v 0.0144000 0.0158000 -0.0016000
v 0.0142650 0.0151424 -0.0008576
v 0.0144000 0.0153900 -0.0006101
v 0.0142650 0.0148018 -0.0006299
v 0.0144000 0.0149358 -0.0003065
v 0.0142650 0.0144000 -0.0005500
v 0.0144000 0.0144000 -0.0002000
v 0.0142650 0.0139982 -0.0006299
v 0.0144000 0.0138642 -0.0003065
v 0.0142650 0.0136576 -0.0008576
v 0.0144000 0.0134100 -0.0006101
v 0.0142650 0.0134299 -0.0011982
v 0.0144000 0.0131066 -0.0010642
v 0.0142650 0.0133500 -0.0016000
v 0.0144000 0.0130000 -0.0016000
v 0.0142650 0.0134299 -0.0020018
v 0.0144000 0.0131066 -0.0021358
v 0.0142650 0.0136576 -0.0023424
v 0.0144000 0.0134100 -0.0025899
v 0.0142650 0.0139982 -0.0025701
v 0.0144000 0.0138642 -0.0028935
v 0.0142650 0.0144000 -0.0026500
v 0.0144000 0.0144000 -0.0030000
v 0.0142650 0.0148018 -0.0025701
v 0.0144000 0.0149358 -0.0028935
v 0.0142650 0.0151424 -0.0023424
v 0.0144000 0.0153900 -0.0025899
v 0.0142650 0.0153701 -0.0020018
v 0.0144000 0.0156934 -0.0021358
v 0.0141300 0.0149250 -0.0016000
v 0.0141300 0.0148850 -0.0013991
v 0.0141300 0.0147712 -0.0012288
v 0.0141300 0.0146009 -0.0011150
v 0.0141300 0.0144000 -0.0010750
v 0.0141300 0.0141991 -0.0011150
v 0.0141300 0.0140288 -0.0012288
v 0.0141300 0.0139150 -0.0013991
v 0.0141300 0.0138750 -0.0016000
v 0.0141300 0.0139150 -0.0018009
v 0.0141300 0.0140288 -0.0019712
v 0.0141300 0.0141991 -0.0020850
v 0.0141300 0.0144000 -0.0021250
v 0.0141300 0.0146009 -0.0020850
v 0.0141300 0.0147712 -0.0019712
v 0.0141300 0.0148850 -0.0018009
v 0.0141000 0.0144000 -0.0016000
v 0.0141300 0.0147713 -0.0012287
v 0.0141300 0.0140287 -0.0012287
v 0.0141300 0.0140287 -0.0019713
v 0.0141300 0.0147713 -0.0019713
v 0.0144000 0.0149358 -0.0003066
v 0.0144000 0.0137877 -0.0001218
v 0.0144000 0.0138642 -0.0003066
v 0.0144000 0.0132686 -0.0004686
v 0.0144000 0.0129218 -0.0009877
v 0.0144000 0.0128000 -0.0016000
v 0.0144000 0.0129218 -0.0022123
v 0.0144000 0.0132686 -0.0027314
v 0.0144000 0.0137877 -0.0030782
v 0.0144000 0.0138642 -0.0028934
v 0.0144000 0.0149358 -0.0028934
v -0.0142650 0.0154500 -0.0016000
v -0.0142650 0.0153701 -0.0011982
v -0.0144000 0.0156934 -0.0010642
v -0.0144000 0.0158000 -0.0016000
v -0.0142650 0.0151424 -0.0008576
v -0.0144000 0.0153900 -0.0006101
v -0.0142650 0.0148018 -0.0006299
v -0.0144000 0.0149358 -0.0003065
v -0.0142650 0.0144000 -0.0005500
v -0.0144000 0.0144000 -0.0002000
v -0.0142650 0.0139982 -0.0006299
v -0.0144000 0.0138642 -0.0003065
v -0.0142650 0.0136576 -0.0008576
v -0.0144000 0.0134100 -0.0006101
v -0.0142650 0.0134299 -0.0011982
v -0.0144000 0.0131066 -0.0010642
v -0.0142650 0.0133500 -0.0016000
v -0.0144000 0.0130000 -0.0016000
v -0.0142650 0.0134299 -0.0020018
v -0.0144000 0.0131066 -0.0021358
v -0.0142650 0.0136576 -0.0023424
v -0.0144000 0.0134100 -0.0025899
v -0.0142650 0.0139982 -0.0025701
v -0.0144000 0.0138642 -0.0028935
v -0.0142650 0.0144000 -0.0026500
v -0.0144000 0.0144000 -0.0030000
v -0.0142650 0.0148018 -0.0025701
v -0.0144000 0.0149358 -0.0028935
v -0.0142650 0.0151424 -0.0023424
v -0.0144000 0.0153900 -0.0025899
v -0.0142650 0.0153701 -0.0020018
v -0.0144000 0.0156934 -0.0021358
v -0.0141300 0.0149250 -0.0016000
v -0.0141300 0.0148850 -0.0013991
v -0.0141300 0.0147712 -0.0012288
v -0.0141300 0.0146009 -0.0011150
v -0.0141300 0.0144000 -0.0010750
v -0.0141300 0.0141991 -0.0011150
v -0.0141300 0.0140288 -0.0012288
v -0.0141300 0.0139150 -0.0013991
v -0.0141300 0.0138750 -0.0016000
v -0.0141300 0.0139150 -0.0018009
v -0.0141300 0.0140288 -0.0019712
v -0.0141300 0.0141991 -0.0020850
v -0.0141300 0.0144000 -0.0021250
v -0.0141300 0.0146009 -0.0020850
v -0.0141300 0.0147712 -0.0019712
v -0.0141300 0.0148850 -0.0018009
v -0.0141000 0.0144000 -0.0016000
v -0.0141300 0.0147713 -0.0012287
v -0.0141300 0.0140287 -0.0012287
v -0.0141300 0.0140287 -0.0019713
v -0.0141300 0.0147713 -0.0019713
v -0.0144000 0.0149358 -0.0003066
v -0.0144000 0.0137877 -0.0001218
v -0.0144000 0.0138642 -0.0003066
v -0.0144000 0.0132686 -0.0004686
v -0.0144000 0.0129218 -0.0009877
v -0.0144000 0.0128000 -0.0016000
v -0.0144000 0.0129218 -0.0022123
v -0.0144000 0.0132686 -0.0027314
v -0.0144000 0.0137877 -0.0030782
v -0.0144000 0.0138642 -0.0028934
v -0.0144000 0.0149358 -0.0028934
v 0.0104000 0.0144000 -0.0032000
v 0.0104000 0.0112000 -0.0032000
v 0.0056000 0.0112000 -0.0032000
v 0.0056000 0.0144000 -0.0032000
v 0.0024000 0.0144000 -0.0032000
v 0.0024000 0.0112000 -0.0032000
v -0.0104000 0.0112000 -0.0032000
v -0.0104000 0.0144000 -0.0032000
v -0.0056000 0.0144000 -0.0032000
v -0.0056000 0.0112000 -0.0032000
v -0.0024000 0.0112000 -0.0032000
v -0.0024000 0.0144000 -0.0032000
v 0.0144000 -0.0144000 -0.0032000
v 0.0144000 0.0112000 -0.0032000
v -0.0144000 0.0112000 -0.0032000
v -0.0144000 -0.0144000 -0.0032000
v 0.0128000 0.0112000 -0.0032000
v 0.0128000 0.0144000 -0.0032000
v -0.0128000 0.0144000 -0.0032000
v -0.0128000 0.0112000 -0.0032000
v -0.0144000 -0.0144000 -0.0012000
v 0.0144000 -0.0144000 -0.0012000
v 0.0144000 0.0112000 -0.0012000
v -0.0144000 0.0112000 -0.0012000
v 0.0128000 0.0112000 -0.0012000
v -0.0128000 0.0112000 -0.0012000
v 0.0104000 0.0112000 -0.0012000
v 0.0085000 0.0112000 -0.0012000
v 0.0085000 0.0112000 -0.0008000
v 0.0056000 0.0112000 -0.0012000
v 0.0024000 0.0112000 -0.0012000
v -0.0085000 0.0112000 -0.0008000
v -0.0024000 0.0112000 -0.0012000
v -0.0056000 0.0112000 -0.0012000
v -0.0085000 0.0112000 -0.0012000
v -0.0104000 0.0112000 -0.0012000
v 0.0128000 0.0144000 -0.0012000
v 0.0104000 0.0144000 -0.0012000
v 0.0024000 0.0144000 -0.0012000
v 0.0056000 0.0144000 -0.0012000
v -0.0056000 0.0144000 -0.0012000
v -0.0024000 0.0144000 -0.0012000
v -0.0104000 0.0144000 -0.0012000
v -0.0128000 0.0144000 -0.0012000
v -0.0085000 0.0017000 -0.0008000
v -0.0085000 0.0017000 -0.0012000
v 0.0085000 0.0017000 -0.0012000
v 0.0085000 0.0017000 -0.0008000
v 0.0000000 0.0017000 -0.0008000
v 0.0084269 0.0005908 -0.0008000
v 0.0082102 -0.0004998 -0.0008000
v 0.0078532 -0.0015530 -0.0008000
v 0.0073610 -0.0025500 -0.0008000
v 0.0067439 -0.0034748 -0.0008000
v 0.0060104 -0.0043104 -0.0008000
v 0.0051748 -0.0050439 -0.0008000
v 0.0042500 -0.0056610 -0.0008000
v 0.0032530 -0.0061532 -0.0008000
v 0.0021998 -0.0065102 -0.0008000
v 0.0011092 -0.0067269 -0.0008000
v 0.0000000 -0.0068000 -0.0008000
v -0.0011092 -0.0067269 -0.0008000
v -0.0021998 -0.0065102 -0.0008000
v -0.0032530 -0.0061532 -0.0008000
v -0.0042500 -0.0056610 -0.0008000
v -0.0051748 -0.0050439 -0.0008000
v -0.0060104 -0.0043104 -0.0008000
v -0.0067439 -0.0034748 -0.0008000
v -0.0073610 -0.0025500 -0.0008000
v -0.0078532 -0.0015530 -0.0008000
v -0.0082102 -0.0004998 -0.0008000
v -0.0084269 0.0005908 -0.0008000
v 0.0084269 0.0005908 -0.0012000
v 0.0082102 -0.0004998 -0.0012000
v 0.0078532 -0.0015530 -0.0012000
v 0.0073610 -0.0025500 -0.0012000
v 0.0067439 -0.0034748 -0.0012000
v 0.0060104 -0.0043104 -0.0012000
v 0.0051748 -0.0050439 -0.0012000
v 0.0042500 -0.0056610 -0.0012000
v 0.0032530 -0.0061532 -0.0012000
v 0.0021998 -0.0065102 -0.0012000
v 0.0011092 -0.0067269 -0.0012000
v 0.0000000 -0.0068000 -0.0012000
v -0.0011092 -0.0067269 -0.0012000
v -0.0021998 -0.0065102 -0.0012000
v -0.0032530 -0.0061532 -0.0012000
v -0.0042500 -0.0056610 -0.0012000
v -0.0051748 -0.0050439 -0.0012000
v -0.0060104 -0.0043104 -0.0012000
v -0.0067439 -0.0034748 -0.0012000
v -0.0073610 -0.0025500 -0.0012000
v -0.0078532 -0.0015530 -0.0012000
v -0.0082102 -0.0004998 -0.0012000
v -0.0084269 0.0005908 -0.0012000
v 0.0085000 -0.0068000 -0.0012000
v -0.0085000 -0.0068000 -0.0012000
v -0.0056000 -0.0080000 -0.0012000
v -0.0057826 -0.0070815 -0.0012000
v -0.0057826 -0.0070815 -0.0032000
v -0.0056000 -0.0080000 -0.0032000
v -0.0063030 -0.0063030 -0.0012000
v -0.0063030 -0.0063030 -0.0032000
v -0.0070815 -0.0057826 -0.0012000
v -0.0070815 -0.0057826 -0.0032000
v -0.0080000 -0.0056000 -0.0012000
v -0.0080000 -0.0056000 -0.0032000
v -0.0089185 -0.0057826 -0.0012000
v -0.0089185 -0.0057826 -0.0032000
v -0.0096970 -0.0063030 -0.0012000
v -0.0096970 -0.0063030 -0.0032000
v -0.0102174 -0.0070815 -0.0012000
v -0.0102174 -0.0070815 -0.0032000
v -0.0104000 -0.0080000 -0.0012000
v -0.0104000 -0.0080000 -0.0032000
v -0.0102174 -0.0089185 -0.0012000
v -0.0102174 -0.0089185 -0.0032000
v -0.0096970 -0.0096970 -0.0012000
v -0.0096970 -0.0096970 -0.0032000
v -0.0089185 -0.0102174 -0.0012000
v -0.0089185 -0.0102174 -0.0032000
v -0.0080000 -0.0104000 -0.0012000
v -0.0080000 -0.0104000 -0.0032000
v -0.0070815 -0.0102174 -0.0012000
v -0.0070815 -0.0102174 -0.0032000
v -0.0063030 -0.0096970 -0.0012000
v -0.0063030 -0.0096970 -0.0032000
v -0.0057826 -0.0089185 -0.0012000
v -0.0057826 -0.0089185 -0.0032000
v -0.0048000 -0.0080000 -0.0012000
v -0.0050435 -0.0067754 -0.0012000
v -0.0050435 -0.0067754 -0.0032000
v -0.0048000 -0.0080000 -0.0032000
v -0.0057373 -0.0057373 -0.0012000
v -0.0057373 -0.0057373 -0.0032000
v -0.0067754 -0.0050435 -0.0012000
v -0.0067754 -0.0050435 -0.0032000
v -0.0080000 -0.0048000 -0.0012000
v -0.0080000 -0.0048000 -0.0032000
v -0.0092246 -0.0050435 -0.0012000
v -0.0092246 -0.0050435 -0.0032000
v -0.0102627 -0.0057373 -0.0012000
v -0.0102627 -0.0057373 -0.0032000
v -0.0109565 -0.0067754 -0.0012000
v -0.0109565 -0.0067754 -0.0032000
v -0.0112000 -0.0080000 -0.0012000
v -0.0112000 -0.0080000 -0.0032000
v -0.0109565 -0.0092246 -0.0012000
v -0.0109565 -0.0092246 -0.0032000
v -0.0102627 -0.0102627 -0.0012000
v -0.0102627 -0.0102627 -0.0032000
v -0.0092246 -0.0109565 -0.0012000
v -0.0092246 -0.0109565 -0.0032000
v -0.0080000 -0.0112000 -0.0012000
v -0.0080000 -0.0112000 -0.0032000
v -0.0067754 -0.0109565 -0.0012000
v -0.0067754 -0.0109565 -0.0032000
v -0.0057373 -0.0102627 -0.0012000
v -0.0057373 -0.0102627 -0.0032000
v -0.0050435 -0.0092246 -0.0012000
v -0.0050435 -0.0092246 -0.0032000
v 0.0104000 -0.0080000 -0.0012000
v 0.0102174 -0.0070815 -0.0012000
v 0.0102174 -0.0070815 -0.0032000
v 0.0104000 -0.0080000 -0.0032000
v 0.0096970 -0.0063030 -0.0012000
v 0.0096970 -0.0063030 -0.0032000
v 0.0089185 -0.0057826 -0.0012000
v 0.0089185 -0.0057826 -0.0032000
v 0.0080000 -0.0056000 -0.0012000
v 0.0080000 -0.0056000 -0.0032000
v 0.0070815 -0.0057826 -0.0012000
v 0.0070815 -0.0057826 -0.0032000
v 0.0063030 -0.0063030 -0.0012000
v 0.0063030 -0.0063030 -0.0032000
v 0.0057826 -0.0070815 -0.0012000
v 0.0057826 -0.0070815 -0.0032000
v 0.0056000 -0.0080000 -0.0012000
v 0.0056000 -0.0080000 -0.0032000
v 0.0057826 -0.0089185 -0.0012000
v 0.0057826 -0.0089185 -0.0032000
v 0.0063030 -0.0096970 -0.0012000
v 0.0063030 -0.0096970 -0.0032000
v 0.0070815 -0.0102174 -0.0012000
v 0.0070815 -0.0102174 -0.0032000
v 0.0080000 -0.0104000 -0.0012000
v 0.0080000 -0.0104000 -0.0032000
v 0.0089185 -0.0102174 -0.0012000
v 0.0089185 -0.0102174 -0.0032000
v 0.0096970 -0.0096970 -0.0012000
v 0.0096970 -0.0096970 -0.0032000
v 0.0102174 -0.0089185 -0.0012000
v 0.0102174 -0.0089185 -0.0032000
v 0.0112000 -0.0080000 -0.0012000
v 0.0109565 -0.0067754 -0.0012000
v 0.0109565 -0.0067754 -0.0032000
v 0.0112000 -0.0080000 -0.0032000
v 0.0102627 -0.0057373 -0.0012000
v 0.0102627 -0.0057373 -0.0032000
v 0.0092246 -0.0050435 -0.0012000
v 0.0092246 -0.0050435 -0.0032000
v 0.0080000 -0.0048000 -0.0012000
v 0.0080000 -0.0048000 -0.0032000
v 0.0067754 -0.0050435 -0.0012000
v 0.0067754 -0.0050435 -0.0032000
v 0.0057373 -0.0057373 -0.0012000
v 0.0057373 -0.0057373 -0.0032000
v 0.0050435 -0.0067754 -0.0012000
v 0.0050435 -0.0067754 -0.0032000
v 0.0048000 -0.0080000 -0.0012000
v 0.0048000 -0.0080000 -0.0032000
v 0.0050435 -0.0092246 -0.0012000
v 0.0050435 -0.0092246 -0.0032000
v 0.0057373 -0.0102627 -0.0012000
v 0.0057373 -0.0102627 -0.0032000
v 0.0067754 -0.0109565 -0.0012000
v 0.0067754 -0.0109565 -0.0032000
v 0.0080000 -0.0112000 -0.0012000
v 0.0080000 -0.0112000 -0.0032000
v 0.0092246 -0.0109565 -0.0012000
v 0.0092246 -0.0109565 -0.0032000
v 0.0102627 -0.0102627 -0.0012000
v 0.0102627 -0.0102627 -0.0032000
v 0.0109565 -0.0092246 -0.0012000
v 0.0109565 -0.0092246 -0.0032000
v -0.0022628 -0.0102628 -0.0032000
v -0.0022628 -0.0102628 -0.0012000
v -0.0029564 -0.0092246 -0.0012000
v -0.0029564 -0.0092246 -0.0032000
v -0.0012246 -0.0109564 -0.0032000
v -0.0012246 -0.0109564 -0.0012000
v -0.0000000 -0.0112001 -0.0032000
v -0.0000000 -0.0112001 -0.0012000
v 0.0012246 -0.0109564 -0.0032000
v 0.0012246 -0.0109564 -0.0012000
v 0.0022628 -0.0102628 -0.0032000
v 0.0022628 -0.0102628 -0.0012000
v 0.0029564 -0.0092246 -0.0032000
v 0.0029564 -0.0092246 -0.0012000
v -0.0016971 -0.0096971 -0.0032000
v -0.0016971 -0.0096971 -0.0012000
v -0.0022173 -0.0089184 -0.0012000
v -0.0022173 -0.0089184 -0.0032000
v -0.0009184 -0.0102173 -0.0032000
v -0.0009184 -0.0102173 -0.0012000
v -0.0000000 -0.0104001 -0.0032000
v -0.0000000 -0.0104001 -0.0012000
v 0.0009184 -0.0102173 -0.0032000
v 0.0009184 -0.0102173 -0.0012000
v 0.0016971 -0.0096971 -0.0032000
v 0.0016971 -0.0096971 -0.0012000
v 0.0022173 -0.0089184 -0.0032000
v 0.0022173 -0.0089184 -0.0012000
v -0.0022628 -0.0102628 -0.0032000
v -0.0009184 -0.0102173 -0.0032000
v -0.0000000 -0.0112001 -0.0032000
v 0.0022628 -0.0102628 -0.0032000
v 0.0022173 -0.0089184 -0.0032000
v 0.0022173 -0.0089184 -0.0012000
v 0.0029564 -0.0092246 -0.0012000
v 0.0029564 -0.0092246 -0.0032000
v 0.0120000 0.0016000 0.0016000
v 0.0129185 0.0017826 0.0016000
v 0.0129185 0.0017826 -0.0000000
v 0.0120000 0.0016000 -0.0000000
v 0.0136970 0.0023030 0.0016000
v 0.0136970 0.0023030 -0.0000000
v 0.0142174 0.0030815 0.0016000
v 0.0142174 0.0030815 -0.0000000
v 0.0144000 0.0040000 0.0016000
v 0.0144000 0.0040000 -0.0000000
v 0.0142174 0.0049185 0.0016000
v 0.0142174 0.0049185 -0.0000000
v 0.0136970 0.0056970 0.0016000
v 0.0136970 0.0056970 -0.0000000
v 0.0129185 0.0062174 0.0016000
v 0.0129185 0.0062174 -0.0000000
v 0.0120000 0.0064000 0.0016000
v 0.0120000 0.0064000 -0.0000000
v 0.0110815 0.0062174 0.0016000
v 0.0110815 0.0062174 -0.0000000
v 0.0103030 0.0056970 0.0016000
v 0.0103030 0.0056970 -0.0000000
v 0.0097826 0.0049185 0.0016000
v 0.0097826 0.0049185 -0.0000000
v 0.0096000 0.0040000 0.0016000
v 0.0096000 0.0040000 -0.0000000
v 0.0097826 0.0030815 0.0016000
v 0.0097826 0.0030815 -0.0000000
v 0.0103030 0.0023030 0.0016000
v 0.0103030 0.0023030 -0.0000000
v 0.0110815 0.0017826 0.0016000
v 0.0110815 0.0017826 -0.0000000
v 0.0120000 0.0040000 0.0016000
v 0.0040000 0.0016000 0.0016000
v 0.0049185 0.0017826 0.0016000
v 0.0049185 0.0017826 -0.0000000
v 0.0040000 0.0016000 -0.0000000
v 0.0056970 0.0023030 0.0016000
v 0.0056970 0.0023030 -0.0000000
v 0.0062174 0.0030815 0.0016000
v 0.0062174 0.0030815 -0.0000000
v 0.0064000 0.0040000 0.0016000
v 0.0064000 0.0040000 -0.0000000
v 0.0062174 0.0049185 0.0016000
v 0.0062174 0.0049185 -0.0000000
v 0.0056970 0.0056970 0.0016000
v 0.0056970 0.0056970 -0.0000000
v 0.0049185 0.0062174 0.0016000
v 0.0049185 0.0062174 -0.0000000
v 0.0040000 0.0064000 0.0016000
v 0.0040000 0.0064000 -0.0000000
v 0.0030815 0.0062174 0.0016000
v 0.0030815 0.0062174 -0.0000000
v 0.0023030 0.0056970 0.0016000
v 0.0023030 0.0056970 -0.0000000
v 0.0017826 0.0049185 0.0016000
v 0.0017826 0.0049185 -0.0000000
v 0.0016000 0.0040000 0.0016000
v 0.0016000 0.0040000 -0.0000000
v 0.0017826 0.0030815 0.0016000
v 0.0017826 0.0030815 -0.0000000
v 0.0023030 0.0023030 0.0016000
v 0.0023030 0.0023030 -0.0000000
v 0.0030815 0.0017826 0.0016000
v 0.0030815 0.0017826 -0.0000000
v 0.0040000 0.0040000 0.0016000
v -0.0040000 0.0016000 0.0016000
v -0.0030815 0.0017826 0.0016000
v -0.0030815 0.0017826 -0.0000000
v -0.0040000 0.0016000 -0.0000000
v -0.0023030 0.0023030 0.0016000
v -0.0023030 0.0023030 -0.0000000
v -0.0017826 0.0030815 0.0016000
v -0.0017826 0.0030815 -0.0000000
v -0.0016000 0.0040000 0.0016000
v -0.0016000 0.0040000 -0.0000000
v -0.0017826 0.0049185 0.0016000
v -0.0017826 0.0049185 -0.0000000
v -0.0023030 0.0056970 0.0016000
v -0.0023030 0.0056970 -0.0000000
v -0.0030815 0.0062174 0.0016000
v -0.0030815 0.0062174 -0.0000000
v -0.0040000 0.0064000 0.0016000
v -0.0040000 0.0064000 -0.0000000
v -0.0049185 0.0062174 0.0016000
v -0.0049185 0.0062174 -0.0000000
v -0.0056970 0.0056970 0.0016000
v -0.0056970 0.0056970 -0.0000000
v -0.0062174 0.0049185 0.0016000
v -0.0062174 0.0049185 -0.0000000
v -0.0064000 0.0040000 0.0016000
v -0.0064000 0.0040000 -0.0000000
v -0.0062174 0.0030815 0.0016000
v -0.0062174 0.0030815 -0.0000000
v -0.0056970 0.0023030 0.0016000
v -0.0056970 0.0023030 -0.0000000
v -0.0049185 0.0017826 0.0016000
v -0.0049185 0.0017826 -0.0000000
v -0.0040000 0.0040000 0.0016000
v -0.0120000 0.0016000 0.0016000
v -0.0110815 0.0017826 0.0016000
v -0.0110815 0.0017826 -0.0000000
v -0.0120000 0.0016000 -0.0000000
v -0.0103030 0.0023030 0.0016000
v -0.0103030 0.0023030 -0.0000000
v -0.0097826 0.0030815 0.0016000
v -0.0097826 0.0030815 -0.0000000
v -0.0096000 0.0040000 0.0016000
v -0.0096000 0.0040000 -0.0000000
v -0.0097826 0.0049185 0.0016000
v -0.0097826 0.0049185 -0.0000000
v -0.0103030 0.0056970 0.0016000
v -0.0103030 0.0056970 -0.0000000
v -0.0110815 0.0062174 0.0016000
v -0.0110815 0.0062174 -0.0000000
v -0.0120000 0.0064000 0.0016000
v -0.0120000 0.0064000 -0.0000000
v -0.0129185 0.0062174 0.0016000
v -0.0129185 0.0062174 -0.0000000
v -0.0136970 0.0056970 0.0016000
v -0.0136970 0.0056970 -0.0000000
v -0.0142174 0.0049185 0.0016000
v -0.0142174 0.0049185 -0.0000000
v -0.0144000 0.0040000 0.0016000
v -0.0144000 0.0040000 -0.0000000
v -0.0142174 0.0030815 0.0016000
v -0.0142174 0.0030815 -0.0000000
v -0.0136970 0.0023030 0.0016000
v -0.0136970 0.0023030 -0.0000000
v -0.0129185 0.0017826 0.0016000
v -0.0129185 0.0017826 -0.0000000
v -0.0120000 0.0040000 0.0016000
v 0.0120000 -0.0064000 0.0016000
v 0.0129185 -0.0062174 0.0016000
v 0.0129185 -0.0062174 -0.0000000
v 0.0120000 -0.0064000 -0.0000000
v 0.0136970 -0.0056970 0.0016000
v 0.0136970 -0.0056970 -0.0000000
v 0.0142174 -0.0049185 0.0016000
v 0.0142174 -0.0049185 -0.0000000
v 0.0144000 -0.0040000 0.0016000
v 0.0144000 -0.0040000 -0.0000000
v 0.0142174 -0.0030815 0.0016000
v 0.0142174 -0.0030815 -0.0000000
v 0.0136970 -0.0023030 0.0016000
v 0.0136970 -0.0023030 -0.0000000
v 0.0129185 -0.0017826 0.0016000
v 0.0129185 -0.0017826 -0.0000000
v 0.0120000 -0.0016000 0.0016000
v 0.0120000 -0.0016000 -0.0000000
v 0.0110815 -0.0017826 0.0016000
v 0.0110815 -0.0017826 -0.0000000
v 0.0103030 -0.0023030 0.0016000
v 0.0103030 -0.0023030 -0.0000000
v 0.0097826 -0.0030815 0.0016000
v 0.0097826 -0.0030815 -0.0000000
v 0.0096000 -0.0040000 0.0016000
v 0.0096000 -0.0040000 -0.0000000
v 0.0097826 -0.0049185 0.0016000
v 0.0097826 -0.0049185 -0.0000000
v 0.0103030 -0.0056970 0.0016000
v 0.0103030 -0.0056970 -0.0000000
v 0.0110815 -0.0062174 0.0016000
v 0.0110815 -0.0062174 -0.0000000
v 0.0120000 -0.0040000 0.0016000
v 0.0040000 -0.0064000 0.0016000
v 0.0049185 -0.0062174 0.0016000
v 0.0049185 -0.0062174 -0.0000000
v 0.0040000 -0.0064000 -0.0000000
v 0.0056970 -0.0056970 0.0016000
v 0.0056970 -0.0056970 -0.0000000
v 0.0062174 -0.0049185 0.0016000
v 0.0062174 -0.0049185 -0.0000000
v 0.0064000 -0.0040000 0.0016000
v 0.0064000 -0.0040000 -0.0000000
v 0.0062174 -0.0030815 0.0016000
v 0.0062174 -0.0030815 -0.0000000
v 0.0056970 -0.0023030 0.0016000
v 0.0056970 -0.0023030 -0.0000000
v 0.0049185 -0.0017826 0.0016000
v 0.0049185 -0.0017826 -0.0000000
v 0.0040000 -0.0016000 0.0016000
v 0.0040000 -0.0016000 -0.0000000
v 0.0030815 -0.0017826 0.0016000
v 0.0030815 -0.0017826 -0.0000000
v 0.0023030 -0.0023030 0.0016000
v 0.0023030 -0.0023030 -0.0000000
v 0.0017826 -0.0030815 0.0016000
v 0.0017826 -0.0030815 -0.0000000
v 0.0016000 -0.0040000 0.0016000
v 0.0016000 -0.0040000 -0.0000000
v 0.0017826 -0.0049185 0.0016000
v 0.0017826 -0.0049185 -0.0000000
v 0.0023030 -0.0056970 0.0016000
v 0.0023030 -0.0056970 -0.0000000
v 0.0030815 -0.0062174 0.0016000
v 0.0030815 -0.0062174 -0.0000000
v 0.0040000 -0.0040000 0.0016000
v -0.0040000 -0.0064000 0.0016000
v -0.0030815 -0.0062174 0.0016000
v -0.0030815 -0.0062174 -0.0000000
v -0.0040000 -0.0064000 -0.0000000
v -0.0023030 -0.0056970 0.0016000
v -0.0023030 -0.0056970 -0.0000000
v -0.0017826 -0.0049185 0.0016000
v -0.0017826 -0.0049185 -0.0000000
v -0.0016000 -0.0040000 0.0016000
v -0.0016000 -0.0040000 -0.0000000
v -0.0017826 -0.0030815 0.0016000
v -0.0017826 -0.0030815 -0.0000000
v -0.0023030 -0.0023030 0.0016000
v -0.0023030 -0.0023030 -0.0000000
v -0.0030815 -0.0017826 0.0016000
v -0.0030815 -0.0017826 -0.0000000
v -0.0040000 -0.0016000 0.0016000
v -0.0040000 -0.0016000 -0.0000000
v -0.0049185 -0.0017826 0.0016000
v -0.0049185 -0.0017826 -0.0000000
v -0.0056970 -0.0023030 0.0016000
v -0.0056970 -0.0023030 -0.0000000
v -0.0062174 -0.0030815 0.0016000
v -0.0062174 -0.0030815 -0.0000000
v -0.0064000 -0.0040000 0.0016000
v -0.0064000 -0.0040000 -0.0000000
v -0.0062174 -0.0049185 0.0016000
v -0.0062174 -0.0049185 -0.0000000
v -0.0056970 -0.0056970 0.0016000
v -0.0056970 -0.0056970 -0.0000000
v -0.0049185 -0.0062174 0.0016000
v -0.0049185 -0.0062174 -0.0000000
v -0.0040000 -0.0040000 0.0016000
v -0.0120000 -0.0064000 0.0016000
v -0.0110815 -0.0062174 0.0016000
v -0.0110815 -0.0062174 -0.0000000
v -0.0120000 -0.0064000 -0.0000000
v -0.0103030 -0.0056970 0.0016000
v -0.0103030 -0.0056970 -0.0000000
v -0.0097826 -0.0049185 0.0016000
v -0.0097826 -0.0049185 -0.0000000
v -0.0096000 -0.0040000 0.0016000
v -0.0096000 -0.0040000 -0.0000000
v -0.0097826 -0.0030815 0.0016000
v -0.0097826 -0.0030815 -0.0000000
v -0.0103030 -0.0023030 0.0016000
v -0.0103030 -0.0023030 -0.0000000
v -0.0110815 -0.0017826 0.0016000
v -0.0110815 -0.0017826 -0.0000000
v -0.0120000 -0.0016000 0.0016000
v -0.0120000 -0.0016000 -0.0000000
v -0.0129185 -0.0017826 0.0016000
v -0.0129185 -0.0017826 -0.0000000
v -0.0136970 -0.0023030 0.0016000
v -0.0136970 -0.0023030 -0.0000000
v -0.0142174 -0.0030815 0.0016000
v -0.0142174 -0.0030815 -0.0000000
v -0.0144000 -0.0040000 0.0016000
v -0.0144000 -0.0040000 -0.0000000
v -0.0142174 -0.0049185 0.0016000
v -0.0142174 -0.0049185 -0.0000000
v -0.0136970 -0.0056970 0.0016000
v -0.0136970 -0.0056970 -0.0000000
v -0.0129185 -0.0062174 0.0016000
v -0.0129185 -0.0062174 -0.0000000
v -0.0120000 -0.0040000 0.0016000
v 0.0120000 -0.0144000 0.0016000
v 0.0129185 -0.0142174 0.0016000
v 0.0129185 -0.0142174 -0.0000000
v 0.0120000 -0.0144000 -0.0000000
v 0.0136970 -0.0136970 0.0016000
v 0.0136970 -0.0136970 -0.0000000
v 0.0142174 -0.0129185 0.0016000
v 0.0142174 -0.0129185 -0.0000000
v 0.0144000 -0.0120000 0.0016000
v 0.0144000 -0.0120000 -0.0000000
v 0.0142174 -0.0110815 0.0016000
v 0.0142174 -0.0110815 -0.0000000
v 0.0136970 -0.0103030 0.0016000
v 0.0136970 -0.0103030 -0.0000000
v 0.0129185 -0.0097826 0.0016000
v 0.0129185 -0.0097826 -0.0000000
v 0.0120000 -0.0096000 0.0016000
v 0.0120000 -0.0096000 -0.0000000
v 0.0110815 -0.0097826 0.0016000
v 0.0110815 -0.0097826 -0.0000000
v 0.0103030 -0.0103030 0.0016000
v 0.0103030 -0.0103030 -0.0000000
v 0.0097826 -0.0110815 0.0016000
v 0.0097826 -0.0110815 -0.0000000
v 0.0096000 -0.0120000 0.0016000
v 0.0096000 -0.0120000 -0.0000000
v 0.0097826 -0.0129185 0.0016000
v 0.0097826 -0.0129185 -0.0000000
v 0.0103030 -0.0136970 0.0016000
v 0.0103030 -0.0136970 -0.0000000
v 0.0110815 -0.0142174 0.0016000
v 0.0110815 -0.0142174 -0.0000000
v 0.0120000 -0.0120000 0.0016000
v 0.0040000 -0.0144000 0.0016000
v 0.0049185 -0.0142174 0.0016000
v 0.0049185 -0.0142174 -0.0000000
v 0.0040000 -0.0144000 -0.0000000
v 0.0056970 -0.0136970 0.0016000
v 0.0056970 -0.0136970 -0.0000000
v 0.0062174 -0.0129185 0.0016000
v 0.0062174 -0.0129185 -0.0000000
v 0.0064000 -0.0120000 0.0016000
v 0.0064000 -0.0120000 -0.0000000
v 0.0062174 -0.0110815 0.0016000
v 0.0062174 -0.0110815 -0.0000000
v 0.0056970 -0.0103030 0.0016000
v 0.0056970 -0.0103030 -0.0000000
v 0.0049185 -0.0097826 0.0016000
v 0.0049185 -0.0097826 -0.0000000
v 0.0040000 -0.0096000 0.0016000
v 0.0040000 -0.0096000 -0.0000000
v 0.0030815 -0.0097826 0.0016000
v 0.0030815 -0.0097826 -0.0000000
v 0.0023030 -0.0103030 0.0016000
v 0.0023030 -0.0103030 -0.0000000
v 0.0017826 -0.0110815 0.0016000
v 0.0017826 -0.0110815 -0.0000000
v 0.0016000 -0.0120000 0.0016000
v 0.0016000 -0.0120000 -0.0000000
v 0.0017826 -0.0129185 0.0016000
v 0.0017826 -0.0129185 -0.0000000
v 0.0023030 -0.0136970 0.0016000
v 0.0023030 -0.0136970 -0.0000000
v 0.0030815 -0.0142174 0.0016000
v 0.0030815 -0.0142174 -0.0000000
v 0.0040000 -0.0120000 0.0016000
v -0.0040000 -0.0144000 0.0016000
v -0.0030815 -0.0142174 0.0016000
v -0.0030815 -0.0142174 -0.0000000
v -0.0040000 -0.0144000 -0.0000000
v -0.0023030 -0.0136970 0.0016000
v -0.0023030 -0.0136970 -0.0000000
v -0.0017826 -0.0129185 0.0016000
v -0.0017826 -0.0129185 -0.0000000
v -0.0016000 -0.0120000 0.0016000
v -0.0016000 -0.0120000 -0.0000000
v -0.0017826 -0.0110815 0.0016000
v -0.0017826 -0.0110815 -0.0000000
v -0.0023030 -0.0103030 0.0016000
v -0.0023030 -0.0103030 -0.0000000
v -0.0030815 -0.0097826 0.0016000
v -0.0030815 -0.0097826 -0.0000000
v -0.0040000 -0.0096000 0.0016000
v -0.0040000 -0.0096000 -0.0000000
v -0.0049185 -0.0097826 0.0016000
v -0.0049185 -0.0097826 -0.0000000
v -0.0056970 -0.0103030 0.0016000
v -0.0056970 -0.0103030 -0.0000000
v -0.0062174 -0.0110815 0.0016000
v -0.0062174 -0.0110815 -0.0000000
v -0.0064000 -0.0120000 0.0016000
v -0.0064000 -0.0120000 -0.0000000
v -0.0062174 -0.0129185 0.0016000
v -0.0062174 -0.0129185 -0.0000000
v -0.0056970 -0.0136970 0.0016000
v -0.0056970 -0.0136970 -0.0000000
v -0.0049185 -0.0142174 0.0016000
v -0.0049185 -0.0142174 -0.0000000
v -0.0040000 -0.0120000 0.0016000
v -0.0120000 -0.0144000 0.0016000
v -0.0110815 -0.0142174 0.0016000
v -0.0110815 -0.0142174 -0.0000000
v -0.0120000 -0.0144000 -0.0000000
v -0.0103030 -0.0136970 0.0016000
v -0.0103030 -0.0136970 -0.0000000
v -0.0097826 -0.0129185 0.0016000
v -0.0097826 -0.0129185 -0.0000000
v -0.0096000 -0.0120000 0.0016000
v -0.0096000 -0.0120000 -0.0000000
v -0.0097826 -0.0110815 0.0016000
v -0.0097826 -0.0110815 -0.0000000
v -0.0103030 -0.0103030 0.0016000
v -0.0103030 -0.0103030 -0.0000000
v -0.0110815 -0.0097826 0.0016000
v -0.0110815 -0.0097826 -0.0000000
v -0.0120000 -0.0096000 0.0016000
v -0.0120000 -0.0096000 -0.0000000
v -0.0129185 -0.0097826 0.0016000
v -0.0129185 -0.0097826 -0.0000000
v -0.0136970 -0.0103030 0.0016000
v -0.0136970 -0.0103030 -0.0000000
v -0.0142174 -0.0110815 0.0016000
v -0.0142174 -0.0110815 -0.0000000
v -0.0144000 -0.0120000 0.0016000
v -0.0144000 -0.0120000 -0.0000000
v -0.0142174 -0.0129185 0.0016000
v -0.0142174 -0.0129185 -0.0000000
v -0.0136970 -0.0136970 0.0016000
v -0.0136970 -0.0136970 -0.0000000
v -0.0129185 -0.0142174 0.0016000
v -0.0129185 -0.0142174 -0.0000000
v -0.0120000 -0.0120000 0.0016000
usemtl c16
f 4 3 2
f 4 2 1
f 3 6 5
f 3 5 2
f 1 8 7
f 1 7 4
f 8 1 9
f 10 9 1
f 11 10 1
f 12 11 1
f 2 13 12
f 2 12 1
f 2 14 13
f 2 15 14
f 2 16 15
f 16 2 5
f 17 13 14
f 17 14 18
f 19 11 12
f 19 12 20
f 21 15 16
f 21 16 22
f 24 9 10
f 24 10 23
f 16 5 6
f 16 6 25
f 27 26 15
f 27 15 14
f 26 28 21
f 26 21 15
f 14 18 29
f 14 29 27
f 31 30 13
f 31 13 12
f 30 32 17
f 30 17 13
f 12 20 33
f 12 33 31
f 35 34 11
f 35 11 10
f 34 36 19
f 34 19 11
f 10 23 37
f 10 37 35
f 38 7 8
f 38 8 9
f 40 28 39
f 41 40 39
f 42 41 39
f 43 42 39
f 44 43 39
f 45 44 39
f 46 45 39
f 21 46 39
f 48 28 40
f 48 40 47
f 47 40 41
f 47 41 49
f 49 41 42
f 49 42 50
f 50 42 43
f 50 43 51
f 51 43 44
f 51 44 52
f 52 44 45
f 52 45 53
f 53 45 46
f 53 46 54
f 54 46 21
f 54 21 22
f 56 32 55
f 57 56 55
f 58 57 55
f 59 58 55
f 60 59 55
f 61 60 55
f 62 61 55
f 17 62 55
f 29 32 56
f 29 56 63
f 63 56 57
f 63 57 64
f 64 57 58
f 64 58 65
f 65 58 59
f 65 59 66
f 66 59 60
f 66 60 67
f 67 60 61
f 67 61 68
f 68 61 62
f 68 62 69
f 69 62 17
f 69 17 18
f 71 36 70
f 72 71 70
f 73 72 70
f 74 73 70
f 75 74 70
f 76 75 70
f 77 76 70
f 19 77 70
f 33 36 71
f 33 71 78
f 78 71 72
f 78 72 79
f 79 72 73
f 79 73 80
f 80 73 74
f 80 74 81
f 81 74 75
f 81 75 82
f 82 75 76
f 82 76 83
f 83 76 77
f 83 77 84
f 84 77 19
f 84 19 20
f 85 37 86
f 85 86 87
f 85 87 88
f 85 88 89
f 85 89 90
f 85 90 91
f 85 91 92
f 85 92 23
f 93 86 37
f 93 37 94
f 95 87 86
f 95 86 93
f 96 88 87
f 96 87 95
f 97 89 88
f 97 88 96
f 98 90 89
f 98 89 97
f 99 91 90
f 99 90 98
f 100 92 91
f 100 91 99
f 24 23 92
f 24 92 100
f 101 29 63
f 101 63 64
f 101 64 65
f 101 65 66
f 101 66 67
f 101 67 68
f 101 68 69
f 101 69 18
f 102 33 78
f 102 78 79
f 102 79 80
f 102 80 81
f 102 81 82
f 102 82 83
f 102 83 84
f 102 84 20
f 103 104 105
f 103 105 106
f 104 107 108
f 104 108 105
f 107 109 110
f 107 110 108
f 109 111 112
f 109 112 110
f 111 113 114
f 111 114 112
f 113 115 116
f 113 116 114
f 115 117 118
f 115 118 116
f 117 119 120
f 117 120 118
f 119 121 122
f 119 122 120
f 121 123 124
f 121 124 122
f 123 125 126
f 123 126 124
f 125 127 128
f 125 128 126
f 127 129 130
f 127 130 128
f 129 131 132
f 129 132 130
f 131 133 134
f 131 134 132
f 133 103 106
f 133 106 134
f 103 135 136
f 103 136 104
f 104 136 137
f 104 137 107
f 107 137 138
f 107 138 109
f 109 138 139
f 109 139 111
f 111 139 140
f 111 140 113
f 113 140 141
f 113 141 115
f 115 141 142
f 115 142 117
f 117 142 143
f 117 143 119
f 119 143 144
f 119 144 121
f 121 144 145
f 121 145 123
f 123 145 146
f 123 146 125
f 125 146 147
f 125 147 127
f 127 147 148
f 127 148 129
f 129 148 149
f 129 149 131
f 131 149 150
f 131 150 133
f 133 150 135
f 133 135 103
f 151 136 135
f 151 152 136
f 151 138 152
f 151 139 138
f 151 140 139
f 151 153 140
f 151 142 153
f 151 143 142
f 151 144 143
f 151 154 144
f 151 146 154
f 151 147 146
f 151 148 147
f 151 155 148
f 151 150 155
f 151 135 150
f 52 105 106
f 52 106 51
f 53 108 105
f 53 105 52
f 54 156 108
f 54 108 53
f 22 112 156
f 22 156 54
f 157 158 112
f 157 112 22
f 159 116 158
f 159 158 157
f 160 118 116
f 160 116 159
f 161 120 118
f 161 118 160
f 162 122 120
f 162 120 161
f 163 124 122
f 163 122 162
f 164 165 124
f 164 124 163
f 48 128 165
f 48 165 164
f 47 166 128
f 47 128 48
f 49 132 166
f 49 166 47
f 50 134 132
f 50 132 49
f 51 106 134
f 51 134 50
f 25 48 164
f 25 164 163
f 25 163 162
f 25 162 161
f 16 161 160
f 16 160 159
f 16 159 157
f 16 157 22
f 170 169 168
f 170 168 167
f 169 172 171
f 169 171 168
f 172 174 173
f 172 173 171
f 174 176 175
f 174 175 173
f 176 178 177
f 176 177 175
f 178 180 179
f 178 179 177
f 180 182 181
f 180 181 179
f 182 184 183
f 182 183 181
f 184 186 185
f 184 185 183
f 186 188 187
f 186 187 185
f 188 190 189
f 188 189 187
f 190 192 191
f 190 191 189
f 192 194 193
f 192 193 191
f 194 196 195
f 194 195 193
f 196 198 197
f 196 197 195
f 198 170 167
f 198 167 197
f 168 200 199
f 168 199 167
f 171 201 200
f 171 200 168
f 173 202 201
f 173 201 171
f 175 203 202
f 175 202 173
f 177 204 203
f 177 203 175
f 179 205 204
f 179 204 177
f 181 206 205
f 181 205 179
f 183 207 206
f 183 206 181
f 185 208 207
f 185 207 183
f 187 209 208
f 187 208 185
f 189 210 209
f 189 209 187
f 191 211 210
f 191 210 189
f 193 212 211
f 193 211 191
f 195 213 212
f 195 212 193
f 197 214 213
f 197 213 195
f 167 199 214
f 167 214 197
f 199 200 215
f 200 216 215
f 216 202 215
f 202 203 215
f 203 204 215
f 204 217 215
f 217 206 215
f 206 207 215
f 207 208 215
f 208 218 215
f 218 210 215
f 210 211 215
f 211 212 215
f 212 219 215
f 219 214 215
f 214 199 215
f 97 170 169
f 97 169 98
f 98 169 172
f 98 172 99
f 99 172 220
f 99 220 100
f 100 220 176
f 100 176 24
f 24 176 222
f 24 222 221
f 221 222 180
f 221 180 223
f 223 180 182
f 223 182 224
f 224 182 184
f 224 184 225
f 225 184 186
f 225 186 226
f 226 186 188
f 226 188 227
f 227 188 229
f 227 229 228
f 228 229 192
f 228 192 94
f 94 192 230
f 94 230 93
f 93 230 196
f 93 196 95
f 95 196 198
f 95 198 96
f 96 198 170
f 96 170 97
f 228 94 38
f 227 228 38
f 226 227 38
f 225 226 38
f 224 225 9
f 223 224 9
f 221 223 9
f 24 221 9
f 26 28 231
f 26 231 232
f 233 234 29
f 233 29 27
f 30 32 235
f 30 235 236
f 237 238 37
f 237 37 35
f 34 36 239
f 34 239 240
f 241 242 33
f 241 33 31
f 233 27 26
f 233 26 232
f 241 31 30
f 241 30 236
f 237 35 34
f 237 34 240
f 3 243 244
f 3 244 6
f 7 245 246
f 7 246 4
f 4 246 243
f 4 243 3
f 247 248 48
f 247 48 25
f 6 244 247
f 6 247 25
f 38 94 249
f 38 249 250
f 38 250 245
f 38 245 7
f 246 243 252
f 246 252 251
f 243 244 253
f 243 253 252
f 251 254 245
f 251 245 246
f 253 255 247
f 253 247 244
f 245 250 256
f 245 256 254
f 257 258 233
f 257 233 232
f 258 259 260
f 258 260 233
f 259 261 260
f 259 262 263
f 259 263 261
f 264 263 262
f 240 264 262
f 240 262 265
f 237 240 265
f 237 265 266
f 261 263 241
f 261 241 236
f 267 248 231
f 267 231 268
f 268 231 232
f 268 232 257
f 248 267 255
f 248 255 247
f 267 268 257
f 267 257 255
f 269 270 234
f 269 234 235
f 269 261 260
f 269 260 270
f 235 236 261
f 235 261 269
f 270 260 233
f 270 233 234
f 271 272 242
f 271 242 239
f 271 264 263
f 271 263 272
f 239 240 264
f 239 264 271
f 272 263 241
f 272 241 242
f 273 238 249
f 273 249 274
f 274 249 250
f 274 250 256
f 238 273 266
f 238 266 237
f 273 274 256
f 273 256 266
f 276 275 262
f 276 262 265
f 258 259 278
f 258 278 277
f 259 262 275
f 259 275 278
f 280 278 279
f 281 280 279
f 282 281 279
f 283 282 279
f 284 283 279
f 285 284 279
f 286 285 279
f 287 286 279
f 288 287 279
f 289 288 279
f 290 289 279
f 291 290 279
f 292 291 279
f 293 292 279
f 294 293 279
f 295 294 279
f 296 295 279
f 297 296 279
f 298 297 279
f 299 298 279
f 300 299 279
f 301 300 279
f 302 301 279
f 275 302 279
f 303 277 278
f 303 278 280
f 304 303 280
f 304 280 281
f 305 304 281
f 305 281 282
f 306 305 282
f 306 282 283
f 307 306 283
f 307 283 284
f 308 307 284
f 308 284 285
f 309 308 285
f 309 285 286
f 310 309 286
f 310 286 287
f 311 310 287
f 311 287 288
f 312 311 288
f 312 288 289
f 313 312 289
f 313 289 290
f 314 313 290
f 314 290 291
f 315 314 291
f 315 291 292
f 316 315 292
f 316 292 293
f 317 316 293
f 317 293 294
f 318 317 294
f 318 294 295
f 319 318 295
f 319 295 296
f 320 319 296
f 320 296 297
f 321 320 297
f 321 297 298
f 322 321 298
f 322 298 299
f 323 322 299
f 323 299 300
f 324 323 300
f 324 300 301
f 325 324 301
f 325 301 302
f 276 325 302
f 276 302 275
f 326 303 277
f 326 304 303
f 326 305 304
f 326 306 305
f 326 307 306
f 326 308 307
f 326 309 308
f 326 310 309
f 326 311 310
f 326 312 311
f 326 313 312
f 326 314 313
f 327 315 314
f 327 316 315
f 327 317 316
f 327 318 317
f 327 319 318
f 327 320 319
f 327 321 320
f 327 322 321
f 327 323 322
f 327 324 323
f 327 325 324
f 327 276 325
f 252 251 327
f 252 327 314
f 252 314 326
f 252 326 277
f 252 277 258
f 252 258 257
f 252 257 255
f 252 255 253
f 254 256 251
f 256 266 251
f 266 265 276
f 266 276 251
f 276 327 251
f 331 330 329
f 331 329 328
f 330 333 332
f 330 332 329
f 333 335 334
f 333 334 332
f 335 337 336
f 335 336 334
f 337 339 338
f 337 338 336
f 339 341 340
f 339 340 338
f 341 343 342
f 341 342 340
f 343 345 344
f 343 344 342
f 345 347 346
f 345 346 344
f 347 349 348
f 347 348 346
f 349 351 350
f 349 350 348
f 351 353 352
f 351 352 350
f 353 355 354
f 353 354 352
f 355 357 356
f 355 356 354
f 357 359 358
f 357 358 356
f 359 331 328
f 359 328 358
f 363 362 361
f 363 361 360
f 362 365 364
f 362 364 361
f 365 367 366
f 365 366 364
f 367 369 368
f 367 368 366
f 369 371 370
f 369 370 368
f 371 373 372
f 371 372 370
f 373 375 374
f 373 374 372
f 375 377 376
f 375 376 374
f 377 379 378
f 377 378 376
f 379 381 380
f 379 380 378
f 381 383 382
f 381 382 380
f 383 385 384
f 383 384 382
f 385 387 386
f 385 386 384
f 387 389 388
f 387 388 386
f 389 391 390
f 389 390 388
f 391 363 360
f 391 360 390
f 369 337 339
f 369 339 371
f 371 339 341
f 371 341 373
f 373 341 343
f 373 343 375
f 375 343 345
f 375 345 377
f 377 345 347
f 377 347 379
f 379 347 349
f 379 349 381
f 381 349 351
f 381 351 383
f 383 351 353
f 383 353 385
f 385 353 355
f 385 355 387
f 387 355 357
f 387 357 389
f 389 357 359
f 389 359 391
f 391 359 331
f 391 331 363
f 363 331 330
f 363 330 362
f 362 330 333
f 362 333 365
f 365 333 335
f 365 335 367
f 367 335 337
f 367 337 369
f 395 394 393
f 395 393 392
f 394 397 396
f 394 396 393
f 397 399 398
f 397 398 396
f 399 401 400
f 399 400 398
f 401 403 402
f 401 402 400
f 403 405 404
f 403 404 402
f 405 407 406
f 405 406 404
f 407 409 408
f 407 408 406
f 409 411 410
f 409 410 408
f 411 413 412
f 411 412 410
f 413 415 414
f 413 414 412
f 415 417 416
f 415 416 414
f 417 419 418
f 417 418 416
f 419 421 420
f 419 420 418
f 421 423 422
f 421 422 420
f 423 395 392
f 423 392 422
f 427 426 425
f 427 425 424
f 426 429 428
f 426 428 425
f 429 431 430
f 429 430 428
f 431 433 432
f 431 432 430
f 433 435 434
f 433 434 432
f 435 437 436
f 435 436 434
f 437 439 438
f 437 438 436
f 439 441 440
f 439 440 438
f 441 443 442
f 441 442 440
f 443 445 444
f 443 444 442
f 445 447 446
f 445 446 444
f 447 449 448
f 447 448 446
f 449 451 450
f 449 450 448
f 451 453 452
f 451 452 450
f 453 455 454
f 453 454 452
f 455 427 424
f 455 424 454
f 433 401 403
f 433 403 435
f 435 403 405
f 435 405 437
f 437 405 407
f 437 407 439
f 439 407 409
f 439 409 441
f 441 409 411
f 441 411 443
f 443 411 413
f 443 413 445
f 445 413 415
f 445 415 447
f 447 415 417
f 447 417 449
f 449 417 419
f 449 419 451
f 451 419 421
f 451 421 453
f 453 421 423
f 453 423 455
f 455 423 395
f 455 395 427
f 427 395 394
f 427 394 426
f 426 394 397
f 426 397 429
f 429 397 399
f 429 399 431
f 431 399 401
f 431 401 433
f 456 457 458
f 456 458 459
f 460 461 457
f 460 457 456
f 462 463 461
f 462 461 460
f 464 465 463
f 464 463 462
f 466 467 465
f 466 465 464
f 468 469 467
f 468 467 466
f 470 471 472
f 470 472 473
f 474 475 471
f 474 471 470
f 476 477 475
f 476 475 474
f 478 479 477
f 478 477 476
f 480 481 479
f 480 479 478
f 482 483 481
f 482 481 480
f 473 470 484
f 473 484 459
f 470 485 460
f 470 460 484
f 485 476 486
f 485 486 460
f 476 478 464
f 476 464 486
f 478 480 487
f 478 487 464
f 480 488 468
f 480 468 487
f 458 472 473
f 458 473 459
f 489 490 491
f 489 491 488
f 495 494 493
f 495 493 492
f 494 497 496
f 494 496 493
f 497 499 498
f 497 498 496
f 499 501 500
f 499 500 498
f 501 503 502
f 501 502 500
f 503 505 504
f 503 504 502
f 505 507 506
f 505 506 504
f 507 509 508
f 507 508 506
f 509 511 510
f 509 510 508
f 511 513 512
f 511 512 510
f 513 515 514
f 513 514 512
f 515 517 516
f 515 516 514
f 517 519 518
f 517 518 516
f 519 521 520
f 519 520 518
f 521 523 522
f 521 522 520
f 523 495 492
f 523 492 522
f 524 492 493
f 524 493 496
f 524 496 498
f 524 498 500
f 524 500 502
f 524 502 504
f 524 504 506
f 524 506 508
f 524 508 510
f 524 510 512
f 524 512 514
f 524 514 516
f 524 516 518
f 524 518 520
f 524 520 522
f 524 522 492
f 528 527 526
f 528 526 525
f 527 530 529
f 527 529 526
f 530 532 531
f 530 531 529
f 532 534 533
f 532 533 531
f 534 536 535
f 534 535 533
f 536 538 537
f 536 537 535
f 538 540 539
f 538 539 537
f 540 542 541
f 540 541 539
f 542 544 543
f 542 543 541
f 544 546 545
f 544 545 543
f 546 548 547
f 546 547 545
f 548 550 549
f 548 549 547
f 550 552 551
f 550 551 549
f 552 554 553
f 552 553 551
f 554 556 555
f 554 555 553
f 556 528 525
f 556 525 555
f 557 525 526
f 557 526 529
f 557 529 531
f 557 531 533
f 557 533 535
f 557 535 537
f 557 537 539
f 557 539 541
f 557 541 543
f 557 543 545
f 557 545 547
f 557 547 549
f 557 549 551
f 557 551 553
f 557 553 555
f 557 555 525
f 561 560 559
f 561 559 558
f 560 563 562
f 560 562 559
f 563 565 564
f 563 564 562
f 565 567 566
f 565 566 564
f 567 569 568
f 567 568 566
f 569 571 570
f 569 570 568
f 571 573 572
f 571 572 570
f 573 575 574
f 573 574 572
f 575 577 576
f 575 576 574
f 577 579 578
f 577 578 576
f 579 581 580
f 579 580 578
f 581 583 582
f 581 582 580
f 583 585 584
f 583 584 582
f 585 587 586
f 585 586 584
f 587 589 588
f 587 588 586
f 589 561 558
f 589 558 588
f 590 558 559
f 590 559 562
f 590 562 564
f 590 564 566
f 590 566 568
f 590 568 570
f 590 570 572
f 590 572 574
f 590 574 576
f 590 576 578
f 590 578 580
f 590 580 582
f 590 582 584
f 590 584 586
f 590 586 588
f 590 588 558
f 594 593 592
f 594 592 591
f 593 596 595
f 593 595 592
f 596 598 597
f 596 597 595
f 598 600 599
f 598 599 597
f 600 602 601
f 600 601 599
f 602 604 603
f 602 603 601
f 604 606 605
f 604 605 603
f 606 608 607
f 606 607 605
f 608 610 609
f 608 609 607
f 610 612 611
f 610 611 609
f 612 614 613
f 612 613 611
f 614 616 615
f 614 615 613
f 616 618 617
f 616 617 615
f 618 620 619
f 618 619 617
f 620 622 621
f 620 621 619
f 622 594 591
f 622 591 621
f 623 591 592
f 623 592 595
f 623 595 597
f 623 597 599
f 623 599 601
f 623 601 603
f 623 603 605
f 623 605 607
f 623 607 609
f 623 609 611
f 623 611 613
f 623 613 615
f 623 615 617
f 623 617 619
f 623 619 621
f 623 621 591
f 627 626 625
f 627 625 624
f 626 629 628
f 626 628 625
f 629 631 630
f 629 630 628
f 631 633 632
f 631 632 630
f 633 635 634
f 633 634 632
f 635 637 636
f 635 636 634
f 637 639 638
f 637 638 636
f 639 641 640
f 639 640 638
f 641 643 642
f 641 642 640
f 643 645 644
f 643 644 642
f 645 647 646
f 645 646 644
f 647 649 648
f 647 648 646
f 649 651 650
f 649 650 648
f 651 653 652
f 651 652 650
f 653 655 654
f 653 654 652
f 655 627 624
f 655 624 654
f 656 624 625
f 656 625 628
f 656 628 630
f 656 630 632
f 656 632 634
f 656 634 636
f 656 636 638
f 656 638 640
f 656 640 642
f 656 642 644
f 656 644 646
f 656 646 648
f 656 648 650
f 656 650 652
f 656 652 654
f 656 654 624
f 660 659 658
f 660 658 657
f 659 662 661
f 659 661 658
f 662 664 663
f 662 663 661
f 664 666 665
f 664 665 663
f 666 668 667
f 666 667 665
f 668 670 669
f 668 669 667
f 670 672 671
f 670 671 669
f 672 674 673
f 672 673 671
f 674 676 675
f 674 675 673
f 676 678 677
f 676 677 675
f 678 680 679
f 678 679 677
f 680 682 681
f 680 681 679
f 682 684 683
f 682 683 681
f 684 686 685
f 684 685 683
f 686 688 687
f 686 687 685
f 688 660 657
f 688 657 687
f 689 657 658
f 689 658 661
f 689 661 663
f 689 663 665
f 689 665 667
f 689 667 669
f 689 669 671
f 689 671 673
f 689 673 675
f 689 675 677
f 689 677 679
f 689 679 681
f 689 681 683
f 689 683 685
f 689 685 687
f 689 687 657
f 693 692 691
f 693 691 690
f 692 695 694
f 692 694 691
f 695 697 696
f 695 696 694
f 697 699 698
f 697 698 696
f 699 701 700
f 699 700 698
f 701 703 702
f 701 702 700
f 703 705 704
f 703 704 702
f 705 707 706
f 705 706 704
f 707 709 708
f 707 708 706
f 709 711 710
f 709 710 708
f 711 713 712
f 711 712 710
f 713 715 714
f 713 714 712
f 715 717 716
f 715 716 714
f 717 719 718
f 717 718 716
f 719 721 720
f 719 720 718
f 721 693 690
f 721 690 720
f 722 690 691
f 722 691 694
f 722 694 696
f 722 696 698
f 722 698 700
f 722 700 702
f 722 702 704
f 722 704 706
f 722 706 708
f 722 708 710
f 722 710 712
f 722 712 714
f 722 714 716
f 722 716 718
f 722 718 720
f 722 720 690
f 726 725 724
f 726 724 723
f 725 728 727
f 725 727 724
f 728 730 729
f 728 729 727
f 730 732 731
f 730 731 729
f 732 734 733
f 732 733 731
f 734 736 735
f 734 735 733
f 736 738 737
f 736 737 735
f 738 740 739
f 738 739 737
f 740 742 741
f 740 741 739
f 742 744 743
f 742 743 741
f 744 746 745
f 744 745 743
f 746 748 747
f 746 747 745
f 748 750 749
f 748 749 747
f 750 752 751
f 750 751 749
f 752 754 753
f 752 753 751
f 754 726 723
f 754 723 753
f 755 723 724
f 755 724 727
f 755 727 729
f 755 729 731
f 755 731 733
f 755 733 735
f 755 735 737
f 755 737 739
f 755 739 741
f 755 741 743
f 755 743 745
f 755 745 747
f 755 747 749
f 755 749 751
f 755 751 753
f 755 753 723
f 759 758 757
f 759 757 756
f 758 761 760
f 758 760 757
f 761 763 762
f 761 762 760
f 763 765 764
f 763 764 762
f 765 767 766
f 765 766 764
f 767 769 768
f 767 768 766
f 769 771 770
f 769 770 768
f 771 773 772
f 771 772 770
f 773 775 774
f 773 774 772
f 775 777 776
f 775 776 774
f 777 779 778
f 777 778 776
f 779 781 780
f 779 780 778
f 781 783 782
f 781 782 780
f 783 785 784
f 783 784 782
f 785 787 786
f 785 786 784
f 787 759 756
f 787 756 786
f 788 756 757
f 788 757 760
f 788 760 762
f 788 762 764
f 788 764 766
f 788 766 768
f 788 768 770
f 788 770 772
f 788 772 774
f 788 774 776
f 788 776 778
f 788 778 780
f 788 780 782
f 788 782 784
f 788 784 786
f 788 786 756
f 792 791 790
f 792 790 789
f 791 794 793
f 791 793 790
f 794 796 795
f 794 795 793
f 796 798 797
f 796 797 795
f 798 800 799
f 798 799 797
f 800 802 801
f 800 801 799
f 802 804 803
f 802 803 801
f 804 806 805
f 804 805 803
f 806 808 807
f 806 807 805
f 808 810 809
f 808 809 807
f 810 812 811
f 810 811 809
f 812 814 813
f 812 813 811
f 814 816 815
f 814 815 813
f 816 818 817
f 816 817 815
f 818 820 819
f 818 819 817
f 820 792 789
f 820 789 819
f 821 789 790
f 821 790 793
f 821 793 795
f 821 795 797
f 821 797 799
f 821 799 801
f 821 801 803
f 821 803 805
f 821 805 807
f 821 807 809
f 821 809 811
f 821 811 813
f 821 813 815
f 821 815 817
f 821 817 819
f 821 819 789
f 825 824 823
f 825 823 822
f 824 827 826
f 824 826 823
f 827 829 828
f 827 828 826
f 829 831 830
f 829 830 828
f 831 833 832
f 831 832 830
f 833 835 834
f 833 834 832
f 835 837 836
f 835 836 834
f 837 839 838
f 837 838 836
f 839 841 840
f 839 840 838
f 841 843 842
f 841 842 840
f 843 845 844
f 843 844 842
f 845 847 846
f 845 846 844
f 847 849 848
f 847 848 846
f 849 851 850
f 849 850 848
f 851 853 852
f 851 852 850
f 853 825 822
f 853 822 852
f 854 822 823
f 854 823 826
f 854 826 828
f 854 828 830
f 854 830 832
f 854 832 834
f 854 834 836
f 854 836 838
f 854 838 840
f 854 840 842
f 854 842 844
f 854 844 846
f 854 846 848
f 854 848 850
f 854 850 852
f 854 852 822
f 858 857 856
f 858 856 855
f 857 860 859
f 857 859 856
f 860 862 861
f 860 861 859
f 862 864 863
f 862 863 861
f 864 866 865
f 864 865 863
f 866 868 867
f 866 867 865
f 868 870 869
f 868 869 867
f 870 872 871
f 870 871 869
f 872 874 873
f 872 873 871
f 874 876 875
f 874 875 873
f 876 878 877
f 876 877 875
f 878 880 879
f 878 879 877
f 880 882 881
f 880 881 879
f 882 884 883
f 882 883 881
f 884 886 885
f 884 885 883
f 886 858 855
f 886 855 885
f 887 855 856
f 887 856 859
f 887 859 861
f 887 861 863
f 887 863 865
f 887 865 867
f 887 867 869
f 887 869 871
f 887 871 873
f 887 873 875
f 887 875 877
f 887 877 879
f 887 879 881
f 887 881 883
f 887 883 885
f 887 885 855
