o 4214
v 0.0160000 0.0038782 0.0022123
v 0.0144000 0.0038782 0.0022123
v 0.0144000 0.0040000 0.0016000
v 0.0160000 0.0040000 0.0016000
v 0.0160000 0.0035314 0.0027314
v 0.0144000 0.0035314 0.0027314
v 0.0160000 0.0030123 0.0030782
v 0.0144000 0.0030123 0.0030782
v 0.0160000 0.0024000 0.0032000
v 0.0144000 0.0024000 0.0032000
v 0.0160000 0.0017877 0.0030782
v 0.0144000 0.0017877 0.0030782
v 0.0160000 0.0012686 0.0027314
v 0.0144000 0.0012686 0.0027314
v 0.0160000 0.0009218 0.0022123
v 0.0144000 0.0009218 0.0022123
v 0.0160000 0.0008000 0.0016000
v 0.0144000 0.0008000 0.0016000
v 0.0088000 0.0038782 0.0022123
v 0.0072000 0.0038782 0.0022123
v 0.0072000 0.0040000 0.0016000
v 0.0088000 0.0040000 0.0016000
v 0.0088000 0.0035314 0.0027314
v 0.0072000 0.0035314 0.0027314
v 0.0088000 0.0030123 0.0030782
v 0.0072000 0.0030123 0.0030782
v 0.0088000 0.0024000 0.0032000
v 0.0072000 0.0024000 0.0032000
v 0.0088000 0.0017877 0.0030782
v 0.0072000 0.0017877 0.0030782
v 0.0088000 0.0012686 0.0027314
v 0.0072000 0.0012686 0.0027314
v 0.0088000 0.0009218 0.0022123
v 0.0072000 0.0009218 0.0022123
v 0.0088000 0.0008000 0.0016000
v 0.0072000 0.0008000 0.0016000
v 0.0008000 0.0038782 0.0022123
v -0.0008000 0.0038782 0.0022123
v -0.0008000 0.0040000 0.0016000
v 0.0008000 0.0040000 0.0016000
v 0.0008000 0.0035314 0.0027314
v -0.0008000 0.0035314 0.0027314
v 0.0008000 0.0030123 0.0030782
v -0.0008000 0.0030123 0.0030782
v 0.0008000 0.0024000 0.0032000
v -0.0008000 0.0024000 0.0032000
v 0.0008000 0.0017877 0.0030782
v -0.0008000 0.0017877 0.0030782
v 0.0008000 0.0012686 0.0027314
v -0.0008000 0.0012686 0.0027314
v 0.0008000 0.0009218 0.0022123
v -0.0008000 0.0009218 0.0022123
v 0.0008000 0.0008000 0.0016000
v -0.0008000 0.0008000 0.0016000
v -0.0072000 0.0038782 0.0022123
v -0.0088000 0.0038782 0.0022123
v -0.0088000 0.0040000 0.0016000
v -0.0072000 0.0040000 0.0016000
v -0.0072000 0.0035314 0.0027314
v -0.0088000 0.0035314 0.0027314
v -0.0072000 0.0030123 0.0030782
v -0.0088000 0.0030123 0.0030782
v -0.0072000 0.0024000 0.0032000
v -0.0088000 0.0024000 0.0032000
v -0.0072000 0.0017877 0.0030782
v -0.0088000 0.0017877 0.0030782
v -0.0072000 0.0012686 0.0027314
v -0.0088000 0.0012686 0.0027314
v -0.0072000 0.0009218 0.0022123
v -0.0088000 0.0009218 0.0022123
v -0.0072000 0.0008000 0.0016000
v -0.0088000 0.0008000 0.0016000
v -0.0144000 0.0038782 0.0022123
v -0.0160000 0.0038782 0.0022123
v -0.0160000 0.0040000 0.0016000
v -0.0144000 0.0040000 0.0016000
v -0.0144000 0.0035314 0.0027314
v -0.0160000 0.0035314 0.0027314
v -0.0144000 0.0030123 0.0030782
v -0.0160000 0.0030123 0.0030782
v -0.0144000 0.0024000 0.0032000
v -0.0160000 0.0024000 0.0032000
v -0.0144000 0.0017877 0.0030782
v -0.0160000 0.0017877 0.0030782
v -0.0144000 0.0012686 0.0027314
v -0.0160000 0.0012686 0.0027314
v -0.0144000 0.0009218 0.0022123
v -0.0160000 0.0009218 0.0022123
v -0.0144000 0.0008000 0.0016000
v -0.0160000 0.0008000 0.0016000
v -0.0142650 0.0013500 0.0016000
v -0.0142650 0.0014299 0.0020018
v -0.0144000 0.0011065 0.0021358
v -0.0144000 0.0010000 0.0016000
v -0.0142650 0.0016576 0.0023424
v -0.0144000 0.0014101 0.0025899
v -0.0142650 0.0019982 0.0025701
v -0.0144000 0.0018642 0.0028935
v -0.0142650 0.0024000 0.0026500
v -0.0144000 0.0024000 0.0030000
v -0.0142650 0.0028018 0.0025701
v -0.0144000 0.0029358 0.0028935
v -0.0142650 0.0031424 0.0023424
v -0.0144000 0.0033899 0.0025899
v -0.0142650 0.0033701 0.0020018
v -0.0144000 0.0036935 0.0021358
v -0.0142650 0.0034500 0.0016000
v -0.0144000 0.0038000 0.0016000
v -0.0142650 0.0033701 0.0011982
v -0.0144000 0.0036935 0.0010642
v -0.0142650 0.0031424 0.0008576
v -0.0144000 0.0033899 0.0006101
v -0.0142650 0.0028018 0.0006299
v -0.0144000 0.0029358 0.0003065
v -0.0142650 0.0024000 0.0005500
v -0.0144000 0.0024000 0.0002000
v -0.0142650 0.0019982 0.0006299
v -0.0144000 0.0018642 0.0003065
v -0.0142650 0.0016576 0.0008576
v -0.0144000 0.0014101 0.0006101
v -0.0142650 0.0014299 0.0011982
v -0.0144000 0.0011065 0.0010642
v -0.0141300 0.0018750 0.0016000
v -0.0141300 0.0019150 0.0018009
v -0.0141300 0.0020288 0.0019712
v -0.0141300 0.0021991 0.0020850
v -0.0141300 0.0024000 0.0021250
v -0.0141300 0.0026009 0.0020850
v -0.0141300 0.0027712 0.0019712
v -0.0141300 0.0028850 0.0018009
v -0.0141300 0.0029250 0.0016000
v -0.0141300 0.0028850 0.0013991
v -0.0141300 0.0027712 0.0012288
v -0.0141300 0.0026009 0.0011150
v -0.0141300 0.0024000 0.0010750
v -0.0141300 0.0021991 0.0011150
v -0.0141300 0.0020288 0.0012288
v -0.0141300 0.0019150 0.0013991
v -0.0141000 0.0024000 0.0016000
v -0.0141300 0.0020287 0.0019713
v -0.0141300 0.0027713 0.0019713
v -0.0141300 0.0027713 0.0012287
v -0.0141300 0.0020287 0.0012287
v 0.0142650 0.0013500 0.0016000
v 0.0142650 0.0014299 0.0020018
v 0.0144000 0.0011065 0.0021358
v 0.0144000 0.0010000 0.0016000
v 0.0142650 0.0016576 0.0023424
v 0.0144000 0.0014101 0.0025899
v 0.0142650 0.0019982 0.0025701
v 0.0144000 0.0018642 0.0028935
v 0.0142650 0.0024000 0.0026500
v 0.0144000 0.0024000 0.0030000
v 0.0142650 0.0028018 0.0025701
v 0.0144000 0.0029358 0.0028935
v 0.0142650 0.0031424 0.0023424
v 0.0144000 0.0033899 0.0025899
v 0.0142650 0.0033701 0.0020018
v 0.0144000 0.0036935 0.0021358
v 0.0142650 0.0034500 0.0016000
v 0.0144000 0.0038000 0.0016000
v 0.0142650 0.0033701 0.0011982
v 0.0144000 0.0036935 0.0010642
v 0.0142650 0.0031424 0.0008576
v 0.0144000 0.0033899 0.0006101
v 0.0142650 0.0028018 0.0006299
v 0.0144000 0.0029358 0.0003065
v 0.0142650 0.0024000 0.0005500
v 0.0144000 0.0024000 0.0002000
v 0.0142650 0.0019982 0.0006299
v 0.0144000 0.0018642 0.0003065
v 0.0142650 0.0016576 0.0008576
v 0.0144000 0.0014101 0.0006101
v 0.0142650 0.0014299 0.0011982
v 0.0144000 0.0011065 0.0010642
v 0.0141300 0.0018750 0.0016000
v 0.0141300 0.0019150 0.0018009
v 0.0141300 0.0020288 0.0019712
v 0.0141300 0.0021991 0.0020850
v 0.0141300 0.0024000 0.0021250
v 0.0141300 0.0026009 0.0020850
v 0.0141300 0.0027712 0.0019712
v 0.0141300 0.0028850 0.0018009
v 0.0141300 0.0029250 0.0016000
v 0.0141300 0.0028850 0.0013991
v 0.0141300 0.0027712 0.0012288
v 0.0141300 0.0026009 0.0011150
v 0.0141300 0.0024000 0.0010750
v 0.0141300 0.0021991 0.0011150
v 0.0141300 0.0020288 0.0012288
v 0.0141300 0.0019150 0.0013991
v 0.0141000 0.0024000 0.0016000
v 0.0141300 0.0020287 0.0019713
v 0.0141300 0.0027713 0.0019713
v 0.0141300 0.0027713 0.0012287
v 0.0141300 0.0020287 0.0012287
v 0.0072000 0.0040000 -0.0000000
v 0.0088000 0.0040000 -0.0000000
v 0.0072000 0.0008000 -0.0000000
v 0.0088000 0.0008000 -0.0000000
v -0.0008000 0.0040000 -0.0000000
v 0.0008000 0.0040000 -0.0000000
v -0.0008000 0.0008000 -0.0000000
v 0.0008000 0.0008000 -0.0000000
v -0.0088000 0.0040000 -0.0000000
v -0.0072000 0.0040000 -0.0000000
v -0.0088000 0.0008000 -0.0000000
v -0.0072000 0.0008000 -0.0000000
v 0.0144000 0.0008000 -0.0000000
v 0.0144000 0.0040000 -0.0000000
v 0.0160000 0.0008000 -0.0000000
v -0.0144000 0.0008000 -0.0000000
v -0.0144000 0.0040000 -0.0000000
v -0.0160000 0.0008000 -0.0000000
v 0.0144000 -0.0040000 -0.0000000
v 0.0160000 -0.0040000 -0.0000000
v 0.0144000 -0.0016000 -0.0000000
v 0.0120000 0.0008000 -0.0000000
v -0.0160000 -0.0040000 -0.0000000
v -0.0144000 -0.0040000 -0.0000000
v -0.0144000 -0.0016000 -0.0000000
v -0.0120000 0.0008000 -0.0000000
v 0.0142174 -0.0006815 -0.0016000
v 0.0144000 -0.0016000 -0.0016000
v 0.0144000 0.0008000 -0.0016000
v 0.0136970 0.0000970 -0.0016000
v 0.0129185 0.0006174 -0.0016000
v 0.0120000 0.0008000 -0.0016000
v -0.0142174 -0.0006815 -0.0016000
v -0.0144000 -0.0016000 -0.0016000
v -0.0144000 0.0008000 -0.0016000
v -0.0136970 0.0000970 -0.0016000
v -0.0129185 0.0006174 -0.0016000
v -0.0120000 0.0008000 -0.0016000
v 0.0142174 -0.0006815 -0.0000000
v 0.0136970 0.0000970 -0.0000000
v 0.0129185 0.0006174 -0.0000000
v -0.0142174 -0.0006815 -0.0000000
v -0.0136970 0.0000970 -0.0000000
v -0.0129185 0.0006174 -0.0000000
v 0.0000000 0.0008000 -0.0016000
v -0.0144000 0.0040000 -0.0016000
v 0.0144000 0.0040000 -0.0016000
v 0.0000000 0.0040000 -0.0016000
v -0.0144000 0.0040000 -0.0160000
v -0.0144000 -0.0040000 -0.0160000
v 0.0144000 0.0040000 -0.0160000
v 0.0144000 -0.0040000 -0.0160000
v 0.0160000 -0.0040000 -0.0192000
v 0.0160000 0.0040000 -0.0192000
v -0.0160000 -0.0040000 -0.0192000
v -0.0160000 0.0040000 -0.0192000
v 0.0096000 0.0024000 -0.0176000
v 0.0144000 0.0024000 -0.0176000
v 0.0144000 -0.0024000 -0.0176000
v 0.0096000 -0.0024000 -0.0176000
v 0.0096000 0.0024000 -0.0192000
v 0.0144000 0.0024000 -0.0192000
v 0.0096000 -0.0024000 -0.0192000
v 0.0144000 -0.0024000 -0.0192000
v -0.0144000 0.0024000 -0.0176000
v -0.0096000 0.0024000 -0.0176000
v -0.0096000 -0.0024000 -0.0176000
v -0.0144000 -0.0024000 -0.0176000
v -0.0144000 0.0024000 -0.0192000
v -0.0096000 0.0024000 -0.0192000
v -0.0144000 -0.0024000 -0.0192000
v -0.0096000 -0.0024000 -0.0192000
v 0.0080000 0.0024000 -0.0192000
v 0.0080000 0.0040000 -0.0192000
v -0.0080000 0.0040000 -0.0192000
v -0.0080000 0.0024000 -0.0192000
v -0.0080000 0.0024000 -0.0168000
v 0.0080000 0.0024000 -0.0168000
v 0.0080000 0.0000000 -0.0168000
v -0.0080000 0.0000000 -0.0168000
v -0.0080000 0.0000000 -0.0160000
v 0.0080000 0.0000000 -0.0160000
v 0.0080000 -0.0040000 -0.0192000
v -0.0080000 -0.0040000 -0.0192000
v -0.0080000 -0.0040000 -0.0160000
v 0.0080000 -0.0040000 -0.0160000
usemtl c16
f 4 3 2
f 4 2 1
f 1 2 6
f 1 6 5
f 5 6 8
f 5 8 7
f 7 8 10
f 7 10 9
f 9 10 12
f 9 12 11
f 11 12 14
f 11 14 13
f 13 14 16
f 13 16 15
f 15 16 18
f 15 18 17
f 22 21 20
f 22 20 19
f 19 20 24
f 19 24 23
f 23 24 26
f 23 26 25
f 25 26 28
f 25 28 27
f 27 28 30
f 27 30 29
f 29 30 32
f 29 32 31
f 31 32 34
f 31 34 33
f 33 34 36
f 33 36 35
f 40 39 38
f 40 38 37
f 37 38 42
f 37 42 41
f 41 42 44
f 41 44 43
f 43 44 46
f 43 46 45
f 45 46 48
f 45 48 47
f 47 48 50
f 47 50 49
f 49 50 52
f 49 52 51
f 51 52 54
f 51 54 53
f 58 57 56
f 58 56 55
f 55 56 60
f 55 60 59
f 59 60 62
f 59 62 61
f 61 62 64
f 61 64 63
f 63 64 66
f 63 66 65
f 65 66 68
f 65 68 67
f 67 68 70
f 67 70 69
f 69 70 72
f 69 72 71
f 76 75 74
f 76 74 73
f 73 74 78
f 73 78 77
f 77 78 80
f 77 80 79
f 79 80 82
f 79 82 81
f 81 82 84
f 81 84 83
f 83 84 86
f 83 86 85
f 85 86 88
f 85 88 87
f 87 88 90
f 87 90 89
f 1 15 17
f 1 17 4
f 5 13 15
f 5 15 1
f 7 11 13
f 7 13 5
f 9 11 7
f 3 18 16
f 3 16 2
f 2 16 14
f 2 14 6
f 6 14 12
f 6 12 8
f 8 12 10
f 19 33 35
f 19 35 22
f 23 31 33
f 23 33 19
f 25 29 31
f 25 31 23
f 27 29 25
f 21 36 34
f 21 34 20
f 20 34 32
f 20 32 24
f 24 32 30
f 24 30 26
f 26 30 28
f 37 51 53
f 37 53 40
f 41 49 51
f 41 51 37
f 43 47 49
f 43 49 41
f 45 47 43
f 39 54 52
f 39 52 38
f 38 52 50
f 38 50 42
f 42 50 48
f 42 48 44
f 44 48 46
f 55 69 71
f 55 71 58
f 59 67 69
f 59 69 55
f 61 65 67
f 61 67 59
f 63 65 61
f 57 72 70
f 57 70 56
f 56 70 68
f 56 68 60
f 60 68 66
f 60 66 62
f 62 66 64
f 73 87 89
f 73 89 76
f 77 85 87
f 77 87 73
f 79 83 85
f 79 85 77
f 81 83 79
f 75 90 88
f 75 88 74
f 74 88 86
f 74 86 78
f 78 86 84
f 78 84 80
f 80 84 82
f 91 92 93
f 91 93 94
f 92 95 96
f 92 96 93
f 95 97 98
f 95 98 96
f 97 99 100
f 97 100 98
f 99 101 102
f 99 102 100
f 101 103 104
f 101 104 102
f 103 105 106
f 103 106 104
f 105 107 108
f 105 108 106
f 107 109 110
f 107 110 108
f 109 111 112
f 109 112 110
f 111 113 114
f 111 114 112
f 113 115 116
f 113 116 114
f 115 117 118
f 115 118 116
f 117 119 120
f 117 120 118
f 119 121 122
f 119 122 120
f 121 91 94
f 121 94 122
f 91 123 124
f 91 124 92
f 92 124 125
f 92 125 95
f 95 125 126
f 95 126 97
f 97 126 127
f 97 127 99
f 99 127 128
f 99 128 101
f 101 128 129
f 101 129 103
f 103 129 130
f 103 130 105
f 105 130 131
f 105 131 107
f 107 131 132
f 107 132 109
f 109 132 133
f 109 133 111
f 111 133 134
f 111 134 113
f 113 134 135
f 113 135 115
f 115 135 136
f 115 136 117
f 117 136 137
f 117 137 119
f 119 137 138
f 119 138 121
f 121 138 123
f 121 123 91
f 139 124 123
f 139 140 124
f 139 126 140
f 139 127 126
f 139 128 127
f 139 141 128
f 139 130 141
f 139 131 130
f 139 132 131
f 139 142 132
f 139 134 142
f 139 135 134
f 139 136 135
f 139 143 136
f 139 138 143
f 139 123 138
f 147 146 145
f 147 145 144
f 146 149 148
f 146 148 145
f 149 151 150
f 149 150 148
f 151 153 152
f 151 152 150
f 153 155 154
f 153 154 152
f 155 157 156
f 155 156 154
f 157 159 158
f 157 158 156
f 159 161 160
f 159 160 158
f 161 163 162
f 161 162 160
f 163 165 164
f 163 164 162
f 165 167 166
f 165 166 164
f 167 169 168
f 167 168 166
f 169 171 170
f 169 170 168
f 171 173 172
f 171 172 170
f 173 175 174
f 173 174 172
f 175 147 144
f 175 144 174
f 145 177 176
f 145 176 144
f 148 178 177
f 148 177 145
f 150 179 178
f 150 178 148
f 152 180 179
f 152 179 150
f 154 181 180
f 154 180 152
f 156 182 181
f 156 181 154
f 158 183 182
f 158 182 156
f 160 184 183
f 160 183 158
f 162 185 184
f 162 184 160
f 164 186 185
f 164 185 162
f 166 187 186
f 166 186 164
f 168 188 187
f 168 187 166
f 170 189 188
f 170 188 168
f 172 190 189
f 172 189 170
f 174 191 190
f 174 190 172
f 144 176 191
f 144 191 174
f 176 177 192
f 177 193 192
f 193 179 192
f 179 180 192
f 180 181 192
f 181 194 192
f 194 183 192
f 183 184 192
f 184 185 192
f 185 195 192
f 195 187 192
f 187 188 192
f 188 189 192
f 189 196 192
f 196 191 192
f 191 176 192
f 197 21 22
f 197 22 198
f 199 36 21
f 199 21 197
f 200 35 36
f 200 36 199
f 198 22 35
f 198 35 200
f 201 39 40
f 201 40 202
f 203 54 39
f 203 39 201
f 204 53 54
f 204 54 203
f 202 40 53
f 202 53 204
f 205 57 58
f 205 58 206
f 207 72 57
f 207 57 205
f 208 71 72
f 208 72 207
f 206 58 71
f 206 71 208
f 3 210 209
f 3 209 18
f 17 18 209
f 17 209 211
f 89 212 213
f 89 213 76
f 214 212 89
f 214 89 90
f 199 197 202
f 199 202 204
f 206 208 203
f 206 203 201
f 215 216 211
f 215 211 217
f 217 211 209
f 198 200 218
f 198 218 210
f 210 218 209
f 214 219 220
f 214 220 221
f 214 221 212
f 222 207 205
f 222 205 213
f 222 213 212
f 225 224 223
f 225 223 226
f 225 226 227
f 225 227 228
f 229 230 231
f 232 229 231
f 233 232 231
f 234 233 231
f 235 217 209
f 236 235 209
f 237 236 209
f 218 237 209
f 212 221 238
f 212 238 239
f 212 239 240
f 212 240 222
f 224 223 235
f 224 235 217
f 223 226 236
f 223 236 235
f 226 227 237
f 226 237 236
f 227 228 218
f 227 218 237
f 221 238 229
f 221 229 230
f 238 239 232
f 238 232 229
f 239 240 233
f 239 233 232
f 240 222 234
f 240 234 233
f 204 203 241
f 222 234 207
f 207 234 241
f 207 241 208
f 208 241 203
f 228 218 200
f 241 228 200
f 241 200 199
f 241 199 204
f 231 242 234
f 243 225 228
f 243 228 234
f 243 234 242
f 201 202 244
f 244 242 205
f 244 205 206
f 244 206 201
f 198 243 244
f 198 244 197
f 197 244 202
f 205 242 213
f 198 210 243
f 245 242 231
f 231 230 246
f 231 246 245
f 221 220 246
f 221 246 230
f 243 247 225
f 248 224 225
f 248 225 247
f 248 215 217
f 248 217 224
f 249 216 215
f 249 215 248
f 216 249 250
f 216 250 211
f 211 250 4
f 211 4 17
f 250 247 243
f 250 243 4
f 4 243 210
f 4 210 3
f 246 220 219
f 246 219 251
f 242 245 252
f 242 252 75
f 75 252 214
f 75 214 90
f 219 214 252
f 219 252 251
f 213 242 75
f 213 75 76
f 256 255 254
f 256 254 253
f 254 258 257
f 254 257 253
f 253 257 259
f 253 259 256
f 256 259 260
f 256 260 255
f 255 260 258
f 255 258 254
f 264 263 262
f 264 262 261
f 262 266 265
f 262 265 261
f 261 265 267
f 261 267 264
f 264 267 268
f 264 268 263
f 263 268 266
f 263 266 262
f 272 271 270
f 272 270 269
f 274 273 272
f 274 272 269
f 276 273 274
f 276 274 275
f 278 277 276
f 278 276 275
f 250 258 257
f 250 257 270
f 279 259 260
f 279 260 249
f 249 260 258
f 249 258 250
f 271 266 265
f 271 265 252
f 251 267 268
f 251 268 280
f 252 265 267
f 252 267 251
f 268 266 272
f 268 272 280
f 269 257 259
f 269 259 279
f 271 272 266
f 269 270 257
f 252 245 247
f 252 247 250
f 280 281 246
f 280 246 251
f 276 277 281
f 276 281 280
f 272 273 276
f 272 276 280
f 279 282 278
f 279 278 275
f 279 275 274
f 279 274 269
f 249 248 282
f 249 282 279
f 247 278 282
f 247 282 248
f 246 281 277
f 246 277 245
f 247 245 277
f 247 277 278
