o 4315
v -0.0080000 0.0000000 -0.0032000
v -0.0064000 0.0000000 -0.0032000
v -0.0065218 0.0006123 -0.0032000
v -0.0068686 0.0011314 -0.0032000
v -0.0073877 0.0014782 -0.0032000
v -0.0080000 0.0016000 -0.0032000
v -0.0086123 0.0014782 -0.0032000
v -0.0091314 0.0011314 -0.0032000
v -0.0094782 0.0006123 -0.0032000
v -0.0096000 0.0000000 -0.0032000
v -0.0094782 -0.0006123 -0.0032000
v -0.0091314 -0.0011314 -0.0032000
v -0.0086123 -0.0014782 -0.0032000
v -0.0080000 -0.0016000 -0.0032000
v -0.0073877 -0.0014782 -0.0032000
v -0.0068686 -0.0011314 -0.0032000
v -0.0065218 -0.0006123 -0.0032000
v -0.0064000 0.0000000 -0.0016000
v -0.0065218 0.0006123 -0.0016000
v -0.0068686 0.0011314 -0.0016000
v -0.0073877 0.0014782 -0.0016000
v -0.0080000 0.0016000 -0.0016000
v -0.0086123 0.0014782 -0.0016000
v -0.0091314 0.0011314 -0.0016000
v -0.0094782 0.0006123 -0.0016000
v -0.0096000 0.0000000 -0.0016000
v -0.0094782 -0.0006123 -0.0016000
v -0.0091314 -0.0011314 -0.0016000
v -0.0086123 -0.0014782 -0.0016000
v -0.0080000 -0.0016000 -0.0016000
v -0.0073877 -0.0014782 -0.0016000
v -0.0068686 -0.0011314 -0.0016000
v -0.0065218 -0.0006123 -0.0016000
v 0.0000000 0.0000000 -0.0032000
v 0.0016000 0.0000000 -0.0032000
v 0.0014782 0.0006123 -0.0032000
v 0.0011314 0.0011314 -0.0032000
v 0.0006123 0.0014782 -0.0032000
v 0.0000000 0.0016000 -0.0032000
v -0.0006123 0.0014782 -0.0032000
v -0.0011314 0.0011314 -0.0032000
v -0.0014782 0.0006123 -0.0032000
v -0.0016000 0.0000000 -0.0032000
v -0.0014782 -0.0006123 -0.0032000
v -0.0011314 -0.0011314 -0.0032000
v -0.0006123 -0.0014782 -0.0032000
v 0.0000000 -0.0016000 -0.0032000
v 0.0006123 -0.0014782 -0.0032000
v 0.0011314 -0.0011314 -0.0032000
v 0.0014782 -0.0006123 -0.0032000
v 0.0016000 0.0000000 -0.0016000
v 0.0014782 0.0006123 -0.0016000
v 0.0011314 0.0011314 -0.0016000
v 0.0006123 0.0014782 -0.0016000
v 0.0000000 0.0016000 -0.0016000
v -0.0006123 0.0014782 -0.0016000
v -0.0011314 0.0011314 -0.0016000
v -0.0014782 0.0006123 -0.0016000
v -0.0016000 0.0000000 -0.0016000
v -0.0014782 -0.0006123 -0.0016000
v -0.0011314 -0.0011314 -0.0016000
v -0.0006123 -0.0014782 -0.0016000
v 0.0000000 -0.0016000 -0.0016000
v 0.0006123 -0.0014782 -0.0016000
v 0.0011314 -0.0011314 -0.0016000
v 0.0014782 -0.0006123 -0.0016000
v 0.0080000 0.0000000 -0.0032000
v 0.0096000 0.0000000 -0.0032000
v 0.0094782 0.0006123 -0.0032000
v 0.0091314 0.0011314 -0.0032000
v 0.0086123 0.0014782 -0.0032000
v 0.0080000 0.0016000 -0.0032000
v 0.0073877 0.0014782 -0.0032000
v 0.0068686 0.0011314 -0.0032000
v 0.0065218 0.0006123 -0.0032000
v 0.0064000 0.0000000 -0.0032000
v 0.0065218 -0.0006123 -0.0032000
v 0.0068686 -0.0011314 -0.0032000
v 0.0073877 -0.0014782 -0.0032000
v 0.0080000 -0.0016000 -0.0032000
v 0.0086123 -0.0014782 -0.0032000
v 0.0091314 -0.0011314 -0.0032000
v 0.0094782 -0.0006123 -0.0032000
v 0.0096000 0.0000000 -0.0016000
v 0.0094782 0.0006123 -0.0016000
v 0.0091314 0.0011314 -0.0016000
v 0.0086123 0.0014782 -0.0016000
v 0.0080000 0.0016000 -0.0016000
v 0.0073877 0.0014782 -0.0016000
v 0.0068686 0.0011314 -0.0016000
v 0.0065218 0.0006123 -0.0016000
v 0.0064000 0.0000000 -0.0016000
v 0.0065218 -0.0006123 -0.0016000
v 0.0068686 -0.0011314 -0.0016000
v 0.0073877 -0.0014782 -0.0016000
v 0.0080000 -0.0016000 -0.0016000
v 0.0086123 -0.0014782 -0.0016000
v 0.0091314 -0.0011314 -0.0016000
v 0.0094782 -0.0006123 -0.0016000
v -0.0144000 0.0024000 -0.0016000
v 0.0144000 0.0024000 -0.0016000
v 0.0144000 -0.0024000 -0.0016000
v -0.0144000 -0.0024000 -0.0016000
v -0.0144000 0.0024000 -0.0032000
v 0.0144000 0.0024000 -0.0032000
v -0.0144000 -0.0024000 -0.0032000
v 0.0144000 -0.0024000 -0.0032000
v 0.0160000 -0.0056000 -0.0032000
v 0.0144000 -0.0056000 -0.0032000
v 0.0144000 -0.0040000 -0.0032000
v 0.0160000 0.0040000 -0.0032000
v -0.0160000 0.0040000 -0.0032000
v -0.0144000 -0.0040000 -0.0032000
v -0.0144000 -0.0056000 -0.0032000
v -0.0160000 -0.0056000 -0.0032000
v -0.0088000 -0.0040000 -0.0032000
v -0.0072000 -0.0040000 -0.0032000
v -0.0008000 -0.0040000 -0.0032000
v 0.0008000 -0.0040000 -0.0032000
v 0.0072000 -0.0040000 -0.0032000
v 0.0088000 -0.0040000 -0.0032000
v -0.0160000 0.0040000 -0.0000000
v 0.0160000 0.0040000 -0.0000000
v 0.0160000 -0.0056000 -0.0000000
v -0.0160000 -0.0056000 -0.0000000
v -0.0144000 -0.0040000 -0.0000000
v -0.0160000 -0.0040000 -0.0000000
v -0.0088000 -0.0040000 -0.0000000
v -0.0072000 -0.0040000 -0.0000000
v -0.0008000 -0.0040000 -0.0000000
v 0.0008000 -0.0040000 -0.0000000
v 0.0072000 -0.0040000 -0.0000000
v 0.0088000 -0.0040000 -0.0000000
v 0.0144000 -0.0040000 -0.0000000
v 0.0160000 -0.0040000 -0.0000000
v -0.0144000 -0.0056000 -0.0000000
v 0.0144000 -0.0056000 -0.0000000
v 0.0072000 -0.0056000 -0.0032000
v 0.0088000 -0.0056000 -0.0032000
v 0.0072000 -0.0056000 -0.0000000
v 0.0088000 -0.0056000 -0.0000000
v -0.0008000 -0.0056000 -0.0032000
v 0.0008000 -0.0056000 -0.0032000
v -0.0008000 -0.0056000 -0.0000000
v 0.0008000 -0.0056000 -0.0000000
v -0.0088000 -0.0056000 -0.0032000
v -0.0072000 -0.0056000 -0.0032000
v -0.0088000 -0.0056000 -0.0000000
v -0.0072000 -0.0056000 -0.0000000
v -0.0142650 -0.0066500 -0.0016000
v -0.0142650 -0.0065701 -0.0011982
v -0.0144000 -0.0068935 -0.0010642
v -0.0144000 -0.0070000 -0.0016000
v -0.0142650 -0.0063424 -0.0008576
v -0.0144000 -0.0065899 -0.0006101
v -0.0142650 -0.0060018 -0.0006299
v -0.0144000 -0.0061358 -0.0003065
v -0.0142650 -0.0056000 -0.0005500
v -0.0144000 -0.0056000 -0.0002000
v -0.0142650 -0.0051982 -0.0006299
v -0.0144000 -0.0050642 -0.0003065
v -0.0142650 -0.0048576 -0.0008576
v -0.0144000 -0.0046101 -0.0006101
v -0.0142650 -0.0046299 -0.0011982
v -0.0144000 -0.0043065 -0.0010642
v -0.0142650 -0.0045500 -0.0016000
v -0.0144000 -0.0042000 -0.0016000
v -0.0142650 -0.0046299 -0.0020018
v -0.0144000 -0.0043065 -0.0021358
v -0.0142650 -0.0048576 -0.0023424
v -0.0144000 -0.0046101 -0.0025899
v -0.0142650 -0.0051982 -0.0025701
v -0.0144000 -0.0050642 -0.0028935
v -0.0142650 -0.0056000 -0.0026500
v -0.0144000 -0.0056000 -0.0030000
v -0.0142650 -0.0060018 -0.0025701
v -0.0144000 -0.0061358 -0.0028935
v -0.0142650 -0.0063424 -0.0023424
v -0.0144000 -0.0065899 -0.0025899
v -0.0142650 -0.0065701 -0.0020018
v -0.0144000 -0.0068935 -0.0021358
v -0.0141300 -0.0061250 -0.0016000
v -0.0141300 -0.0060850 -0.0013991
v -0.0141300 -0.0059712 -0.0012288
v -0.0141300 -0.0058009 -0.0011150
v -0.0141300 -0.0056000 -0.0010750
v -0.0141300 -0.0053991 -0.0011150
v -0.0141300 -0.0052288 -0.0012288
v -0.0141300 -0.0051150 -0.0013991
v -0.0141300 -0.0050750 -0.0016000
v -0.0141300 -0.0051150 -0.0018009
v -0.0141300 -0.0052288 -0.0019712
v -0.0141300 -0.0053991 -0.0020850
v -0.0141300 -0.0056000 -0.0021250
v -0.0141300 -0.0058009 -0.0020850
v -0.0141300 -0.0059712 -0.0019712
v -0.0141300 -0.0060850 -0.0018009
v -0.0141000 -0.0056000 -0.0016000
v -0.0141300 -0.0059713 -0.0012287
v -0.0141300 -0.0052287 -0.0012287
v -0.0141300 -0.0052287 -0.0019713
v -0.0141300 -0.0059713 -0.0019713
v -0.0144000 -0.0070782 -0.0009877
v -0.0144000 -0.0072000 -0.0016000
v -0.0144000 -0.0067314 -0.0004686
v -0.0144000 -0.0062123 -0.0001218
v -0.0144000 -0.0061358 -0.0003066
v -0.0144000 -0.0049877 -0.0001218
v -0.0144000 -0.0050642 -0.0003066
v -0.0144000 -0.0044686 -0.0004686
v -0.0144000 -0.0041218 -0.0009877
v -0.0144000 -0.0040000 -0.0016000
v -0.0144000 -0.0041218 -0.0022123
v -0.0144000 -0.0044686 -0.0027314
v -0.0144000 -0.0049877 -0.0030782
v -0.0144000 -0.0050642 -0.0028934
v -0.0144000 -0.0062123 -0.0030782
v -0.0144000 -0.0061358 -0.0028934
v -0.0144000 -0.0067314 -0.0027314
v -0.0144000 -0.0070782 -0.0022123
v 0.0142650 -0.0066500 -0.0016000
v 0.0142650 -0.0065701 -0.0011982
v 0.0144000 -0.0068935 -0.0010642
v 0.0144000 -0.0070000 -0.0016000
v 0.0142650 -0.0063424 -0.0008576
v 0.0144000 -0.0065899 -0.0006101
v 0.0142650 -0.0060018 -0.0006299
v 0.0144000 -0.0061358 -0.0003065
v 0.0142650 -0.0056000 -0.0005500
v 0.0144000 -0.0056000 -0.0002000
v 0.0142650 -0.0051982 -0.0006299
v 0.0144000 -0.0050642 -0.0003065
v 0.0142650 -0.0048576 -0.0008576
v 0.0144000 -0.0046101 -0.0006101
v 0.0142650 -0.0046299 -0.0011982
v 0.0144000 -0.0043065 -0.0010642
v 0.0142650 -0.0045500 -0.0016000
v 0.0144000 -0.0042000 -0.0016000
v 0.0142650 -0.0046299 -0.0020018
v 0.0144000 -0.0043065 -0.0021358
v 0.0142650 -0.0048576 -0.0023424
v 0.0144000 -0.0046101 -0.0025899
v 0.0142650 -0.0051982 -0.0025701
v 0.0144000 -0.0050642 -0.0028935
v 0.0142650 -0.0056000 -0.0026500
v 0.0144000 -0.0056000 -0.0030000
v 0.0142650 -0.0060018 -0.0025701
v 0.0144000 -0.0061358 -0.0028935
v 0.0142650 -0.0063424 -0.0023424
v 0.0144000 -0.0065899 -0.0025899
v 0.0142650 -0.0065701 -0.0020018
v 0.0144000 -0.0068935 -0.0021358
v 0.0141300 -0.0061250 -0.0016000
v 0.0141300 -0.0060850 -0.0013991
v 0.0141300 -0.0059712 -0.0012288
v 0.0141300 -0.0058009 -0.0011150
v 0.0141300 -0.0056000 -0.0010750
v 0.0141300 -0.0053991 -0.0011150
v 0.0141300 -0.0052288 -0.0012288
v 0.0141300 -0.0051150 -0.0013991
v 0.0141300 -0.0050750 -0.0016000
v 0.0141300 -0.0051150 -0.0018009
v 0.0141300 -0.0052288 -0.0019712
v 0.0141300 -0.0053991 -0.0020850
v 0.0141300 -0.0056000 -0.0021250
v 0.0141300 -0.0058009 -0.0020850
v 0.0141300 -0.0059712 -0.0019712
v 0.0141300 -0.0060850 -0.0018009
v 0.0141000 -0.0056000 -0.0016000
v 0.0141300 -0.0059713 -0.0012287
v 0.0141300 -0.0052287 -0.0012287
v 0.0141300 -0.0052287 -0.0019713
v 0.0141300 -0.0059713 -0.0019713
v 0.0144000 -0.0070782 -0.0009877
v 0.0144000 -0.0072000 -0.0016000
v 0.0144000 -0.0067314 -0.0004686
v 0.0144000 -0.0062123 -0.0001218
v 0.0144000 -0.0061358 -0.0003066
v 0.0144000 -0.0049877 -0.0001218
v 0.0144000 -0.0050642 -0.0003066
v 0.0144000 -0.0044686 -0.0004686
v 0.0144000 -0.0041218 -0.0009877
v 0.0144000 -0.0040000 -0.0016000
v 0.0144000 -0.0041218 -0.0022123
v 0.0144000 -0.0044686 -0.0027314
v 0.0144000 -0.0049877 -0.0030782
v 0.0144000 -0.0050642 -0.0028934
v 0.0144000 -0.0062123 -0.0030782
v 0.0144000 -0.0061358 -0.0028934
v 0.0144000 -0.0067314 -0.0027314
v 0.0144000 -0.0070782 -0.0022123
v 0.0160000 -0.0056000 -0.0016000
v 0.0160000 -0.0062123 -0.0030782
v 0.0160000 -0.0067314 -0.0027314
v 0.0160000 -0.0070782 -0.0022123
v 0.0160000 -0.0072000 -0.0016000
v 0.0160000 -0.0070782 -0.0009877
v 0.0160000 -0.0067314 -0.0004686
v 0.0160000 -0.0062123 -0.0001218
v 0.0088000 -0.0056000 -0.0016000
v 0.0088000 -0.0062123 -0.0030782
v 0.0088000 -0.0067314 -0.0027314
v 0.0088000 -0.0070782 -0.0022123
v 0.0088000 -0.0072000 -0.0016000
v 0.0088000 -0.0070782 -0.0009877
v 0.0088000 -0.0067314 -0.0004686
v 0.0088000 -0.0062123 -0.0001218
v 0.0072000 -0.0062123 -0.0030782
v 0.0072000 -0.0067314 -0.0027314
v 0.0072000 -0.0070782 -0.0022123
v 0.0072000 -0.0072000 -0.0016000
v 0.0072000 -0.0070782 -0.0009877
v 0.0072000 -0.0067314 -0.0004686
v 0.0072000 -0.0062123 -0.0001218
v 0.0072000 -0.0056000 -0.0016000
v 0.0008000 -0.0056000 -0.0016000
v 0.0008000 -0.0062123 -0.0030782
v 0.0008000 -0.0067314 -0.0027314
v 0.0008000 -0.0070782 -0.0022123
v 0.0008000 -0.0072000 -0.0016000
v 0.0008000 -0.0070782 -0.0009877
v 0.0008000 -0.0067314 -0.0004686
v 0.0008000 -0.0062123 -0.0001218
v -0.0008000 -0.0062123 -0.0030782
v -0.0008000 -0.0067314 -0.0027314
v -0.0008000 -0.0070782 -0.0022123
v -0.0008000 -0.0072000 -0.0016000
v -0.0008000 -0.0070782 -0.0009877
v -0.0008000 -0.0067314 -0.0004686
v -0.0008000 -0.0062123 -0.0001218
v -0.0008000 -0.0056000 -0.0016000
v -0.0072000 -0.0056000 -0.0016000
v -0.0072000 -0.0062123 -0.0030782
v -0.0072000 -0.0067314 -0.0027314
v -0.0072000 -0.0070782 -0.0022123
v -0.0072000 -0.0072000 -0.0016000
v -0.0072000 -0.0070782 -0.0009877
v -0.0072000 -0.0067314 -0.0004686
v -0.0072000 -0.0062123 -0.0001218
v -0.0088000 -0.0062123 -0.0030782
v -0.0088000 -0.0067314 -0.0027314
v -0.0088000 -0.0070782 -0.0022123
v -0.0088000 -0.0072000 -0.0016000
v -0.0088000 -0.0070782 -0.0009877
v -0.0088000 -0.0067314 -0.0004686
v -0.0088000 -0.0062123 -0.0001218
v -0.0088000 -0.0056000 -0.0016000
v -0.0160000 -0.0056000 -0.0016000
v -0.0160000 -0.0062123 -0.0030782
v -0.0160000 -0.0067314 -0.0027314
v -0.0160000 -0.0070782 -0.0022123
v -0.0160000 -0.0072000 -0.0016000
v -0.0160000 -0.0070782 -0.0009877
v -0.0160000 -0.0067314 -0.0004686
v -0.0160000 -0.0062123 -0.0001218
v 0.0120000 -0.0024000 0.0016000
v 0.0129185 -0.0022174 0.0016000
v 0.0129185 -0.0022174 -0.0000000
v 0.0120000 -0.0024000 -0.0000000
v 0.0136970 -0.0016970 0.0016000
v 0.0136970 -0.0016970 -0.0000000
v 0.0142174 -0.0009185 0.0016000
v 0.0142174 -0.0009185 -0.0000000
v 0.0144000 0.0000000 0.0016000
v 0.0144000 0.0000000 -0.0000000
v 0.0142174 0.0009185 0.0016000
v 0.0142174 0.0009185 -0.0000000
v 0.0136970 0.0016970 0.0016000
v 0.0136970 0.0016970 -0.0000000
v 0.0129185 0.0022174 0.0016000
v 0.0129185 0.0022174 -0.0000000
v 0.0120000 0.0024000 0.0016000
v 0.0120000 0.0024000 -0.0000000
v 0.0110815 0.0022174 0.0016000
v 0.0110815 0.0022174 -0.0000000
v 0.0103030 0.0016970 0.0016000
v 0.0103030 0.0016970 -0.0000000
v 0.0097826 0.0009185 0.0016000
v 0.0097826 0.0009185 -0.0000000
v 0.0096000 0.0000000 0.0016000
v 0.0096000 0.0000000 -0.0000000
v 0.0097826 -0.0009185 0.0016000
v 0.0097826 -0.0009185 -0.0000000
v 0.0103030 -0.0016970 0.0016000
v 0.0103030 -0.0016970 -0.0000000
v 0.0110815 -0.0022174 0.0016000
v 0.0110815 -0.0022174 -0.0000000
v 0.0120000 0.0000000 0.0016000
v 0.0040000 -0.0024000 0.0016000
v 0.0049185 -0.0022174 0.0016000
v 0.0049185 -0.0022174 -0.0000000
v 0.0040000 -0.0024000 -0.0000000
v 0.0056970 -0.0016970 0.0016000
v 0.0056970 -0.0016970 -0.0000000
v 0.0062174 -0.0009185 0.0016000
v 0.0062174 -0.0009185 -0.0000000
v 0.0064000 0.0000000 0.0016000
v 0.0064000 0.0000000 -0.0000000
v 0.0062174 0.0009185 0.0016000
v 0.0062174 0.0009185 -0.0000000
v 0.0056970 0.0016970 0.0016000
v 0.0056970 0.0016970 -0.0000000
v 0.0049185 0.0022174 0.0016000
v 0.0049185 0.0022174 -0.0000000
v 0.0040000 0.0024000 0.0016000
v 0.0040000 0.0024000 -0.0000000
v 0.0030815 0.0022174 0.0016000
v 0.0030815 0.0022174 -0.0000000
v 0.0023030 0.0016970 0.0016000
v 0.0023030 0.0016970 -0.0000000
v 0.0017826 0.0009185 0.0016000
v 0.0017826 0.0009185 -0.0000000
v 0.0016000 0.0000000 0.0016000
v 0.0016000 0.0000000 -0.0000000
v 0.0017826 -0.0009185 0.0016000
v 0.0017826 -0.0009185 -0.0000000
v 0.0023030 -0.0016970 0.0016000
v 0.0023030 -0.0016970 -0.0000000
v 0.0030815 -0.0022174 0.0016000
v 0.0030815 -0.0022174 -0.0000000
v 0.0040000 0.0000000 0.0016000
v -0.0040000 -0.0024000 0.0016000
v -0.0030815 -0.0022174 0.0016000
v -0.0030815 -0.0022174 -0.0000000
v -0.0040000 -0.0024000 -0.0000000
v -0.0023030 -0.0016970 0.0016000
v -0.0023030 -0.0016970 -0.0000000
v -0.0017826 -0.0009185 0.0016000
v -0.0017826 -0.0009185 -0.0000000
v -0.0016000 0.0000000 0.0016000
v -0.0016000 0.0000000 -0.0000000
v -0.0017826 0.0009185 0.0016000
v -0.0017826 0.0009185 -0.0000000
v -0.0023030 0.0016970 0.0016000
v -0.0023030 0.0016970 -0.0000000
v -0.0030815 0.0022174 0.0016000
v -0.0030815 0.0022174 -0.0000000
v -0.0040000 0.0024000 0.0016000
v -0.0040000 0.0024000 -0.0000000
v -0.0049185 0.0022174 0.0016000
v -0.0049185 0.0022174 -0.0000000
v -0.0056970 0.0016970 0.0016000
v -0.0056970 0.0016970 -0.0000000
v -0.0062174 0.0009185 0.0016000
v -0.0062174 0.0009185 -0.0000000
v -0.0064000 0.0000000 0.0016000
v -0.0064000 0.0000000 -0.0000000
v -0.0062174 -0.0009185 0.0016000
v -0.0062174 -0.0009185 -0.0000000
v -0.0056970 -0.0016970 0.0016000
v -0.0056970 -0.0016970 -0.0000000
v -0.0049185 -0.0022174 0.0016000
v -0.0049185 -0.0022174 -0.0000000
v -0.0040000 0.0000000 0.0016000
v -0.0120000 -0.0024000 0.0016000
v -0.0110815 -0.0022174 0.0016000
v -0.0110815 -0.0022174 -0.0000000
v -0.0120000 -0.0024000 -0.0000000
v -0.0103030 -0.0016970 0.0016000
v -0.0103030 -0.0016970 -0.0000000
v -0.0097826 -0.0009185 0.0016000
v -0.0097826 -0.0009185 -0.0000000
v -0.0096000 0.0000000 0.0016000
v -0.0096000 0.0000000 -0.0000000
v -0.0097826 0.0009185 0.0016000
v -0.0097826 0.0009185 -0.0000000
v -0.0103030 0.0016970 0.0016000
v -0.0103030 0.0016970 -0.0000000
v -0.0110815 0.0022174 0.0016000
v -0.0110815 0.0022174 -0.0000000
v -0.0120000 0.0024000 0.0016000
v -0.0120000 0.0024000 -0.0000000
v -0.0129185 0.0022174 0.0016000
v -0.0129185 0.0022174 -0.0000000
v -0.0136970 0.0016970 0.0016000
v -0.0136970 0.0016970 -0.0000000
v -0.0142174 0.0009185 0.0016000
v -0.0142174 0.0009185 -0.0000000
v -0.0144000 0.0000000 0.0016000
v -0.0144000 0.0000000 -0.0000000
v -0.0142174 -0.0009185 0.0016000
v -0.0142174 -0.0009185 -0.0000000
v -0.0136970 -0.0016970 0.0016000
v -0.0136970 -0.0016970 -0.0000000
v -0.0129185 -0.0022174 0.0016000
v -0.0129185 -0.0022174 -0.0000000
v -0.0120000 0.0000000 0.0016000
usemtl c16
f 3 2 1
f 4 3 1
f 5 4 1
f 6 5 1
f 7 6 1
f 8 7 1
f 9 8 1
f 10 9 1
f 11 10 1
f 12 11 1
f 13 12 1
f 14 13 1
f 15 14 1
f 16 15 1
f 17 16 1
f 2 17 1
f 2 3 19
f 2 19 18
f 3 4 20
f 3 20 19
f 4 5 21
f 4 21 20
f 5 6 22
f 5 22 21
f 6 7 23
f 6 23 22
f 7 8 24
f 7 24 23
f 8 9 25
f 8 25 24
f 9 10 26
f 9 26 25
f 10 11 27
f 10 27 26
f 11 12 28
f 11 28 27
f 12 13 29
f 12 29 28
f 13 14 30
f 13 30 29
f 14 15 31
f 14 31 30
f 15 16 32
f 15 32 31
f 16 17 33
f 16 33 32
f 17 2 18
f 17 18 33
f 36 35 34
f 37 36 34
f 38 37 34
f 39 38 34
f 40 39 34
f 41 40 34
f 42 41 34
f 43 42 34
f 44 43 34
f 45 44 34
f 46 45 34
f 47 46 34
f 48 47 34
f 49 48 34
f 50 49 34
f 35 50 34
f 35 36 52
f 35 52 51
f 36 37 53
f 36 53 52
f 37 38 54
f 37 54 53
f 38 39 55
f 38 55 54
f 39 40 56
f 39 56 55
f 40 41 57
f 40 57 56
f 41 42 58
f 41 58 57
f 42 43 59
f 42 59 58
f 43 44 60
f 43 60 59
f 44 45 61
f 44 61 60
f 45 46 62
f 45 62 61
f 46 47 63
f 46 63 62
f 47 48 64
f 47 64 63
f 48 49 65
f 48 65 64
f 49 50 66
f 49 66 65
f 50 35 51
f 50 51 66
f 69 68 67
f 70 69 67
f 71 70 67
f 72 71 67
f 73 72 67
f 74 73 67
f 75 74 67
f 76 75 67
f 77 76 67
f 78 77 67
f 79 78 67
f 80 79 67
f 81 80 67
f 82 81 67
f 83 82 67
f 68 83 67
f 68 69 85
f 68 85 84
f 69 70 86
f 69 86 85
f 70 71 87
f 70 87 86
f 71 72 88
f 71 88 87
f 72 73 89
f 72 89 88
f 73 74 90
f 73 90 89
f 74 75 91
f 74 91 90
f 75 76 92
f 75 92 91
f 76 77 93
f 76 93 92
f 77 78 94
f 77 94 93
f 78 79 95
f 78 95 94
f 79 80 96
f 79 96 95
f 80 81 97
f 80 97 96
f 81 82 98
f 81 98 97
f 82 83 99
f 82 99 98
f 83 68 84
f 83 84 99
f 103 102 101
f 103 101 100
f 101 105 104
f 101 104 100
f 100 104 106
f 100 106 103
f 103 106 107
f 103 107 102
f 102 107 105
f 102 105 101
f 108 109 110
f 110 107 111
f 110 111 108
f 107 105 111
f 111 105 104
f 111 104 112
f 113 114 115
f 115 112 106
f 115 106 113
f 112 104 106
f 113 106 116
f 116 106 117
f 117 106 118
f 118 106 107
f 118 107 119
f 119 107 120
f 120 107 121
f 121 107 110
f 122 123 111
f 122 111 112
f 123 124 108
f 123 108 111
f 112 115 125
f 112 125 122
f 126 122 127
f 128 122 126
f 129 122 128
f 130 122 129
f 131 123 122
f 131 122 130
f 132 123 131
f 133 123 132
f 134 123 133
f 135 123 134
f 127 125 136
f 127 136 126
f 134 137 124
f 134 124 135
f 138 120 121
f 138 121 139
f 140 132 120
f 140 120 138
f 141 133 132
f 141 132 140
f 139 121 133
f 139 133 141
f 142 118 119
f 142 119 143
f 144 130 118
f 144 118 142
f 145 131 130
f 145 130 144
f 143 119 131
f 143 131 145
f 146 116 117
f 146 117 147
f 148 128 116
f 148 116 146
f 149 129 128
f 149 128 148
f 147 117 129
f 147 129 149
f 150 151 152
f 150 152 153
f 151 154 155
f 151 155 152
f 154 156 157
f 154 157 155
f 156 158 159
f 156 159 157
f 158 160 161
f 158 161 159
f 160 162 163
f 160 163 161
f 162 164 165
f 162 165 163
f 164 166 167
f 164 167 165
f 166 168 169
f 166 169 167
f 168 170 171
f 168 171 169
f 170 172 173
f 170 173 171
f 172 174 175
f 172 175 173
f 174 176 177
f 174 177 175
f 176 178 179
f 176 179 177
f 178 180 181
f 178 181 179
f 180 150 153
f 180 153 181
f 150 182 183
f 150 183 151
f 151 183 184
f 151 184 154
f 154 184 185
f 154 185 156
f 156 185 186
f 156 186 158
f 158 186 187
f 158 187 160
f 160 187 188
f 160 188 162
f 162 188 189
f 162 189 164
f 164 189 190
f 164 190 166
f 166 190 191
f 166 191 168
f 168 191 192
f 168 192 170
f 170 192 193
f 170 193 172
f 172 193 194
f 172 194 174
f 174 194 195
f 174 195 176
f 176 195 196
f 176 196 178
f 178 196 197
f 178 197 180
f 180 197 182
f 180 182 150
f 198 183 182
f 198 199 183
f 198 185 199
f 198 186 185
f 198 187 186
f 198 200 187
f 198 189 200
f 198 190 189
f 198 191 190
f 198 201 191
f 198 193 201
f 198 194 193
f 198 195 194
f 198 202 195
f 198 197 202
f 198 182 197
f 204 153 152
f 204 152 203
f 203 152 155
f 203 155 205
f 205 155 207
f 205 207 206
f 206 207 159
f 206 159 136
f 136 159 209
f 136 209 208
f 208 209 163
f 208 163 210
f 210 163 165
f 210 165 211
f 211 165 167
f 211 167 212
f 212 167 169
f 212 169 213
f 213 169 171
f 213 171 214
f 214 171 216
f 214 216 215
f 215 216 175
f 215 175 114
f 114 175 218
f 114 218 217
f 217 218 179
f 217 179 219
f 219 179 181
f 219 181 220
f 220 181 153
f 220 153 204
f 215 114 113
f 214 215 113
f 213 214 113
f 212 213 113
f 211 212 126
f 210 211 126
f 208 210 126
f 136 208 126
f 224 223 222
f 224 222 221
f 223 226 225
f 223 225 222
f 226 228 227
f 226 227 225
f 228 230 229
f 228 229 227
f 230 232 231
f 230 231 229
f 232 234 233
f 232 233 231
f 234 236 235
f 234 235 233
f 236 238 237
f 236 237 235
f 238 240 239
f 238 239 237
f 240 242 241
f 240 241 239
f 242 244 243
f 242 243 241
f 244 246 245
f 244 245 243
f 246 248 247
f 246 247 245
f 248 250 249
f 248 249 247
f 250 252 251
f 250 251 249
f 252 224 221
f 252 221 251
f 222 254 253
f 222 253 221
f 225 255 254
f 225 254 222
f 227 256 255
f 227 255 225
f 229 257 256
f 229 256 227
f 231 258 257
f 231 257 229
f 233 259 258
f 233 258 231
f 235 260 259
f 235 259 233
f 237 261 260
f 237 260 235
f 239 262 261
f 239 261 237
f 241 263 262
f 241 262 239
f 243 264 263
f 243 263 241
f 245 265 264
f 245 264 243
f 247 266 265
f 247 265 245
f 249 267 266
f 249 266 247
f 251 268 267
f 251 267 249
f 221 253 268
f 221 268 251
f 253 254 269
f 254 270 269
f 270 256 269
f 256 257 269
f 257 258 269
f 258 271 269
f 271 260 269
f 260 261 269
f 261 262 269
f 262 272 269
f 272 264 269
f 264 265 269
f 265 266 269
f 266 273 269
f 273 268 269
f 268 253 269
f 274 223 224
f 274 224 275
f 276 226 223
f 276 223 274
f 277 278 226
f 277 226 276
f 137 230 278
f 137 278 277
f 279 280 230
f 279 230 137
f 281 234 280
f 281 280 279
f 282 236 234
f 282 234 281
f 283 238 236
f 283 236 282
f 284 240 238
f 284 238 283
f 285 242 240
f 285 240 284
f 286 287 242
f 286 242 285
f 109 246 287
f 109 287 286
f 288 289 246
f 288 246 109
f 290 250 289
f 290 289 288
f 291 252 250
f 291 250 290
f 275 224 252
f 275 252 291
f 110 109 286
f 110 286 285
f 110 285 284
f 110 284 283
f 134 283 282
f 134 282 281
f 134 281 279
f 134 279 137
f 116 128 126
f 116 126 113
f 118 130 129
f 118 129 117
f 120 132 131
f 120 131 119
f 110 134 133
f 110 133 121
f 293 108 292
f 294 293 292
f 295 294 292
f 296 295 292
f 297 296 292
f 298 297 292
f 299 298 292
f 124 299 292
f 109 108 293
f 109 293 288
f 288 293 294
f 288 294 290
f 290 294 295
f 290 295 291
f 291 295 296
f 291 296 275
f 275 296 297
f 275 297 274
f 274 297 298
f 274 298 276
f 276 298 299
f 276 299 277
f 277 299 124
f 277 124 137
f 301 139 300
f 302 301 300
f 303 302 300
f 304 303 300
f 305 304 300
f 306 305 300
f 307 306 300
f 141 307 300
f 138 139 301
f 138 301 308
f 308 301 302
f 308 302 309
f 309 302 303
f 309 303 310
f 310 303 304
f 310 304 311
f 311 304 305
f 311 305 312
f 312 305 306
f 312 306 313
f 313 306 307
f 313 307 314
f 314 307 141
f 314 141 140
f 315 138 308
f 315 308 309
f 315 309 310
f 315 310 311
f 315 311 312
f 315 312 313
f 315 313 314
f 315 314 140
f 317 143 316
f 318 317 316
f 319 318 316
f 320 319 316
f 321 320 316
f 322 321 316
f 323 322 316
f 145 323 316
f 142 143 317
f 142 317 324
f 324 317 318
f 324 318 325
f 325 318 319
f 325 319 326
f 326 319 320
f 326 320 327
f 327 320 321
f 327 321 328
f 328 321 322
f 328 322 329
f 329 322 323
f 329 323 330
f 330 323 145
f 330 145 144
f 331 142 324
f 331 324 325
f 331 325 326
f 331 326 327
f 331 327 328
f 331 328 329
f 331 329 330
f 331 330 144
f 333 147 332
f 334 333 332
f 335 334 332
f 336 335 332
f 337 336 332
f 338 337 332
f 339 338 332
f 149 339 332
f 146 147 333
f 146 333 340
f 340 333 334
f 340 334 341
f 341 334 335
f 341 335 342
f 342 335 336
f 342 336 343
f 343 336 337
f 343 337 344
f 344 337 338
f 344 338 345
f 345 338 339
f 345 339 346
f 346 339 149
f 346 149 148
f 347 146 340
f 347 340 341
f 347 341 342
f 347 342 343
f 347 343 344
f 347 344 345
f 347 345 346
f 347 346 148
f 348 115 349
f 348 349 350
f 348 350 351
f 348 351 352
f 348 352 353
f 348 353 354
f 348 354 355
f 348 355 125
f 217 349 115
f 217 115 114
f 219 350 349
f 219 349 217
f 220 351 350
f 220 350 219
f 204 352 351
f 204 351 220
f 203 353 352
f 203 352 204
f 205 354 353
f 205 353 203
f 206 355 354
f 206 354 205
f 136 125 355
f 136 355 206
f 359 358 357
f 359 357 356
f 358 361 360
f 358 360 357
f 361 363 362
f 361 362 360
f 363 365 364
f 363 364 362
f 365 367 366
f 365 366 364
f 367 369 368
f 367 368 366
f 369 371 370
f 369 370 368
f 371 373 372
f 371 372 370
f 373 375 374
f 373 374 372
f 375 377 376
f 375 376 374
f 377 379 378
f 377 378 376
f 379 381 380
f 379 380 378
f 381 383 382
f 381 382 380
f 383 385 384
f 383 384 382
f 385 387 386
f 385 386 384
f 387 359 356
f 387 356 386
f 388 356 357
f 388 357 360
f 388 360 362
f 388 362 364
f 388 364 366
f 388 366 368
f 388 368 370
f 388 370 372
f 388 372 374
f 388 374 376
f 388 376 378
f 388 378 380
f 388 380 382
f 388 382 384
f 388 384 386
f 388 386 356
f 392 391 390
f 392 390 389
f 391 394 393
f 391 393 390
f 394 396 395
f 394 395 393
f 396 398 397
f 396 397 395
f 398 400 399
f 398 399 397
f 400 402 401
f 400 401 399
f 402 404 403
f 402 403 401
f 404 406 405
f 404 405 403
f 406 408 407
f 406 407 405
f 408 410 409
f 408 409 407
f 410 412 411
f 410 411 409
f 412 414 413
f 412 413 411
f 414 416 415
f 414 415 413
f 416 418 417
f 416 417 415
f 418 420 419
f 418 419 417
f 420 392 389
f 420 389 419
f 421 389 390
f 421 390 393
f 421 393 395
f 421 395 397
f 421 397 399
f 421 399 401
f 421 401 403
f 421 403 405
f 421 405 407
f 421 407 409
f 421 409 411
f 421 411 413
f 421 413 415
f 421 415 417
f 421 417 419
f 421 419 389
f 425 424 423
f 425 423 422
f 424 427 426
f 424 426 423
f 427 429 428
f 427 428 426
f 429 431 430
f 429 430 428
f 431 433 432
f 431 432 430
f 433 435 434
f 433 434 432
f 435 437 436
f 435 436 434
f 437 439 438
f 437 438 436
f 439 441 440
f 439 440 438
f 441 443 442
f 441 442 440
f 443 445 444
f 443 444 442
f 445 447 446
f 445 446 444
f 447 449 448
f 447 448 446
f 449 451 450
f 449 450 448
f 451 453 452
f 451 452 450
f 453 425 422
f 453 422 452
f 454 422 423
f 454 423 426
f 454 426 428
f 454 428 430
f 454 430 432
f 454 432 434
f 454 434 436
f 454 436 438
f 454 438 440
f 454 440 442
f 454 442 444
f 454 444 446
f 454 446 448
f 454 448 450
f 454 450 452
f 454 452 422
f 458 457 456
f 458 456 455
f 457 460 459
f 457 459 456
f 460 462 461
f 460 461 459
f 462 464 463
f 462 463 461
f 464 466 465
f 464 465 463
f 466 468 467
f 466 467 465
f 468 470 469
f 468 469 467
f 470 472 471
f 470 471 469
f 472 474 473
f 472 473 471
f 474 476 475
f 474 475 473
f 476 478 477
f 476 477 475
f 478 480 479
f 478 479 477
f 480 482 481
f 480 481 479
f 482 484 483
f 482 483 481
f 484 486 485
f 484 485 483
f 486 458 455
f 486 455 485
f 487 455 456
f 487 456 459
f 487 459 461
f 487 461 463
f 487 463 465
f 487 465 467
f 487 467 469
f 487 469 471
f 487 471 473
f 487 473 475
f 487 475 477
f 487 477 479
f 487 479 481
f 487 481 483
f 487 483 485
f 487 485 455
