o 4600
v -0.0029565 0.0012246 -0.0016000
v -0.0030408 0.0008000 -0.0016000
v -0.0030408 0.0008000 -0.0032000
v -0.0029565 0.0012246 -0.0032000
v -0.0032000 0.0008000 -0.0016000
v -0.0032000 0.0008000 -0.0032000
v -0.0029565 -0.0012246 -0.0032000
v -0.0030408 -0.0008000 -0.0032000
v -0.0030408 -0.0008000 -0.0016000
v -0.0029565 -0.0012246 -0.0016000
v -0.0032000 -0.0008000 -0.0032000
v -0.0032000 -0.0008000 -0.0016000
v -0.0024000 0.0000000 -0.0032000
v -0.0024000 0.0009185 -0.0032000
v -0.0022173 0.0009184 -0.0032000
v -0.0022173 -0.0009184 -0.0032000
v -0.0024000 -0.0009185 -0.0032000
v -0.0022174 -0.0009185 -0.0032000
v -0.0022174 0.0009185 -0.0032000
v 0.0029565 -0.0012246 -0.0016000
v 0.0030408 -0.0008000 -0.0016000
v 0.0030408 -0.0008000 -0.0032000
v 0.0029565 -0.0012246 -0.0032000
v 0.0032000 -0.0008000 -0.0016000
v 0.0032000 -0.0008000 -0.0032000
v 0.0029565 0.0012246 -0.0032000
v 0.0030408 0.0008000 -0.0032000
v 0.0030408 0.0008000 -0.0016000
v 0.0029565 0.0012246 -0.0016000
v 0.0032000 0.0008000 -0.0032000
v 0.0032000 0.0008000 -0.0016000
v 0.0024000 0.0000000 -0.0032000
v 0.0024000 -0.0009185 -0.0032000
v 0.0022173 -0.0009184 -0.0032000
v 0.0022173 0.0009184 -0.0032000
v 0.0024000 0.0009185 -0.0032000
v 0.0022174 0.0009185 -0.0032000
v 0.0022174 -0.0009185 -0.0032000
v 0.0024000 0.0000000 -0.0016000
v 0.0022174 -0.0009185 -0.0016000
v 0.0016970 -0.0016970 -0.0016000
v 0.0016970 -0.0016970 -0.0032000
v 0.0009185 -0.0022174 -0.0016000
v 0.0009185 -0.0022174 -0.0032000
v 0.0000000 -0.0024000 -0.0016000
v 0.0000000 -0.0024000 -0.0032000
v -0.0009185 -0.0022174 -0.0016000
v -0.0009185 -0.0022174 -0.0032000
v -0.0016970 -0.0016970 -0.0016000
v -0.0016970 -0.0016970 -0.0032000
v -0.0022174 -0.0009185 -0.0016000
v -0.0024000 0.0000000 -0.0016000
v -0.0022174 0.0009185 -0.0016000
v -0.0016970 0.0016970 -0.0016000
v -0.0016970 0.0016970 -0.0032000
v -0.0009185 0.0022174 -0.0016000
v -0.0009185 0.0022174 -0.0032000
v 0.0000000 0.0024000 -0.0016000
v 0.0000000 0.0024000 -0.0032000
v 0.0009185 0.0022174 -0.0016000
v 0.0009185 0.0022174 -0.0032000
v 0.0016970 0.0016970 -0.0016000
v 0.0016970 0.0016970 -0.0032000
v 0.0022174 0.0009185 -0.0016000
v -0.0022628 -0.0022629 -0.0032000
v -0.0016971 -0.0016972 -0.0032000
v -0.0012246 -0.0029565 -0.0032000
v -0.0009184 -0.0022174 -0.0032000
v 0.0000000 -0.0032002 -0.0032000
v 0.0000000 -0.0024001 -0.0032000
v 0.0012246 -0.0029565 -0.0032000
v 0.0022629 -0.0022628 -0.0032000
v 0.0016972 -0.0016971 -0.0032000
v 0.0029565 -0.0012246 -0.0032000
v 0.0022174 -0.0009184 -0.0032000
v 0.0022628 0.0022629 -0.0032000
v 0.0016971 0.0016972 -0.0032000
v 0.0012246 0.0029565 -0.0032000
v 0.0009184 0.0022174 -0.0032000
v 0.0000000 0.0032002 -0.0032000
v 0.0000000 0.0024001 -0.0032000
v -0.0012246 0.0029565 -0.0032000
v -0.0022629 0.0022628 -0.0032000
v -0.0016972 0.0016971 -0.0032000
v -0.0029565 0.0012246 -0.0032000
v -0.0022174 0.0009184 -0.0032000
v 0.0022628 -0.0022629 -0.0016000
v 0.0022628 -0.0022629 -0.0032000
v 0.0012246 -0.0029565 -0.0016000
v 0.0012246 -0.0029565 -0.0032000
v 0.0000000 -0.0032002 -0.0016000
v -0.0012246 -0.0029565 -0.0016000
v -0.0012246 -0.0029565 -0.0032000
v -0.0022629 -0.0022628 -0.0016000
v -0.0022629 -0.0022628 -0.0032000
v -0.0029565 -0.0012246 -0.0016000
v -0.0029565 -0.0012246 -0.0032000
v -0.0022628 0.0022629 -0.0016000
v -0.0022628 0.0022629 -0.0032000
v -0.0012246 0.0029565 -0.0016000
v -0.0012246 0.0029565 -0.0032000
v 0.0000000 0.0032002 -0.0016000
v 0.0012246 0.0029565 -0.0016000
v 0.0012246 0.0029565 -0.0032000
v 0.0022629 0.0022628 -0.0016000
v 0.0022629 0.0022628 -0.0032000
v 0.0029565 0.0012246 -0.0016000
v 0.0029565 0.0012246 -0.0032000
v -0.0064000 -0.0008000 -0.0032000
v -0.0064000 0.0008000 -0.0032000
v -0.0064000 0.0008000 -0.0016000
v -0.0064000 -0.0008000 -0.0016000
v 0.0064000 0.0008000 -0.0032000
v 0.0064000 -0.0008000 -0.0032000
v 0.0064000 -0.0008000 -0.0016000
v 0.0064000 0.0008000 -0.0016000
v -0.0064000 -0.0064000 -0.0016000
v -0.0064000 0.0064000 -0.0016000
v 0.0064000 0.0064000 -0.0016000
v 0.0064000 -0.0064000 -0.0016000
v -0.0064000 0.0064000 -0.0032000
v 0.0064000 0.0064000 -0.0032000
v 0.0064000 -0.0064000 -0.0032000
v -0.0064000 -0.0064000 -0.0032000
v 0.0080000 0.0080000 -0.0032000
v -0.0080000 0.0080000 -0.0032000
v -0.0080000 -0.0080000 -0.0032000
v 0.0080000 -0.0080000 -0.0032000
v 0.0080000 0.0080000 -0.0000000
v 0.0080000 -0.0080000 -0.0000000
v -0.0080000 -0.0080000 -0.0000000
v -0.0080000 0.0080000 -0.0000000
v 0.0088000 -0.0014120 -0.0034120
v 0.0088000 -0.0007642 -0.0038449
v 0.0080000 -0.0007642 -0.0038449
v 0.0080000 -0.0014120 -0.0034120
v 0.0088000 0.0000000 -0.0039968
v 0.0080000 0.0000000 -0.0039968
v 0.0088000 0.0007642 -0.0038449
v 0.0080000 0.0007642 -0.0038449
v 0.0088000 0.0014120 -0.0034120
v 0.0080000 0.0014120 -0.0034120
v 0.0080000 0.0015560 -0.0032000
v 0.0088000 0.0015560 -0.0032000
v 0.0088000 -0.0015560 -0.0032000
v 0.0080000 -0.0015560 -0.0032000
v 0.0136000 0.0016014 -0.0026633
v 0.0136000 0.0017334 -0.0020000
v 0.0136000 0.0016014 -0.0013367
v 0.0136000 0.0012257 -0.0032257
v 0.0136000 0.0012257 -0.0007743
v 0.0136000 0.0006633 -0.0003986
v 0.0136000 0.0006633 -0.0036014
v 0.0136000 -0.0016014 -0.0013367
v 0.0136000 -0.0017334 -0.0020000
v 0.0136000 -0.0016014 -0.0026633
v 0.0136000 -0.0012257 -0.0007743
v 0.0136000 -0.0012257 -0.0032257
v 0.0136000 -0.0006633 -0.0036014
v 0.0136000 -0.0006633 -0.0003986
v 0.0132000 0.0012257 -0.0032257
v 0.0132000 0.0006633 -0.0036014
v 0.0132000 0.0016014 -0.0026633
v 0.0132000 0.0017334 -0.0020000
v 0.0132000 0.0016014 -0.0013367
v 0.0132000 0.0012257 -0.0007743
v 0.0132000 0.0006633 -0.0003986
v 0.0132000 -0.0012257 -0.0007743
v 0.0132000 -0.0006633 -0.0003986
v 0.0132000 -0.0016014 -0.0013367
v 0.0132000 -0.0017334 -0.0020000
v 0.0132000 -0.0016014 -0.0026633
v 0.0132000 -0.0012257 -0.0032257
v 0.0132000 -0.0006633 -0.0036014
v 0.0132000 0.0002667 -0.0036803
v 0.0132000 0.0006635 -0.0036013
v 0.0136000 0.0006635 -0.0036013
v 0.0136000 0.0002667 -0.0036803
v 0.0132000 0.0006635 -0.0003987
v 0.0132000 0.0002667 -0.0003197
v 0.0136000 0.0002667 -0.0003197
v 0.0136000 0.0006635 -0.0003987
v 0.0132000 -0.0002667 -0.0003197
v 0.0132000 -0.0006635 -0.0003987
v 0.0136000 -0.0006635 -0.0003987
v 0.0136000 -0.0002667 -0.0003197
v 0.0132000 -0.0006635 -0.0036013
v 0.0132000 -0.0002667 -0.0036803
v 0.0136000 -0.0002667 -0.0036803
v 0.0136000 -0.0006635 -0.0036013
v 0.0132000 0.0002667 -0.0004531
v 0.0132000 0.0002667 -0.0035469
v 0.0132000 -0.0002667 -0.0004531
v 0.0132000 -0.0002667 -0.0035469
v 0.0088000 -0.0011314 -0.0008686
v 0.0132000 -0.0011314 -0.0008686
v 0.0132000 -0.0006123 -0.0005218
v 0.0088000 -0.0006123 -0.0005218
v 0.0088000 -0.0014782 -0.0013877
v 0.0132000 -0.0014782 -0.0013877
v 0.0088000 -0.0016000 -0.0020000
v 0.0132000 -0.0016000 -0.0020000
v 0.0088000 -0.0014782 -0.0026123
v 0.0132000 -0.0014782 -0.0026123
v 0.0088000 -0.0011314 -0.0031314
v 0.0132000 -0.0011314 -0.0031314
v 0.0088000 -0.0006123 -0.0034782
v 0.0132000 -0.0006123 -0.0034782
v 0.0088000 0.0011314 -0.0031314
v 0.0132000 0.0011314 -0.0031314
v 0.0132000 0.0006123 -0.0034782
v 0.0088000 0.0006123 -0.0034782
v 0.0088000 0.0014782 -0.0026123
v 0.0132000 0.0014782 -0.0026123
v 0.0088000 0.0016000 -0.0020000
v 0.0132000 0.0016000 -0.0020000
v 0.0088000 0.0014782 -0.0013877
v 0.0132000 0.0014782 -0.0013877
v 0.0088000 0.0011314 -0.0008686
v 0.0132000 0.0011314 -0.0008686
v 0.0088000 0.0006123 -0.0005218
v 0.0132000 0.0006123 -0.0005218
v 0.0104000 -0.0006123 -0.0034782
v 0.0088000 -0.0006123 -0.0034782
v 0.0088000 0.0000000 -0.0036000
v 0.0104000 0.0000000 -0.0036000
v 0.0104000 0.0006123 -0.0034782
v 0.0088000 0.0006123 -0.0034782
v 0.0104000 -0.0006123 -0.0005218
v 0.0088000 -0.0006123 -0.0005218
v 0.0088000 0.0000000 -0.0004000
v 0.0104000 0.0000000 -0.0004000
v 0.0104000 0.0006123 -0.0005218
v 0.0088000 0.0006123 -0.0005218
v 0.0132000 0.0006123 -0.0034781
v 0.0132000 0.0006123 -0.0005219
v 0.0132000 -0.0006123 -0.0005219
v 0.0132000 -0.0006123 -0.0034781
v 0.0106400 0.0002667 -0.0004531
v 0.0106400 0.0002667 -0.0035469
v 0.0106400 -0.0002667 -0.0004531
v 0.0106400 -0.0002667 -0.0035469
v 0.0104000 0.0002667 -0.0004531
v 0.0104703 0.0001886 -0.0004375
v 0.0104000 -0.0002667 -0.0004531
v 0.0104703 -0.0001886 -0.0004375
v 0.0104000 -0.0002667 -0.0035469
v 0.0104703 -0.0001886 -0.0035625
v 0.0104000 0.0002667 -0.0035469
v 0.0104703 0.0001886 -0.0035625
v 0.0104000 0.0000000 -0.0034939
v 0.0104703 0.0001886 -0.0035314
v 0.0104703 -0.0001886 -0.0035314
v 0.0088000 -0.0014120 -0.0005880
v 0.0088000 -0.0007642 -0.0001551
v 0.0080000 -0.0007642 -0.0001551
v 0.0080000 -0.0014120 -0.0005880
v 0.0088000 0.0000000 -0.0000032
v 0.0080000 0.0000000 -0.0000032
v 0.0088000 0.0007642 -0.0001551
v 0.0080000 0.0007642 -0.0001551
v 0.0088000 0.0014120 -0.0005880
v 0.0080000 0.0014120 -0.0005880
v 0.0088000 -0.0015560 -0.0008000
v 0.0088000 0.0015560 -0.0008000
v 0.0080000 0.0040000 -0.0008000
v 0.0088000 0.0020000 -0.0008000
v 0.0088000 0.0020000 -0.0032000
v 0.0080000 0.0040000 -0.0032000
v 0.0088000 -0.0020000 -0.0008000
v 0.0080000 -0.0040000 -0.0008000
v 0.0080000 -0.0040000 -0.0032000
v 0.0088000 -0.0020000 -0.0032000
v 0.0080000 -0.0015560 -0.0008000
v 0.0080000 0.0015560 -0.0008000
v -0.0088000 0.0014120 -0.0034120
v -0.0088000 0.0007642 -0.0038449
v -0.0080000 0.0007642 -0.0038449
v -0.0080000 0.0014120 -0.0034120
v -0.0088000 0.0000000 -0.0039968
v -0.0080000 0.0000000 -0.0039968
v -0.0088000 -0.0007642 -0.0038449
v -0.0080000 -0.0007642 -0.0038449
v -0.0088000 -0.0014120 -0.0034120
v -0.0080000 -0.0014120 -0.0034120
v -0.0080000 -0.0015560 -0.0032000
v -0.0088000 -0.0015560 -0.0032000
v -0.0088000 0.0015560 -0.0032000
v -0.0080000 0.0015560 -0.0032000
v -0.0136000 -0.0016014 -0.0026633
v -0.0136000 -0.0017334 -0.0020000
v -0.0136000 -0.0016014 -0.0013367
v -0.0136000 -0.0012257 -0.0032257
v -0.0136000 -0.0012257 -0.0007743
v -0.0136000 -0.0006633 -0.0003986
v -0.0136000 -0.0006633 -0.0036014
v -0.0136000 0.0016014 -0.0013367
v -0.0136000 0.0017334 -0.0020000
v -0.0136000 0.0016014 -0.0026633
v -0.0136000 0.0012257 -0.0007743
v -0.0136000 0.0012257 -0.0032257
v -0.0136000 0.0006633 -0.0036014
v -0.0136000 0.0006633 -0.0003986
v -0.0132000 -0.0012257 -0.0032257
v -0.0132000 -0.0006633 -0.0036014
v -0.0132000 -0.0016014 -0.0026633
v -0.0132000 -0.0017334 -0.0020000
v -0.0132000 -0.0016014 -0.0013367
v -0.0132000 -0.0012257 -0.0007743
v -0.0132000 -0.0006633 -0.0003986
v -0.0132000 0.0012257 -0.0007743
v -0.0132000 0.0006633 -0.0003986
v -0.0132000 0.0016014 -0.0013367
v -0.0132000 0.0017334 -0.0020000
v -0.0132000 0.0016014 -0.0026633
v -0.0132000 0.0012257 -0.0032257
v -0.0132000 0.0006633 -0.0036014
v -0.0132000 -0.0002667 -0.0036803
v -0.0132000 -0.0006635 -0.0036013
v -0.0136000 -0.0006635 -0.0036013
v -0.0136000 -0.0002667 -0.0036803
v -0.0132000 -0.0006635 -0.0003987
v -0.0132000 -0.0002667 -0.0003197
v -0.0136000 -0.0002667 -0.0003197
v -0.0136000 -0.0006635 -0.0003987
v -0.0132000 0.0002667 -0.0003197
v -0.0132000 0.0006635 -0.0003987
v -0.0136000 0.0006635 -0.0003987
v -0.0136000 0.0002667 -0.0003197
v -0.0132000 0.0006635 -0.0036013
v -0.0132000 0.0002667 -0.0036803
v -0.0136000 0.0002667 -0.0036803
v -0.0136000 0.0006635 -0.0036013
v -0.0132000 -0.0002667 -0.0004531
v -0.0132000 -0.0002667 -0.0035469
v -0.0132000 0.0002667 -0.0004531
v -0.0132000 0.0002667 -0.0035469
v -0.0088000 0.0011314 -0.0008686
v -0.0132000 0.0011314 -0.0008686
v -0.0132000 0.0006123 -0.0005218
v -0.0088000 0.0006123 -0.0005218
v -0.0088000 0.0014782 -0.0013877
v -0.0132000 0.0014782 -0.0013877
v -0.0088000 0.0016000 -0.0020000
v -0.0132000 0.0016000 -0.0020000
v -0.0088000 0.0014782 -0.0026123
v -0.0132000 0.0014782 -0.0026123
v -0.0088000 0.0011314 -0.0031314
v -0.0132000 0.0011314 -0.0031314
v -0.0088000 0.0006123 -0.0034782
v -0.0132000 0.0006123 -0.0034782
v -0.0088000 -0.0011314 -0.0031314
v -0.0132000 -0.0011314 -0.0031314
v -0.0132000 -0.0006123 -0.0034782
v -0.0088000 -0.0006123 -0.0034782
v -0.0088000 -0.0014782 -0.0026123
v -0.0132000 -0.0014782 -0.0026123
v -0.0088000 -0.0016000 -0.0020000
v -0.0132000 -0.0016000 -0.0020000
v -0.0088000 -0.0014782 -0.0013877
v -0.0132000 -0.0014782 -0.0013877
v -0.0088000 -0.0011314 -0.0008686
v -0.0132000 -0.0011314 -0.0008686
v -0.0088000 -0.0006123 -0.0005218
v -0.0132000 -0.0006123 -0.0005218
v -0.0104000 0.0006123 -0.0034782
v -0.0088000 0.0006123 -0.0034782
v -0.0088000 0.0000000 -0.0036000
v -0.0104000 0.0000000 -0.0036000
v -0.0104000 -0.0006123 -0.0034782
v -0.0088000 -0.0006123 -0.0034782
v -0.0104000 0.0006123 -0.0005218
v -0.0088000 0.0006123 -0.0005218
v -0.0088000 0.0000000 -0.0004000
v -0.0104000 0.0000000 -0.0004000
v -0.0104000 -0.0006123 -0.0005218
v -0.0088000 -0.0006123 -0.0005218
v -0.0132000 -0.0006123 -0.0034781
v -0.0132000 -0.0006123 -0.0005219
v -0.0132000 0.0006123 -0.0005219
v -0.0132000 0.0006123 -0.0034781
v -0.0106400 -0.0002667 -0.0004531
v -0.0106400 -0.0002667 -0.0035469
v -0.0106400 0.0002667 -0.0004531
v -0.0106400 0.0002667 -0.0035469
v -0.0104000 -0.0002667 -0.0004531
v -0.0104703 -0.0001886 -0.0004375
v -0.0104000 0.0002667 -0.0004531
v -0.0104703 0.0001886 -0.0004375
v -0.0104000 0.0002667 -0.0035469
v -0.0104703 0.0001886 -0.0035625
v -0.0104000 -0.0002667 -0.0035469
v -0.0104703 -0.0001886 -0.0035625
v -0.0104000 0.0000000 -0.0034939
v -0.0104703 -0.0001886 -0.0035314
v -0.0104703 0.0001886 -0.0035314
v -0.0088000 0.0014120 -0.0005880
v -0.0088000 0.0007642 -0.0001551
v -0.0080000 0.0007642 -0.0001551
v -0.0080000 0.0014120 -0.0005880
v -0.0088000 0.0000000 -0.0000032
v -0.0080000 0.0000000 -0.0000032
v -0.0088000 -0.0007642 -0.0001551
v -0.0080000 -0.0007642 -0.0001551
v -0.0088000 -0.0014120 -0.0005880
v -0.0080000 -0.0014120 -0.0005880
v -0.0088000 0.0015560 -0.0008000
v -0.0088000 -0.0015560 -0.0008000
v -0.0080000 -0.0040000 -0.0008000
v -0.0088000 -0.0020000 -0.0008000
v -0.0088000 -0.0020000 -0.0032000
v -0.0080000 -0.0040000 -0.0032000
v -0.0088000 0.0020000 -0.0008000
v -0.0080000 0.0040000 -0.0008000
v -0.0080000 0.0040000 -0.0032000
v -0.0088000 0.0020000 -0.0032000
v -0.0080000 0.0015560 -0.0008000
v -0.0080000 -0.0015560 -0.0008000
v -0.0040000 0.0016000 0.0016000
v -0.0030815 0.0017826 0.0016000
v -0.0030815 0.0017826 -0.0000000
v -0.0040000 0.0016000 -0.0000000
v -0.0023030 0.0023030 0.0016000
v -0.0023030 0.0023030 -0.0000000
v -0.0017826 0.0030815 0.0016000
v -0.0017826 0.0030815 -0.0000000
v -0.0016000 0.0040000 0.0016000
v -0.0016000 0.0040000 -0.0000000
v -0.0017826 0.0049185 0.0016000
v -0.0017826 0.0049185 -0.0000000
v -0.0023030 0.0056970 0.0016000
v -0.0023030 0.0056970 -0.0000000
v -0.0030815 0.0062174 0.0016000
v -0.0030815 0.0062174 -0.0000000
v -0.0040000 0.0064000 0.0016000
v -0.0040000 0.0064000 -0.0000000
v -0.0049185 0.0062174 0.0016000
v -0.0049185 0.0062174 -0.0000000
v -0.0056970 0.0056970 0.0016000
v -0.0056970 0.0056970 -0.0000000
v -0.0062174 0.0049185 0.0016000
v -0.0062174 0.0049185 -0.0000000
v -0.0064000 0.0040000 0.0016000
v -0.0064000 0.0040000 -0.0000000
v -0.0062174 0.0030815 0.0016000
v -0.0062174 0.0030815 -0.0000000
v -0.0056970 0.0023030 0.0016000
v -0.0056970 0.0023030 -0.0000000
v -0.0049185 0.0017826 0.0016000
v -0.0049185 0.0017826 -0.0000000
v -0.0040000 0.0040000 0.0016000
v -0.0040000 -0.0064000 0.0016000
v -0.0030815 -0.0062174 0.0016000
v -0.0030815 -0.0062174 -0.0000000
v -0.0040000 -0.0064000 -0.0000000
v -0.0023030 -0.0056970 0.0016000
v -0.0023030 -0.0056970 -0.0000000
v -0.0017826 -0.0049185 0.0016000
v -0.0017826 -0.0049185 -0.0000000
v -0.0016000 -0.0040000 0.0016000
v -0.0016000 -0.0040000 -0.0000000
v -0.0017826 -0.0030815 0.0016000
v -0.0017826 -0.0030815 -0.0000000
v -0.0023030 -0.0023030 0.0016000
v -0.0023030 -0.0023030 -0.0000000
v -0.0030815 -0.0017826 0.0016000
v -0.0030815 -0.0017826 -0.0000000
v -0.0040000 -0.0016000 0.0016000
v -0.0040000 -0.0016000 -0.0000000
v -0.0049185 -0.0017826 0.0016000
v -0.0049185 -0.0017826 -0.0000000
v -0.0056970 -0.0023030 0.0016000
v -0.0056970 -0.0023030 -0.0000000
v -0.0062174 -0.0030815 0.0016000
v -0.0062174 -0.0030815 -0.0000000
v -0.0064000 -0.0040000 0.0016000
v -0.0064000 -0.0040000 -0.0000000
v -0.0062174 -0.0049185 0.0016000
v -0.0062174 -0.0049185 -0.0000000
v -0.0056970 -0.0056970 0.0016000
v -0.0056970 -0.0056970 -0.0000000
v -0.0049185 -0.0062174 0.0016000
v -0.0049185 -0.0062174 -0.0000000
v -0.0040000 -0.0040000 0.0016000
v 0.0040000 0.0016000 0.0016000
v 0.0049185 0.0017826 0.0016000
v 0.0049185 0.0017826 -0.0000000
v 0.0040000 0.0016000 -0.0000000
v 0.0056970 0.0023030 0.0016000
v 0.0056970 0.0023030 -0.0000000
v 0.0062174 0.0030815 0.0016000
v 0.0062174 0.0030815 -0.0000000
v 0.0064000 0.0040000 0.0016000
v 0.0064000 0.0040000 -0.0000000
v 0.0062174 0.0049185 0.0016000
v 0.0062174 0.0049185 -0.0000000
v 0.0056970 0.0056970 0.0016000
v 0.0056970 0.0056970 -0.0000000
v 0.0049185 0.0062174 0.0016000
v 0.0049185 0.0062174 -0.0000000
v 0.0040000 0.0064000 0.0016000
v 0.0040000 0.0064000 -0.0000000
v 0.0030815 0.0062174 0.0016000
v 0.0030815 0.0062174 -0.0000000
v 0.0023030 0.0056970 0.0016000
v 0.0023030 0.0056970 -0.0000000
v 0.0017826 0.0049185 0.0016000
v 0.0017826 0.0049185 -0.0000000
v 0.0016000 0.0040000 0.0016000
v 0.0016000 0.0040000 -0.0000000
v 0.0017826 0.0030815 0.0016000
v 0.0017826 0.0030815 -0.0000000
v 0.0023030 0.0023030 0.0016000
v 0.0023030 0.0023030 -0.0000000
v 0.0030815 0.0017826 0.0016000
v 0.0030815 0.0017826 -0.0000000
v 0.0040000 0.0040000 0.0016000
v 0.0040000 -0.0064000 0.0016000
v 0.0049185 -0.0062174 0.0016000
v 0.0049185 -0.0062174 -0.0000000
v 0.0040000 -0.0064000 -0.0000000
v 0.0056970 -0.0056970 0.0016000
v 0.0056970 -0.0056970 -0.0000000
v 0.0062174 -0.0049185 0.0016000
v 0.0062174 -0.0049185 -0.0000000
v 0.0064000 -0.0040000 0.0016000
v 0.0064000 -0.0040000 -0.0000000
v 0.0062174 -0.0030815 0.0016000
v 0.0062174 -0.0030815 -0.0000000
v 0.0056970 -0.0023030 0.0016000
v 0.0056970 -0.0023030 -0.0000000
v 0.0049185 -0.0017826 0.0016000
v 0.0049185 -0.0017826 -0.0000000
v 0.0040000 -0.0016000 0.0016000
v 0.0040000 -0.0016000 -0.0000000
v 0.0030815 -0.0017826 0.0016000
v 0.0030815 -0.0017826 -0.0000000
v 0.0023030 -0.0023030 0.0016000
v 0.0023030 -0.0023030 -0.0000000
v 0.0017826 -0.0030815 0.0016000
v 0.0017826 -0.0030815 -0.0000000
v 0.0016000 -0.0040000 0.0016000
v 0.0016000 -0.0040000 -0.0000000
v 0.0017826 -0.0049185 0.0016000
v 0.0017826 -0.0049185 -0.0000000
v 0.0023030 -0.0056970 0.0016000
v 0.0023030 -0.0056970 -0.0000000
v 0.0030815 -0.0062174 0.0016000
v 0.0030815 -0.0062174 -0.0000000
v 0.0040000 -0.0040000 0.0016000
usemtl c16
f 4 3 2
f 4 2 1
f 3 6 5
f 3 5 2
f 10 9 8
f 10 8 7
f 9 12 11
f 9 11 8
f 8 3 13
f 8 11 6
f 8 6 3
f 4 15 14
f 3 4 14
f 3 14 13
f 17 16 7
f 8 13 17
f 8 17 7
f 13 18 17
f 14 19 13
f 23 22 21
f 23 21 20
f 22 25 24
f 22 24 21
f 29 28 27
f 29 27 26
f 28 31 30
f 28 30 27
f 27 22 32
f 27 30 25
f 27 25 22
f 23 34 33
f 22 23 33
f 22 33 32
f 36 35 26
f 27 32 36
f 27 36 26
f 32 37 36
f 33 38 32
f 39 40 38
f 39 38 32
f 40 41 42
f 40 42 38
f 41 43 44
f 41 44 42
f 43 45 46
f 43 46 44
f 45 47 48
f 45 48 46
f 47 49 50
f 47 50 48
f 49 51 18
f 49 18 50
f 51 52 13
f 51 13 18
f 52 53 19
f 52 19 13
f 53 54 55
f 53 55 19
f 54 56 57
f 54 57 55
f 56 58 59
f 56 59 57
f 58 60 61
f 58 61 59
f 60 62 63
f 60 63 61
f 62 64 37
f 62 37 63
f 64 39 32
f 64 32 37
f 18 66 65
f 18 65 7
f 66 68 67
f 66 67 65
f 68 70 69
f 68 69 67
f 70 44 71
f 70 71 69
f 44 73 72
f 44 72 71
f 73 75 74
f 73 74 72
f 37 77 76
f 37 76 26
f 77 79 78
f 77 78 76
f 79 81 80
f 79 80 78
f 81 57 82
f 81 82 80
f 57 84 83
f 57 83 82
f 84 86 85
f 84 85 83
f 87 88 23
f 87 23 20
f 89 90 88
f 89 88 87
f 91 69 90
f 91 90 89
f 92 93 69
f 92 69 91
f 94 95 93
f 94 93 92
f 96 97 95
f 96 95 94
f 98 99 4
f 98 4 1
f 100 101 99
f 100 99 98
f 102 80 101
f 102 101 100
f 103 104 80
f 103 80 102
f 105 106 104
f 105 104 103
f 107 108 106
f 107 106 105
f 11 109 110
f 11 110 6
f 110 111 5
f 110 5 6
f 11 12 112
f 11 112 109
f 30 113 114
f 30 114 25
f 114 115 24
f 114 24 25
f 30 31 116
f 30 116 113
f 120 119 118
f 120 118 117
f 119 122 121
f 119 121 118
f 117 124 123
f 117 123 120
f 116 119 122
f 116 122 113
f 114 123 120
f 114 120 115
f 112 117 124
f 112 124 109
f 110 121 118
f 110 118 111
f 125 122 121
f 125 121 126
f 127 124 123
f 127 123 128
f 128 123 122
f 128 122 125
f 126 121 124
f 126 124 127
f 132 131 130
f 132 130 129
f 126 127 131
f 126 131 132
f 128 125 129
f 128 129 130
f 125 126 132
f 125 132 129
f 127 128 130
f 127 130 131
f 136 135 134
f 136 134 133
f 135 138 137
f 135 137 134
f 138 140 139
f 138 139 137
f 140 142 141
f 140 141 139
f 142 143 144
f 142 144 141
f 133 145 146
f 133 146 136
f 134 139 141
f 134 141 133
f 137 139 134
f 141 144 145
f 141 145 133
f 140 135 136
f 140 136 142
f 138 135 140
f 136 146 143
f 136 143 142
f 147 148 149
f 150 151 152
f 150 152 153
f 147 149 151
f 147 151 150
f 154 155 156
f 157 158 159
f 157 159 160
f 154 156 158
f 154 158 157
f 161 150 153
f 161 153 162
f 163 147 150
f 163 150 161
f 164 148 147
f 164 147 163
f 165 149 148
f 165 148 164
f 166 151 149
f 166 149 165
f 167 152 151
f 167 151 166
f 168 157 160
f 168 160 169
f 170 154 157
f 170 157 168
f 171 155 154
f 171 154 170
f 172 156 155
f 172 155 171
f 173 158 156
f 173 156 172
f 174 159 158
f 174 158 173
f 175 176 177
f 175 177 178
f 179 180 181
f 179 181 182
f 183 184 185
f 183 185 186
f 187 188 189
f 187 189 190
f 182 181 178
f 182 178 177
f 186 185 190
f 186 190 189
f 181 180 191
f 175 178 192
f 181 191 192
f 181 192 178
f 183 186 193
f 189 188 194
f 189 194 193
f 189 193 186
f 195 196 197
f 195 197 198
f 199 200 196
f 199 196 195
f 201 202 200
f 201 200 199
f 203 204 202
f 203 202 201
f 205 206 204
f 205 204 203
f 207 208 206
f 207 206 205
f 209 210 211
f 209 211 212
f 213 214 210
f 213 210 209
f 215 216 214
f 215 214 213
f 217 218 216
f 217 216 215
f 219 220 218
f 219 218 217
f 221 222 220
f 221 220 219
f 223 224 225
f 223 225 226
f 226 225 228
f 226 228 227
f 232 231 230
f 232 230 229
f 233 234 231
f 233 231 232
f 192 235 176
f 192 176 175
f 236 191 180
f 236 180 179
f 193 237 184
f 193 184 183
f 238 194 188
f 238 188 187
f 192 191 239
f 192 239 240
f 241 193 194
f 241 194 242
f 211 210 161
f 211 161 162
f 210 214 163
f 210 163 161
f 214 216 164
f 214 164 163
f 216 218 165
f 216 165 164
f 218 220 166
f 218 166 165
f 220 222 167
f 220 167 166
f 197 196 168
f 197 168 169
f 196 200 170
f 196 170 168
f 200 202 171
f 200 171 170
f 202 204 172
f 202 172 171
f 204 206 173
f 204 173 172
f 206 208 174
f 206 174 173
f 232 244 243
f 244 239 243
f 245 246 232
f 245 241 246
f 226 248 247
f 248 242 247
f 249 250 226
f 249 240 250
f 252 251 232
f 252 232 244
f 240 252 244
f 240 244 239
f 246 232 251
f 246 251 253
f 241 246 253
f 241 253 242
f 252 240 250
f 251 252 250
f 251 250 226
f 248 242 253
f 226 248 253
f 226 253 251
f 247 242 223
f 240 249 227
f 241 245 229
f 243 239 233
f 223 242 194
f 223 194 238
f 240 227 235
f 240 235 192
f 241 229 197
f 241 197 193
f 233 239 191
f 233 191 222
f 254 255 256
f 254 256 257
f 255 258 259
f 255 259 256
f 258 260 261
f 258 261 259
f 260 262 263
f 260 263 261
f 254 262 260
f 254 260 255
f 255 260 258
f 254 264 265
f 254 265 262
f 266 267 268
f 266 268 269
f 270 271 272
f 270 272 273
f 271 270 264
f 271 264 274
f 267 266 275
f 267 275 265
f 269 268 144
f 269 144 143
f 273 272 146
f 273 146 145
f 262 265 275
f 262 275 263
f 257 274 264
f 257 264 254
f 268 267 270
f 268 270 273
f 279 278 277
f 279 277 276
f 278 281 280
f 278 280 277
f 281 283 282
f 281 282 280
f 283 285 284
f 283 284 282
f 285 286 287
f 285 287 284
f 276 288 289
f 276 289 279
f 277 282 284
f 277 284 276
f 280 282 277
f 284 287 288
f 284 288 276
f 283 278 279
f 283 279 285
f 281 278 283
f 279 289 286
f 279 286 285
f 290 291 292
f 293 294 295
f 293 295 296
f 290 292 294
f 290 294 293
f 297 298 299
f 300 301 302
f 300 302 303
f 297 299 301
f 297 301 300
f 304 293 296
f 304 296 305
f 306 290 293
f 306 293 304
f 307 291 290
f 307 290 306
f 308 292 291
f 308 291 307
f 309 294 292
f 309 292 308
f 310 295 294
f 310 294 309
f 311 300 303
f 311 303 312
f 313 297 300
f 313 300 311
f 314 298 297
f 314 297 313
f 315 299 298
f 315 298 314
f 316 301 299
f 316 299 315
f 317 302 301
f 317 301 316
f 318 319 320
f 318 320 321
f 322 323 324
f 322 324 325
f 326 327 328
f 326 328 329
f 330 331 332
f 330 332 333
f 325 324 321
f 325 321 320
f 329 328 333
f 329 333 332
f 324 323 334
f 318 321 335
f 324 334 335
f 324 335 321
f 326 329 336
f 332 331 337
f 332 337 336
f 332 336 329
f 338 339 340
f 338 340 341
f 342 343 339
f 342 339 338
f 344 345 343
f 344 343 342
f 346 347 345
f 346 345 344
f 348 349 347
f 348 347 346
f 350 351 349
f 350 349 348
f 352 353 354
f 352 354 355
f 356 357 353
f 356 353 352
f 358 359 357
f 358 357 356
f 360 361 359
f 360 359 358
f 362 363 361
f 362 361 360
f 364 365 363
f 364 363 362
f 366 367 368
f 366 368 369
f 369 368 371
f 369 371 370
f 375 374 373
f 375 373 372
f 376 377 374
f 376 374 375
f 335 378 319
f 335 319 318
f 379 334 323
f 379 323 322
f 336 380 327
f 336 327 326
f 381 337 331
f 381 331 330
f 335 334 382
f 335 382 383
f 384 336 337
f 384 337 385
f 354 353 304
f 354 304 305
f 353 357 306
f 353 306 304
f 357 359 307
f 357 307 306
f 359 361 308
f 359 308 307
f 361 363 309
f 361 309 308
f 363 365 310
f 363 310 309
f 340 339 311
f 340 311 312
f 339 343 313
f 339 313 311
f 343 345 314
f 343 314 313
f 345 347 315
f 345 315 314
f 347 349 316
f 347 316 315
f 349 351 317
f 349 317 316
f 375 387 386
f 387 382 386
f 388 389 375
f 388 384 389
f 369 391 390
f 391 385 390
f 392 393 369
f 392 383 393
f 395 394 375
f 395 375 387
f 383 395 387
f 383 387 382
f 389 375 394
f 389 394 396
f 384 389 396
f 384 396 385
f 395 383 393
f 394 395 393
f 394 393 369
f 391 385 396
f 369 391 396
f 369 396 394
f 390 385 366
f 383 392 370
f 384 388 372
f 386 382 376
f 366 385 337
f 366 337 381
f 383 370 378
f 383 378 335
f 384 372 340
f 384 340 336
f 376 382 334
f 376 334 365
f 397 398 399
f 397 399 400
f 398 401 402
f 398 402 399
f 401 403 404
f 401 404 402
f 403 405 406
f 403 406 404
f 397 405 403
f 397 403 398
f 398 403 401
f 397 407 408
f 397 408 405
f 409 410 411
f 409 411 412
f 413 414 415
f 413 415 416
f 414 413 407
f 414 407 417
f 410 409 418
f 410 418 408
f 412 411 287
f 412 287 286
f 416 415 289
f 416 289 288
f 405 408 418
f 405 418 406
f 400 417 407
f 400 407 397
f 411 410 413
f 411 413 416
f 422 421 420
f 422 420 419
f 421 424 423
f 421 423 420
f 424 426 425
f 424 425 423
f 426 428 427
f 426 427 425
f 428 430 429
f 428 429 427
f 430 432 431
f 430 431 429
f 432 434 433
f 432 433 431
f 434 436 435
f 434 435 433
f 436 438 437
f 436 437 435
f 438 440 439
f 438 439 437
f 440 442 441
f 440 441 439
f 442 444 443
f 442 443 441
f 444 446 445
f 444 445 443
f 446 448 447
f 446 447 445
f 448 450 449
f 448 449 447
f 450 422 419
f 450 419 449
f 451 419 420
f 451 420 423
f 451 423 425
f 451 425 427
f 451 427 429
f 451 429 431
f 451 431 433
f 451 433 435
f 451 435 437
f 451 437 439
f 451 439 441
f 451 441 443
f 451 443 445
f 451 445 447
f 451 447 449
f 451 449 419
f 455 454 453
f 455 453 452
f 454 457 456
f 454 456 453
f 457 459 458
f 457 458 456
f 459 461 460
f 459 460 458
f 461 463 462
f 461 462 460
f 463 465 464
f 463 464 462
f 465 467 466
f 465 466 464
f 467 469 468
f 467 468 466
f 469 471 470
f 469 470 468
f 471 473 472
f 471 472 470
f 473 475 474
f 473 474 472
f 475 477 476
f 475 476 474
f 477 479 478
f 477 478 476
f 479 481 480
f 479 480 478
f 481 483 482
f 481 482 480
f 483 455 452
f 483 452 482
f 484 452 453
f 484 453 456
f 484 456 458
f 484 458 460
f 484 460 462
f 484 462 464
f 484 464 466
f 484 466 468
f 484 468 470
f 484 470 472
f 484 472 474
f 484 474 476
f 484 476 478
f 484 478 480
f 484 480 482
f 484 482 452
f 488 487 486
f 488 486 485
f 487 490 489
f 487 489 486
f 490 492 491
f 490 491 489
f 492 494 493
f 492 493 491
f 494 496 495
f 494 495 493
f 496 498 497
f 496 497 495
f 498 500 499
f 498 499 497
f 500 502 501
f 500 501 499
f 502 504 503
f 502 503 501
f 504 506 505
f 504 505 503
f 506 508 507
f 506 507 505
f 508 510 509
f 508 509 507
f 510 512 511
f 510 511 509
f 512 514 513
f 512 513 511
f 514 516 515
f 514 515 513
f 516 488 485
f 516 485 515
f 517 485 486
f 517 486 489
f 517 489 491
f 517 491 493
f 517 493 495
f 517 495 497
f 517 497 499
f 517 499 501
f 517 501 503
f 517 503 505
f 517 505 507
f 517 507 509
f 517 509 511
f 517 511 513
f 517 513 515
f 517 515 485
f 521 520 519
f 521 519 518
f 520 523 522
f 520 522 519
f 523 525 524
f 523 524 522
f 525 527 526
f 525 526 524
f 527 529 528
f 527 528 526
f 529 531 530
f 529 530 528
f 531 533 532
f 531 532 530
f 533 535 534
f 533 534 532
f 535 537 536
f 535 536 534
f 537 539 538
f 537 538 536
f 539 541 540
f 539 540 538
f 541 543 542
f 541 542 540
f 543 545 544
f 543 544 542
f 545 547 546
f 545 546 544
f 547 549 548
f 547 548 546
f 549 521 518
f 549 518 548
f 550 518 519
f 550 519 522
f 550 522 524
f 550 524 526
f 550 526 528
f 550 528 530
f 550 530 532
f 550 532 534
f 550 534 536
f 550 536 538
f 550 538 540
f 550 540 542
f 550 542 544
f 550 544 546
f 550 546 548
f 550 548 518
