o 4624
v 0.0036000 -0.0032000 -0.0000000
v 0.0033260 -0.0032000 -0.0013777
v 0.0031413 -0.0032000 -0.0013012
v 0.0034000 -0.0032000 -0.0000000
v 0.0025456 -0.0032000 -0.0025456
v 0.0024041 -0.0032000 -0.0024041
v 0.0040000 -0.0032000 -0.0000000
v 0.0036956 -0.0032000 -0.0015308
v 0.0028284 -0.0032000 -0.0028284
v 0.0000000 -0.0032000 -0.0000000
v 0.0016000 -0.0032000 -0.0000000
v 0.0014782 -0.0032000 -0.0006123
v 0.0011314 -0.0032000 -0.0011314
v 0.0032808 -0.0032000 -0.0006000
v 0.0014784 -0.0032000 -0.0006124
v 0.0040000 0.0032000 -0.0000000
v 0.0036956 0.0032000 -0.0015308
v 0.0029565 0.0032000 -0.0012246
v 0.0032000 0.0032000 -0.0000000
v 0.0028284 0.0032000 -0.0028284
v 0.0022627 0.0032000 -0.0022627
v 0.0029564 0.0032000 -0.0012246
v 0.0022173 0.0032000 -0.0009185
v 0.0024000 0.0032000 -0.0000000
v 0.0016970 0.0032000 -0.0016970
v 0.0014782 0.0032000 -0.0006123
v 0.0022173 0.0032000 -0.0009184
v 0.0016971 0.0032000 -0.0016971
v 0.0011314 0.0032000 -0.0011314
v 0.0014784 0.0032000 -0.0006124
v 0.0022806 0.0032000 -0.0006002
v 0.0023559 -0.0021800 -0.0009758
v 0.0018032 -0.0021800 -0.0018032
v 0.0024042 -0.0032000 -0.0024042
v 0.0031412 -0.0032000 -0.0013011
v 0.0022173 -0.0020000 -0.0009185
v 0.0016970 -0.0020000 -0.0016971
v 0.0018031 -0.0021800 -0.0018032
v 0.0023558 -0.0021800 -0.0009759
v 0.0031412 -0.0032000 -0.0013012
v 0.0022804 -0.0020000 -0.0006000
v 0.0022172 -0.0020000 -0.0009184
v 0.0014782 -0.0008000 -0.0006123
v 0.0022173 -0.0008000 -0.0009184
v 0.0016971 -0.0008000 -0.0016971
v 0.0011314 -0.0008000 -0.0011314
v 0.0022172 -0.0008000 -0.0009184
v 0.0022804 -0.0008000 -0.0006000
v 0.0014784 -0.0008000 -0.0006124
v 0.0000000 -0.0020000 -0.0000000
v 0.0016000 -0.0020000 -0.0000000
v 0.0014782 -0.0020000 -0.0006123
v 0.0011314 -0.0020000 -0.0011314
v 0.0024002 -0.0020000 -0.0000000
v 0.0014784 -0.0020000 -0.0006124
v 0.0011315 0.0032000 -0.0011316
v 0.0011315 -0.0008000 -0.0011316
v 0.0022806 -0.0008000 -0.0006002
v 0.0014786 -0.0008000 -0.0006126
v 0.0014786 0.0032000 -0.0006126
v 0.0011315 -0.0020000 -0.0011316
v 0.0011315 -0.0032000 -0.0011316
v 0.0016970 -0.0020000 -0.0016970
v 0.0016970 -0.0008000 -0.0016970
v 0.0036956 0.0016000 -0.0015308
v 0.0040000 0.0016000 -0.0000000
v 0.0028284 0.0016000 -0.0028284
v 0.0032000 0.0008000 -0.0000000
v 0.0029565 0.0008000 -0.0012246
v 0.0022627 0.0008000 -0.0022627
v 0.0029565 -0.0008000 -0.0012246
v 0.0032000 -0.0008000 -0.0000000
v 0.0022627 -0.0008000 -0.0022627
v 0.0036956 -0.0016000 -0.0015308
v 0.0040000 -0.0016000 -0.0000000
v 0.0028284 -0.0016000 -0.0028284
v -0.0036000 -0.0032000 -0.0000000
v -0.0033260 -0.0032000 -0.0013777
v -0.0031413 -0.0032000 -0.0013012
v -0.0034000 -0.0032000 -0.0000000
v -0.0025456 -0.0032000 -0.0025456
v -0.0024041 -0.0032000 -0.0024041
v -0.0040000 -0.0032000 -0.0000000
v -0.0036956 -0.0032000 -0.0015308
v -0.0028284 -0.0032000 -0.0028284
v -0.0016000 -0.0032000 -0.0000000
v -0.0014782 -0.0032000 -0.0006123
v -0.0011314 -0.0032000 -0.0011314
v -0.0032808 -0.0032000 -0.0006000
v -0.0014784 -0.0032000 -0.0006124
v -0.0040000 0.0032000 -0.0000000
v -0.0036956 0.0032000 -0.0015308
v -0.0029565 0.0032000 -0.0012246
v -0.0032000 0.0032000 -0.0000000
v -0.0028284 0.0032000 -0.0028284
v -0.0022627 0.0032000 -0.0022627
v -0.0029564 0.0032000 -0.0012246
v -0.0022173 0.0032000 -0.0009185
v -0.0024000 0.0032000 -0.0000000
v -0.0016970 0.0032000 -0.0016970
v -0.0014782 0.0032000 -0.0006123
v -0.0022173 0.0032000 -0.0009184
v -0.0016971 0.0032000 -0.0016971
v -0.0011314 0.0032000 -0.0011314
v -0.0014784 0.0032000 -0.0006124
v -0.0022806 0.0032000 -0.0006002
v -0.0023559 -0.0021800 -0.0009758
v -0.0018032 -0.0021800 -0.0018032
v -0.0024042 -0.0032000 -0.0024042
v -0.0031412 -0.0032000 -0.0013011
v -0.0022173 -0.0020000 -0.0009185
v -0.0016970 -0.0020000 -0.0016971
v -0.0018031 -0.0021800 -0.0018032
v -0.0023558 -0.0021800 -0.0009759
v -0.0031412 -0.0032000 -0.0013012
v -0.0022804 -0.0020000 -0.0006000
v -0.0022172 -0.0020000 -0.0009184
v -0.0014782 -0.0008000 -0.0006123
v -0.0022173 -0.0008000 -0.0009184
v -0.0016971 -0.0008000 -0.0016971
v -0.0011314 -0.0008000 -0.0011314
v -0.0022172 -0.0008000 -0.0009184
v -0.0022804 -0.0008000 -0.0006000
v -0.0014784 -0.0008000 -0.0006124
v -0.0016000 -0.0020000 -0.0000000
v -0.0014782 -0.0020000 -0.0006123
v -0.0011314 -0.0020000 -0.0011314
v -0.0024002 -0.0020000 -0.0000000
v -0.0014784 -0.0020000 -0.0006124
v -0.0011315 0.0032000 -0.0011316
v -0.0011315 -0.0008000 -0.0011316
v -0.0022806 -0.0008000 -0.0006002
v -0.0014786 -0.0008000 -0.0006126
v -0.0014786 0.0032000 -0.0006126
v -0.0011315 -0.0020000 -0.0011316
v -0.0011315 -0.0032000 -0.0011316
v -0.0016970 -0.0020000 -0.0016970
v -0.0016970 -0.0008000 -0.0016970
v -0.0036956 0.0016000 -0.0015308
v -0.0040000 0.0016000 -0.0000000
v -0.0028284 0.0016000 -0.0028284
v -0.0032000 0.0008000 -0.0000000
v -0.0029565 0.0008000 -0.0012246
v -0.0022627 0.0008000 -0.0022627
v -0.0029565 -0.0008000 -0.0012246
v -0.0032000 -0.0008000 -0.0000000
v -0.0022627 -0.0008000 -0.0022627
v -0.0036956 -0.0016000 -0.0015308
v -0.0040000 -0.0016000 -0.0000000
v -0.0028284 -0.0016000 -0.0028284
v 0.0033260 -0.0032000 0.0013777
v 0.0031413 -0.0032000 0.0013012
v 0.0025456 -0.0032000 0.0025456
v 0.0024041 -0.0032000 0.0024041
v 0.0036956 -0.0032000 0.0015308
v 0.0028284 -0.0032000 0.0028284
v 0.0014782 -0.0032000 0.0006123
v 0.0011314 -0.0032000 0.0011314
v 0.0032808 -0.0032000 0.0006000
v 0.0014784 -0.0032000 0.0006124
v 0.0036956 0.0032000 0.0015308
v 0.0029565 0.0032000 0.0012246
v 0.0028284 0.0032000 0.0028284
v 0.0022627 0.0032000 0.0022627
v 0.0029564 0.0032000 0.0012246
v 0.0022173 0.0032000 0.0009185
v 0.0016970 0.0032000 0.0016970
v 0.0014782 0.0032000 0.0006123
v 0.0022173 0.0032000 0.0009184
v 0.0016971 0.0032000 0.0016971
v 0.0011314 0.0032000 0.0011314
v 0.0014784 0.0032000 0.0006124
v 0.0022806 0.0032000 0.0006002
v 0.0023559 -0.0021800 0.0009758
v 0.0018032 -0.0021800 0.0018032
v 0.0024042 -0.0032000 0.0024042
v 0.0031412 -0.0032000 0.0013011
v 0.0022173 -0.0020000 0.0009185
v 0.0016970 -0.0020000 0.0016971
v 0.0018031 -0.0021800 0.0018032
v 0.0023558 -0.0021800 0.0009759
v 0.0031412 -0.0032000 0.0013012
v 0.0022804 -0.0020000 0.0006000
v 0.0022172 -0.0020000 0.0009184
v 0.0014782 -0.0008000 0.0006123
v 0.0022173 -0.0008000 0.0009184
v 0.0016971 -0.0008000 0.0016971
v 0.0011314 -0.0008000 0.0011314
v 0.0022172 -0.0008000 0.0009184
v 0.0022804 -0.0008000 0.0006000
v 0.0014784 -0.0008000 0.0006124
v 0.0014782 -0.0020000 0.0006123
v 0.0011314 -0.0020000 0.0011314
v 0.0014784 -0.0020000 0.0006124
v 0.0011315 0.0032000 0.0011316
v 0.0011315 -0.0008000 0.0011316
v 0.0022806 -0.0008000 0.0006002
v 0.0014786 -0.0008000 0.0006126
v 0.0014786 0.0032000 0.0006126
v 0.0011315 -0.0020000 0.0011316
v 0.0011315 -0.0032000 0.0011316
v 0.0016970 -0.0020000 0.0016970
v 0.0016970 -0.0008000 0.0016970
v 0.0036956 0.0016000 0.0015308
v 0.0028284 0.0016000 0.0028284
v 0.0029565 0.0008000 0.0012246
v 0.0022627 0.0008000 0.0022627
v 0.0029565 -0.0008000 0.0012246
v 0.0022627 -0.0008000 0.0022627
v 0.0036956 -0.0016000 0.0015308
v 0.0028284 -0.0016000 0.0028284
v -0.0033260 -0.0032000 0.0013777
v -0.0031413 -0.0032000 0.0013012
v -0.0025456 -0.0032000 0.0025456
v -0.0024041 -0.0032000 0.0024041
v -0.0036956 -0.0032000 0.0015308
v -0.0028284 -0.0032000 0.0028284
v -0.0014782 -0.0032000 0.0006123
v -0.0011314 -0.0032000 0.0011314
v -0.0032808 -0.0032000 0.0006000
v -0.0014784 -0.0032000 0.0006124
v -0.0036956 0.0032000 0.0015308
v -0.0029565 0.0032000 0.0012246
v -0.0028284 0.0032000 0.0028284
v -0.0022627 0.0032000 0.0022627
v -0.0029564 0.0032000 0.0012246
v -0.0022173 0.0032000 0.0009185
v -0.0016970 0.0032000 0.0016970
v -0.0014782 0.0032000 0.0006123
v -0.0022173 0.0032000 0.0009184
v -0.0016971 0.0032000 0.0016971
v -0.0011314 0.0032000 0.0011314
v -0.0014784 0.0032000 0.0006124
v -0.0022806 0.0032000 0.0006002
v -0.0023559 -0.0021800 0.0009758
v -0.0018032 -0.0021800 0.0018032
v -0.0024042 -0.0032000 0.0024042
v -0.0031412 -0.0032000 0.0013011
v -0.0022173 -0.0020000 0.0009185
v -0.0016970 -0.0020000 0.0016971
v -0.0018031 -0.0021800 0.0018032
v -0.0023558 -0.0021800 0.0009759
v -0.0031412 -0.0032000 0.0013012
v -0.0022804 -0.0020000 0.0006000
v -0.0022172 -0.0020000 0.0009184
v -0.0014782 -0.0008000 0.0006123
v -0.0022173 -0.0008000 0.0009184
v -0.0016971 -0.0008000 0.0016971
v -0.0011314 -0.0008000 0.0011314
v -0.0022172 -0.0008000 0.0009184
v -0.0022804 -0.0008000 0.0006000
v -0.0014784 -0.0008000 0.0006124
v -0.0014782 -0.0020000 0.0006123
v -0.0011314 -0.0020000 0.0011314
v -0.0014784 -0.0020000 0.0006124
v -0.0011315 0.0032000 0.0011316
v -0.0011315 -0.0008000 0.0011316
v -0.0022806 -0.0008000 0.0006002
v -0.0014786 -0.0008000 0.0006126
v -0.0014786 0.0032000 0.0006126
v -0.0011315 -0.0020000 0.0011316
v -0.0011315 -0.0032000 0.0011316
v -0.0016970 -0.0020000 0.0016970
v -0.0016970 -0.0008000 0.0016970
v -0.0036956 0.0016000 0.0015308
v -0.0028284 0.0016000 0.0028284
v -0.0029565 0.0008000 0.0012246
v -0.0022627 0.0008000 0.0022627
v -0.0029565 -0.0008000 0.0012246
v -0.0022627 -0.0008000 0.0022627
v -0.0036956 -0.0016000 0.0015308
v -0.0028284 -0.0016000 0.0028284
v 0.0000000 -0.0032000 -0.0036000
v 0.0013777 -0.0032000 -0.0033260
v 0.0013012 -0.0032000 -0.0031413
v 0.0000000 -0.0032000 -0.0034000
v 0.0000000 -0.0032000 -0.0040000
v 0.0015308 -0.0032000 -0.0036956
v 0.0000000 -0.0032000 -0.0016000
v 0.0006123 -0.0032000 -0.0014782
v 0.0006000 -0.0032000 -0.0032808
v 0.0006124 -0.0032000 -0.0014784
v 0.0000000 0.0032000 -0.0040000
v 0.0015308 0.0032000 -0.0036956
v 0.0012246 0.0032000 -0.0029565
v 0.0000000 0.0032000 -0.0032000
v 0.0012246 0.0032000 -0.0029564
v 0.0009185 0.0032000 -0.0022173
v 0.0000000 0.0032000 -0.0024000
v 0.0006123 0.0032000 -0.0014782
v 0.0009184 0.0032000 -0.0022173
v 0.0016971 0.0032000 -0.0016971
v 0.0006124 0.0032000 -0.0014784
v 0.0006002 0.0032000 -0.0022806
v 0.0009758 -0.0021800 -0.0023559
v 0.0024042 -0.0032000 -0.0024042
v 0.0013011 -0.0032000 -0.0031412
v 0.0009185 -0.0020000 -0.0022173
v 0.0016971 -0.0020000 -0.0016970
v 0.0018032 -0.0021800 -0.0018031
v 0.0009759 -0.0021800 -0.0023558
v 0.0013012 -0.0032000 -0.0031412
v 0.0006000 -0.0020000 -0.0022804
v 0.0009184 -0.0020000 -0.0022172
v 0.0006123 -0.0008000 -0.0014782
v 0.0009184 -0.0008000 -0.0022173
v 0.0016971 -0.0008000 -0.0016971
v 0.0009184 -0.0008000 -0.0022172
v 0.0006000 -0.0008000 -0.0022804
v 0.0006124 -0.0008000 -0.0014784
v 0.0000000 -0.0020000 -0.0016000
v 0.0006123 -0.0020000 -0.0014782
v 0.0000000 -0.0020000 -0.0024002
v 0.0006124 -0.0020000 -0.0014784
v 0.0011316 0.0032000 -0.0011315
v 0.0011316 -0.0008000 -0.0011315
v 0.0006002 -0.0008000 -0.0022806
v 0.0006126 -0.0008000 -0.0014786
v 0.0006126 0.0032000 -0.0014786
v 0.0011316 -0.0020000 -0.0011315
v 0.0011316 -0.0032000 -0.0011315
v 0.0016970 -0.0020000 -0.0016970
v 0.0016970 -0.0008000 -0.0016970
v 0.0015308 0.0016000 -0.0036956
v 0.0000000 0.0016000 -0.0040000
v 0.0000000 0.0008000 -0.0032000
v 0.0012246 0.0008000 -0.0029565
v 0.0012246 -0.0008000 -0.0029565
v 0.0000000 -0.0008000 -0.0032000
v 0.0015308 -0.0016000 -0.0036956
v 0.0000000 -0.0016000 -0.0040000
v -0.0013777 -0.0032000 -0.0033260
v -0.0013012 -0.0032000 -0.0031413
v -0.0015308 -0.0032000 -0.0036956
v -0.0006123 -0.0032000 -0.0014782
v -0.0006000 -0.0032000 -0.0032808
v -0.0006124 -0.0032000 -0.0014784
v -0.0015308 0.0032000 -0.0036956
v -0.0012246 0.0032000 -0.0029565
v -0.0012246 0.0032000 -0.0029564
v -0.0009185 0.0032000 -0.0022173
v -0.0006123 0.0032000 -0.0014782
v -0.0009184 0.0032000 -0.0022173
v -0.0016971 0.0032000 -0.0016971
v -0.0006124 0.0032000 -0.0014784
v -0.0006002 0.0032000 -0.0022806
v -0.0009758 -0.0021800 -0.0023559
v -0.0024042 -0.0032000 -0.0024042
v -0.0013011 -0.0032000 -0.0031412
v -0.0009185 -0.0020000 -0.0022173
v -0.0016971 -0.0020000 -0.0016970
v -0.0018032 -0.0021800 -0.0018031
v -0.0009759 -0.0021800 -0.0023558
v -0.0013012 -0.0032000 -0.0031412
v -0.0006000 -0.0020000 -0.0022804
v -0.0009184 -0.0020000 -0.0022172
v -0.0006123 -0.0008000 -0.0014782
v -0.0009184 -0.0008000 -0.0022173
v -0.0016971 -0.0008000 -0.0016971
v -0.0009184 -0.0008000 -0.0022172
v -0.0006000 -0.0008000 -0.0022804
v -0.0006124 -0.0008000 -0.0014784
v -0.0006123 -0.0020000 -0.0014782
v -0.0006124 -0.0020000 -0.0014784
v -0.0011316 0.0032000 -0.0011315
v -0.0011316 -0.0008000 -0.0011315
v -0.0006002 -0.0008000 -0.0022806
v -0.0006126 -0.0008000 -0.0014786
v -0.0006126 0.0032000 -0.0014786
v -0.0011316 -0.0020000 -0.0011315
v -0.0011316 -0.0032000 -0.0011315
v -0.0016970 -0.0020000 -0.0016970
v -0.0016970 -0.0008000 -0.0016970
v -0.0015308 0.0016000 -0.0036956
v -0.0012246 0.0008000 -0.0029565
v -0.0012246 -0.0008000 -0.0029565
v -0.0015308 -0.0016000 -0.0036956
v 0.0000000 -0.0032000 0.0036000
v 0.0013777 -0.0032000 0.0033260
v 0.0013012 -0.0032000 0.0031413
v 0.0000000 -0.0032000 0.0034000
v 0.0000000 -0.0032000 0.0040000
v 0.0015308 -0.0032000 0.0036956
v 0.0000000 -0.0032000 0.0016000
v 0.0006123 -0.0032000 0.0014782
v 0.0006000 -0.0032000 0.0032808
v 0.0006124 -0.0032000 0.0014784
v 0.0000000 0.0032000 0.0040000
v 0.0015308 0.0032000 0.0036956
v 0.0012246 0.0032000 0.0029565
v 0.0000000 0.0032000 0.0032000
v 0.0012246 0.0032000 0.0029564
v 0.0009185 0.0032000 0.0022173
v 0.0000000 0.0032000 0.0024000
v 0.0006123 0.0032000 0.0014782
v 0.0009184 0.0032000 0.0022173
v 0.0016971 0.0032000 0.0016971
v 0.0006124 0.0032000 0.0014784
v 0.0006002 0.0032000 0.0022806
v 0.0009758 -0.0021800 0.0023559
v 0.0024042 -0.0032000 0.0024042
v 0.0013011 -0.0032000 0.0031412
v 0.0009185 -0.0020000 0.0022173
v 0.0016971 -0.0020000 0.0016970
v 0.0018032 -0.0021800 0.0018031
v 0.0009759 -0.0021800 0.0023558
v 0.0013012 -0.0032000 0.0031412
v 0.0006000 -0.0020000 0.0022804
v 0.0009184 -0.0020000 0.0022172
v 0.0006123 -0.0008000 0.0014782
v 0.0009184 -0.0008000 0.0022173
v 0.0016971 -0.0008000 0.0016971
v 0.0009184 -0.0008000 0.0022172
v 0.0006000 -0.0008000 0.0022804
v 0.0006124 -0.0008000 0.0014784
v 0.0000000 -0.0020000 0.0016000
v 0.0006123 -0.0020000 0.0014782
v 0.0000000 -0.0020000 0.0024002
v 0.0006124 -0.0020000 0.0014784
v 0.0011316 0.0032000 0.0011315
v 0.0011316 -0.0008000 0.0011315
v 0.0006002 -0.0008000 0.0022806
v 0.0006126 -0.0008000 0.0014786
v 0.0006126 0.0032000 0.0014786
v 0.0011316 -0.0020000 0.0011315
v 0.0011316 -0.0032000 0.0011315
v 0.0016970 -0.0020000 0.0016970
v 0.0016970 -0.0008000 0.0016970
v 0.0015308 0.0016000 0.0036956
v 0.0000000 0.0016000 0.0040000
v 0.0000000 0.0008000 0.0032000
v 0.0012246 0.0008000 0.0029565
v 0.0012246 -0.0008000 0.0029565
v 0.0000000 -0.0008000 0.0032000
v 0.0015308 -0.0016000 0.0036956
v 0.0000000 -0.0016000 0.0040000
v -0.0013777 -0.0032000 0.0033260
v -0.0013012 -0.0032000 0.0031413
v -0.0015308 -0.0032000 0.0036956
v -0.0006123 -0.0032000 0.0014782
v -0.0006000 -0.0032000 0.0032808
v -0.0006124 -0.0032000 0.0014784
v -0.0015308 0.0032000 0.0036956
v -0.0012246 0.0032000 0.0029565
v -0.0012246 0.0032000 0.0029564
v -0.0009185 0.0032000 0.0022173
v -0.0006123 0.0032000 0.0014782
v -0.0009184 0.0032000 0.0022173
v -0.0016971 0.0032000 0.0016971
v -0.0006124 0.0032000 0.0014784
v -0.0006002 0.0032000 0.0022806
v -0.0009758 -0.0021800 0.0023559
v -0.0024042 -0.0032000 0.0024042
v -0.0013011 -0.0032000 0.0031412
v -0.0009185 -0.0020000 0.0022173
v -0.0016971 -0.0020000 0.0016970
v -0.0018032 -0.0021800 0.0018031
v -0.0009759 -0.0021800 0.0023558
v -0.0013012 -0.0032000 0.0031412
v -0.0006000 -0.0020000 0.0022804
v -0.0009184 -0.0020000 0.0022172
v -0.0006123 -0.0008000 0.0014782
v -0.0009184 -0.0008000 0.0022173
v -0.0016971 -0.0008000 0.0016971
v -0.0009184 -0.0008000 0.0022172
v -0.0006000 -0.0008000 0.0022804
v -0.0006124 -0.0008000 0.0014784
v -0.0006123 -0.0020000 0.0014782
v -0.0006124 -0.0020000 0.0014784
v -0.0011316 0.0032000 0.0011315
v -0.0011316 -0.0008000 0.0011315
v -0.0006002 -0.0008000 0.0022806
v -0.0006126 -0.0008000 0.0014786
v -0.0006126 0.0032000 0.0014786
v -0.0011316 -0.0020000 0.0011315
v -0.0011316 -0.0032000 0.0011315
v -0.0016970 -0.0020000 0.0016970
v -0.0016970 -0.0008000 0.0016970
v -0.0015308 0.0016000 0.0036956
v -0.0012246 0.0008000 0.0029565
v -0.0012246 -0.0008000 0.0029565
v -0.0015308 -0.0016000 0.0036956
usemtl c16
f 4 3 2
f 4 2 1
f 3 6 5
f 3 5 2
f 1 2 8
f 1 8 7
f 2 5 9
f 2 9 8
f 12 11 10
f 13 12 10
f 14 4 11
f 14 11 15
f 16 17 18
f 16 18 19
f 17 20 21
f 17 21 18
f 19 22 23
f 19 23 24
f 22 21 25
f 22 25 23
f 26 27 28
f 26 28 29
f 30 31 23
f 35 34 33
f 35 33 32
f 39 38 37
f 39 37 36
f 39 40 14
f 39 14 41
f 41 42 39
f 46 45 44
f 46 44 43
f 47 48 49
f 50 51 52
f 50 52 53
f 51 54 41
f 51 41 55
f 30 49 57
f 30 57 56
f 48 54 24
f 48 24 31
f 60 59 58
f 60 58 31
f 55 15 62
f 55 62 61
f 55 41 14
f 55 14 15
f 63 64 47
f 63 47 42
f 47 42 41
f 47 41 48
f 54 48 41
f 65 17 16
f 65 16 66
f 67 20 17
f 67 17 65
f 68 69 65
f 68 65 66
f 69 70 67
f 69 67 65
f 71 69 68
f 71 68 72
f 73 70 69
f 73 69 71
f 75 74 71
f 75 71 72
f 74 76 73
f 74 73 71
f 8 74 75
f 8 75 7
f 9 76 74
f 9 74 8
f 77 78 79
f 77 79 80
f 78 81 82
f 78 82 79
f 83 84 78
f 83 78 77
f 84 85 81
f 84 81 78
f 10 86 87
f 10 87 88
f 90 86 80
f 90 80 89
f 94 93 92
f 94 92 91
f 93 96 95
f 93 95 92
f 99 98 97
f 99 97 94
f 98 100 96
f 98 96 97
f 104 103 102
f 104 102 101
f 98 106 105
f 107 108 109
f 107 109 110
f 111 112 113
f 111 113 114
f 116 89 115
f 116 115 114
f 114 117 116
f 118 119 120
f 118 120 121
f 124 123 122
f 126 125 50
f 127 126 50
f 129 116 128
f 129 128 125
f 130 131 124
f 130 124 105
f 106 99 128
f 106 128 123
f 106 132 133
f 106 133 134
f 135 136 90
f 135 90 129
f 90 89 116
f 90 116 129
f 117 122 138
f 117 138 137
f 123 116 117
f 123 117 122
f 116 123 128
f 140 91 92
f 140 92 139
f 139 92 95
f 139 95 141
f 140 139 143
f 140 143 142
f 139 141 144
f 139 144 143
f 146 142 143
f 146 143 145
f 145 143 144
f 145 144 147
f 146 145 148
f 146 148 149
f 145 147 150
f 145 150 148
f 83 149 148
f 83 148 84
f 84 148 150
f 84 150 85
f 1 151 152
f 1 152 4
f 151 153 154
f 151 154 152
f 7 155 151
f 7 151 1
f 155 156 153
f 155 153 151
f 10 11 157
f 10 157 158
f 160 11 4
f 160 4 159
f 19 162 161
f 19 161 16
f 162 164 163
f 162 163 161
f 24 166 165
f 24 165 19
f 166 167 164
f 166 164 165
f 171 170 169
f 171 169 168
f 166 173 172
f 174 175 176
f 174 176 177
f 178 179 180
f 178 180 181
f 183 159 182
f 183 182 181
f 181 184 183
f 185 186 187
f 185 187 188
f 191 190 189
f 192 51 50
f 193 192 50
f 194 183 54
f 194 54 51
f 195 196 191
f 195 191 172
f 173 24 54
f 173 54 190
f 173 197 198
f 173 198 199
f 200 201 160
f 200 160 194
f 160 159 183
f 160 183 194
f 184 189 203
f 184 203 202
f 190 183 184
f 190 184 189
f 183 190 54
f 66 16 161
f 66 161 204
f 204 161 163
f 204 163 205
f 66 204 206
f 66 206 68
f 204 205 207
f 204 207 206
f 72 68 206
f 72 206 208
f 208 206 207
f 208 207 209
f 72 208 210
f 72 210 75
f 208 209 211
f 208 211 210
f 7 75 210
f 7 210 155
f 155 210 211
f 155 211 156
f 80 213 212
f 80 212 77
f 213 215 214
f 213 214 212
f 77 212 216
f 77 216 83
f 212 214 217
f 212 217 216
f 218 86 10
f 219 218 10
f 220 80 86
f 220 86 221
f 91 222 223
f 91 223 94
f 222 224 225
f 222 225 223
f 94 226 227
f 94 227 99
f 226 225 228
f 226 228 227
f 229 230 231
f 229 231 232
f 233 234 227
f 238 237 236
f 238 236 235
f 242 241 240
f 242 240 239
f 242 243 220
f 242 220 244
f 244 245 242
f 249 248 247
f 249 247 246
f 250 251 252
f 50 125 253
f 50 253 254
f 125 128 244
f 125 244 255
f 233 252 257
f 233 257 256
f 251 128 99
f 251 99 234
f 260 259 258
f 260 258 234
f 255 221 262
f 255 262 261
f 255 244 220
f 255 220 221
f 263 264 250
f 263 250 245
f 250 245 244
f 250 244 251
f 128 251 244
f 265 222 91
f 265 91 140
f 266 224 222
f 266 222 265
f 142 267 265
f 142 265 140
f 267 268 266
f 267 266 265
f 269 267 142
f 269 142 146
f 270 268 267
f 270 267 269
f 149 271 269
f 149 269 146
f 271 272 270
f 271 270 269
f 216 271 149
f 216 149 83
f 217 272 271
f 217 271 216
f 273 274 275
f 273 275 276
f 274 5 6
f 274 6 275
f 277 278 274
f 277 274 273
f 278 9 5
f 278 5 274
f 10 279 280
f 10 280 13
f 282 279 276
f 282 276 281
f 286 285 284
f 286 284 283
f 285 21 20
f 285 20 284
f 289 288 287
f 289 287 286
f 288 25 21
f 288 21 287
f 29 292 291
f 29 291 290
f 288 294 293
f 295 33 296
f 295 296 297
f 298 299 300
f 298 300 301
f 303 281 302
f 303 302 301
f 301 304 303
f 305 306 307
f 305 307 46
f 310 309 308
f 312 311 50
f 53 312 50
f 314 303 313
f 314 313 311
f 315 316 310
f 315 310 293
f 294 289 313
f 294 313 309
f 294 317 318
f 294 318 319
f 320 321 282
f 320 282 314
f 282 281 303
f 282 303 314
f 304 308 323
f 304 323 322
f 309 303 304
f 309 304 308
f 303 309 313
f 325 283 284
f 325 284 324
f 324 284 20
f 324 20 67
f 325 324 327
f 325 327 326
f 324 67 70
f 324 70 327
f 329 326 327
f 329 327 328
f 328 327 70
f 328 70 73
f 329 328 330
f 329 330 331
f 328 73 76
f 328 76 330
f 277 331 330
f 277 330 278
f 278 330 76
f 278 76 9
f 276 333 332
f 276 332 273
f 333 82 81
f 333 81 332
f 273 332 334
f 273 334 277
f 332 81 85
f 332 85 334
f 335 279 10
f 88 335 10
f 336 276 279
f 336 279 337
f 283 338 339
f 283 339 286
f 338 95 96
f 338 96 339
f 286 340 341
f 286 341 289
f 340 96 100
f 340 100 341
f 342 343 344
f 342 344 104
f 345 346 341
f 349 348 108
f 349 108 347
f 353 352 351
f 353 351 350
f 353 354 336
f 353 336 355
f 355 356 353
f 121 359 358
f 121 358 357
f 360 361 362
f 50 311 363
f 50 363 127
f 311 313 355
f 311 355 364
f 345 362 366
f 345 366 365
f 361 313 289
f 361 289 346
f 369 368 367
f 369 367 346
f 364 337 371
f 364 371 370
f 364 355 336
f 364 336 337
f 372 373 360
f 372 360 356
f 360 356 355
f 360 355 361
f 313 361 355
f 374 338 283
f 374 283 325
f 141 95 338
f 141 338 374
f 326 375 374
f 326 374 325
f 375 144 141
f 375 141 374
f 376 375 326
f 376 326 329
f 147 144 375
f 147 375 376
f 331 377 376
f 331 376 329
f 377 150 147
f 377 147 376
f 334 377 331
f 334 331 277
f 85 150 377
f 85 377 334
f 381 380 379
f 381 379 378
f 380 154 153
f 380 153 379
f 378 379 383
f 378 383 382
f 379 153 156
f 379 156 383
f 385 384 10
f 158 385 10
f 386 381 384
f 386 384 387
f 388 389 390
f 388 390 391
f 389 163 164
f 389 164 390
f 391 392 393
f 391 393 394
f 392 164 167
f 392 167 393
f 395 396 397
f 395 397 171
f 398 399 393
f 402 401 175
f 402 175 400
f 406 405 404
f 406 404 403
f 406 407 386
f 406 386 408
f 408 409 406
f 188 412 411
f 188 411 410
f 413 414 415
f 50 416 417
f 50 417 193
f 416 418 408
f 416 408 419
f 398 415 421
f 398 421 420
f 414 418 394
f 414 394 399
f 424 423 422
f 424 422 399
f 419 387 426
f 419 426 425
f 419 408 386
f 419 386 387
f 427 428 413
f 427 413 409
f 413 409 408
f 413 408 414
f 418 414 408
f 429 389 388
f 429 388 430
f 205 163 389
f 205 389 429
f 431 432 429
f 431 429 430
f 432 207 205
f 432 205 429
f 433 432 431
f 433 431 434
f 209 207 432
f 209 432 433
f 436 435 433
f 436 433 434
f 435 211 209
f 435 209 433
f 383 435 436
f 383 436 382
f 156 211 435
f 156 435 383
f 378 437 438
f 378 438 381
f 437 214 215
f 437 215 438
f 382 439 437
f 382 437 378
f 439 217 214
f 439 214 437
f 10 384 440
f 10 440 219
f 442 384 381
f 442 381 441
f 391 444 443
f 391 443 388
f 444 225 224
f 444 224 443
f 394 446 445
f 394 445 391
f 446 228 225
f 446 225 445
f 232 449 448
f 232 448 447
f 446 451 450
f 452 236 453
f 452 453 454
f 455 456 457
f 455 457 458
f 460 441 459
f 460 459 458
f 458 461 460
f 462 463 464
f 462 464 249
f 467 466 465
f 468 416 50
f 254 468 50
f 469 460 418
f 469 418 416
f 470 471 467
f 470 467 450
f 451 394 418
f 451 418 466
f 451 472 473
f 451 473 474
f 475 476 442
f 475 442 469
f 442 441 460
f 442 460 469
f 461 465 478
f 461 478 477
f 466 460 461
f 466 461 465
f 460 466 418
f 430 388 443
f 430 443 479
f 479 443 224
f 479 224 266
f 430 479 480
f 430 480 431
f 479 266 268
f 479 268 480
f 434 431 480
f 434 480 481
f 481 480 268
f 481 268 270
f 434 481 482
f 434 482 436
f 481 270 272
f 481 272 482
f 382 436 482
f 382 482 439
f 439 482 272
f 439 272 217
