o 6141
v -0.0024000 0.0000000 -0.0012000
v -0.0022174 0.0009185 -0.0012000
v -0.0022174 0.0009185 -0.0032000
v -0.0024000 0.0000000 -0.0032000
v -0.0016970 0.0016970 -0.0012000
v -0.0016970 0.0016970 -0.0032000
v -0.0009185 0.0022174 -0.0012000
v -0.0009185 0.0022174 -0.0032000
v 0.0000000 0.0024000 -0.0012000
v 0.0000000 0.0024000 -0.0032000
v 0.0009185 0.0022174 -0.0012000
v 0.0009185 0.0022174 -0.0032000
v 0.0016970 0.0016970 -0.0012000
v 0.0016970 0.0016970 -0.0032000
v 0.0022174 0.0009185 -0.0012000
v 0.0022174 0.0009185 -0.0032000
v 0.0024000 0.0000000 -0.0012000
v 0.0024000 0.0000000 -0.0032000
v 0.0022174 -0.0009185 -0.0012000
v 0.0022174 -0.0009185 -0.0032000
v 0.0016970 -0.0016970 -0.0012000
v 0.0016970 -0.0016970 -0.0032000
v 0.0009185 -0.0022174 -0.0012000
v 0.0009185 -0.0022174 -0.0032000
v 0.0000000 -0.0024000 -0.0012000
v 0.0000000 -0.0024000 -0.0032000
v -0.0009185 -0.0022174 -0.0012000
v -0.0009185 -0.0022174 -0.0032000
v -0.0016970 -0.0016970 -0.0012000
v -0.0016970 -0.0016970 -0.0032000
v -0.0022174 -0.0009185 -0.0012000
v -0.0022174 -0.0009185 -0.0032000
v -0.0032000 0.0000000 -0.0012000
v -0.0029565 0.0012246 -0.0012000
v -0.0029565 0.0012246 -0.0032000
v -0.0032000 0.0000000 -0.0032000
v -0.0022627 0.0022627 -0.0012000
v -0.0022627 0.0022627 -0.0032000
v -0.0012246 0.0029565 -0.0012000
v -0.0012246 0.0029565 -0.0032000
v 0.0000000 0.0032000 -0.0012000
v 0.0000000 0.0032000 -0.0032000
v 0.0012246 0.0029565 -0.0012000
v 0.0012246 0.0029565 -0.0032000
v 0.0022627 0.0022627 -0.0012000
v 0.0022627 0.0022627 -0.0032000
v 0.0029565 0.0012246 -0.0012000
v 0.0029565 0.0012246 -0.0032000
v 0.0032000 0.0000000 -0.0012000
v 0.0032000 0.0000000 -0.0032000
v 0.0029565 -0.0012246 -0.0012000
v 0.0029565 -0.0012246 -0.0032000
v 0.0022627 -0.0022627 -0.0012000
v 0.0022627 -0.0022627 -0.0032000
v 0.0012246 -0.0029565 -0.0012000
v 0.0012246 -0.0029565 -0.0032000
v 0.0000000 -0.0032000 -0.0012000
v 0.0000000 -0.0032000 -0.0032000
v -0.0012246 -0.0029565 -0.0012000
v -0.0012246 -0.0029565 -0.0032000
v -0.0022627 -0.0022627 -0.0012000
v -0.0022627 -0.0022627 -0.0032000
v -0.0029565 -0.0012246 -0.0012000
v -0.0029565 -0.0012246 -0.0032000
v 0.0000000 0.0000000 -0.0012000
v 0.0015308 0.0036956 -0.0012000
v 0.0000000 0.0040000 -0.0012000
v 0.0028284 0.0028284 -0.0012000
v 0.0036956 0.0015308 -0.0012000
v 0.0040000 0.0000000 -0.0012000
v 0.0036956 -0.0015308 -0.0012000
v 0.0028284 -0.0028284 -0.0012000
v 0.0015308 -0.0036956 -0.0012000
v 0.0000000 -0.0040000 -0.0012000
v -0.0015308 -0.0036956 -0.0012000
v -0.0028284 -0.0028284 -0.0012000
v -0.0036956 -0.0015308 -0.0012000
v -0.0040000 0.0000000 -0.0012000
v -0.0036956 0.0015308 -0.0012000
v -0.0028284 0.0028284 -0.0012000
v -0.0015308 0.0036956 -0.0012000
v 0.0036956 0.0015308 -0.0000000
v 0.0040000 0.0000000 -0.0000000
v 0.0028284 0.0028284 -0.0000000
v 0.0015308 0.0036956 -0.0000000
v 0.0000000 0.0040000 -0.0000000
v -0.0015308 0.0036956 -0.0000000
v -0.0028284 0.0028284 -0.0000000
v -0.0036956 0.0015308 -0.0000000
v -0.0040000 0.0000000 -0.0000000
v -0.0036956 -0.0015308 -0.0000000
v -0.0028284 -0.0028284 -0.0000000
v -0.0015308 -0.0036956 -0.0000000
v 0.0000000 -0.0040000 -0.0000000
v 0.0015308 -0.0036956 -0.0000000
v 0.0028284 -0.0028284 -0.0000000
v 0.0036956 -0.0015308 -0.0000000
v -0.0012246 0.0029565 -0.0000000
v 0.0000000 0.0032000 -0.0000000
v -0.0022627 0.0022627 -0.0000000
v -0.0029565 0.0012246 -0.0000000
v -0.0032000 0.0000000 -0.0000000
v -0.0029565 -0.0012246 -0.0000000
v -0.0022627 -0.0022627 -0.0000000
v -0.0012246 -0.0029565 -0.0000000
v 0.0000000 -0.0032000 -0.0000000
v 0.0012246 -0.0029565 -0.0000000
v 0.0022627 -0.0022627 -0.0000000
v 0.0029565 -0.0012246 -0.0000000
v 0.0032000 0.0000000 -0.0000000
v 0.0029565 0.0012246 -0.0000000
v 0.0022627 0.0022627 -0.0000000
v 0.0012246 0.0029565 -0.0000000
v -0.0009185 0.0022174 -0.0000000
v 0.0000000 0.0024000 -0.0000000
v -0.0016970 0.0016970 -0.0000000
v -0.0022174 0.0009185 -0.0000000
v -0.0024000 0.0000000 -0.0000000
v -0.0022174 -0.0009185 -0.0000000
v -0.0016970 -0.0016970 -0.0000000
v -0.0009185 -0.0022174 -0.0000000
v 0.0000000 -0.0024000 -0.0000000
v 0.0009185 -0.0022174 -0.0000000
v 0.0016970 -0.0016970 -0.0000000
v 0.0022174 -0.0009185 -0.0000000
v 0.0024000 0.0000000 -0.0000000
v 0.0022174 0.0009185 -0.0000000
v 0.0016970 0.0016970 -0.0000000
v 0.0009185 0.0022174 -0.0000000
v 0.0024000 0.0000000 0.0016000
v 0.0022174 0.0009185 0.0016000
v 0.0016970 0.0016970 0.0016000
v 0.0009185 0.0022174 0.0016000
v 0.0000000 0.0024000 0.0016000
v -0.0009185 0.0022174 0.0016000
v -0.0016970 0.0016970 0.0016000
v -0.0022174 0.0009185 0.0016000
v -0.0024000 0.0000000 0.0016000
v -0.0022174 -0.0009185 0.0016000
v -0.0016970 -0.0016970 0.0016000
v -0.0009185 -0.0022174 0.0016000
v 0.0000000 -0.0024000 0.0016000
v 0.0009185 -0.0022174 0.0016000
v 0.0016970 -0.0016970 0.0016000
v 0.0022174 -0.0009185 0.0016000
v 0.0000000 0.0000000 0.0016000
usemtl c16
f 1 2 3
f 1 3 4
f 2 5 6
f 2 6 3
f 5 7 8
f 5 8 6
f 7 9 10
f 7 10 8
f 9 11 12
f 9 12 10
f 11 13 14
f 11 14 12
f 13 15 16
f 13 16 14
f 15 17 18
f 15 18 16
f 17 19 20
f 17 20 18
f 19 21 22
f 19 22 20
f 21 23 24
f 21 24 22
f 23 25 26
f 23 26 24
f 25 27 28
f 25 28 26
f 27 29 30
f 27 30 28
f 29 31 32
f 29 32 30
f 31 1 4
f 31 4 32
f 33 34 35
f 33 35 36
f 34 37 38
f 34 38 35
f 37 39 40
f 37 40 38
f 39 41 42
f 39 42 40
f 41 43 44
f 41 44 42
f 43 45 46
f 43 46 44
f 45 47 48
f 45 48 46
f 47 49 50
f 47 50 48
f 49 51 52
f 49 52 50
f 51 53 54
f 51 54 52
f 53 55 56
f 53 56 54
f 55 57 58
f 55 58 56
f 57 59 60
f 57 60 58
f 59 61 62
f 59 62 60
f 61 63 64
f 61 64 62
f 63 33 36
f 63 36 64
f 44 12 10
f 44 10 42
f 46 14 12
f 46 12 44
f 48 16 14
f 48 14 46
f 50 18 16
f 50 16 48
f 52 20 18
f 52 18 50
f 54 22 20
f 54 20 52
f 56 24 22
f 56 22 54
f 58 26 24
f 58 24 56
f 60 28 26
f 60 26 58
f 62 30 28
f 62 28 60
f 64 32 30
f 64 30 62
f 36 4 32
f 36 32 64
f 35 3 4
f 35 4 36
f 38 6 3
f 38 3 35
f 40 8 6
f 40 6 38
f 42 10 8
f 42 8 40
f 65 1 2
f 65 2 5
f 65 5 7
f 65 7 9
f 65 9 11
f 65 11 13
f 65 13 15
f 65 15 17
f 65 17 19
f 65 19 21
f 65 21 23
f 65 23 25
f 65 25 27
f 65 27 29
f 65 29 31
f 65 31 1
f 66 43 41
f 66 41 67
f 68 45 43
f 68 43 66
f 69 47 45
f 69 45 68
f 70 49 47
f 70 47 69
f 71 51 49
f 71 49 70
f 72 53 51
f 72 51 71
f 73 55 53
f 73 53 72
f 74 57 55
f 74 55 73
f 75 59 57
f 75 57 74
f 76 61 59
f 76 59 75
f 77 63 61
f 77 61 76
f 78 33 63
f 78 63 77
f 79 34 33
f 79 33 78
f 80 37 34
f 80 34 79
f 81 39 37
f 81 37 80
f 67 41 39
f 67 39 81
f 70 69 82
f 70 82 83
f 69 68 84
f 69 84 82
f 68 66 85
f 68 85 84
f 66 67 86
f 66 86 85
f 67 81 87
f 67 87 86
f 81 80 88
f 81 88 87
f 80 79 89
f 80 89 88
f 79 78 90
f 79 90 89
f 78 77 91
f 78 91 90
f 77 76 92
f 77 92 91
f 76 75 93
f 76 93 92
f 75 74 94
f 75 94 93
f 74 73 95
f 74 95 94
f 73 72 96
f 73 96 95
f 72 71 97
f 72 97 96
f 71 70 83
f 71 83 97
f 87 98 99
f 87 99 86
f 88 100 98
f 88 98 87
f 89 101 100
f 89 100 88
f 90 102 101
f 90 101 89
f 91 103 102
f 91 102 90
f 92 104 103
f 92 103 91
f 93 105 104
f 93 104 92
f 94 106 105
f 94 105 93
f 95 107 106
f 95 106 94
f 96 108 107
f 96 107 95
f 97 109 108
f 97 108 96
f 83 110 109
f 83 109 97
f 82 111 110
f 82 110 83
f 84 112 111
f 84 111 82
f 85 113 112
f 85 112 84
f 86 99 113
f 86 113 85
f 98 114 115
f 98 115 99
f 100 116 114
f 100 114 98
f 101 117 116
f 101 116 100
f 102 118 117
f 102 117 101
f 103 119 118
f 103 118 102
f 104 120 119
f 104 119 103
f 105 121 120
f 105 120 104
f 106 122 121
f 106 121 105
f 107 123 122
f 107 122 106
f 108 124 123
f 108 123 107
f 109 125 124
f 109 124 108
f 110 126 125
f 110 125 109
f 111 127 126
f 111 126 110
f 112 128 127
f 112 127 111
f 113 129 128
f 113 128 112
f 99 115 129
f 99 129 113
f 126 127 131
f 126 131 130
f 127 128 132
f 127 132 131
f 128 129 133
f 128 133 132
f 129 115 134
f 129 134 133
f 115 114 135
f 115 135 134
f 114 116 136
f 114 136 135
f 116 117 137
f 116 137 136
f 117 118 138
f 117 138 137
f 118 119 139
f 118 139 138
f 119 120 140
f 119 140 139
f 120 121 141
f 120 141 140
f 121 122 142
f 121 142 141
f 122 123 143
f 122 143 142
f 123 124 144
f 123 144 143
f 124 125 145
f 124 145 144
f 125 126 130
f 125 130 145
f 146 130 131
f 146 131 132
f 146 132 133
f 146 133 134
f 146 134 135
f 146 135 136
f 146 136 137
f 146 137 138
f 146 138 139
f 146 139 140
f 146 140 141
f 146 141 142
f 146 142 143
f 146 143 144
f 146 144 145
f 146 145 130
